M48
METRIC,LZ,000.000
;FILE_FORMAT=3:3
;TYPE=PLATED
;Layer: Drill PTH
;EasyEDA v6.4.25, 2021-10-09T00:25:21+02:00
;2177c25503544fa0b13e01c7088fd064,4245c91a3b6e4cf7aa995480f5c7e4a3,10
;Gerber Generator version 0.2
;Holesize 1 = 0.351 mm
T01C0.351
;Holesize 2 = 0.400 mm
T02C0.400
;Holesize 3 = 0.901 mm
T03C0.901
;Holesize 4 = 1.016 mm
T04C1.016
%
G05
G90
T01
X010403Y189847
X010403Y187348
X010403Y184847
X010403Y182348
X012903Y189847
X012903Y187348
X012903Y184847
X012903Y182348
X015403Y189847
X015403Y187348
X017903Y189847
X017903Y184847
X017903Y182348
X020403Y187348
X020403Y184847
X020403Y182348
X022903Y189847
X022903Y187348
X022903Y184847
X022903Y182348
X025403Y189847
X025403Y187348
X025403Y184847
X025403Y182348
X027903Y189847
X027903Y187348
X027903Y184847
X027903Y182348
X030403Y189847
X030403Y187348
X030403Y184847
X030403Y182348
X032903Y189847
X032903Y187348
X032903Y184847
X032903Y182348
X038102Y196880
X038102Y194380
X038102Y179380
X038102Y176880
X038102Y174380
X040602Y194380
X040602Y184380
X040602Y181880
X040602Y179380
X040602Y176880
X040602Y174380
T02
X018046Y179914
X022352Y194691
T03
X011049Y192532G85X011049Y192532
X013589Y192532G85X013589Y192532
X016129Y192532G85X016129Y192532
X018669Y192532G85X018669Y192532
X021209Y192532G85X021209Y192532
X023749Y192532G85X023749Y192532
X026289Y192532G85X026289Y192532
X028829Y192532G85X028829Y192532
X031369Y192532G85X031369Y192532
X033909Y192532G85X033909Y192532
X011049Y177292G85X011049Y177292
X013589Y177292G85X013589Y177292
X016129Y177292G85X016129Y177292
X018669Y177292G85X018669Y177292
X021209Y177292G85X021209Y177292
X023749Y177292G85X023749Y177292
X026289Y177292G85X026289Y177292
X028829Y177292G85X028829Y177292
X031369Y177292G85X031369Y177292
X033909Y177292G85X033909Y177292
T04
X034036Y196342
X016256Y173482
X018796Y173482
X021336Y173482
X023876Y173482
X026416Y173482
X028956Y173482
X031496Y173482
X034036Y173482
X016256Y196342
X018796Y196342
X021336Y196342
X023876Y196342
X026416Y196342
X028956Y196342
X031496Y196342
M30
