G04 Layer: TopLayer*
G04 EasyEDA v6.4.25, 2021-10-09T00:25:21+02:00*
G04 2177c25503544fa0b13e01c7088fd064,4245c91a3b6e4cf7aa995480f5c7e4a3,10*
G04 Gerber Generator version 0.2*
G04 Scale: 100 percent, Rotated: No, Reflected: No *
G04 Dimensions in millimeters *
G04 leading zeros omitted , absolute positions ,4 integer and 5 decimal *
%FSLAX45Y45*%
%MOMM*%

%ADD11C,1.3000*%
%ADD12C,0.2500*%
%ADD13C,0.8000*%
%ADD14C,0.7000*%
%ADD15C,1.0000*%
%ADD16C,1.7780*%
%ADD17C,1.8288*%

%LPD*%
G36*
X734568Y17209008D02*
G01*
X730656Y17209770D01*
X727405Y17212005D01*
X725170Y17215256D01*
X724408Y17219168D01*
X724408Y19636232D01*
X725170Y19640143D01*
X727405Y19643394D01*
X730656Y19645630D01*
X734568Y19646392D01*
X1345793Y19646392D01*
X1349603Y19646696D01*
X1356664Y19648728D01*
X1361541Y19651472D01*
X1364792Y19654266D01*
X1480972Y19770394D01*
X1484274Y19772630D01*
X1488135Y19773392D01*
X3903472Y19773392D01*
X3909669Y19773950D01*
X3925620Y19773290D01*
X3946956Y19770699D01*
X3968089Y19766483D01*
X3988765Y19760641D01*
X4008932Y19753122D01*
X4028490Y19744131D01*
X4047236Y19733564D01*
X4065117Y19721576D01*
X4081983Y19708215D01*
X4097782Y19693585D01*
X4112361Y19677786D01*
X4125671Y19660870D01*
X4137558Y19642937D01*
X4148074Y19624141D01*
X4157065Y19604634D01*
X4164482Y19584416D01*
X4170273Y19563689D01*
X4174439Y19542556D01*
X4176928Y19521220D01*
X4177792Y19499427D01*
X4177792Y17483785D01*
X4176877Y17461179D01*
X4174337Y17439843D01*
X4170070Y17418710D01*
X4164228Y17398034D01*
X4156760Y17377867D01*
X4147718Y17358309D01*
X4137151Y17339564D01*
X4125163Y17321682D01*
X4111853Y17304816D01*
X4097223Y17289018D01*
X4081373Y17274438D01*
X4064457Y17261128D01*
X4046575Y17249241D01*
X4027779Y17238726D01*
X4008221Y17229734D01*
X3988003Y17222317D01*
X3967276Y17216526D01*
X3946194Y17212360D01*
X3924808Y17209871D01*
X3903014Y17209008D01*
G37*

%LPC*%
G36*
X1931670Y17243298D02*
G01*
X1936140Y17245380D01*
X1948586Y17253254D01*
X1959914Y17262652D01*
X1970024Y17273422D01*
X1978660Y17285309D01*
X1984603Y17296130D01*
X1931670Y17296130D01*
G37*
G36*
X1625600Y17230852D02*
G01*
X1640281Y17231817D01*
X1654759Y17234560D01*
X1668780Y17239132D01*
X1682140Y17245380D01*
X1694586Y17253254D01*
X1705914Y17262652D01*
X1716024Y17273422D01*
X1724660Y17285309D01*
X1731772Y17298263D01*
X1737207Y17311928D01*
X1740865Y17326203D01*
X1742693Y17340834D01*
X1742693Y17355566D01*
X1740865Y17370196D01*
X1737207Y17384471D01*
X1731772Y17398136D01*
X1724660Y17411090D01*
X1716024Y17422977D01*
X1705914Y17433747D01*
X1698701Y17439690D01*
X1696110Y17442891D01*
X1695043Y17446904D01*
X1695602Y17450968D01*
X1697786Y17454473D01*
X1701139Y17456861D01*
X1705203Y17457674D01*
X1799996Y17457674D01*
X1804060Y17456861D01*
X1807413Y17454473D01*
X1809597Y17450968D01*
X1810156Y17446904D01*
X1809089Y17442891D01*
X1806498Y17439690D01*
X1799285Y17433747D01*
X1789175Y17422977D01*
X1780539Y17411090D01*
X1774596Y17400270D01*
X1827530Y17400270D01*
X1827530Y17447514D01*
X1828292Y17451425D01*
X1830527Y17454727D01*
X1833778Y17456912D01*
X1837689Y17457674D01*
X1898650Y17457674D01*
X1902561Y17456912D01*
X1905863Y17454727D01*
X1928672Y17431867D01*
X1930907Y17428565D01*
X1931670Y17424704D01*
X1931670Y17400270D01*
X1956104Y17400270D01*
X1959965Y17399508D01*
X1963267Y17397272D01*
X2013559Y17346980D01*
X2015540Y17344288D01*
X2016455Y17341088D01*
X2018334Y17326203D01*
X2021992Y17311928D01*
X2027428Y17298263D01*
X2034539Y17285309D01*
X2043175Y17273422D01*
X2053285Y17262652D01*
X2064613Y17253254D01*
X2077059Y17245380D01*
X2090420Y17239132D01*
X2104440Y17234560D01*
X2118918Y17231817D01*
X2133600Y17230852D01*
X2148281Y17231817D01*
X2162759Y17234560D01*
X2176780Y17239132D01*
X2190140Y17245380D01*
X2202586Y17253254D01*
X2213914Y17262652D01*
X2224024Y17273422D01*
X2232660Y17285309D01*
X2239772Y17298263D01*
X2245207Y17311928D01*
X2248865Y17326203D01*
X2250541Y17339462D01*
X2251862Y17343374D01*
X2254707Y17346422D01*
X2258517Y17348098D01*
X2262682Y17348098D01*
X2266492Y17346422D01*
X2269337Y17343374D01*
X2270658Y17339462D01*
X2272334Y17326203D01*
X2275992Y17311928D01*
X2281428Y17298263D01*
X2288540Y17285309D01*
X2297176Y17273422D01*
X2307285Y17262652D01*
X2318613Y17253254D01*
X2331059Y17245380D01*
X2344420Y17239132D01*
X2358440Y17234560D01*
X2372918Y17231817D01*
X2387600Y17230852D01*
X2402281Y17231817D01*
X2416759Y17234560D01*
X2430780Y17239132D01*
X2444140Y17245380D01*
X2456586Y17253254D01*
X2467914Y17262652D01*
X2478024Y17273422D01*
X2486660Y17285309D01*
X2493772Y17298263D01*
X2499207Y17311928D01*
X2502865Y17326203D01*
X2504541Y17339462D01*
X2505862Y17343374D01*
X2508707Y17346422D01*
X2512517Y17348098D01*
X2516682Y17348098D01*
X2520492Y17346422D01*
X2523337Y17343374D01*
X2524658Y17339462D01*
X2526334Y17326203D01*
X2529992Y17311928D01*
X2535428Y17298263D01*
X2542540Y17285309D01*
X2551176Y17273422D01*
X2561285Y17262652D01*
X2572613Y17253254D01*
X2585059Y17245380D01*
X2598420Y17239132D01*
X2612440Y17234560D01*
X2626918Y17231817D01*
X2641600Y17230852D01*
X2656281Y17231817D01*
X2670759Y17234560D01*
X2684780Y17239132D01*
X2698140Y17245380D01*
X2710586Y17253254D01*
X2721914Y17262652D01*
X2732024Y17273422D01*
X2740660Y17285309D01*
X2747772Y17298263D01*
X2753207Y17311928D01*
X2756865Y17326203D01*
X2758541Y17339462D01*
X2759862Y17343374D01*
X2762707Y17346422D01*
X2766517Y17348098D01*
X2770682Y17348098D01*
X2774492Y17346422D01*
X2777337Y17343374D01*
X2778658Y17339462D01*
X2780334Y17326203D01*
X2783992Y17311928D01*
X2789428Y17298263D01*
X2796540Y17285309D01*
X2805176Y17273422D01*
X2815285Y17262652D01*
X2826613Y17253254D01*
X2839059Y17245380D01*
X2852420Y17239132D01*
X2866440Y17234560D01*
X2880918Y17231817D01*
X2895600Y17230852D01*
X2910281Y17231817D01*
X2924759Y17234560D01*
X2938780Y17239132D01*
X2952140Y17245380D01*
X2964586Y17253254D01*
X2975914Y17262652D01*
X2986024Y17273422D01*
X2994660Y17285309D01*
X3001772Y17298263D01*
X3007207Y17311928D01*
X3010865Y17326203D01*
X3012541Y17339462D01*
X3013862Y17343374D01*
X3016707Y17346422D01*
X3020517Y17348098D01*
X3024682Y17348098D01*
X3028492Y17346422D01*
X3031337Y17343374D01*
X3032658Y17339462D01*
X3034334Y17326203D01*
X3037992Y17311928D01*
X3043428Y17298263D01*
X3050540Y17285309D01*
X3059176Y17273422D01*
X3069285Y17262652D01*
X3080613Y17253254D01*
X3093059Y17245380D01*
X3106420Y17239132D01*
X3120440Y17234560D01*
X3134918Y17231817D01*
X3149600Y17230852D01*
X3164281Y17231817D01*
X3178759Y17234560D01*
X3192780Y17239132D01*
X3206140Y17245380D01*
X3218586Y17253254D01*
X3229914Y17262652D01*
X3240024Y17273422D01*
X3248660Y17285309D01*
X3255772Y17298263D01*
X3261207Y17311928D01*
X3264865Y17326203D01*
X3266541Y17339462D01*
X3267862Y17343374D01*
X3270707Y17346422D01*
X3274517Y17348098D01*
X3278682Y17348098D01*
X3282492Y17346422D01*
X3285337Y17343374D01*
X3286658Y17339462D01*
X3288334Y17326203D01*
X3291992Y17311928D01*
X3297428Y17298263D01*
X3304540Y17285309D01*
X3313176Y17273422D01*
X3323285Y17262652D01*
X3334613Y17253254D01*
X3347059Y17245380D01*
X3360420Y17239132D01*
X3374440Y17234560D01*
X3388918Y17231817D01*
X3403600Y17230852D01*
X3418281Y17231817D01*
X3432759Y17234560D01*
X3446779Y17239132D01*
X3460140Y17245380D01*
X3472586Y17253254D01*
X3483914Y17262652D01*
X3494024Y17273422D01*
X3502660Y17285309D01*
X3509772Y17298263D01*
X3515207Y17311928D01*
X3518865Y17326203D01*
X3520694Y17340834D01*
X3520694Y17355566D01*
X3518865Y17370196D01*
X3515207Y17384471D01*
X3511702Y17393310D01*
X3510991Y17397171D01*
X3511753Y17400981D01*
X3513937Y17404232D01*
X3558235Y17448530D01*
X3563315Y17454727D01*
X3566871Y17461331D01*
X3569055Y17468545D01*
X3569817Y17476520D01*
X3569817Y17771770D01*
X3569055Y17779746D01*
X3566871Y17786959D01*
X3563315Y17793563D01*
X3558235Y17799761D01*
X3470757Y17887238D01*
X3464560Y17892369D01*
X3457905Y17895874D01*
X3451606Y17897805D01*
X3447999Y17899786D01*
X3445459Y17902986D01*
X3444392Y17906949D01*
X3445001Y17911013D01*
X3447135Y17914518D01*
X3450539Y17916855D01*
X3454552Y17917668D01*
X3568446Y17917668D01*
X3578148Y17918176D01*
X3590391Y17920309D01*
X3593033Y17921020D01*
X3604768Y17925135D01*
X3615791Y17930825D01*
X3623767Y17936260D01*
X3625951Y17937988D01*
X3633165Y17944490D01*
X3747109Y18058434D01*
X3753612Y18065648D01*
X3755339Y18067832D01*
X3760774Y18075808D01*
X3766464Y18086832D01*
X3770579Y18098566D01*
X3771290Y18101208D01*
X3773424Y18113451D01*
X3773932Y18123154D01*
X3773932Y18547334D01*
X3774846Y18551550D01*
X3777487Y18555055D01*
X3781298Y18557087D01*
X3785666Y18557341D01*
X3791965Y18554700D01*
X4107434Y18554700D01*
X4108450Y18555716D01*
X4108450Y19341084D01*
X4107434Y19342100D01*
X3791965Y19342100D01*
X3785565Y19339204D01*
X3781348Y19339306D01*
X3777538Y19341084D01*
X3774795Y19344284D01*
X3773576Y19348297D01*
X3773068Y19354495D01*
X3771290Y19363791D01*
X3770579Y19366433D01*
X3766464Y19378168D01*
X3760774Y19389191D01*
X3755339Y19397167D01*
X3753612Y19399351D01*
X3747109Y19406565D01*
X3645865Y19507809D01*
X3638651Y19514312D01*
X3636467Y19516039D01*
X3628491Y19521474D01*
X3617468Y19527164D01*
X3605733Y19531279D01*
X3603091Y19531990D01*
X3590848Y19534124D01*
X3581146Y19534632D01*
X3494176Y19534632D01*
X3490366Y19535343D01*
X3487064Y19537527D01*
X3484879Y19540728D01*
X3484016Y19544538D01*
X3484727Y19548398D01*
X3486759Y19551700D01*
X3494024Y19559422D01*
X3502660Y19571309D01*
X3509772Y19584263D01*
X3515207Y19597928D01*
X3518865Y19612203D01*
X3520694Y19626834D01*
X3520694Y19641566D01*
X3518865Y19656196D01*
X3515207Y19670471D01*
X3509772Y19684136D01*
X3502660Y19697090D01*
X3494024Y19708977D01*
X3483914Y19719747D01*
X3472586Y19729145D01*
X3460140Y19737019D01*
X3446779Y19743267D01*
X3432759Y19747839D01*
X3418281Y19750582D01*
X3403600Y19751548D01*
X3388918Y19750582D01*
X3374440Y19747839D01*
X3360420Y19743267D01*
X3347059Y19737019D01*
X3334613Y19729145D01*
X3323285Y19719747D01*
X3313176Y19708977D01*
X3304540Y19697090D01*
X3297428Y19684136D01*
X3291992Y19670471D01*
X3288334Y19656196D01*
X3286658Y19642937D01*
X3285337Y19639026D01*
X3282492Y19635978D01*
X3278682Y19634301D01*
X3274517Y19634301D01*
X3270707Y19635978D01*
X3267862Y19639026D01*
X3266541Y19642937D01*
X3264865Y19656196D01*
X3261207Y19670471D01*
X3255772Y19684136D01*
X3248660Y19697090D01*
X3240024Y19708977D01*
X3229914Y19719747D01*
X3218586Y19729145D01*
X3206140Y19737019D01*
X3192780Y19743267D01*
X3178759Y19747839D01*
X3164281Y19750582D01*
X3149600Y19751548D01*
X3134918Y19750582D01*
X3120440Y19747839D01*
X3106420Y19743267D01*
X3093059Y19737019D01*
X3080613Y19729145D01*
X3069285Y19719747D01*
X3059176Y19708977D01*
X3050540Y19697090D01*
X3043428Y19684136D01*
X3037992Y19670471D01*
X3034334Y19656196D01*
X3032658Y19642937D01*
X3031337Y19639026D01*
X3028492Y19635978D01*
X3024682Y19634301D01*
X3020517Y19634301D01*
X3016707Y19635978D01*
X3013862Y19639026D01*
X3012541Y19642937D01*
X3010865Y19656196D01*
X3007207Y19670471D01*
X3001772Y19684136D01*
X2994660Y19697090D01*
X2986024Y19708977D01*
X2975914Y19719747D01*
X2964586Y19729145D01*
X2952140Y19737019D01*
X2938780Y19743267D01*
X2924759Y19747839D01*
X2910281Y19750582D01*
X2895600Y19751548D01*
X2880918Y19750582D01*
X2866440Y19747839D01*
X2852420Y19743267D01*
X2839059Y19737019D01*
X2826613Y19729145D01*
X2815285Y19719747D01*
X2805176Y19708977D01*
X2796540Y19697090D01*
X2789428Y19684136D01*
X2783992Y19670471D01*
X2780334Y19656196D01*
X2778658Y19642937D01*
X2777337Y19639026D01*
X2774492Y19635978D01*
X2770682Y19634301D01*
X2766517Y19634301D01*
X2762707Y19635978D01*
X2759862Y19639026D01*
X2758541Y19642937D01*
X2756865Y19656196D01*
X2753207Y19670471D01*
X2747772Y19684136D01*
X2740660Y19697090D01*
X2732024Y19708977D01*
X2721914Y19719747D01*
X2710586Y19729145D01*
X2698140Y19737019D01*
X2684780Y19743267D01*
X2670759Y19747839D01*
X2656281Y19750582D01*
X2641600Y19751548D01*
X2626918Y19750582D01*
X2612440Y19747839D01*
X2598420Y19743267D01*
X2585059Y19737019D01*
X2572613Y19729145D01*
X2561285Y19719747D01*
X2551176Y19708977D01*
X2542540Y19697090D01*
X2535428Y19684136D01*
X2529992Y19670471D01*
X2526334Y19656196D01*
X2524658Y19642937D01*
X2523337Y19639026D01*
X2520492Y19635978D01*
X2516682Y19634301D01*
X2512517Y19634301D01*
X2508707Y19635978D01*
X2505862Y19639026D01*
X2504541Y19642937D01*
X2502865Y19656196D01*
X2499207Y19670471D01*
X2493772Y19684136D01*
X2486660Y19697090D01*
X2478024Y19708977D01*
X2467914Y19719747D01*
X2456586Y19729145D01*
X2444140Y19737019D01*
X2430780Y19743267D01*
X2416759Y19747839D01*
X2402281Y19750582D01*
X2387600Y19751548D01*
X2372918Y19750582D01*
X2358440Y19747839D01*
X2344420Y19743267D01*
X2331059Y19737019D01*
X2318613Y19729145D01*
X2307285Y19719747D01*
X2297176Y19708977D01*
X2288540Y19697090D01*
X2281428Y19684136D01*
X2275992Y19670471D01*
X2272334Y19656196D01*
X2270658Y19642937D01*
X2269337Y19639026D01*
X2266492Y19635978D01*
X2262682Y19634301D01*
X2258517Y19634301D01*
X2254707Y19635978D01*
X2251862Y19639026D01*
X2250541Y19642937D01*
X2248865Y19656196D01*
X2245207Y19670471D01*
X2239772Y19684136D01*
X2232660Y19697090D01*
X2224024Y19708977D01*
X2213914Y19719747D01*
X2202586Y19729145D01*
X2190140Y19737019D01*
X2176780Y19743267D01*
X2162759Y19747839D01*
X2148281Y19750582D01*
X2133600Y19751548D01*
X2118918Y19750582D01*
X2104440Y19747839D01*
X2090420Y19743267D01*
X2077059Y19737019D01*
X2064613Y19729145D01*
X2053285Y19719747D01*
X2043175Y19708977D01*
X2034539Y19697090D01*
X2027428Y19684136D01*
X2021992Y19670471D01*
X2018334Y19656196D01*
X2016658Y19642937D01*
X2015337Y19639026D01*
X2012492Y19635978D01*
X2008682Y19634301D01*
X2004517Y19634301D01*
X2000707Y19635978D01*
X1997862Y19639026D01*
X1996541Y19642937D01*
X1994865Y19656196D01*
X1991207Y19670471D01*
X1985772Y19684136D01*
X1978660Y19697090D01*
X1970024Y19708977D01*
X1959914Y19719747D01*
X1948586Y19729145D01*
X1936140Y19737019D01*
X1922780Y19743267D01*
X1908759Y19747839D01*
X1894281Y19750582D01*
X1879600Y19751548D01*
X1864918Y19750582D01*
X1850440Y19747839D01*
X1836420Y19743267D01*
X1823059Y19737019D01*
X1810613Y19729145D01*
X1799285Y19719747D01*
X1789175Y19708977D01*
X1780539Y19697090D01*
X1773428Y19684136D01*
X1767992Y19670471D01*
X1764334Y19656196D01*
X1762658Y19642937D01*
X1761337Y19639026D01*
X1758492Y19635978D01*
X1754682Y19634301D01*
X1750517Y19634301D01*
X1746707Y19635978D01*
X1743862Y19639026D01*
X1742541Y19642937D01*
X1740865Y19656196D01*
X1737207Y19670471D01*
X1731772Y19684136D01*
X1724660Y19697090D01*
X1716024Y19708977D01*
X1705914Y19719747D01*
X1694586Y19729145D01*
X1682140Y19737019D01*
X1668780Y19743267D01*
X1654759Y19747839D01*
X1640281Y19750582D01*
X1625600Y19751548D01*
X1610918Y19750582D01*
X1596440Y19747839D01*
X1582420Y19743267D01*
X1569059Y19737019D01*
X1556613Y19729145D01*
X1545285Y19719747D01*
X1535176Y19708977D01*
X1526540Y19697090D01*
X1519428Y19684136D01*
X1513992Y19670471D01*
X1510334Y19656196D01*
X1508506Y19641566D01*
X1508506Y19626834D01*
X1510334Y19612203D01*
X1513992Y19597928D01*
X1519428Y19584263D01*
X1526540Y19571309D01*
X1532737Y19562775D01*
X1534210Y19559930D01*
X1534668Y19556831D01*
X1534668Y19494754D01*
X1535226Y19484492D01*
X1534617Y19480479D01*
X1532534Y19477024D01*
X1529232Y19474637D01*
X1525270Y19473773D01*
X1521307Y19474535D01*
X1517904Y19476770D01*
X1436065Y19558609D01*
X1428851Y19565112D01*
X1426667Y19566839D01*
X1418691Y19572274D01*
X1407668Y19577964D01*
X1395933Y19582079D01*
X1393291Y19582790D01*
X1381048Y19584924D01*
X1371346Y19585432D01*
X990853Y19585432D01*
X981151Y19584924D01*
X968908Y19582790D01*
X966266Y19582079D01*
X954532Y19577964D01*
X943508Y19572274D01*
X935532Y19566839D01*
X933348Y19565112D01*
X926134Y19558609D01*
X799490Y19431965D01*
X792988Y19424751D01*
X791260Y19422567D01*
X785825Y19414591D01*
X780135Y19403568D01*
X776020Y19391833D01*
X775309Y19389191D01*
X773176Y19376948D01*
X772668Y19367246D01*
X772668Y17589754D01*
X773176Y17580051D01*
X775309Y17567808D01*
X776020Y17565166D01*
X780135Y17553432D01*
X785825Y17542408D01*
X791260Y17534432D01*
X792988Y17532248D01*
X799490Y17525034D01*
X1040434Y17284090D01*
X1047648Y17277588D01*
X1049832Y17275860D01*
X1057808Y17270425D01*
X1068832Y17264735D01*
X1080566Y17260620D01*
X1083208Y17259909D01*
X1095451Y17257776D01*
X1105154Y17257268D01*
X1548130Y17257268D01*
X1551584Y17256709D01*
X1554581Y17254982D01*
X1556613Y17253254D01*
X1569059Y17245380D01*
X1582420Y17239132D01*
X1596440Y17234560D01*
X1610918Y17231817D01*
G37*
G36*
X1827530Y17243298D02*
G01*
X1827530Y17296130D01*
X1774596Y17296130D01*
X1780539Y17285309D01*
X1789175Y17273422D01*
X1799285Y17262652D01*
X1810613Y17253254D01*
X1823059Y17245380D01*
G37*

%LPD*%
G36*
X1177696Y17534483D02*
G01*
X1173784Y17535296D01*
X1170533Y17537480D01*
X1110132Y17597882D01*
X1107744Y17601692D01*
X1107186Y17606162D01*
X1108659Y17610378D01*
X1111808Y17613579D01*
X1116025Y17615154D01*
X1126388Y17616424D01*
X1140358Y17620030D01*
X1153769Y17625314D01*
X1166418Y17632273D01*
X1178052Y17640757D01*
X1188567Y17650612D01*
X1197762Y17661737D01*
X1205484Y17673878D01*
X1211630Y17686934D01*
X1216101Y17700650D01*
X1218793Y17714823D01*
X1219708Y17729200D01*
X1218793Y17743576D01*
X1216101Y17757749D01*
X1211630Y17771465D01*
X1205484Y17784521D01*
X1197762Y17796662D01*
X1188567Y17807787D01*
X1178052Y17817642D01*
X1166418Y17826126D01*
X1153769Y17833086D01*
X1140358Y17838369D01*
X1126388Y17841976D01*
X1113332Y17843601D01*
X1109116Y17845125D01*
X1105966Y17848326D01*
X1104493Y17852593D01*
X1105052Y17857063D01*
X1107440Y17860873D01*
X1196594Y17950027D01*
X1199896Y17952212D01*
X1203807Y17953024D01*
X1746250Y17953024D01*
X1749348Y17952516D01*
X1752142Y17951145D01*
X1755292Y17947741D01*
X1762963Y17940375D01*
X1771700Y17934381D01*
X1781251Y17929809D01*
X1791462Y17926862D01*
X1801977Y17925592D01*
X1812543Y17925999D01*
X1822957Y17928132D01*
X1832864Y17931892D01*
X1842058Y17937226D01*
X1850237Y17943931D01*
X1857298Y17951856D01*
X1862937Y17960797D01*
X1867103Y17970550D01*
X1869643Y17980863D01*
X1870506Y17991429D01*
X1869643Y18001996D01*
X1867103Y18012257D01*
X1862937Y18022011D01*
X1857298Y18031002D01*
X1850237Y18038927D01*
X1842058Y18045633D01*
X1832864Y18050916D01*
X1822957Y18054675D01*
X1812543Y18056809D01*
X1801977Y18057215D01*
X1791462Y18055945D01*
X1781251Y18052999D01*
X1771700Y18048478D01*
X1762963Y18042432D01*
X1755292Y18035117D01*
X1752142Y18031714D01*
X1749348Y18030291D01*
X1746250Y18029834D01*
X1184148Y18029834D01*
X1176172Y18029021D01*
X1169009Y18026837D01*
X1162354Y18023332D01*
X1156157Y18018201D01*
X971854Y17833898D01*
X968552Y17831714D01*
X964692Y17830952D01*
X960780Y17831714D01*
X957478Y17833898D01*
X955294Y17837200D01*
X954532Y17841112D01*
X954532Y19325640D01*
X955294Y19329501D01*
X957478Y19332803D01*
X1025296Y19400621D01*
X1028598Y19402806D01*
X1032459Y19403568D01*
X1329740Y19403568D01*
X1333601Y19402806D01*
X1336903Y19400621D01*
X1406702Y19330822D01*
X1408938Y19327520D01*
X1409700Y19323608D01*
X1409700Y19304000D01*
X1429308Y19304000D01*
X1433220Y19303238D01*
X1436522Y19301002D01*
X1496872Y19240652D01*
X1498650Y19238214D01*
X1499666Y19235369D01*
X1501698Y19224650D01*
X1506169Y19210934D01*
X1512316Y19197878D01*
X1520037Y19185737D01*
X1529232Y19174612D01*
X1539748Y19164757D01*
X1551381Y19156273D01*
X1564030Y19149314D01*
X1577441Y19144030D01*
X1591411Y19140424D01*
X1605686Y19138646D01*
X1620113Y19138646D01*
X1634388Y19140424D01*
X1648358Y19144030D01*
X1661769Y19149314D01*
X1674418Y19156273D01*
X1686052Y19164757D01*
X1696567Y19174612D01*
X1705762Y19185737D01*
X1713484Y19197878D01*
X1719630Y19210934D01*
X1724101Y19224650D01*
X1726793Y19238823D01*
X1726895Y19240754D01*
X1727860Y19244513D01*
X1730146Y19247612D01*
X1733448Y19249644D01*
X1737258Y19250304D01*
X1741017Y19249491D01*
X1744218Y19247307D01*
X1750872Y19240652D01*
X1752650Y19238214D01*
X1753666Y19235369D01*
X1755698Y19224650D01*
X1760169Y19210934D01*
X1766316Y19197878D01*
X1774037Y19185737D01*
X1783232Y19174612D01*
X1793748Y19164757D01*
X1805381Y19156273D01*
X1818030Y19149314D01*
X1831441Y19144030D01*
X1845411Y19140424D01*
X1859686Y19138646D01*
X1874113Y19138646D01*
X1888388Y19140424D01*
X1902358Y19144030D01*
X1915769Y19149314D01*
X1928418Y19156273D01*
X1940052Y19164757D01*
X1950567Y19174612D01*
X1959762Y19185737D01*
X1967484Y19197878D01*
X1973630Y19210934D01*
X1978101Y19224650D01*
X1980793Y19238823D01*
X1981707Y19253200D01*
X1980793Y19267576D01*
X1978101Y19281749D01*
X1973630Y19295465D01*
X1967484Y19308521D01*
X1959762Y19320662D01*
X1950567Y19331787D01*
X1940052Y19341642D01*
X1928418Y19350126D01*
X1915769Y19357086D01*
X1902358Y19362369D01*
X1888388Y19365976D01*
X1885340Y19366331D01*
X1882139Y19367296D01*
X1879447Y19369227D01*
X1719478Y19529196D01*
X1717293Y19532498D01*
X1716532Y19536359D01*
X1716532Y19556831D01*
X1716989Y19559930D01*
X1718462Y19562775D01*
X1724660Y19571309D01*
X1731772Y19584263D01*
X1737207Y19597928D01*
X1740865Y19612203D01*
X1742541Y19625462D01*
X1743862Y19629374D01*
X1746707Y19632422D01*
X1750517Y19634098D01*
X1754682Y19634098D01*
X1758492Y19632422D01*
X1761337Y19629374D01*
X1762658Y19625462D01*
X1764334Y19612203D01*
X1767992Y19597928D01*
X1773428Y19584263D01*
X1780539Y19571309D01*
X1789175Y19559422D01*
X1799285Y19548652D01*
X1810613Y19539254D01*
X1823059Y19531380D01*
X1836420Y19525132D01*
X1850440Y19520560D01*
X1864918Y19517817D01*
X1879600Y19516852D01*
X1894281Y19517817D01*
X1908759Y19520560D01*
X1922780Y19525132D01*
X1936140Y19531380D01*
X1948586Y19539254D01*
X1959914Y19548652D01*
X1970024Y19559422D01*
X1978660Y19571309D01*
X1985772Y19584263D01*
X1991207Y19597928D01*
X1994865Y19612203D01*
X1996541Y19625462D01*
X1997862Y19629374D01*
X2000707Y19632422D01*
X2004517Y19634098D01*
X2008682Y19634098D01*
X2012492Y19632422D01*
X2015337Y19629374D01*
X2016658Y19625462D01*
X2018334Y19612203D01*
X2021992Y19597928D01*
X2027428Y19584263D01*
X2034539Y19571309D01*
X2043175Y19559422D01*
X2053285Y19548652D01*
X2064613Y19539254D01*
X2077059Y19531380D01*
X2090420Y19525132D01*
X2104440Y19520560D01*
X2118918Y19517817D01*
X2133600Y19516852D01*
X2148281Y19517817D01*
X2155037Y19519087D01*
X2159508Y19518934D01*
X2163419Y19516902D01*
X2166162Y19513397D01*
X2167128Y19509079D01*
X2166112Y19504761D01*
X2163419Y19501256D01*
X2156866Y19495922D01*
X2094077Y19433133D01*
X2088997Y19426936D01*
X2085441Y19420281D01*
X2083257Y19413067D01*
X2082495Y19405092D01*
X2082495Y19368109D01*
X2081682Y19364198D01*
X2079447Y19360845D01*
X2076094Y19358660D01*
X2072030Y19357086D01*
X2059381Y19350126D01*
X2047748Y19341642D01*
X2037232Y19331787D01*
X2028037Y19320662D01*
X2020316Y19308521D01*
X2014169Y19295465D01*
X2009698Y19281749D01*
X2007006Y19267576D01*
X2006092Y19253200D01*
X2007006Y19238823D01*
X2009698Y19224650D01*
X2014169Y19210934D01*
X2020316Y19197878D01*
X2028037Y19185737D01*
X2037232Y19174612D01*
X2047748Y19164757D01*
X2059381Y19156273D01*
X2072030Y19149314D01*
X2085441Y19144030D01*
X2099411Y19140424D01*
X2113686Y19138646D01*
X2128113Y19138646D01*
X2142388Y19140424D01*
X2156358Y19144030D01*
X2169769Y19149314D01*
X2182418Y19156273D01*
X2194052Y19164757D01*
X2204567Y19174612D01*
X2213762Y19185737D01*
X2221484Y19197878D01*
X2227630Y19210934D01*
X2232101Y19224650D01*
X2234793Y19238823D01*
X2235708Y19253200D01*
X2234793Y19267576D01*
X2232101Y19281749D01*
X2227630Y19295465D01*
X2221484Y19308521D01*
X2213762Y19320662D01*
X2204567Y19331787D01*
X2194052Y19341642D01*
X2182418Y19350126D01*
X2169769Y19357086D01*
X2165705Y19358660D01*
X2162352Y19360845D01*
X2160117Y19364198D01*
X2159304Y19368109D01*
X2159304Y19385483D01*
X2160066Y19389394D01*
X2162302Y19392646D01*
X2184095Y19414490D01*
X2186990Y19416471D01*
X2190343Y19417385D01*
X2193848Y19417131D01*
X2197049Y19415658D01*
X2202281Y19412051D01*
X2211832Y19407530D01*
X2222042Y19404533D01*
X2232558Y19403263D01*
X2243124Y19403720D01*
X2253538Y19405803D01*
X2263444Y19409562D01*
X2272639Y19414896D01*
X2280818Y19421602D01*
X2287879Y19429526D01*
X2293518Y19438467D01*
X2296617Y19445782D01*
X2298852Y19449034D01*
X2302154Y19451218D01*
X2306015Y19451980D01*
X2309876Y19451167D01*
X2313178Y19448983D01*
X2377033Y19385127D01*
X2379268Y19381825D01*
X2380030Y19377914D01*
X2379268Y19374053D01*
X2377033Y19370751D01*
X2373782Y19368516D01*
X2369870Y19367754D01*
X2367686Y19367754D01*
X2353411Y19365976D01*
X2339441Y19362369D01*
X2326030Y19357086D01*
X2313381Y19350126D01*
X2301748Y19341642D01*
X2291232Y19331787D01*
X2282037Y19320662D01*
X2274316Y19308521D01*
X2268169Y19295465D01*
X2263698Y19281749D01*
X2261006Y19267576D01*
X2260092Y19253200D01*
X2261006Y19238823D01*
X2263698Y19224650D01*
X2268169Y19210934D01*
X2274316Y19197878D01*
X2282037Y19185737D01*
X2291232Y19174612D01*
X2301748Y19164757D01*
X2313381Y19156273D01*
X2326030Y19149314D01*
X2339441Y19144030D01*
X2353411Y19140424D01*
X2367686Y19138646D01*
X2382113Y19138646D01*
X2396388Y19140424D01*
X2410358Y19144030D01*
X2423769Y19149314D01*
X2436418Y19156273D01*
X2448052Y19164757D01*
X2458567Y19174612D01*
X2467762Y19185737D01*
X2475484Y19197878D01*
X2481630Y19210934D01*
X2486101Y19224650D01*
X2488793Y19238823D01*
X2489403Y19248882D01*
X2490368Y19252590D01*
X2492654Y19255740D01*
X2495956Y19257721D01*
X2499766Y19258381D01*
X2503525Y19257568D01*
X2506726Y19255435D01*
X2511755Y19250406D01*
X2513838Y19247408D01*
X2514701Y19243852D01*
X2515006Y19238823D01*
X2517698Y19224650D01*
X2522169Y19210934D01*
X2528316Y19197878D01*
X2536037Y19185737D01*
X2545232Y19174612D01*
X2555748Y19164757D01*
X2567381Y19156273D01*
X2580030Y19149314D01*
X2593441Y19144030D01*
X2607411Y19140424D01*
X2621686Y19138646D01*
X2636113Y19138646D01*
X2650388Y19140424D01*
X2664358Y19144030D01*
X2677769Y19149314D01*
X2690418Y19156273D01*
X2702052Y19164757D01*
X2712567Y19174612D01*
X2721762Y19185737D01*
X2729484Y19197878D01*
X2735630Y19210934D01*
X2740101Y19224650D01*
X2742793Y19238823D01*
X2743708Y19253200D01*
X2742793Y19267576D01*
X2740101Y19281749D01*
X2735630Y19295465D01*
X2729484Y19308521D01*
X2721762Y19320662D01*
X2712567Y19331787D01*
X2708910Y19335242D01*
X2706573Y19338493D01*
X2705709Y19342404D01*
X2706420Y19346367D01*
X2708605Y19349720D01*
X2711907Y19352006D01*
X2715869Y19352768D01*
X2795930Y19352768D01*
X2799892Y19352006D01*
X2803194Y19349720D01*
X2805379Y19346367D01*
X2806090Y19342404D01*
X2805226Y19338493D01*
X2802890Y19335242D01*
X2799232Y19331787D01*
X2790037Y19320662D01*
X2782316Y19308521D01*
X2776169Y19295465D01*
X2771698Y19281749D01*
X2769006Y19267576D01*
X2768092Y19253200D01*
X2769006Y19238823D01*
X2771698Y19224650D01*
X2776169Y19210934D01*
X2782316Y19197878D01*
X2790037Y19185737D01*
X2799232Y19174612D01*
X2809748Y19164757D01*
X2821381Y19156273D01*
X2834030Y19149314D01*
X2847441Y19144030D01*
X2861411Y19140424D01*
X2875686Y19138646D01*
X2890113Y19138646D01*
X2904388Y19140424D01*
X2918358Y19144030D01*
X2931769Y19149314D01*
X2944418Y19156273D01*
X2956052Y19164757D01*
X2966567Y19174612D01*
X2975762Y19185737D01*
X2983484Y19197878D01*
X2989630Y19210934D01*
X2994101Y19224650D01*
X2996793Y19238823D01*
X2997708Y19253200D01*
X2996793Y19267576D01*
X2994101Y19281749D01*
X2989630Y19295465D01*
X2983484Y19308521D01*
X2975762Y19320662D01*
X2966567Y19331787D01*
X2962910Y19335242D01*
X2960573Y19338493D01*
X2959709Y19342404D01*
X2960420Y19346367D01*
X2962605Y19349720D01*
X2965907Y19352006D01*
X2969869Y19352768D01*
X3049930Y19352768D01*
X3053892Y19352006D01*
X3057194Y19349720D01*
X3059379Y19346367D01*
X3060090Y19342404D01*
X3059226Y19338493D01*
X3056890Y19335242D01*
X3053232Y19331787D01*
X3044037Y19320662D01*
X3036316Y19308521D01*
X3030169Y19295465D01*
X3025698Y19281749D01*
X3023006Y19267576D01*
X3022092Y19253200D01*
X3023006Y19238823D01*
X3025698Y19224650D01*
X3030169Y19210934D01*
X3036316Y19197878D01*
X3044037Y19185737D01*
X3053232Y19174612D01*
X3063748Y19164757D01*
X3075381Y19156273D01*
X3088030Y19149314D01*
X3101441Y19144030D01*
X3115411Y19140424D01*
X3129686Y19138646D01*
X3144113Y19138646D01*
X3158388Y19140424D01*
X3172358Y19144030D01*
X3185769Y19149314D01*
X3198418Y19156273D01*
X3210052Y19164757D01*
X3220567Y19174612D01*
X3229762Y19185737D01*
X3237484Y19197878D01*
X3243630Y19210934D01*
X3248101Y19224650D01*
X3250793Y19238823D01*
X3251708Y19253200D01*
X3250793Y19267576D01*
X3248101Y19281749D01*
X3243630Y19295465D01*
X3237484Y19308521D01*
X3229762Y19320662D01*
X3220567Y19331787D01*
X3216910Y19335242D01*
X3214573Y19338493D01*
X3213709Y19342404D01*
X3214420Y19346367D01*
X3216605Y19349720D01*
X3219907Y19352006D01*
X3223869Y19352768D01*
X3303930Y19352768D01*
X3307892Y19352006D01*
X3311194Y19349720D01*
X3313379Y19346367D01*
X3314090Y19342404D01*
X3313226Y19338493D01*
X3310890Y19335242D01*
X3307232Y19331787D01*
X3298037Y19320662D01*
X3290315Y19308521D01*
X3284169Y19295465D01*
X3279698Y19281749D01*
X3277006Y19267576D01*
X3276092Y19253200D01*
X3277006Y19238823D01*
X3279698Y19224650D01*
X3284169Y19210934D01*
X3290315Y19197878D01*
X3298037Y19185737D01*
X3307232Y19174612D01*
X3317748Y19164757D01*
X3329381Y19156273D01*
X3342030Y19149314D01*
X3355441Y19144030D01*
X3369411Y19140424D01*
X3383686Y19138646D01*
X3398113Y19138646D01*
X3412388Y19140424D01*
X3426358Y19144030D01*
X3439769Y19149314D01*
X3452418Y19156273D01*
X3464051Y19164757D01*
X3474567Y19174612D01*
X3483762Y19185737D01*
X3491484Y19197878D01*
X3497630Y19210934D01*
X3502101Y19224650D01*
X3504793Y19238823D01*
X3505708Y19253200D01*
X3504793Y19267576D01*
X3502101Y19281749D01*
X3497630Y19295465D01*
X3491484Y19308521D01*
X3483762Y19320662D01*
X3474567Y19331787D01*
X3470910Y19335242D01*
X3468573Y19338493D01*
X3467709Y19342404D01*
X3468420Y19346367D01*
X3470605Y19349720D01*
X3473907Y19352006D01*
X3477869Y19352768D01*
X3539540Y19352768D01*
X3543401Y19352006D01*
X3546703Y19349821D01*
X3589121Y19307403D01*
X3591306Y19304101D01*
X3592068Y19300240D01*
X3592068Y18164759D01*
X3591306Y18160898D01*
X3589121Y18157596D01*
X3534003Y18102478D01*
X3530701Y18100294D01*
X3526840Y18099532D01*
X2400554Y18099532D01*
X2390851Y18099024D01*
X2378608Y18096890D01*
X2375966Y18096179D01*
X2364232Y18092064D01*
X2353208Y18086374D01*
X2345232Y18080939D01*
X2343048Y18079212D01*
X2335834Y18072709D01*
X2108352Y17845227D01*
X2105660Y17843296D01*
X2102459Y17842331D01*
X2099411Y17841976D01*
X2085441Y17838369D01*
X2072030Y17833086D01*
X2059381Y17826126D01*
X2047748Y17817642D01*
X2037232Y17807787D01*
X2028037Y17796662D01*
X2020316Y17784521D01*
X2014169Y17771465D01*
X2009698Y17757749D01*
X2007006Y17743576D01*
X2006092Y17729200D01*
X2007006Y17714823D01*
X2009648Y17701006D01*
X2009546Y17696688D01*
X2007717Y17692878D01*
X2004415Y17690084D01*
X2000300Y17688966D01*
X1996084Y17689576D01*
X1992477Y17691912D01*
X1982774Y17701615D01*
X1980895Y17704257D01*
X1979930Y17707406D01*
X1979980Y17710708D01*
X1980793Y17714823D01*
X1981707Y17729200D01*
X1980793Y17743576D01*
X1978101Y17757749D01*
X1973630Y17771465D01*
X1967484Y17784521D01*
X1959762Y17796662D01*
X1950567Y17807787D01*
X1940052Y17817642D01*
X1928418Y17826126D01*
X1915769Y17833086D01*
X1902358Y17838369D01*
X1888388Y17841976D01*
X1874113Y17843754D01*
X1859686Y17843754D01*
X1845411Y17841976D01*
X1831441Y17838369D01*
X1818030Y17833086D01*
X1805381Y17826126D01*
X1793748Y17817642D01*
X1783232Y17807787D01*
X1774037Y17796662D01*
X1766316Y17784521D01*
X1760169Y17771465D01*
X1755698Y17757749D01*
X1753006Y17743576D01*
X1752092Y17729200D01*
X1753006Y17714823D01*
X1755698Y17700650D01*
X1760169Y17686934D01*
X1766316Y17673878D01*
X1774037Y17661737D01*
X1781606Y17652593D01*
X1783435Y17649240D01*
X1783892Y17645481D01*
X1782978Y17641773D01*
X1780743Y17638725D01*
X1777492Y17636642D01*
X1773783Y17635931D01*
X1764690Y17635931D01*
X1760778Y17636744D01*
X1757527Y17638928D01*
X1721408Y17674996D01*
X1719173Y17678450D01*
X1718462Y17682514D01*
X1719630Y17686934D01*
X1724101Y17700650D01*
X1726793Y17714823D01*
X1727707Y17729200D01*
X1726793Y17743576D01*
X1724101Y17757749D01*
X1719630Y17771465D01*
X1713484Y17784521D01*
X1705762Y17796662D01*
X1696567Y17807787D01*
X1686052Y17817642D01*
X1674418Y17826126D01*
X1661769Y17833086D01*
X1648358Y17838369D01*
X1634388Y17841976D01*
X1620113Y17843754D01*
X1605686Y17843754D01*
X1591411Y17841976D01*
X1577441Y17838369D01*
X1564030Y17833086D01*
X1551381Y17826126D01*
X1539748Y17817642D01*
X1529232Y17807787D01*
X1520037Y17796662D01*
X1512316Y17784521D01*
X1506169Y17771465D01*
X1501698Y17757749D01*
X1499006Y17743576D01*
X1498092Y17729200D01*
X1499006Y17714823D01*
X1501698Y17700650D01*
X1506169Y17686934D01*
X1512316Y17673878D01*
X1520037Y17661737D01*
X1529232Y17650612D01*
X1539748Y17640757D01*
X1551381Y17632273D01*
X1564030Y17625314D01*
X1577441Y17620030D01*
X1591411Y17616424D01*
X1605686Y17614646D01*
X1620113Y17614646D01*
X1634388Y17616424D01*
X1648358Y17620030D01*
X1656080Y17623078D01*
X1659889Y17623790D01*
X1663750Y17622977D01*
X1667002Y17620792D01*
X1685239Y17602555D01*
X1687423Y17599253D01*
X1688185Y17595392D01*
X1687423Y17591481D01*
X1685239Y17588179D01*
X1681937Y17585994D01*
X1678025Y17585232D01*
X1561439Y17585232D01*
X1557528Y17585994D01*
X1554226Y17588179D01*
X1467408Y17674996D01*
X1465173Y17678450D01*
X1464462Y17682514D01*
X1465630Y17686934D01*
X1470101Y17700650D01*
X1472793Y17714823D01*
X1473708Y17729200D01*
X1472793Y17743576D01*
X1470101Y17757749D01*
X1465630Y17771465D01*
X1459484Y17784521D01*
X1451762Y17796662D01*
X1442567Y17807787D01*
X1432052Y17817642D01*
X1420418Y17826126D01*
X1407769Y17833086D01*
X1394358Y17838369D01*
X1380388Y17841976D01*
X1366113Y17843754D01*
X1351686Y17843754D01*
X1337411Y17841976D01*
X1323441Y17838369D01*
X1310030Y17833086D01*
X1297381Y17826126D01*
X1285748Y17817642D01*
X1275232Y17807787D01*
X1266037Y17796662D01*
X1258316Y17784521D01*
X1252169Y17771465D01*
X1247698Y17757749D01*
X1245006Y17743576D01*
X1244092Y17729200D01*
X1245006Y17714823D01*
X1247698Y17700650D01*
X1252169Y17686934D01*
X1258316Y17673878D01*
X1266037Y17661737D01*
X1275232Y17650612D01*
X1285748Y17640757D01*
X1297381Y17632273D01*
X1310030Y17625314D01*
X1323441Y17620030D01*
X1337411Y17616424D01*
X1351686Y17614646D01*
X1366113Y17614646D01*
X1380388Y17616424D01*
X1394358Y17620030D01*
X1402080Y17623078D01*
X1405890Y17623790D01*
X1409750Y17622977D01*
X1413002Y17620792D01*
X1481937Y17551857D01*
X1484172Y17548555D01*
X1484934Y17544643D01*
X1484172Y17540782D01*
X1481937Y17537480D01*
X1478635Y17535296D01*
X1474774Y17534483D01*
G37*

%LPC*%
G36*
X1097686Y19138646D02*
G01*
X1112113Y19138646D01*
X1126388Y19140424D01*
X1140358Y19144030D01*
X1153769Y19149314D01*
X1166418Y19156273D01*
X1178052Y19164757D01*
X1188567Y19174612D01*
X1197762Y19185737D01*
X1205484Y19197878D01*
X1211630Y19210934D01*
X1216101Y19224650D01*
X1218793Y19238823D01*
X1219708Y19253200D01*
X1218793Y19267576D01*
X1216101Y19281749D01*
X1211630Y19295465D01*
X1205484Y19308521D01*
X1197762Y19320662D01*
X1188567Y19331787D01*
X1178052Y19341642D01*
X1166418Y19350126D01*
X1153769Y19357086D01*
X1140358Y19362369D01*
X1126388Y19365976D01*
X1112113Y19367754D01*
X1097686Y19367754D01*
X1083411Y19365976D01*
X1069441Y19362369D01*
X1056030Y19357086D01*
X1043381Y19350126D01*
X1031748Y19341642D01*
X1021232Y19331787D01*
X1012037Y19320662D01*
X1004316Y19308521D01*
X998169Y19295465D01*
X993698Y19281749D01*
X991006Y19267576D01*
X990092Y19253200D01*
X991006Y19238823D01*
X993698Y19224650D01*
X998169Y19210934D01*
X1004316Y19197878D01*
X1012037Y19185737D01*
X1021232Y19174612D01*
X1031748Y19164757D01*
X1043381Y19156273D01*
X1056030Y19149314D01*
X1069441Y19144030D01*
X1083411Y19140424D01*
G37*
G36*
X1308100Y19150380D02*
G01*
X1308100Y19202400D01*
X1256182Y19202400D01*
X1258316Y19197878D01*
X1266037Y19185737D01*
X1275232Y19174612D01*
X1285748Y19164757D01*
X1297381Y19156273D01*
G37*
G36*
X1409700Y19150380D02*
G01*
X1420418Y19156273D01*
X1432052Y19164757D01*
X1442567Y19174612D01*
X1451762Y19185737D01*
X1459484Y19197878D01*
X1461617Y19202400D01*
X1409700Y19202400D01*
G37*
G36*
X1256182Y19304000D02*
G01*
X1308100Y19304000D01*
X1308100Y19356019D01*
X1297381Y19350126D01*
X1285748Y19341642D01*
X1275232Y19331787D01*
X1266037Y19320662D01*
X1258316Y19308521D01*
G37*

%LPD*%
G36*
X3274517Y17348301D02*
G01*
X3270707Y17349978D01*
X3267862Y17353026D01*
X3266541Y17356937D01*
X3264865Y17370196D01*
X3261207Y17384471D01*
X3255772Y17398136D01*
X3248660Y17411090D01*
X3240024Y17422977D01*
X3229914Y17433747D01*
X3218586Y17443145D01*
X3206140Y17451019D01*
X3193491Y17456962D01*
X3190646Y17458944D01*
X3188614Y17461788D01*
X3187700Y17465141D01*
X3187242Y17470018D01*
X3185058Y17477181D01*
X3181502Y17483836D01*
X3176422Y17490033D01*
X2991408Y17674996D01*
X2989173Y17678450D01*
X2988462Y17682514D01*
X2989630Y17686934D01*
X2994101Y17700650D01*
X2996793Y17714823D01*
X2997708Y17729200D01*
X2996793Y17743576D01*
X2994101Y17757749D01*
X2989630Y17771465D01*
X2983484Y17784521D01*
X2975762Y17796662D01*
X2968548Y17805400D01*
X2966720Y17808752D01*
X2966212Y17812512D01*
X2967177Y17816220D01*
X2969412Y17819268D01*
X2972612Y17821351D01*
X2976372Y17822062D01*
X3043428Y17822062D01*
X3047187Y17821351D01*
X3050387Y17819268D01*
X3052622Y17816220D01*
X3053588Y17812512D01*
X3053080Y17808752D01*
X3051251Y17805400D01*
X3044037Y17796662D01*
X3036316Y17784521D01*
X3030169Y17771465D01*
X3025698Y17757749D01*
X3023006Y17743576D01*
X3022092Y17729200D01*
X3023006Y17714823D01*
X3025698Y17700650D01*
X3030169Y17686934D01*
X3036316Y17673878D01*
X3044037Y17661737D01*
X3053232Y17650612D01*
X3063748Y17640757D01*
X3075381Y17632273D01*
X3088030Y17625314D01*
X3101441Y17620030D01*
X3115411Y17616424D01*
X3129686Y17614646D01*
X3144113Y17614646D01*
X3158388Y17616424D01*
X3172358Y17620030D01*
X3185769Y17625314D01*
X3198418Y17632273D01*
X3210052Y17640757D01*
X3220567Y17650612D01*
X3229762Y17661737D01*
X3237484Y17673878D01*
X3243630Y17686934D01*
X3248101Y17700650D01*
X3250793Y17714823D01*
X3251708Y17729200D01*
X3250793Y17743576D01*
X3248101Y17757749D01*
X3243630Y17771465D01*
X3237484Y17784521D01*
X3229762Y17796662D01*
X3222548Y17805400D01*
X3220720Y17808752D01*
X3220212Y17812512D01*
X3221177Y17816220D01*
X3223412Y17819268D01*
X3226612Y17821351D01*
X3230372Y17822062D01*
X3297428Y17822062D01*
X3301187Y17821351D01*
X3304387Y17819268D01*
X3306622Y17816220D01*
X3307587Y17812512D01*
X3307079Y17808752D01*
X3305251Y17805400D01*
X3298037Y17796662D01*
X3290315Y17784521D01*
X3288182Y17780000D01*
X3340100Y17780000D01*
X3340100Y17811902D01*
X3340862Y17815763D01*
X3343097Y17819065D01*
X3346348Y17821249D01*
X3350260Y17822062D01*
X3423107Y17822062D01*
X3427018Y17821249D01*
X3430270Y17819065D01*
X3438702Y17810632D01*
X3440937Y17807330D01*
X3441700Y17803469D01*
X3441700Y17780000D01*
X3465169Y17780000D01*
X3469030Y17779238D01*
X3472332Y17777002D01*
X3490010Y17759324D01*
X3492246Y17756022D01*
X3493008Y17752161D01*
X3493008Y17688560D01*
X3492246Y17684648D01*
X3490010Y17681397D01*
X3486708Y17679162D01*
X3482848Y17678400D01*
X3441700Y17678400D01*
X3441700Y17626380D01*
X3452418Y17632273D01*
X3464051Y17640757D01*
X3475024Y17651171D01*
X3478225Y17653711D01*
X3482187Y17654828D01*
X3486302Y17654219D01*
X3489807Y17652085D01*
X3492144Y17648732D01*
X3493008Y17644668D01*
X3493008Y17496129D01*
X3492246Y17492268D01*
X3490010Y17488966D01*
X3459683Y17458639D01*
X3456279Y17456353D01*
X3452215Y17455642D01*
X3448202Y17456607D01*
X3446779Y17457267D01*
X3432759Y17461839D01*
X3418281Y17464582D01*
X3403600Y17465548D01*
X3388918Y17464582D01*
X3374440Y17461839D01*
X3360420Y17457267D01*
X3347059Y17451019D01*
X3334613Y17443145D01*
X3323285Y17433747D01*
X3313176Y17422977D01*
X3304540Y17411090D01*
X3297428Y17398136D01*
X3291992Y17384471D01*
X3288334Y17370196D01*
X3286658Y17356937D01*
X3285337Y17353026D01*
X3282492Y17349978D01*
X3278682Y17348301D01*
G37*

%LPC*%
G36*
X3340100Y17626380D02*
G01*
X3340100Y17678400D01*
X3288182Y17678400D01*
X3290315Y17673878D01*
X3298037Y17661737D01*
X3307232Y17650612D01*
X3317748Y17640757D01*
X3329381Y17632273D01*
G37*

%LPD*%
D11*
X1625600Y17348200D02*
G01*
X1104900Y17348200D01*
X863600Y17589500D01*
X863600Y19367500D01*
X990600Y19494500D01*
X1371600Y19494500D01*
X1612900Y19253200D01*
X2387600Y19634200D02*
G01*
X2387600Y19583400D01*
X2527300Y19443700D01*
X3581400Y19443700D01*
X3683000Y19342100D01*
X3683000Y18122900D01*
X3568700Y18008600D01*
X2400300Y18008600D01*
X2120900Y17729200D01*
X1625600Y19634200D02*
G01*
X1625600Y19494500D01*
X1866900Y19253200D01*
D12*
X1804619Y17991416D02*
G01*
X1183665Y17991416D01*
X966774Y17774526D01*
X966774Y17686896D01*
X1157579Y17496091D01*
X1918792Y17496091D01*
X2066670Y17348212D01*
X2133600Y17348212D01*
X2641600Y17348212D02*
G01*
X2442972Y17546840D01*
X2011502Y17546840D01*
X1960803Y17597539D01*
X1744573Y17597539D01*
X1612900Y17729212D01*
X2882900Y17729212D02*
G01*
X3149600Y17462512D01*
X3149600Y17348212D01*
X2133600Y19634212D02*
G01*
X2182266Y19634212D01*
X2563266Y19253212D01*
X2628900Y19253212D01*
X2374900Y17729212D02*
G01*
X2506141Y17860454D01*
X3443224Y17860454D01*
X3531412Y17772265D01*
X3531412Y17476025D01*
X3403600Y17348212D01*
X2387600Y17348212D02*
G01*
X2239721Y17496091D01*
X1990521Y17496091D01*
X1939797Y17546815D01*
X1541297Y17546815D01*
X1358900Y17729212D01*
X2895600Y17348212D02*
G01*
X2646248Y17597564D01*
X2032508Y17597564D01*
X1900859Y17729212D01*
X1866900Y17729212D01*
X2120900Y19253212D02*
G01*
X2120900Y19405600D01*
X2184400Y19469100D01*
X2235200Y19469100D01*
D15*
G01*
X1698500Y20200099D03*
G01*
X6908899Y20200099D03*
G01*
X2198500Y11149101D03*
G01*
X6408899Y11149101D03*
D16*
G01*
X1104900Y19253200D03*
G01*
X1358900Y19253200D03*
G01*
X1612900Y19253200D03*
G01*
X1866900Y19253200D03*
G01*
X2120900Y19253200D03*
G01*
X2374900Y19253200D03*
G01*
X2628900Y19253200D03*
G01*
X2882900Y19253200D03*
G01*
X3136900Y19253200D03*
G01*
X3390900Y19253200D03*
G01*
X1104900Y17729200D03*
G01*
X1358900Y17729200D03*
G01*
X1612900Y17729200D03*
G01*
X1866900Y17729200D03*
G01*
X2120900Y17729200D03*
G01*
X2374900Y17729200D03*
G01*
X2628900Y17729200D03*
G01*
X2882900Y17729200D03*
G01*
X3136900Y17729200D03*
G01*
X3390900Y17729200D03*
D17*
G01*
X3403600Y19634200D03*
G01*
X1625600Y17348200D03*
G01*
X1879600Y17348200D03*
G01*
X2133600Y17348200D03*
G01*
X2387600Y17348200D03*
G01*
X2641600Y17348200D03*
G01*
X2895600Y17348200D03*
G01*
X3149600Y17348200D03*
G01*
X3403600Y17348200D03*
G01*
X1625600Y19634200D03*
G01*
X1879600Y19634200D03*
G01*
X2133600Y19634200D03*
G01*
X2387600Y19634200D03*
G01*
X2641600Y19634200D03*
G01*
X2895600Y19634200D03*
G01*
X3149600Y19634200D03*
D13*
G01*
X1804619Y17991404D03*
G01*
X2235200Y19469100D03*
D14*
G01*
X1040307Y18984747D03*
G01*
X1040307Y18734760D03*
G01*
X1040307Y18484748D03*
G01*
X1040307Y18234761D03*
G01*
X1290320Y18984747D03*
G01*
X1290320Y18734760D03*
G01*
X1290320Y18484748D03*
G01*
X1290320Y18234761D03*
G01*
X1540306Y18984747D03*
G01*
X1540306Y18734760D03*
G01*
X1790319Y18984747D03*
G01*
X1790319Y18484748D03*
G01*
X1790319Y18234761D03*
G01*
X2040305Y18734760D03*
G01*
X2040305Y18484748D03*
G01*
X2040305Y18234761D03*
G01*
X2290318Y18984747D03*
G01*
X2290318Y18734760D03*
G01*
X2290318Y18484748D03*
G01*
X2290318Y18234761D03*
G01*
X2540304Y18984747D03*
G01*
X2540304Y18734760D03*
G01*
X2540304Y18484748D03*
G01*
X2540304Y18234761D03*
G01*
X2790316Y18984747D03*
G01*
X2790316Y18734760D03*
G01*
X2790316Y18484748D03*
G01*
X2790316Y18234761D03*
G01*
X3040303Y18984747D03*
G01*
X3040303Y18734760D03*
G01*
X3040303Y18484748D03*
G01*
X3040303Y18234761D03*
G01*
X3290315Y18984747D03*
G01*
X3290315Y18734760D03*
G01*
X3290315Y18484748D03*
G01*
X3290315Y18234761D03*
G01*
X3810203Y19688022D03*
G01*
X3810203Y19438035D03*
G01*
X3810203Y17938013D03*
G01*
X3810203Y17688026D03*
G01*
X3810203Y17438014D03*
G01*
X4060215Y19438035D03*
G01*
X4060215Y18438012D03*
G01*
X4060215Y18188025D03*
G01*
X4060215Y17938013D03*
G01*
X4060215Y17688026D03*
G01*
X4060215Y17438014D03*
M02*
