M48
METRIC,LZ,000.000
;FILE_FORMAT=3:3
;TYPE=NON_PLATED
;Layer: Drill NPTH
;EasyEDA v6.4.25, 2021-10-09T00:25:21+02:00
;2177c25503544fa0b13e01c7088fd064,4245c91a3b6e4cf7aa995480f5c7e4a3,10
;Gerber Generator version 0.2
;Holesize 1 = 0.551 mm
T01C0.551
;Holesize 2 = 2.000 mm
T02C2.000
%
G05
G90
T01
X021536Y169915
X022386Y169915
X023236Y169915
X024086Y169915
X024936Y169915
X025786Y169915
X026636Y169915
X027486Y169915
X021536Y171739
X022386Y171739
X023236Y171739
X024086Y171739
X024936Y171739
X025786Y171739
X026636Y171739
X027486Y171739
X058588Y169915
X059438Y169915
X060288Y169915
X061138Y169915
X061988Y169915
X062838Y169915
X063688Y169915
X064538Y169915
X058588Y171739
X059438Y171739
X060288Y171739
X061138Y171739
X061988Y171739
X062838Y171739
X063688Y171739
X064538Y171739
X021536Y141745
X022386Y141745
X023236Y141745
X024086Y141745
X024936Y141745
X025786Y141745
X026636Y141745
X027486Y141745
X021536Y143569
X022386Y143569
X023236Y143569
X024086Y143569
X024936Y143569
X025786Y143569
X026636Y143569
X027486Y143569
X058588Y141745
X059438Y141745
X060288Y141745
X061138Y141745
X061988Y141745
X062838Y141745
X063688Y141745
X064538Y141745
X058588Y143569
X059438Y143569
X060288Y143569
X061138Y143569
X061988Y143569
X062838Y143569
X063688Y143569
X064538Y143569
X043945Y187891
X043945Y187041
X043945Y186191
X043945Y185341
X043945Y184491
X043945Y183641
X043945Y182791
X043945Y181941
X042129Y187891
X042129Y187041
X042129Y186191
X042129Y185341
X042129Y184491
X042129Y183641
X042129Y182791
X042129Y181941
X043945Y159721
X043945Y158871
X043945Y158021
X043945Y157171
X043945Y156321
X043945Y155471
X043945Y154621
X043945Y153771
X042129Y159721
X042129Y158871
X042129Y158021
X042129Y157171
X042129Y156321
X042129Y155471
X042129Y154621
X042129Y153771
X043945Y131551
X043945Y130701
X043945Y129851
X043945Y129001
X043945Y128151
X043945Y127301
X043945Y126451
X043945Y125601
X042129Y131551
X042129Y130701
X042129Y129851
X042129Y129001
X042129Y128151
X042129Y127301
X042129Y126451
X042129Y125601
X021536Y198085
X022386Y198085
X023236Y198085
X024086Y198085
X024936Y198085
X025786Y198085
X026636Y198085
X027486Y198085
X021536Y115399
X022386Y115399
X023236Y115399
X024086Y115399
X024936Y115399
X025786Y115399
X026636Y115399
X027486Y115399
X058588Y198085
X059438Y198085
X060288Y198085
X061138Y198085
X061988Y198085
X062838Y198085
X063688Y198085
X064538Y198085
X058588Y115399
X059438Y115399
X060288Y115399
X061138Y115399
X061988Y115399
X062838Y115399
X063688Y115399
X064538Y115399
T02
X011985Y202001
X074089Y202001
X016985Y111491
X069089Y111491
M30
