G04 Layer: BoardOutlineLayer*
G04 EasyEDA v6.5.9, 2022-07-22 15:10:41*
G04 7b4b3cc524da4ca09f73bc94dfdf97f7,4245c91a3b6e4cf7aa995480f5c7e4a3,10*
G04 Gerber Generator version 0.2*
G04 Scale: 100 percent, Rotated: No, Reflected: No *
G04 Dimensions in millimeters *
G04 leading zeros omitted , absolute positions ,4 integer and 5 decimal *
%FSLAX45Y45*%
%MOMM*%

%ADD10C,0.2540*%
D10*
X698500Y19672300D02*
G01*
X698500Y19672300D01*
X1346200Y19672300D01*
X1473200Y19799300D01*
X3903979Y19799300D01*
X698500Y17183100D02*
G01*
X698500Y19672300D01*
X3903979Y17183100D02*
G01*
X698500Y17183100D01*
X4203700Y19500100D02*
G01*
X4203700Y17483099D01*
G75*
G01*
X3903701Y19800100D02*
G02*
X4203700Y19500101I0J-299999D01*
G75*
G01*
X4203700Y17483099D02*
G02*
X3903701Y17183100I-299999J0D01*
X4403699Y19672300D02*
G01*
X4403699Y19672300D01*
X5051399Y19672300D01*
X5178399Y19799300D01*
X7609179Y19799300D01*
X4403699Y17183100D02*
G01*
X4403699Y19672300D01*
X7609179Y17183100D02*
G01*
X4403699Y17183100D01*
X7908899Y19500100D02*
G01*
X7908899Y17483099D01*
G75*
G01*
X7608900Y19800100D02*
G02*
X7908900Y19500101I0J-299999D01*
G75*
G01*
X7908900Y17483099D02*
G02*
X7608900Y17183100I-300000J0D01*
X698500Y16855300D02*
G01*
X698500Y16855300D01*
X1346200Y16855300D01*
X1473200Y16982300D01*
X3903979Y16982300D01*
X698500Y14366100D02*
G01*
X698500Y16855300D01*
X3903979Y14366100D02*
G01*
X698500Y14366100D01*
X4203700Y16683101D02*
G01*
X4203700Y14666099D01*
G75*
G01*
X3903701Y16983100D02*
G02*
X4203700Y16683101I0J-299999D01*
G75*
G01*
X4203700Y14666100D02*
G02*
X3903701Y14366100I-299999J0D01*
X4403699Y16855300D02*
G01*
X4403699Y16855300D01*
X5051399Y16855300D01*
X5178399Y16982300D01*
X7609179Y16982300D01*
X4403699Y14366100D02*
G01*
X4403699Y16855300D01*
X7609179Y14366100D02*
G01*
X4403699Y14366100D01*
X7908899Y16683101D02*
G01*
X7908899Y14666099D01*
G75*
G01*
X7608900Y16983100D02*
G02*
X7908900Y16683101I0J-299999D01*
G75*
G01*
X7908900Y14666100D02*
G02*
X7608900Y14366100I-300000J0D01*
X698500Y14038300D02*
G01*
X698500Y14038300D01*
X1346200Y14038300D01*
X1473200Y14165300D01*
X3903979Y14165300D01*
X698500Y11549100D02*
G01*
X698500Y14038300D01*
X3903979Y11549100D02*
G01*
X698500Y11549100D01*
X4203700Y13866101D02*
G01*
X4203700Y11849100D01*
G75*
G01*
X3903701Y14166101D02*
G02*
X4203700Y13866101I0J-300000D01*
G75*
G01*
X4203700Y11849100D02*
G02*
X3903701Y11549101I-299999J0D01*
X4403699Y14038300D02*
G01*
X4403699Y14038300D01*
X5051399Y14038300D01*
X5178399Y14165300D01*
X7609179Y14165300D01*
X4403699Y11549100D02*
G01*
X4403699Y14038300D01*
X7609179Y11549100D02*
G01*
X4403699Y11549100D01*
X7908899Y13866101D02*
G01*
X7908899Y11849100D01*
G75*
G01*
X7608900Y14166101D02*
G02*
X7908900Y13866101I0J-300000D01*
G75*
G01*
X7908900Y11849100D02*
G02*
X7608900Y11549101I-300000J0D01*
X698500Y20500098D02*
G01*
X7908899Y20500098D01*
X7908899Y10849102D01*
X698500Y10849102D01*
X698500Y20500098D01*
X2109096Y20000099D02*
G01*
X698500Y20000099D01*
X2109096Y11349101D02*
G01*
X698500Y11349101D01*
X5814296Y20000099D02*
G01*
X2793105Y20000099D01*
X5814296Y11349101D02*
G01*
X2793105Y11349101D01*
X7908899Y20000099D02*
G01*
X6498305Y20000099D01*
X7908899Y11349101D02*
G01*
X6498305Y11349101D01*
X2109096Y16991467D02*
G01*
X2109096Y17173933D01*
X2793105Y16991467D02*
G01*
X2793105Y17173933D01*
X5814296Y16991467D02*
G01*
X5814296Y17173933D01*
X6498305Y16991467D02*
G01*
X6498305Y17173933D01*
X2109096Y14174467D02*
G01*
X2109096Y14356933D01*
X2793105Y14174467D02*
G01*
X2793105Y14356933D01*
X5814296Y14174467D02*
G01*
X5814296Y14356933D01*
X6498305Y14174467D02*
G01*
X6498305Y14356933D01*
X4394532Y18833604D02*
G01*
X4212866Y18833604D01*
X4394532Y18149595D02*
G01*
X4212866Y18149595D01*
X4394532Y16016605D02*
G01*
X4212866Y16016605D01*
X4394532Y15332595D02*
G01*
X4212866Y15332595D01*
X4394532Y13199605D02*
G01*
X4212866Y13199605D01*
X4394532Y12515596D02*
G01*
X4212866Y12515596D01*
X2109096Y19808466D02*
G01*
X2109096Y20000099D01*
X2109096Y11349101D02*
G01*
X2109096Y11539933D01*
X2793105Y19808466D02*
G01*
X2793105Y20000099D01*
X2793105Y11349101D02*
G01*
X2793105Y11539933D01*
X5814296Y19808466D02*
G01*
X5814296Y20000099D01*
X5814296Y11349101D02*
G01*
X5814296Y11539933D01*
X6498305Y19808466D02*
G01*
X6498305Y20000099D01*
X6498305Y11349101D02*
G01*
X6498305Y11539933D01*

%LPD*%
M02*
