G04 Layer: BottomSolderMaskLayer*
G04 EasyEDA v6.4.25, 2021-10-09T00:25:21+02:00*
G04 2177c25503544fa0b13e01c7088fd064,4245c91a3b6e4cf7aa995480f5c7e4a3,10*
G04 Gerber Generator version 0.2*
G04 Scale: 100 percent, Rotated: No, Reflected: No *
G04 Dimensions in millimeters *
G04 leading zeros omitted , absolute positions ,4 integer and 5 decimal *
%FSLAX45Y45*%
%MOMM*%

%ADD24C,1.9812*%
%ADD25C,2.0320*%
%ADD26C,3.0000*%

%LPD*%
D24*
G01*
X1104900Y19253200D03*
G01*
X1358900Y19253200D03*
G01*
X1612900Y19253200D03*
G01*
X1866900Y19253200D03*
G01*
X2120900Y19253200D03*
G01*
X2374900Y19253200D03*
G01*
X2628900Y19253200D03*
G01*
X2882900Y19253200D03*
G01*
X3136900Y19253200D03*
G01*
X3390900Y19253200D03*
G01*
X1104900Y17729200D03*
G01*
X1358900Y17729200D03*
G01*
X1612900Y17729200D03*
G01*
X1866900Y17729200D03*
G01*
X2120900Y17729200D03*
G01*
X2374900Y17729200D03*
G01*
X2628900Y17729200D03*
G01*
X2882900Y17729200D03*
G01*
X3136900Y17729200D03*
G01*
X3390900Y17729200D03*
D25*
G01*
X3403600Y19634200D03*
G01*
X1625600Y17348200D03*
G01*
X1879600Y17348200D03*
G01*
X2133600Y17348200D03*
G01*
X2387600Y17348200D03*
G01*
X2641600Y17348200D03*
G01*
X2895600Y17348200D03*
G01*
X3149600Y17348200D03*
G01*
X3403600Y17348200D03*
G01*
X1625600Y19634200D03*
G01*
X1879600Y19634200D03*
G01*
X2133600Y19634200D03*
G01*
X2387600Y19634200D03*
G01*
X2641600Y19634200D03*
G01*
X2895600Y19634200D03*
G01*
X3149600Y19634200D03*
D26*
G01*
X1698500Y20200099D03*
G01*
X6908899Y20200099D03*
G01*
X2198500Y11149101D03*
G01*
X6408899Y11149101D03*
M02*
