G04 Layer: BottomLayer*
G04 EasyEDA v6.5.9, 2022-07-22 15:44:18*
G04 5ff184f8cbf64bab9cd3d91aa24c5a25,4245c91a3b6e4cf7aa995480f5c7e4a3,10*
G04 Gerber Generator version 0.2*
G04 Scale: 100 percent, Rotated: No, Reflected: No *
G04 Dimensions in millimeters *
G04 leading zeros omitted , absolute positions ,4 integer and 5 decimal *
%FSLAX45Y45*%
%MOMM*%

%ADD10C,4.2000*%
%ADD11C,1.3000*%
%ADD12C,1.6000*%
%ADD13C,0.2540*%
%ADD14C,1.5240*%
%ADD15C,1.8288*%
%ADD16C,1.7000*%
%ADD17C,2.0320*%
%ADD18C,1.7780*%
%ADD19R,1.8796X1.8796*%
%ADD20C,1.0000*%
%ADD21C,0.7000*%
%ADD22C,0.8000*%
%ADD23C,2.0000*%
%ADD24C,0.0104*%

%LPD*%
G36*
X-66395Y10950397D02*
G01*
X-73710Y10951260D01*
X-78181Y10952835D01*
X-82194Y10955223D01*
X-85699Y10958322D01*
X-88493Y10962081D01*
X-90525Y10966297D01*
X-91694Y10970818D01*
X-92202Y10976203D01*
X-92202Y14997785D01*
X-91338Y15005151D01*
X-89763Y15009571D01*
X-87376Y15013584D01*
X-84277Y15017089D01*
X-80518Y15019883D01*
X-76301Y15021915D01*
X-71780Y15023134D01*
X-66395Y15023592D01*
X6120485Y15023592D01*
X6127851Y15022728D01*
X6132271Y15021153D01*
X6136284Y15018816D01*
X6139789Y15015667D01*
X6142583Y15011958D01*
X6144615Y15007691D01*
X6145834Y15003170D01*
X6146292Y14997785D01*
X6146292Y10976203D01*
X6145428Y10968888D01*
X6143853Y10964418D01*
X6141516Y10960404D01*
X6138367Y10956899D01*
X6134658Y10954105D01*
X6130391Y10952073D01*
X6125870Y10950905D01*
X6120485Y10950397D01*
G37*

%LPC*%
G36*
X637133Y14755469D02*
G01*
X687730Y14755469D01*
X687730Y14806015D01*
X685292Y14804898D01*
X673150Y14797532D01*
X662025Y14788692D01*
X652170Y14778482D01*
X643686Y14767102D01*
G37*
G36*
X210820Y11292992D02*
G01*
X225958Y11293906D01*
X240944Y11296650D01*
X255422Y11301171D01*
X269290Y11307419D01*
X282295Y11315293D01*
X294284Y11324691D01*
X305003Y11335410D01*
X314401Y11347399D01*
X322275Y11360404D01*
X328523Y11374272D01*
X333044Y11388750D01*
X335788Y11403736D01*
X336702Y11419230D01*
X336702Y11618569D01*
X335788Y11634063D01*
X333044Y11649049D01*
X328523Y11663527D01*
X322275Y11677396D01*
X314401Y11690400D01*
X305003Y11702389D01*
X294284Y11713108D01*
X282295Y11722506D01*
X269290Y11730380D01*
X255422Y11736628D01*
X240944Y11741150D01*
X225958Y11743893D01*
X210820Y11744807D01*
X195630Y11743893D01*
X180644Y11741150D01*
X166166Y11736628D01*
X152298Y11730380D01*
X139293Y11722506D01*
X127304Y11713108D01*
X116585Y11702389D01*
X107187Y11690400D01*
X99314Y11677396D01*
X93065Y11663527D01*
X88544Y11649049D01*
X85801Y11634063D01*
X84886Y11618569D01*
X84886Y11419230D01*
X85801Y11403736D01*
X88544Y11388750D01*
X93065Y11374272D01*
X99314Y11360404D01*
X107187Y11347399D01*
X116585Y11335410D01*
X127304Y11324691D01*
X139293Y11315293D01*
X152298Y11307419D01*
X166166Y11301171D01*
X180644Y11296650D01*
X195630Y11293906D01*
G37*
G36*
X2159000Y11378692D02*
G01*
X2174392Y11379657D01*
X2189530Y11382400D01*
X2204212Y11386972D01*
X2218232Y11393322D01*
X2231440Y11401298D01*
X2243531Y11410797D01*
X2254402Y11421668D01*
X2263902Y11433759D01*
X2271877Y11446967D01*
X2278227Y11460988D01*
X2282799Y11475669D01*
X2285542Y11490807D01*
X2286508Y11506200D01*
X2285542Y11521592D01*
X2282799Y11536730D01*
X2278227Y11551412D01*
X2271877Y11565432D01*
X2263902Y11578640D01*
X2254402Y11590731D01*
X2243531Y11601602D01*
X2231440Y11611102D01*
X2218232Y11619077D01*
X2204212Y11625427D01*
X2189530Y11629999D01*
X2174392Y11632742D01*
X2159000Y11633708D01*
X2143607Y11632742D01*
X2128469Y11629999D01*
X2113788Y11625427D01*
X2099767Y11619077D01*
X2086559Y11611102D01*
X2074468Y11601602D01*
X2063597Y11590731D01*
X2054098Y11578640D01*
X2046122Y11565432D01*
X2039772Y11551412D01*
X2035200Y11536730D01*
X2032457Y11521592D01*
X2031492Y11506200D01*
X2032457Y11490807D01*
X2035200Y11475669D01*
X2039772Y11460988D01*
X2046122Y11446967D01*
X2054098Y11433759D01*
X2063597Y11421668D01*
X2074468Y11410797D01*
X2086559Y11401298D01*
X2099767Y11393322D01*
X2113788Y11386972D01*
X2128469Y11382400D01*
X2143607Y11379657D01*
G37*
G36*
X4699000Y11378692D02*
G01*
X4714392Y11379657D01*
X4729530Y11382400D01*
X4744212Y11386972D01*
X4758232Y11393322D01*
X4771440Y11401298D01*
X4783531Y11410797D01*
X4794402Y11421668D01*
X4803902Y11433759D01*
X4811877Y11446967D01*
X4818227Y11460988D01*
X4822799Y11475669D01*
X4825542Y11490807D01*
X4826508Y11506200D01*
X4825542Y11521592D01*
X4822799Y11536730D01*
X4818227Y11551412D01*
X4811877Y11565432D01*
X4803902Y11578640D01*
X4794402Y11590731D01*
X4783531Y11601602D01*
X4771440Y11611102D01*
X4758232Y11619077D01*
X4744212Y11625427D01*
X4729530Y11629999D01*
X4714392Y11632742D01*
X4699000Y11633708D01*
X4683607Y11632742D01*
X4668469Y11629999D01*
X4653788Y11625427D01*
X4639767Y11619077D01*
X4626559Y11611102D01*
X4614468Y11601602D01*
X4603597Y11590731D01*
X4594098Y11578640D01*
X4586122Y11565432D01*
X4579772Y11551412D01*
X4575200Y11536730D01*
X4572457Y11521592D01*
X4571492Y11506200D01*
X4572457Y11490807D01*
X4575200Y11475669D01*
X4579772Y11460988D01*
X4586122Y11446967D01*
X4594098Y11433759D01*
X4603597Y11421668D01*
X4614468Y11410797D01*
X4626559Y11401298D01*
X4639767Y11393322D01*
X4653788Y11386972D01*
X4668469Y11382400D01*
X4683607Y11379657D01*
G37*
G36*
X5715000Y11378692D02*
G01*
X5730392Y11379657D01*
X5745530Y11382400D01*
X5760212Y11386972D01*
X5774232Y11393322D01*
X5787440Y11401298D01*
X5799531Y11410797D01*
X5810402Y11421668D01*
X5819902Y11433759D01*
X5827877Y11446967D01*
X5834227Y11460988D01*
X5838799Y11475669D01*
X5841542Y11490807D01*
X5842508Y11506200D01*
X5841542Y11521592D01*
X5838799Y11536730D01*
X5834227Y11551412D01*
X5827877Y11565432D01*
X5819902Y11578640D01*
X5810402Y11590731D01*
X5799531Y11601602D01*
X5787440Y11611102D01*
X5774232Y11619077D01*
X5760212Y11625427D01*
X5745530Y11629999D01*
X5730392Y11632742D01*
X5715000Y11633708D01*
X5699607Y11632742D01*
X5684469Y11629999D01*
X5669788Y11625427D01*
X5655767Y11619077D01*
X5642559Y11611102D01*
X5630468Y11601602D01*
X5619597Y11590731D01*
X5610098Y11578640D01*
X5602122Y11565432D01*
X5595772Y11551412D01*
X5591200Y11536730D01*
X5588457Y11521592D01*
X5587492Y11506200D01*
X5588457Y11490807D01*
X5591200Y11475669D01*
X5595772Y11460988D01*
X5602122Y11446967D01*
X5610098Y11433759D01*
X5619597Y11421668D01*
X5630468Y11410797D01*
X5642559Y11401298D01*
X5655767Y11393322D01*
X5669788Y11386972D01*
X5684469Y11382400D01*
X5699607Y11379657D01*
G37*
G36*
X3175000Y11378692D02*
G01*
X3190392Y11379657D01*
X3205530Y11382400D01*
X3220212Y11386972D01*
X3234232Y11393322D01*
X3247440Y11401298D01*
X3259531Y11410797D01*
X3270402Y11421668D01*
X3279901Y11433759D01*
X3287877Y11446967D01*
X3294227Y11460988D01*
X3298799Y11475669D01*
X3301542Y11490807D01*
X3302508Y11506200D01*
X3301542Y11521592D01*
X3298799Y11536730D01*
X3294227Y11551412D01*
X3287877Y11565432D01*
X3279901Y11578640D01*
X3270402Y11590731D01*
X3259531Y11601602D01*
X3247440Y11611102D01*
X3234232Y11619077D01*
X3220212Y11625427D01*
X3205530Y11629999D01*
X3190392Y11632742D01*
X3175000Y11633708D01*
X3159607Y11632742D01*
X3144469Y11629999D01*
X3129788Y11625427D01*
X3115767Y11619077D01*
X3102559Y11611102D01*
X3090468Y11601602D01*
X3079597Y11590731D01*
X3070098Y11578640D01*
X3062122Y11565432D01*
X3055772Y11551412D01*
X3051200Y11536730D01*
X3048457Y11521592D01*
X3047492Y11506200D01*
X3048457Y11490807D01*
X3051200Y11475669D01*
X3055772Y11460988D01*
X3062122Y11446967D01*
X3070098Y11433759D01*
X3079597Y11421668D01*
X3090468Y11410797D01*
X3102559Y11401298D01*
X3115767Y11393322D01*
X3129788Y11386972D01*
X3144469Y11382400D01*
X3159607Y11379657D01*
G37*
G36*
X1708150Y11392357D02*
G01*
X1710232Y11393322D01*
X1723440Y11401298D01*
X1735531Y11410797D01*
X1746402Y11421668D01*
X1755902Y11433759D01*
X1763877Y11446967D01*
X1764842Y11449050D01*
X1708150Y11449050D01*
G37*
G36*
X2609850Y11392357D02*
G01*
X2609850Y11449050D01*
X2553157Y11449050D01*
X2554122Y11446967D01*
X2562098Y11433759D01*
X2571597Y11421668D01*
X2582468Y11410797D01*
X2594559Y11401298D01*
X2607767Y11393322D01*
G37*
G36*
X2724150Y11392357D02*
G01*
X2726232Y11393322D01*
X2739440Y11401298D01*
X2751531Y11410797D01*
X2762402Y11421668D01*
X2771902Y11433759D01*
X2779877Y11446967D01*
X2780842Y11449050D01*
X2724150Y11449050D01*
G37*
G36*
X1593850Y11392357D02*
G01*
X1593850Y11449050D01*
X1537157Y11449050D01*
X1538122Y11446967D01*
X1546098Y11433759D01*
X1555597Y11421668D01*
X1566468Y11410797D01*
X1578559Y11401298D01*
X1591767Y11393322D01*
G37*
G36*
X3625850Y11392357D02*
G01*
X3625850Y11449050D01*
X3569157Y11449050D01*
X3570122Y11446967D01*
X3578098Y11433759D01*
X3587597Y11421668D01*
X3598468Y11410797D01*
X3610559Y11401298D01*
X3623767Y11393322D01*
G37*
G36*
X3740150Y11392357D02*
G01*
X3742232Y11393322D01*
X3755440Y11401298D01*
X3767531Y11410797D01*
X3778402Y11421668D01*
X3787901Y11433759D01*
X3795877Y11446967D01*
X3796842Y11449050D01*
X3740150Y11449050D01*
G37*
G36*
X1708150Y11563350D02*
G01*
X1764842Y11563350D01*
X1763877Y11565432D01*
X1755902Y11578640D01*
X1746402Y11590731D01*
X1735531Y11601602D01*
X1723440Y11611102D01*
X1710232Y11619077D01*
X1708150Y11620042D01*
G37*
G36*
X2553157Y11563350D02*
G01*
X2609850Y11563350D01*
X2609850Y11620042D01*
X2607767Y11619077D01*
X2594559Y11611102D01*
X2582468Y11601602D01*
X2571597Y11590731D01*
X2562098Y11578640D01*
X2554122Y11565432D01*
G37*
G36*
X3740150Y11563350D02*
G01*
X3796842Y11563350D01*
X3795877Y11565432D01*
X3787901Y11578640D01*
X3778402Y11590731D01*
X3767531Y11601602D01*
X3755440Y11611102D01*
X3742232Y11619077D01*
X3740150Y11620042D01*
G37*
G36*
X3569157Y11563350D02*
G01*
X3625850Y11563350D01*
X3625850Y11620042D01*
X3623767Y11619077D01*
X3610559Y11611102D01*
X3598468Y11601602D01*
X3587597Y11590731D01*
X3578098Y11578640D01*
X3570122Y11565432D01*
G37*
G36*
X1537157Y11563350D02*
G01*
X1593850Y11563350D01*
X1593850Y11620042D01*
X1591767Y11619077D01*
X1578559Y11611102D01*
X1566468Y11601602D01*
X1555597Y11590731D01*
X1546098Y11578640D01*
X1538122Y11565432D01*
G37*
G36*
X2724150Y11563350D02*
G01*
X2780842Y11563350D01*
X2779877Y11565432D01*
X2771902Y11578640D01*
X2762402Y11590731D01*
X2751531Y11601602D01*
X2739440Y11611102D01*
X2726232Y11619077D01*
X2724150Y11620042D01*
G37*
G36*
X5397500Y12467742D02*
G01*
X5397500Y12519660D01*
X5345480Y12519660D01*
X5351373Y12508941D01*
X5359857Y12497308D01*
X5369712Y12486792D01*
X5380837Y12477597D01*
X5392978Y12469876D01*
G37*
G36*
X5499100Y12467742D02*
G01*
X5503621Y12469876D01*
X5515762Y12477597D01*
X5526887Y12486792D01*
X5536742Y12497308D01*
X5545226Y12508941D01*
X5551119Y12519660D01*
X5499100Y12519660D01*
G37*
G36*
X5345480Y12621260D02*
G01*
X5397500Y12621260D01*
X5397500Y12673177D01*
X5392978Y12671044D01*
X5380837Y12663322D01*
X5369712Y12654127D01*
X5359857Y12643612D01*
X5351373Y12631978D01*
G37*
G36*
X5499100Y12621260D02*
G01*
X5551119Y12621260D01*
X5545226Y12631978D01*
X5536742Y12643612D01*
X5526887Y12654127D01*
X5515762Y12663322D01*
X5503621Y12671044D01*
X5499100Y12673177D01*
G37*
G36*
X1266952Y12636093D02*
G01*
X1280617Y12636500D01*
X1294028Y12638786D01*
X1307084Y12642850D01*
X1319428Y12648590D01*
X1330909Y12655905D01*
X1341323Y12664694D01*
X1350518Y12674854D01*
X1358188Y12686080D01*
X1364386Y12698222D01*
X1368856Y12711125D01*
X1371549Y12724485D01*
X1372463Y12738100D01*
X1371549Y12751714D01*
X1368856Y12765074D01*
X1364386Y12777927D01*
X1358188Y12790119D01*
X1350518Y12801346D01*
X1341323Y12811455D01*
X1330909Y12820294D01*
X1319428Y12827609D01*
X1307084Y12833350D01*
X1294028Y12837414D01*
X1280617Y12839649D01*
X1266952Y12840106D01*
X1253388Y12838785D01*
X1240129Y12835585D01*
X1227429Y12830708D01*
X1215440Y12824155D01*
X1204468Y12816078D01*
X1194663Y12806578D01*
X1186230Y12795859D01*
X1179271Y12784124D01*
X1173937Y12771577D01*
X1170330Y12758420D01*
X1168501Y12744907D01*
X1168501Y12731292D01*
X1170330Y12717780D01*
X1173937Y12704622D01*
X1179271Y12692075D01*
X1186230Y12680340D01*
X1194663Y12669621D01*
X1204468Y12660122D01*
X1215440Y12652044D01*
X1227429Y12645491D01*
X1240129Y12640614D01*
X1253388Y12637414D01*
G37*
G36*
X551180Y12639192D02*
G01*
X566369Y12640106D01*
X581304Y12642850D01*
X595833Y12647371D01*
X609701Y12653619D01*
X622706Y12661493D01*
X634644Y12670891D01*
X645414Y12681610D01*
X654761Y12693599D01*
X662635Y12706604D01*
X668883Y12720472D01*
X673404Y12734950D01*
X676148Y12749936D01*
X677113Y12765430D01*
X677113Y12964769D01*
X676148Y12980263D01*
X673404Y12995249D01*
X668883Y13009727D01*
X662635Y13023596D01*
X654761Y13036600D01*
X645414Y13048589D01*
X634644Y13059308D01*
X622706Y13068706D01*
X609701Y13076580D01*
X595833Y13082828D01*
X581304Y13087350D01*
X566369Y13090093D01*
X551180Y13091007D01*
X535990Y13090093D01*
X521055Y13087350D01*
X506526Y13082828D01*
X492658Y13076580D01*
X479653Y13068706D01*
X467715Y13059308D01*
X456946Y13048589D01*
X447598Y13036600D01*
X439724Y13023596D01*
X433476Y13009727D01*
X428955Y12995249D01*
X426212Y12980263D01*
X425297Y12964769D01*
X425297Y12765430D01*
X426212Y12749936D01*
X428955Y12734950D01*
X433476Y12720472D01*
X439724Y12706604D01*
X447598Y12693599D01*
X456946Y12681610D01*
X467715Y12670891D01*
X479653Y12661493D01*
X492658Y12653619D01*
X506526Y12647371D01*
X521055Y12642850D01*
X535990Y12640106D01*
G37*
G36*
X210820Y12639192D02*
G01*
X225958Y12640106D01*
X240944Y12642850D01*
X255422Y12647371D01*
X269290Y12653619D01*
X282295Y12661493D01*
X294284Y12670891D01*
X305003Y12681610D01*
X314401Y12693599D01*
X322275Y12706604D01*
X328523Y12720472D01*
X333044Y12734950D01*
X335788Y12749936D01*
X336702Y12765430D01*
X336702Y12964769D01*
X335788Y12980263D01*
X333044Y12995249D01*
X328523Y13009727D01*
X322275Y13023596D01*
X314401Y13036600D01*
X305003Y13048589D01*
X294284Y13059308D01*
X282295Y13068706D01*
X269290Y13076580D01*
X255422Y13082828D01*
X240944Y13087350D01*
X225958Y13090093D01*
X210820Y13091007D01*
X195630Y13090093D01*
X180644Y13087350D01*
X166166Y13082828D01*
X152298Y13076580D01*
X139293Y13068706D01*
X127304Y13059308D01*
X116585Y13048589D01*
X107187Y13036600D01*
X99314Y13023596D01*
X93065Y13009727D01*
X88544Y12995249D01*
X85801Y12980263D01*
X84886Y12964769D01*
X84886Y12765430D01*
X85801Y12749936D01*
X88544Y12734950D01*
X93065Y12720472D01*
X99314Y12706604D01*
X107187Y12693599D01*
X116585Y12681610D01*
X127304Y12670891D01*
X139293Y12661493D01*
X152298Y12653619D01*
X166166Y12647371D01*
X180644Y12642850D01*
X195630Y12640106D01*
G37*
G36*
X1733905Y12646304D02*
G01*
X1733905Y12693650D01*
X1686610Y12693650D01*
X1687271Y12692075D01*
X1694230Y12680340D01*
X1702663Y12669621D01*
X1712468Y12660122D01*
X1723440Y12652044D01*
G37*
G36*
X1822805Y12646456D02*
G01*
X1827428Y12648590D01*
X1838909Y12655905D01*
X1849323Y12664694D01*
X1858518Y12674854D01*
X1866188Y12686080D01*
X1870049Y12693650D01*
X1822805Y12693650D01*
G37*
G36*
X1822805Y12782550D02*
G01*
X1870049Y12782550D01*
X1866188Y12790119D01*
X1858518Y12801346D01*
X1849323Y12811455D01*
X1838909Y12820294D01*
X1827428Y12827609D01*
X1822805Y12829743D01*
G37*
G36*
X1686610Y12782550D02*
G01*
X1733905Y12782550D01*
X1733905Y12829895D01*
X1723440Y12824155D01*
X1712468Y12816078D01*
X1702663Y12806578D01*
X1694230Y12795859D01*
X1687271Y12784124D01*
G37*
G36*
X5220360Y12882118D02*
G01*
X5232755Y12882118D01*
X5245049Y12883794D01*
X5256987Y12887147D01*
X5268366Y12892125D01*
X5278983Y12898526D01*
X5288584Y12906349D01*
X5297068Y12915442D01*
X5304231Y12925552D01*
X5309920Y12936575D01*
X5314086Y12948259D01*
X5316575Y12960400D01*
X5317490Y12973151D01*
X5317490Y13046963D01*
X5318302Y13051028D01*
X5320741Y13054431D01*
X5324297Y13056565D01*
X5328462Y13057073D01*
X5332425Y13055904D01*
X5335625Y13053212D01*
X5337454Y13049453D01*
X5339130Y13043001D01*
X5344414Y13029590D01*
X5351373Y13016941D01*
X5359857Y13005308D01*
X5369712Y12994792D01*
X5380837Y12985597D01*
X5392978Y12977876D01*
X5406034Y12971729D01*
X5419750Y12967258D01*
X5433923Y12964566D01*
X5448300Y12963652D01*
X5462676Y12964566D01*
X5476849Y12967258D01*
X5490565Y12971729D01*
X5503621Y12977876D01*
X5515762Y12985597D01*
X5526887Y12994792D01*
X5536742Y13005308D01*
X5545226Y13016941D01*
X5552186Y13029590D01*
X5557469Y13043001D01*
X5561076Y13056971D01*
X5562854Y13071246D01*
X5562854Y13085673D01*
X5561076Y13099948D01*
X5557469Y13113918D01*
X5552186Y13127329D01*
X5545226Y13139978D01*
X5536742Y13151612D01*
X5526887Y13162127D01*
X5515762Y13171322D01*
X5503621Y13179044D01*
X5490565Y13185190D01*
X5476849Y13189661D01*
X5462676Y13192353D01*
X5448300Y13193268D01*
X5433923Y13192353D01*
X5419750Y13189661D01*
X5406034Y13185190D01*
X5392978Y13179044D01*
X5380837Y13171322D01*
X5369712Y13162127D01*
X5359857Y13151612D01*
X5351373Y13139978D01*
X5344414Y13127329D01*
X5339130Y13113918D01*
X5337454Y13107466D01*
X5335625Y13103707D01*
X5332425Y13101015D01*
X5328462Y13099846D01*
X5324297Y13100354D01*
X5320741Y13102488D01*
X5318302Y13105892D01*
X5317490Y13109956D01*
X5317490Y14567154D01*
X5316982Y14576856D01*
X5314848Y14589099D01*
X5314137Y14591741D01*
X5310022Y14603476D01*
X5304332Y14614499D01*
X5298897Y14622475D01*
X5297170Y14624659D01*
X5290667Y14631873D01*
X4976622Y14945918D01*
X4967020Y14954300D01*
X4956657Y14961057D01*
X4945430Y14966391D01*
X4933645Y14970150D01*
X4921402Y14972284D01*
X4909007Y14972690D01*
X4896662Y14971420D01*
X4884623Y14968474D01*
X4873091Y14963952D01*
X4862271Y14957856D01*
X4852365Y14950338D01*
X4843627Y14941600D01*
X4836109Y14931694D01*
X4830013Y14920874D01*
X4825492Y14909342D01*
X4822545Y14897303D01*
X4821275Y14884958D01*
X4821682Y14872563D01*
X4823815Y14860320D01*
X4827574Y14848535D01*
X4832908Y14837308D01*
X4836972Y14831110D01*
X4838547Y14826945D01*
X4838141Y14822474D01*
X4835906Y14818613D01*
X4832248Y14816074D01*
X4827828Y14815413D01*
X4813300Y14816328D01*
X4798618Y14815362D01*
X4784140Y14812619D01*
X4770120Y14808047D01*
X4756759Y14801799D01*
X4744313Y14793925D01*
X4732985Y14784527D01*
X4722876Y14773757D01*
X4714240Y14761870D01*
X4707128Y14748916D01*
X4701692Y14735251D01*
X4698034Y14720976D01*
X4696206Y14706346D01*
X4696206Y14691613D01*
X4698034Y14676983D01*
X4701692Y14662708D01*
X4707128Y14649043D01*
X4714240Y14636089D01*
X4722876Y14624202D01*
X4732985Y14613432D01*
X4744313Y14604034D01*
X4756759Y14596160D01*
X4770120Y14589912D01*
X4784140Y14585340D01*
X4798618Y14582597D01*
X4813300Y14581632D01*
X4827981Y14582597D01*
X4842459Y14585340D01*
X4856480Y14589912D01*
X4869840Y14596160D01*
X4882286Y14604034D01*
X4893614Y14613432D01*
X4903724Y14624202D01*
X4912360Y14636089D01*
X4919472Y14649043D01*
X4924907Y14662708D01*
X4928565Y14676983D01*
X4930394Y14691613D01*
X4930394Y14706346D01*
X4929987Y14709698D01*
X4930292Y14713864D01*
X4932273Y14717522D01*
X4935575Y14720112D01*
X4939639Y14721128D01*
X4943754Y14720468D01*
X4947259Y14718182D01*
X5132679Y14532711D01*
X5134864Y14529409D01*
X5135626Y14525548D01*
X5135626Y12973151D01*
X5136540Y12960400D01*
X5139029Y12948259D01*
X5143195Y12936575D01*
X5148884Y12925552D01*
X5156047Y12915442D01*
X5164531Y12906349D01*
X5174132Y12898526D01*
X5184749Y12892125D01*
X5196128Y12887147D01*
X5208066Y12883794D01*
G37*
G36*
X4498187Y13072973D02*
G01*
X4511802Y13074294D01*
X4525060Y13077494D01*
X4537760Y13082371D01*
X4549749Y13088924D01*
X4560722Y13097002D01*
X4570526Y13106501D01*
X4578959Y13117220D01*
X4585919Y13128955D01*
X4591253Y13141502D01*
X4594860Y13154660D01*
X4596638Y13168172D01*
X4596638Y13181787D01*
X4594860Y13195300D01*
X4591253Y13208457D01*
X4585919Y13221004D01*
X4578959Y13232739D01*
X4570526Y13243458D01*
X4560722Y13252957D01*
X4549749Y13261035D01*
X4537760Y13267588D01*
X4525060Y13272465D01*
X4511802Y13275665D01*
X4498187Y13276986D01*
X4484573Y13276529D01*
X4471111Y13274294D01*
X4458106Y13270230D01*
X4445711Y13264489D01*
X4434230Y13257174D01*
X4423816Y13248386D01*
X4414672Y13238226D01*
X4406950Y13226999D01*
X4400804Y13214857D01*
X4396333Y13201954D01*
X4393641Y13188594D01*
X4392726Y13174980D01*
X4393641Y13161365D01*
X4396333Y13148005D01*
X4400804Y13135101D01*
X4406950Y13122960D01*
X4414672Y13111734D01*
X4423816Y13101574D01*
X4434230Y13092785D01*
X4445711Y13085470D01*
X4458106Y13079730D01*
X4471111Y13075665D01*
X4484573Y13073430D01*
G37*
G36*
X5006187Y13072973D02*
G01*
X5019802Y13074294D01*
X5033060Y13077494D01*
X5045760Y13082371D01*
X5057749Y13088924D01*
X5068722Y13097002D01*
X5078526Y13106501D01*
X5086959Y13117220D01*
X5093919Y13128955D01*
X5099253Y13141502D01*
X5102860Y13154660D01*
X5104638Y13168172D01*
X5104638Y13181787D01*
X5102860Y13195300D01*
X5099253Y13208457D01*
X5093919Y13221004D01*
X5086959Y13232739D01*
X5078526Y13243458D01*
X5068722Y13252957D01*
X5057749Y13261035D01*
X5045760Y13267588D01*
X5033060Y13272465D01*
X5019802Y13275665D01*
X5006187Y13276986D01*
X4992573Y13276529D01*
X4979111Y13274294D01*
X4966106Y13270230D01*
X4953711Y13264489D01*
X4942230Y13257174D01*
X4931816Y13248386D01*
X4922672Y13238226D01*
X4914950Y13226999D01*
X4908804Y13214857D01*
X4904333Y13201954D01*
X4901641Y13188594D01*
X4900726Y13174980D01*
X4901641Y13161365D01*
X4904333Y13148005D01*
X4908804Y13135101D01*
X4914950Y13122960D01*
X4922672Y13111734D01*
X4931816Y13101574D01*
X4942230Y13092785D01*
X4953711Y13085470D01*
X4966106Y13079730D01*
X4979111Y13075665D01*
X4992573Y13073430D01*
G37*
G36*
X4244187Y13072973D02*
G01*
X4257802Y13074294D01*
X4271060Y13077494D01*
X4283760Y13082371D01*
X4295749Y13088924D01*
X4306722Y13097002D01*
X4316526Y13106501D01*
X4324959Y13117220D01*
X4331919Y13128955D01*
X4337253Y13141502D01*
X4340860Y13154660D01*
X4342638Y13168172D01*
X4342638Y13181787D01*
X4340860Y13195300D01*
X4337253Y13208457D01*
X4331919Y13221004D01*
X4324959Y13232739D01*
X4316526Y13243458D01*
X4306722Y13252957D01*
X4295749Y13261035D01*
X4283760Y13267588D01*
X4271060Y13272465D01*
X4257802Y13275665D01*
X4244187Y13276986D01*
X4230573Y13276529D01*
X4217111Y13274294D01*
X4204106Y13270230D01*
X4191711Y13264489D01*
X4180230Y13257174D01*
X4169816Y13248386D01*
X4160672Y13238226D01*
X4152950Y13226999D01*
X4146804Y13214857D01*
X4142333Y13201954D01*
X4139641Y13188594D01*
X4138726Y13174980D01*
X4139641Y13161365D01*
X4142333Y13148005D01*
X4146804Y13135101D01*
X4152950Y13122960D01*
X4160672Y13111734D01*
X4169816Y13101574D01*
X4180230Y13092785D01*
X4191711Y13085470D01*
X4204106Y13079730D01*
X4217111Y13075665D01*
X4230573Y13073430D01*
G37*
G36*
X551180Y11292992D02*
G01*
X566369Y11293906D01*
X581304Y11296650D01*
X595833Y11301171D01*
X609701Y11307419D01*
X622706Y11315293D01*
X634644Y11324691D01*
X645414Y11335410D01*
X654761Y11347399D01*
X662635Y11360404D01*
X668883Y11374272D01*
X673404Y11388750D01*
X676148Y11403736D01*
X677113Y11419230D01*
X677113Y11618569D01*
X676148Y11634063D01*
X673404Y11649049D01*
X668883Y11663527D01*
X662635Y11677396D01*
X654761Y11690400D01*
X645414Y11702389D01*
X634644Y11713108D01*
X622706Y11722506D01*
X609701Y11730380D01*
X595833Y11736628D01*
X581304Y11741150D01*
X566369Y11743893D01*
X551180Y11744807D01*
X535990Y11743893D01*
X521055Y11741150D01*
X506526Y11736628D01*
X492658Y11730380D01*
X479653Y11722506D01*
X467715Y11713108D01*
X456946Y11702389D01*
X447598Y11690400D01*
X439724Y11677396D01*
X433476Y11663527D01*
X428955Y11649049D01*
X426212Y11634063D01*
X425297Y11618569D01*
X425297Y11419230D01*
X426212Y11403736D01*
X428955Y11388750D01*
X433476Y11374272D01*
X439724Y11360404D01*
X447598Y11347399D01*
X456946Y11335410D01*
X467715Y11324691D01*
X479653Y11315293D01*
X492658Y11307419D01*
X506526Y11301171D01*
X521055Y11296650D01*
X535990Y11293906D01*
G37*
G36*
X4793234Y13083184D02*
G01*
X4803749Y13088924D01*
X4814722Y13097002D01*
X4824526Y13106501D01*
X4832959Y13117220D01*
X4839919Y13128955D01*
X4840579Y13130530D01*
X4793234Y13130530D01*
G37*
G36*
X4031234Y13083184D02*
G01*
X4041749Y13088924D01*
X4052722Y13097002D01*
X4062526Y13106501D01*
X4070959Y13117220D01*
X4077919Y13128955D01*
X4078579Y13130530D01*
X4031234Y13130530D01*
G37*
G36*
X4704334Y13083336D02*
G01*
X4704334Y13130530D01*
X4657140Y13130530D01*
X4660950Y13122960D01*
X4668672Y13111734D01*
X4677816Y13101574D01*
X4688230Y13092785D01*
X4699711Y13085470D01*
G37*
G36*
X3942334Y13083336D02*
G01*
X3942334Y13130530D01*
X3895140Y13130530D01*
X3898950Y13122960D01*
X3906672Y13111734D01*
X3915816Y13101574D01*
X3926230Y13092785D01*
X3937711Y13085470D01*
G37*
G36*
X4657140Y13219430D02*
G01*
X4704334Y13219430D01*
X4704334Y13266623D01*
X4699711Y13264489D01*
X4688230Y13257174D01*
X4677816Y13248386D01*
X4668672Y13238226D01*
X4660950Y13226999D01*
G37*
G36*
X3895140Y13219430D02*
G01*
X3942334Y13219430D01*
X3942334Y13266623D01*
X3937711Y13264489D01*
X3926230Y13257174D01*
X3915816Y13248386D01*
X3906672Y13238226D01*
X3898950Y13226999D01*
G37*
G36*
X4793234Y13219430D02*
G01*
X4840579Y13219430D01*
X4839919Y13221004D01*
X4832959Y13232739D01*
X4824526Y13243458D01*
X4814722Y13252957D01*
X4803749Y13261035D01*
X4793234Y13266775D01*
G37*
G36*
X4031234Y13219430D02*
G01*
X4078579Y13219430D01*
X4077919Y13221004D01*
X4070959Y13232739D01*
X4062526Y13243458D01*
X4052722Y13252957D01*
X4041749Y13261035D01*
X4031234Y13266775D01*
G37*
G36*
X720293Y13309193D02*
G01*
X733856Y13310514D01*
X747166Y13313714D01*
X759866Y13318591D01*
X771855Y13325144D01*
X782828Y13333222D01*
X792632Y13342721D01*
X801065Y13353440D01*
X808024Y13365175D01*
X813358Y13377722D01*
X816914Y13390880D01*
X818743Y13404392D01*
X818743Y13418007D01*
X816914Y13431519D01*
X813358Y13444677D01*
X808024Y13457224D01*
X801065Y13468959D01*
X792632Y13479678D01*
X782828Y13489178D01*
X771855Y13497255D01*
X759866Y13503808D01*
X747166Y13508685D01*
X733856Y13511885D01*
X720293Y13513206D01*
X706678Y13512749D01*
X693216Y13510513D01*
X680212Y13506450D01*
X667816Y13500709D01*
X656336Y13493394D01*
X645922Y13484606D01*
X636778Y13474446D01*
X629056Y13463219D01*
X622909Y13451078D01*
X618439Y13438174D01*
X615746Y13424814D01*
X614832Y13411200D01*
X615746Y13397585D01*
X618439Y13384225D01*
X622909Y13371322D01*
X629056Y13359180D01*
X636778Y13347954D01*
X645922Y13337794D01*
X656336Y13329005D01*
X667816Y13321690D01*
X680212Y13315950D01*
X693216Y13311886D01*
X706678Y13309650D01*
G37*
G36*
X1791360Y13319404D02*
G01*
X1801825Y13325144D01*
X1812798Y13333222D01*
X1822602Y13342721D01*
X1831086Y13353440D01*
X1837994Y13365175D01*
X1838706Y13366750D01*
X1791360Y13366750D01*
G37*
G36*
X1702460Y13319556D02*
G01*
X1702460Y13366750D01*
X1655216Y13366750D01*
X1659077Y13359180D01*
X1666798Y13347954D01*
X1675942Y13337794D01*
X1686356Y13329005D01*
X1697837Y13321690D01*
G37*
G36*
X1655216Y13455650D02*
G01*
X1702460Y13455650D01*
X1702460Y13502843D01*
X1697837Y13500709D01*
X1686356Y13493394D01*
X1675942Y13484606D01*
X1666798Y13474446D01*
X1659077Y13463219D01*
G37*
G36*
X1791360Y13455650D02*
G01*
X1838706Y13455650D01*
X1837994Y13457224D01*
X1831086Y13468959D01*
X1822602Y13479678D01*
X1812798Y13489178D01*
X1801825Y13497255D01*
X1791360Y13502995D01*
G37*
G36*
X3736187Y13834973D02*
G01*
X3749801Y13836294D01*
X3763060Y13839494D01*
X3775760Y13844371D01*
X3787749Y13850924D01*
X3798722Y13859001D01*
X3808526Y13868501D01*
X3816959Y13879220D01*
X3823919Y13890955D01*
X3829253Y13903502D01*
X3832860Y13916660D01*
X3834637Y13930172D01*
X3834637Y13943787D01*
X3832860Y13957300D01*
X3829253Y13970457D01*
X3823919Y13983004D01*
X3816959Y13994739D01*
X3808526Y14005458D01*
X3798722Y14014957D01*
X3787749Y14023035D01*
X3775760Y14029588D01*
X3763060Y14034465D01*
X3749801Y14037665D01*
X3736187Y14038986D01*
X3722573Y14038529D01*
X3709111Y14036294D01*
X3696106Y14032230D01*
X3683711Y14026489D01*
X3672230Y14019174D01*
X3661816Y14010386D01*
X3652672Y14000226D01*
X3644950Y13988999D01*
X3638804Y13976857D01*
X3634333Y13963954D01*
X3631641Y13950594D01*
X3630726Y13936980D01*
X3631641Y13923365D01*
X3634333Y13910005D01*
X3638804Y13897101D01*
X3644950Y13884960D01*
X3652672Y13873734D01*
X3661816Y13863574D01*
X3672230Y13854785D01*
X3683711Y13847470D01*
X3696106Y13841730D01*
X3709111Y13837666D01*
X3722573Y13835430D01*
G37*
G36*
X3990187Y13834973D02*
G01*
X4003801Y13836294D01*
X4017060Y13839494D01*
X4029760Y13844371D01*
X4041749Y13850924D01*
X4052722Y13859001D01*
X4062526Y13868501D01*
X4070959Y13879220D01*
X4077919Y13890955D01*
X4083253Y13903502D01*
X4086860Y13916660D01*
X4088637Y13930172D01*
X4088637Y13943787D01*
X4086860Y13957300D01*
X4083253Y13970457D01*
X4077919Y13983004D01*
X4070959Y13994739D01*
X4062526Y14005458D01*
X4052722Y14014957D01*
X4041749Y14023035D01*
X4029760Y14029588D01*
X4017060Y14034465D01*
X4003801Y14037665D01*
X3990187Y14038986D01*
X3976573Y14038529D01*
X3963111Y14036294D01*
X3950106Y14032230D01*
X3937711Y14026489D01*
X3926230Y14019174D01*
X3915816Y14010386D01*
X3906672Y14000226D01*
X3898950Y13988999D01*
X3892804Y13976857D01*
X3888333Y13963954D01*
X3885641Y13950594D01*
X3884726Y13936980D01*
X3885641Y13923365D01*
X3888333Y13910005D01*
X3892804Y13897101D01*
X3898950Y13884960D01*
X3906672Y13873734D01*
X3915816Y13863574D01*
X3926230Y13854785D01*
X3937711Y13847470D01*
X3950106Y13841730D01*
X3963111Y13837666D01*
X3976573Y13835430D01*
G37*
G36*
X3523234Y13845184D02*
G01*
X3533749Y13850924D01*
X3544722Y13859001D01*
X3554526Y13868501D01*
X3562959Y13879220D01*
X3569919Y13890955D01*
X3570579Y13892530D01*
X3523234Y13892530D01*
G37*
G36*
X5047234Y13845184D02*
G01*
X5057749Y13850924D01*
X5068722Y13859001D01*
X5078526Y13868501D01*
X5086959Y13879220D01*
X5093919Y13890955D01*
X5094579Y13892530D01*
X5047234Y13892530D01*
G37*
G36*
X4958334Y13845336D02*
G01*
X4958334Y13892530D01*
X4911140Y13892530D01*
X4914950Y13884960D01*
X4922672Y13873734D01*
X4931816Y13863574D01*
X4942230Y13854785D01*
X4953711Y13847470D01*
G37*
G36*
X4911140Y13981430D02*
G01*
X4958334Y13981430D01*
X4958334Y14028623D01*
X4953711Y14026489D01*
X4942230Y14019174D01*
X4931816Y14010386D01*
X4922672Y14000226D01*
X4914950Y13988999D01*
G37*
G36*
X5047234Y13981430D02*
G01*
X5094579Y13981430D01*
X5093919Y13983004D01*
X5086959Y13994739D01*
X5078526Y14005458D01*
X5068722Y14014957D01*
X5057749Y14023035D01*
X5047234Y14028775D01*
G37*
G36*
X3523234Y13981430D02*
G01*
X3570579Y13981430D01*
X3569919Y13983004D01*
X3562959Y13994739D01*
X3554526Y14005458D01*
X3544722Y14014957D01*
X3533749Y14023035D01*
X3523234Y14028775D01*
G37*
G36*
X5847638Y14253972D02*
G01*
X6039561Y14253972D01*
X6045860Y14254683D01*
X6051346Y14256613D01*
X6056223Y14259661D01*
X6060338Y14263776D01*
X6063386Y14268653D01*
X6065316Y14274139D01*
X6066028Y14280438D01*
X6066028Y14472361D01*
X6065316Y14478660D01*
X6063386Y14484146D01*
X6060338Y14489023D01*
X6056223Y14493138D01*
X6053582Y14494814D01*
X6050635Y14497608D01*
X6049010Y14501368D01*
X6049010Y14505432D01*
X6050635Y14509191D01*
X6053582Y14511985D01*
X6056223Y14513661D01*
X6060338Y14517776D01*
X6063386Y14522653D01*
X6065316Y14528139D01*
X6066028Y14534438D01*
X6066028Y14726361D01*
X6065316Y14732660D01*
X6063386Y14738146D01*
X6060338Y14743023D01*
X6056223Y14747138D01*
X6051346Y14750186D01*
X6045860Y14752116D01*
X6039561Y14752828D01*
X5847638Y14752828D01*
X5841339Y14752116D01*
X5835853Y14750186D01*
X5830976Y14747138D01*
X5826861Y14743023D01*
X5823813Y14738146D01*
X5821883Y14732660D01*
X5821172Y14726361D01*
X5821172Y14534438D01*
X5821883Y14528139D01*
X5823813Y14522653D01*
X5826861Y14517776D01*
X5830976Y14513661D01*
X5833618Y14511985D01*
X5836564Y14509191D01*
X5838190Y14505432D01*
X5838190Y14501368D01*
X5836564Y14497608D01*
X5833618Y14494814D01*
X5830976Y14493138D01*
X5826861Y14489023D01*
X5823813Y14484146D01*
X5821883Y14478660D01*
X5821172Y14472361D01*
X5821172Y14280438D01*
X5821883Y14274139D01*
X5823813Y14268653D01*
X5826861Y14263776D01*
X5830976Y14259661D01*
X5835853Y14256613D01*
X5841339Y14254683D01*
G37*
G36*
X1524000Y14573402D02*
G01*
X1537614Y14574316D01*
X1550974Y14577060D01*
X1563878Y14581530D01*
X1576019Y14587677D01*
X1587246Y14595398D01*
X1597406Y14604542D01*
X1606194Y14614956D01*
X1613509Y14626437D01*
X1619250Y14638832D01*
X1623314Y14651837D01*
X1625549Y14665299D01*
X1626006Y14678913D01*
X1624685Y14692477D01*
X1621485Y14705736D01*
X1616608Y14718487D01*
X1610055Y14730425D01*
X1601978Y14741398D01*
X1592478Y14751202D01*
X1581759Y14759686D01*
X1570024Y14766594D01*
X1557477Y14771928D01*
X1544320Y14775535D01*
X1530807Y14777364D01*
X1517192Y14777364D01*
X1503680Y14775535D01*
X1490522Y14771928D01*
X1477975Y14766594D01*
X1466240Y14759686D01*
X1455521Y14751202D01*
X1446022Y14741398D01*
X1437944Y14730425D01*
X1431391Y14718487D01*
X1426514Y14705736D01*
X1423314Y14692477D01*
X1421993Y14678913D01*
X1422450Y14665299D01*
X1424686Y14651837D01*
X1428750Y14638832D01*
X1434490Y14626437D01*
X1441805Y14614956D01*
X1450594Y14604542D01*
X1460754Y14595398D01*
X1471980Y14587677D01*
X1484122Y14581530D01*
X1497025Y14577060D01*
X1510385Y14574316D01*
G37*
G36*
X4611370Y14594078D02*
G01*
X4615840Y14596160D01*
X4628286Y14604034D01*
X4639614Y14613432D01*
X4649724Y14624202D01*
X4658360Y14636089D01*
X4664303Y14646910D01*
X4611370Y14646910D01*
G37*
G36*
X4507230Y14594078D02*
G01*
X4507230Y14646910D01*
X4454296Y14646910D01*
X4460240Y14636089D01*
X4468876Y14624202D01*
X4478985Y14613432D01*
X4490313Y14604034D01*
X4502759Y14596160D01*
G37*
G36*
X144170Y14595703D02*
G01*
X313029Y14595703D01*
X319328Y14596414D01*
X324815Y14598294D01*
X329692Y14601393D01*
X333806Y14605507D01*
X336905Y14610384D01*
X338785Y14615871D01*
X339496Y14622170D01*
X339496Y14791029D01*
X338785Y14797328D01*
X336905Y14802815D01*
X333806Y14807692D01*
X329692Y14811806D01*
X324815Y14814905D01*
X319328Y14816785D01*
X313029Y14817496D01*
X144170Y14817496D01*
X137871Y14816785D01*
X132384Y14814905D01*
X127508Y14811806D01*
X123393Y14807692D01*
X120294Y14802815D01*
X118414Y14797328D01*
X117703Y14791029D01*
X117703Y14622170D01*
X118414Y14615871D01*
X120294Y14610384D01*
X123393Y14605507D01*
X127508Y14601393D01*
X132384Y14598294D01*
X137871Y14596414D01*
G37*
G36*
X486156Y14595754D02*
G01*
X500278Y14597126D01*
X514146Y14600275D01*
X527507Y14605203D01*
X540105Y14611756D01*
X551738Y14619884D01*
X562254Y14629434D01*
X571449Y14640255D01*
X579221Y14652193D01*
X585368Y14664994D01*
X589838Y14678456D01*
X592582Y14692426D01*
X593496Y14706600D01*
X592582Y14720773D01*
X589838Y14734743D01*
X585368Y14748205D01*
X579221Y14761006D01*
X571449Y14772944D01*
X562254Y14783765D01*
X551738Y14793315D01*
X540105Y14801443D01*
X527507Y14807996D01*
X514146Y14812924D01*
X500278Y14816074D01*
X486156Y14817445D01*
X471932Y14816988D01*
X457911Y14814702D01*
X444296Y14810638D01*
X431292Y14804898D01*
X419150Y14797532D01*
X408025Y14788692D01*
X398170Y14778482D01*
X389686Y14767102D01*
X382676Y14754707D01*
X377342Y14741550D01*
X373735Y14727783D01*
X371957Y14713712D01*
X371957Y14699488D01*
X373735Y14685416D01*
X377342Y14671649D01*
X382676Y14658492D01*
X389686Y14646097D01*
X398170Y14634718D01*
X408025Y14624507D01*
X419150Y14615668D01*
X431292Y14608301D01*
X444296Y14602510D01*
X457911Y14598497D01*
X471932Y14596211D01*
G37*
G36*
X687730Y14607184D02*
G01*
X687730Y14657730D01*
X637133Y14657730D01*
X643686Y14646097D01*
X652170Y14634718D01*
X662025Y14624507D01*
X673150Y14615668D01*
X685292Y14608301D01*
G37*
G36*
X785469Y14607286D02*
G01*
X794105Y14611756D01*
X805738Y14619884D01*
X816254Y14629434D01*
X825449Y14640255D01*
X833221Y14652193D01*
X835914Y14657730D01*
X785469Y14657730D01*
G37*
G36*
X4611370Y14751050D02*
G01*
X4664303Y14751050D01*
X4658360Y14761870D01*
X4649724Y14773757D01*
X4639614Y14784527D01*
X4628286Y14793925D01*
X4615840Y14801799D01*
X4611370Y14803882D01*
G37*
G36*
X4454296Y14751050D02*
G01*
X4507230Y14751050D01*
X4507230Y14803882D01*
X4502759Y14801799D01*
X4490313Y14793925D01*
X4478985Y14784527D01*
X4468876Y14773757D01*
X4460240Y14761870D01*
G37*
G36*
X785469Y14755469D02*
G01*
X835914Y14755469D01*
X833221Y14761006D01*
X825449Y14772944D01*
X816254Y14783765D01*
X805738Y14793315D01*
X794105Y14801443D01*
X785469Y14805913D01*
G37*
G36*
X1231900Y11038586D02*
G01*
X3814064Y11038586D01*
X3823766Y11039094D01*
X3836009Y11041227D01*
X3838651Y11041938D01*
X3850386Y11046053D01*
X3861409Y11051743D01*
X3869385Y11057178D01*
X3871569Y11058906D01*
X3878783Y11065408D01*
X4189425Y11376050D01*
X4192422Y11378133D01*
X4195978Y11378996D01*
X4206392Y11379657D01*
X4221530Y11382400D01*
X4236212Y11386972D01*
X4250232Y11393322D01*
X4263440Y11401298D01*
X4275531Y11410797D01*
X4286402Y11421668D01*
X4295902Y11433759D01*
X4303877Y11446967D01*
X4310227Y11460988D01*
X4314799Y11475669D01*
X4317542Y11490807D01*
X4318508Y11506200D01*
X4317542Y11521592D01*
X4314799Y11536730D01*
X4310227Y11551412D01*
X4303877Y11565432D01*
X4295902Y11578640D01*
X4286402Y11590731D01*
X4275531Y11601602D01*
X4263440Y11611102D01*
X4250232Y11619077D01*
X4236212Y11625427D01*
X4221530Y11629999D01*
X4206392Y11632742D01*
X4191000Y11633708D01*
X4175607Y11632742D01*
X4160469Y11629999D01*
X4145787Y11625427D01*
X4131767Y11619077D01*
X4118559Y11611102D01*
X4106468Y11601602D01*
X4095597Y11590731D01*
X4086098Y11578640D01*
X4078122Y11565432D01*
X4071772Y11551412D01*
X4067200Y11536730D01*
X4064457Y11521592D01*
X4063796Y11511178D01*
X4062933Y11507622D01*
X4060850Y11504625D01*
X3779621Y11223396D01*
X3776319Y11221212D01*
X3772458Y11220450D01*
X1273505Y11220450D01*
X1269644Y11221212D01*
X1266342Y11223396D01*
X1127912Y11361826D01*
X1125677Y11365230D01*
X1124915Y11369192D01*
X1125829Y11373205D01*
X1128217Y11376456D01*
X1131671Y11378590D01*
X1135684Y11379149D01*
X1143000Y11378692D01*
X1158392Y11379657D01*
X1173530Y11382400D01*
X1188212Y11386972D01*
X1202232Y11393322D01*
X1215440Y11401298D01*
X1227531Y11410797D01*
X1238402Y11421668D01*
X1247902Y11433759D01*
X1255877Y11446967D01*
X1262227Y11460988D01*
X1266799Y11475669D01*
X1269542Y11490807D01*
X1270508Y11506200D01*
X1269542Y11521592D01*
X1266799Y11536730D01*
X1262227Y11551412D01*
X1255877Y11565432D01*
X1247902Y11578640D01*
X1238402Y11590731D01*
X1227531Y11601602D01*
X1215440Y11611102D01*
X1202232Y11619077D01*
X1188212Y11625427D01*
X1173530Y11629999D01*
X1158392Y11632742D01*
X1143000Y11633708D01*
X1127607Y11632742D01*
X1112469Y11629999D01*
X1097788Y11625427D01*
X1083767Y11619077D01*
X1070559Y11611102D01*
X1058468Y11601602D01*
X1056690Y11599875D01*
X1053388Y11597640D01*
X1049528Y11596878D01*
X1045616Y11597640D01*
X1042314Y11599875D01*
X1040130Y11603177D01*
X1039368Y11607038D01*
X1039368Y13132307D01*
X1040130Y13136219D01*
X1042314Y13139521D01*
X1045616Y13141706D01*
X1049528Y13142468D01*
X1282446Y13142468D01*
X1292148Y13142976D01*
X1304391Y13145109D01*
X1307033Y13145820D01*
X1318768Y13149935D01*
X1329791Y13155625D01*
X1337767Y13161060D01*
X1339951Y13162788D01*
X1347165Y13169290D01*
X1588109Y13410234D01*
X1594612Y13417448D01*
X1596339Y13419632D01*
X1601774Y13427608D01*
X1607464Y13438632D01*
X1611579Y13450366D01*
X1612290Y13453008D01*
X1614424Y13465251D01*
X1614932Y13474954D01*
X1614932Y13597178D01*
X1615846Y13601446D01*
X1619250Y13608812D01*
X1623314Y13621816D01*
X1625549Y13635278D01*
X1626006Y13648893D01*
X1624685Y13662456D01*
X1621485Y13675766D01*
X1616608Y13688466D01*
X1610055Y13700455D01*
X1601978Y13711428D01*
X1592478Y13721232D01*
X1581759Y13729665D01*
X1570024Y13736624D01*
X1557477Y13741958D01*
X1544320Y13745514D01*
X1530807Y13747343D01*
X1517192Y13747343D01*
X1503680Y13745514D01*
X1490522Y13741958D01*
X1477975Y13736624D01*
X1466240Y13729665D01*
X1455521Y13721232D01*
X1446022Y13711428D01*
X1437944Y13700455D01*
X1431391Y13688466D01*
X1426514Y13675766D01*
X1423314Y13662456D01*
X1421993Y13648893D01*
X1422450Y13635278D01*
X1424686Y13621816D01*
X1428750Y13608812D01*
X1432153Y13601446D01*
X1433068Y13597178D01*
X1433068Y13516559D01*
X1432306Y13512698D01*
X1430121Y13509396D01*
X1248003Y13327278D01*
X1244701Y13325094D01*
X1240840Y13324332D01*
X1049528Y13324332D01*
X1045616Y13325094D01*
X1042314Y13327278D01*
X1040130Y13330580D01*
X1039368Y13334492D01*
X1039368Y13576554D01*
X1038860Y13586155D01*
X1038504Y13589000D01*
X1036726Y13598398D01*
X1036015Y13601192D01*
X1031900Y13612876D01*
X1026210Y13623899D01*
X1020826Y13631773D01*
X1019048Y13634059D01*
X1012596Y13641171D01*
X913942Y13740130D01*
X906627Y13746734D01*
X904544Y13748359D01*
X896467Y13753896D01*
X885444Y13759586D01*
X883005Y13760602D01*
X873709Y13763701D01*
X871169Y13764361D01*
X861568Y13766190D01*
X849121Y13767054D01*
X754430Y13767054D01*
X750874Y13767663D01*
X747776Y13769492D01*
X745490Y13772337D01*
X742442Y13781227D01*
X739343Y13786104D01*
X735279Y13790218D01*
X726389Y13795552D01*
X724001Y13798956D01*
X723138Y13803020D01*
X724001Y13807084D01*
X726389Y13810488D01*
X735279Y13815822D01*
X739343Y13819936D01*
X742442Y13824813D01*
X744372Y13830300D01*
X745083Y13836599D01*
X745083Y14023441D01*
X744372Y14029740D01*
X742442Y14035227D01*
X739343Y14040104D01*
X735279Y14044218D01*
X726389Y14049552D01*
X724001Y14052956D01*
X723138Y14057020D01*
X724001Y14061084D01*
X726389Y14064488D01*
X735279Y14069822D01*
X739343Y14073936D01*
X742442Y14078813D01*
X744372Y14084300D01*
X745083Y14090599D01*
X745083Y14275307D01*
X745845Y14279219D01*
X748030Y14282521D01*
X751332Y14284706D01*
X755243Y14285468D01*
X1054658Y14285468D01*
X1058976Y14284502D01*
X1062482Y14281810D01*
X1064514Y14277797D01*
X1064615Y14273377D01*
X1062837Y14269313D01*
X1056944Y14261338D01*
X1050391Y14249349D01*
X1045514Y14236649D01*
X1042314Y14223390D01*
X1040993Y14209826D01*
X1041450Y14196161D01*
X1043686Y14182750D01*
X1047750Y14169694D01*
X1053490Y14157350D01*
X1060805Y14145818D01*
X1069594Y14135404D01*
X1079754Y14126260D01*
X1090980Y14118539D01*
X1098804Y14114627D01*
X1101750Y14112341D01*
X1103731Y14109192D01*
X1104392Y14105534D01*
X1104392Y13799667D01*
X1103579Y13795705D01*
X1101293Y13792352D01*
X1093673Y13785088D01*
X1087323Y13776604D01*
X1082395Y13767206D01*
X1079042Y13757148D01*
X1077315Y13746683D01*
X1077315Y13736116D01*
X1079042Y13725651D01*
X1082395Y13715593D01*
X1087323Y13706195D01*
X1093673Y13697712D01*
X1101344Y13690396D01*
X1110081Y13684351D01*
X1119632Y13679830D01*
X1129842Y13676833D01*
X1140358Y13675563D01*
X1150924Y13676020D01*
X1161338Y13678103D01*
X1171244Y13681862D01*
X1180439Y13687196D01*
X1188618Y13693901D01*
X1195679Y13701826D01*
X1201318Y13710767D01*
X1205484Y13720521D01*
X1208024Y13730833D01*
X1208887Y13741400D01*
X1208024Y13751966D01*
X1205484Y13762278D01*
X1201318Y13772032D01*
X1195679Y13780973D01*
X1188618Y13788898D01*
X1185367Y13791590D01*
X1182573Y13795095D01*
X1181608Y13799464D01*
X1181608Y14105534D01*
X1182268Y14109192D01*
X1184249Y14112341D01*
X1187196Y14114627D01*
X1195019Y14118539D01*
X1206246Y14126260D01*
X1216406Y14135404D01*
X1225194Y14145818D01*
X1232509Y14157350D01*
X1238250Y14169694D01*
X1242314Y14182750D01*
X1244549Y14196161D01*
X1245006Y14209826D01*
X1243685Y14223390D01*
X1240485Y14236649D01*
X1235608Y14249349D01*
X1229055Y14261338D01*
X1223162Y14269313D01*
X1221384Y14273377D01*
X1221486Y14277797D01*
X1223518Y14281810D01*
X1227023Y14284502D01*
X1231341Y14285468D01*
X1335430Y14285468D01*
X1339291Y14284706D01*
X1342593Y14282521D01*
X1871014Y13754100D01*
X1873199Y13750798D01*
X1873961Y13746886D01*
X1873199Y13743025D01*
X1870964Y13739723D01*
X1867662Y13737539D01*
X1863750Y13736777D01*
X1859838Y13737590D01*
X1849577Y13741958D01*
X1836420Y13745514D01*
X1822907Y13747343D01*
X1809292Y13747343D01*
X1795780Y13745514D01*
X1782622Y13741958D01*
X1770075Y13736624D01*
X1758340Y13729665D01*
X1747621Y13721232D01*
X1738122Y13711428D01*
X1730044Y13700455D01*
X1723491Y13688466D01*
X1718614Y13675766D01*
X1715414Y13662456D01*
X1714093Y13648893D01*
X1714550Y13635278D01*
X1716786Y13621816D01*
X1720850Y13608812D01*
X1726590Y13596416D01*
X1733905Y13584936D01*
X1742693Y13574522D01*
X1752854Y13565378D01*
X1764080Y13557656D01*
X1776222Y13551509D01*
X1789125Y13547039D01*
X1802485Y13544346D01*
X1816100Y13543432D01*
X1829714Y13544346D01*
X1843074Y13547039D01*
X1855978Y13551509D01*
X1868119Y13557656D01*
X1879346Y13565378D01*
X1889506Y13574522D01*
X1898294Y13584936D01*
X1905609Y13596416D01*
X1911350Y13608812D01*
X1915414Y13621816D01*
X1917649Y13635278D01*
X1918106Y13648893D01*
X1916785Y13662456D01*
X1913585Y13675715D01*
X1908403Y13689228D01*
X1907692Y13693089D01*
X1908556Y13696950D01*
X1910791Y13700201D01*
X1914042Y13702334D01*
X1917954Y13703046D01*
X1921764Y13702284D01*
X1925066Y13700099D01*
X2009648Y13615466D01*
X2011172Y13613536D01*
X2012950Y13608812D01*
X2016353Y13601446D01*
X2017268Y13597178D01*
X2017268Y12941554D01*
X2017775Y12931851D01*
X2019909Y12919608D01*
X2020620Y12916966D01*
X2024735Y12905232D01*
X2030425Y12894208D01*
X2035860Y12886232D01*
X2037588Y12884048D01*
X2044090Y12876834D01*
X2309164Y12611760D01*
X2316378Y12605258D01*
X2318562Y12603530D01*
X2326538Y12598095D01*
X2337562Y12592405D01*
X2349296Y12588290D01*
X2351938Y12587579D01*
X2364181Y12585446D01*
X2373884Y12584938D01*
X4769662Y12584938D01*
X4773523Y12584176D01*
X4776825Y12581991D01*
X4811674Y12547092D01*
X4813858Y12543942D01*
X4814671Y12540132D01*
X4814011Y12536322D01*
X4811979Y12533071D01*
X4808880Y12530785D01*
X4805121Y12529769D01*
X4798618Y12529362D01*
X4784140Y12526619D01*
X4770120Y12522047D01*
X4756759Y12515799D01*
X4744313Y12507925D01*
X4732985Y12498527D01*
X4722876Y12487757D01*
X4714240Y12475870D01*
X4707128Y12462916D01*
X4701692Y12449251D01*
X4698034Y12434976D01*
X4696358Y12421717D01*
X4695037Y12417806D01*
X4692192Y12414758D01*
X4688382Y12413081D01*
X4684217Y12413081D01*
X4680407Y12414758D01*
X4677562Y12417806D01*
X4676241Y12421717D01*
X4674565Y12434976D01*
X4670907Y12449251D01*
X4665472Y12462916D01*
X4658360Y12475870D01*
X4649724Y12487757D01*
X4639614Y12498527D01*
X4628286Y12507925D01*
X4615840Y12515799D01*
X4602480Y12522047D01*
X4588459Y12526619D01*
X4573981Y12529362D01*
X4559300Y12530328D01*
X4544618Y12529362D01*
X4530140Y12526619D01*
X4516120Y12522047D01*
X4502759Y12515799D01*
X4490313Y12507925D01*
X4478985Y12498527D01*
X4468876Y12487757D01*
X4460240Y12475870D01*
X4453128Y12462916D01*
X4447692Y12449251D01*
X4444034Y12434976D01*
X4442358Y12421717D01*
X4441037Y12417806D01*
X4438192Y12414758D01*
X4434382Y12413081D01*
X4430217Y12413081D01*
X4426407Y12414758D01*
X4423562Y12417806D01*
X4422241Y12421717D01*
X4420565Y12434976D01*
X4416907Y12449251D01*
X4411472Y12462916D01*
X4404360Y12475870D01*
X4395724Y12487757D01*
X4385614Y12498527D01*
X4374286Y12507925D01*
X4361840Y12515799D01*
X4348480Y12522047D01*
X4334459Y12526619D01*
X4319981Y12529362D01*
X4305300Y12530328D01*
X4290618Y12529362D01*
X4276140Y12526619D01*
X4262120Y12522047D01*
X4248759Y12515799D01*
X4236313Y12507925D01*
X4224985Y12498527D01*
X4214876Y12487757D01*
X4206240Y12475870D01*
X4199128Y12462916D01*
X4193692Y12449251D01*
X4190034Y12434976D01*
X4188358Y12421717D01*
X4187037Y12417806D01*
X4184192Y12414758D01*
X4180382Y12413081D01*
X4176217Y12413081D01*
X4172407Y12414758D01*
X4169562Y12417806D01*
X4168241Y12421717D01*
X4166565Y12434976D01*
X4162907Y12449251D01*
X4157472Y12462916D01*
X4150360Y12475870D01*
X4141724Y12487757D01*
X4131614Y12498527D01*
X4120286Y12507925D01*
X4107840Y12515799D01*
X4094479Y12522047D01*
X4080459Y12526619D01*
X4065981Y12529362D01*
X4051300Y12530328D01*
X4036618Y12529362D01*
X4022140Y12526619D01*
X4008120Y12522047D01*
X3994759Y12515799D01*
X3982313Y12507925D01*
X3970985Y12498527D01*
X3960876Y12487757D01*
X3952240Y12475870D01*
X3945128Y12462916D01*
X3939692Y12449251D01*
X3936034Y12434976D01*
X3934358Y12421717D01*
X3933037Y12417806D01*
X3930192Y12414758D01*
X3926382Y12413081D01*
X3922217Y12413081D01*
X3918407Y12414758D01*
X3915562Y12417806D01*
X3914241Y12421717D01*
X3912565Y12434976D01*
X3908907Y12449251D01*
X3903472Y12462916D01*
X3896360Y12475870D01*
X3887724Y12487757D01*
X3877614Y12498527D01*
X3866286Y12507925D01*
X3853840Y12515799D01*
X3840479Y12522047D01*
X3826459Y12526619D01*
X3811981Y12529362D01*
X3797300Y12530328D01*
X3782618Y12529362D01*
X3768140Y12526619D01*
X3754120Y12522047D01*
X3740759Y12515799D01*
X3728313Y12507925D01*
X3716985Y12498527D01*
X3706876Y12487757D01*
X3698240Y12475870D01*
X3691128Y12462916D01*
X3685692Y12449251D01*
X3682034Y12434976D01*
X3680358Y12421717D01*
X3679037Y12417806D01*
X3676192Y12414758D01*
X3672382Y12413081D01*
X3668217Y12413081D01*
X3664407Y12414758D01*
X3661562Y12417806D01*
X3660241Y12421717D01*
X3658565Y12434976D01*
X3654907Y12449251D01*
X3649472Y12462916D01*
X3642360Y12475870D01*
X3633724Y12487757D01*
X3623614Y12498527D01*
X3612286Y12507925D01*
X3599840Y12515799D01*
X3586479Y12522047D01*
X3572459Y12526619D01*
X3557981Y12529362D01*
X3543300Y12530328D01*
X3528618Y12529362D01*
X3514140Y12526619D01*
X3500120Y12522047D01*
X3486759Y12515799D01*
X3474313Y12507925D01*
X3462985Y12498527D01*
X3452876Y12487757D01*
X3444240Y12475870D01*
X3437128Y12462916D01*
X3431692Y12449251D01*
X3428034Y12434976D01*
X3426358Y12421717D01*
X3425037Y12417806D01*
X3422192Y12414758D01*
X3418382Y12413081D01*
X3414217Y12413081D01*
X3410407Y12414758D01*
X3407562Y12417806D01*
X3406241Y12421717D01*
X3404565Y12434976D01*
X3400907Y12449251D01*
X3395472Y12462916D01*
X3388360Y12475870D01*
X3379724Y12487757D01*
X3369614Y12498527D01*
X3358286Y12507925D01*
X3345840Y12515799D01*
X3332479Y12522047D01*
X3318459Y12526619D01*
X3303981Y12529362D01*
X3289300Y12530328D01*
X3274618Y12529362D01*
X3260140Y12526619D01*
X3246120Y12522047D01*
X3232759Y12515799D01*
X3220313Y12507925D01*
X3208985Y12498527D01*
X3198876Y12487757D01*
X3190240Y12475870D01*
X3183128Y12462916D01*
X3177692Y12449251D01*
X3174034Y12434976D01*
X3172358Y12421717D01*
X3171037Y12417806D01*
X3168192Y12414758D01*
X3164382Y12413081D01*
X3160217Y12413081D01*
X3156407Y12414758D01*
X3153562Y12417806D01*
X3152241Y12421717D01*
X3150565Y12434976D01*
X3146907Y12449251D01*
X3141472Y12462916D01*
X3134360Y12475870D01*
X3125724Y12487757D01*
X3115614Y12498527D01*
X3104286Y12507925D01*
X3091840Y12515799D01*
X3078480Y12522047D01*
X3064459Y12526619D01*
X3049981Y12529362D01*
X3035300Y12530328D01*
X3020618Y12529362D01*
X3006140Y12526619D01*
X2992120Y12522047D01*
X2978759Y12515799D01*
X2966313Y12507925D01*
X2954985Y12498527D01*
X2944876Y12487757D01*
X2936240Y12475870D01*
X2929128Y12462916D01*
X2923692Y12449251D01*
X2920034Y12434976D01*
X2918206Y12420346D01*
X2918206Y12405614D01*
X2920034Y12390983D01*
X2923692Y12376708D01*
X2929128Y12363043D01*
X2936240Y12350089D01*
X2944876Y12338202D01*
X2954985Y12327432D01*
X2966313Y12318034D01*
X2978759Y12310160D01*
X2992120Y12303912D01*
X3006140Y12299340D01*
X3020618Y12296597D01*
X3035300Y12295632D01*
X3049981Y12296597D01*
X3064459Y12299340D01*
X3078480Y12303912D01*
X3091840Y12310160D01*
X3104286Y12318034D01*
X3115614Y12327432D01*
X3125724Y12338202D01*
X3134360Y12350089D01*
X3141472Y12363043D01*
X3146907Y12376708D01*
X3150565Y12390983D01*
X3152241Y12404242D01*
X3153562Y12408154D01*
X3156407Y12411202D01*
X3160217Y12412878D01*
X3164382Y12412878D01*
X3168192Y12411202D01*
X3171037Y12408154D01*
X3172358Y12404242D01*
X3174034Y12390983D01*
X3177692Y12376708D01*
X3183128Y12363043D01*
X3190240Y12350089D01*
X3198876Y12338202D01*
X3208985Y12327432D01*
X3220313Y12318034D01*
X3232759Y12310160D01*
X3246120Y12303912D01*
X3260140Y12299340D01*
X3274618Y12296597D01*
X3289300Y12295632D01*
X3303981Y12296597D01*
X3318459Y12299340D01*
X3332479Y12303912D01*
X3345840Y12310160D01*
X3358286Y12318034D01*
X3369614Y12327432D01*
X3379724Y12338202D01*
X3388360Y12350089D01*
X3395472Y12363043D01*
X3400907Y12376708D01*
X3404565Y12390983D01*
X3406241Y12404242D01*
X3407562Y12408154D01*
X3410407Y12411202D01*
X3414217Y12412878D01*
X3418382Y12412878D01*
X3422192Y12411202D01*
X3425037Y12408154D01*
X3426358Y12404242D01*
X3428034Y12390983D01*
X3431692Y12376708D01*
X3437128Y12363043D01*
X3444240Y12350089D01*
X3452876Y12338202D01*
X3462985Y12327432D01*
X3474313Y12318034D01*
X3486759Y12310160D01*
X3500120Y12303912D01*
X3514140Y12299340D01*
X3528618Y12296597D01*
X3543300Y12295632D01*
X3557981Y12296597D01*
X3572459Y12299340D01*
X3586479Y12303912D01*
X3599840Y12310160D01*
X3612286Y12318034D01*
X3623614Y12327432D01*
X3633724Y12338202D01*
X3642360Y12350089D01*
X3649472Y12363043D01*
X3654907Y12376708D01*
X3658565Y12390983D01*
X3660241Y12404242D01*
X3661562Y12408154D01*
X3664407Y12411202D01*
X3668217Y12412878D01*
X3672382Y12412878D01*
X3676192Y12411202D01*
X3679037Y12408154D01*
X3680358Y12404242D01*
X3682034Y12390983D01*
X3685692Y12376708D01*
X3691128Y12363043D01*
X3698240Y12350089D01*
X3706876Y12338202D01*
X3716985Y12327432D01*
X3728313Y12318034D01*
X3740759Y12310160D01*
X3754120Y12303912D01*
X3768140Y12299340D01*
X3782618Y12296597D01*
X3797300Y12295632D01*
X3811981Y12296597D01*
X3826459Y12299340D01*
X3840479Y12303912D01*
X3853840Y12310160D01*
X3866286Y12318034D01*
X3877614Y12327432D01*
X3887724Y12338202D01*
X3896360Y12350089D01*
X3903472Y12363043D01*
X3908907Y12376708D01*
X3912565Y12390983D01*
X3914241Y12404242D01*
X3915562Y12408154D01*
X3918407Y12411202D01*
X3922217Y12412878D01*
X3926382Y12412878D01*
X3930192Y12411202D01*
X3933037Y12408154D01*
X3934358Y12404242D01*
X3936034Y12390983D01*
X3939692Y12376708D01*
X3945128Y12363043D01*
X3952240Y12350089D01*
X3960876Y12338202D01*
X3970985Y12327432D01*
X3982313Y12318034D01*
X3994759Y12310160D01*
X4008120Y12303912D01*
X4022140Y12299340D01*
X4036618Y12296597D01*
X4051300Y12295632D01*
X4065981Y12296597D01*
X4080459Y12299340D01*
X4094479Y12303912D01*
X4107840Y12310160D01*
X4120286Y12318034D01*
X4131614Y12327432D01*
X4141724Y12338202D01*
X4150360Y12350089D01*
X4157472Y12363043D01*
X4162907Y12376708D01*
X4166565Y12390983D01*
X4168241Y12404242D01*
X4169562Y12408154D01*
X4172407Y12411202D01*
X4176217Y12412878D01*
X4180382Y12412878D01*
X4184192Y12411202D01*
X4187037Y12408154D01*
X4188358Y12404242D01*
X4190034Y12390983D01*
X4193692Y12376708D01*
X4199128Y12363043D01*
X4206240Y12350089D01*
X4214876Y12338202D01*
X4224985Y12327432D01*
X4236313Y12318034D01*
X4248759Y12310160D01*
X4262120Y12303912D01*
X4276140Y12299340D01*
X4290618Y12296597D01*
X4305300Y12295632D01*
X4319981Y12296597D01*
X4334459Y12299340D01*
X4348480Y12303912D01*
X4361840Y12310160D01*
X4374286Y12318034D01*
X4385614Y12327432D01*
X4395724Y12338202D01*
X4404360Y12350089D01*
X4411472Y12363043D01*
X4416907Y12376708D01*
X4420565Y12390983D01*
X4422241Y12404242D01*
X4423562Y12408154D01*
X4426407Y12411202D01*
X4430217Y12412878D01*
X4434382Y12412878D01*
X4438192Y12411202D01*
X4441037Y12408154D01*
X4442358Y12404242D01*
X4444034Y12390983D01*
X4447692Y12376708D01*
X4453128Y12363043D01*
X4460240Y12350089D01*
X4468876Y12338202D01*
X4478985Y12327432D01*
X4490313Y12318034D01*
X4502759Y12310160D01*
X4516120Y12303912D01*
X4530140Y12299340D01*
X4544618Y12296597D01*
X4559300Y12295632D01*
X4573981Y12296597D01*
X4588459Y12299340D01*
X4602480Y12303912D01*
X4615840Y12310160D01*
X4628286Y12318034D01*
X4639614Y12327432D01*
X4649724Y12338202D01*
X4658360Y12350089D01*
X4665472Y12363043D01*
X4670907Y12376708D01*
X4674565Y12390983D01*
X4676241Y12404242D01*
X4677562Y12408154D01*
X4680407Y12411202D01*
X4684217Y12412878D01*
X4688382Y12412878D01*
X4692192Y12411202D01*
X4695037Y12408154D01*
X4696358Y12404242D01*
X4698034Y12390983D01*
X4701692Y12376708D01*
X4707128Y12363043D01*
X4714240Y12350089D01*
X4722876Y12338202D01*
X4732985Y12327432D01*
X4744313Y12318034D01*
X4756759Y12310160D01*
X4770120Y12303912D01*
X4784140Y12299340D01*
X4798618Y12296597D01*
X4813300Y12295632D01*
X4827981Y12296597D01*
X4842459Y12299340D01*
X4856480Y12303912D01*
X4869840Y12310160D01*
X4882286Y12318034D01*
X4893614Y12327432D01*
X4903724Y12338202D01*
X4912360Y12350089D01*
X4919472Y12363043D01*
X4924907Y12376708D01*
X4928565Y12390983D01*
X4930343Y12405207D01*
X4931867Y12409424D01*
X4935067Y12412573D01*
X4939334Y12413996D01*
X4943805Y12413488D01*
X4947615Y12411100D01*
X5113121Y12245492D01*
X5115306Y12242190D01*
X5116068Y12238278D01*
X5116068Y11599468D01*
X5115306Y11595557D01*
X5113121Y11592306D01*
X5111597Y11590731D01*
X5102098Y11578640D01*
X5094122Y11565432D01*
X5087772Y11551412D01*
X5083200Y11536730D01*
X5080457Y11521592D01*
X5079492Y11506200D01*
X5080457Y11490807D01*
X5083200Y11475669D01*
X5087772Y11460988D01*
X5094122Y11446967D01*
X5102098Y11433759D01*
X5111597Y11421668D01*
X5122468Y11410797D01*
X5134559Y11401298D01*
X5147767Y11393322D01*
X5161788Y11386972D01*
X5176469Y11382400D01*
X5191607Y11379657D01*
X5207000Y11378692D01*
X5222392Y11379657D01*
X5237530Y11382400D01*
X5252212Y11386972D01*
X5266232Y11393322D01*
X5279440Y11401298D01*
X5291531Y11410797D01*
X5302402Y11421668D01*
X5311902Y11433759D01*
X5319877Y11446967D01*
X5326227Y11460988D01*
X5330799Y11475669D01*
X5333542Y11490807D01*
X5334508Y11506200D01*
X5333542Y11521592D01*
X5330799Y11536730D01*
X5326227Y11551412D01*
X5319877Y11565432D01*
X5311902Y11578640D01*
X5302402Y11590731D01*
X5300878Y11592306D01*
X5298694Y11595557D01*
X5297932Y11599468D01*
X5297932Y12279884D01*
X5297424Y12289586D01*
X5295290Y12301778D01*
X5294579Y12304522D01*
X5291531Y12313615D01*
X5290464Y12316206D01*
X5284774Y12327229D01*
X5277612Y12337389D01*
X5271109Y12344603D01*
X4876038Y12739928D01*
X4868773Y12746482D01*
X4861102Y12751968D01*
X4858105Y12755067D01*
X4856734Y12759080D01*
X4857089Y12763347D01*
X4859172Y12767106D01*
X4865979Y12774726D01*
X4871618Y12783667D01*
X4875784Y12793421D01*
X4878324Y12803733D01*
X4879187Y12814300D01*
X4878324Y12824866D01*
X4875784Y12835178D01*
X4871618Y12844932D01*
X4865979Y12853873D01*
X4858918Y12861798D01*
X4850739Y12868503D01*
X4841544Y12873837D01*
X4831638Y12877596D01*
X4821224Y12879679D01*
X4810658Y12880136D01*
X4800142Y12878866D01*
X4789932Y12875869D01*
X4780381Y12871348D01*
X4771644Y12865303D01*
X4763973Y12857988D01*
X4760976Y12854787D01*
X4758182Y12853365D01*
X4755083Y12852908D01*
X2407818Y12852908D01*
X2403906Y12853670D01*
X2400604Y12855905D01*
X2375712Y12880797D01*
X2373528Y12884048D01*
X2372766Y12887960D01*
X2373528Y12891871D01*
X2375712Y12895122D01*
X2379014Y12897358D01*
X2382926Y12898120D01*
X2958084Y12898120D01*
X2959100Y12899136D01*
X2959100Y14204492D01*
X2959862Y14208404D01*
X2962097Y14211706D01*
X2965348Y14213890D01*
X2969260Y14214652D01*
X2973171Y14213890D01*
X2976422Y14211706D01*
X3038957Y14149171D01*
X3041142Y14145869D01*
X3041904Y14142008D01*
X3041904Y13521182D01*
X3042412Y13511479D01*
X3044545Y13499236D01*
X3048304Y13487400D01*
X3049371Y13484860D01*
X3055061Y13473836D01*
X3060496Y13465860D01*
X3062224Y13463676D01*
X3068726Y13456462D01*
X3380384Y13144855D01*
X3382772Y13140994D01*
X3384804Y13135101D01*
X3390950Y13122960D01*
X3398672Y13111734D01*
X3407816Y13101574D01*
X3418230Y13092785D01*
X3429711Y13085470D01*
X3442106Y13079730D01*
X3455111Y13075665D01*
X3468573Y13073430D01*
X3482187Y13072973D01*
X3495801Y13074294D01*
X3509060Y13077494D01*
X3521760Y13082371D01*
X3533749Y13088924D01*
X3544722Y13097002D01*
X3554526Y13106501D01*
X3562959Y13117220D01*
X3569919Y13128955D01*
X3575253Y13141502D01*
X3578860Y13154660D01*
X3580637Y13168172D01*
X3580637Y13174014D01*
X3581450Y13177926D01*
X3583635Y13181177D01*
X3586937Y13183412D01*
X3590798Y13184174D01*
X3594709Y13183412D01*
X3598011Y13181177D01*
X3634384Y13144855D01*
X3636772Y13140994D01*
X3638804Y13135101D01*
X3644950Y13122960D01*
X3652672Y13111734D01*
X3661816Y13101574D01*
X3672230Y13092785D01*
X3683711Y13085470D01*
X3696106Y13079730D01*
X3709111Y13075665D01*
X3722573Y13073430D01*
X3736187Y13072973D01*
X3749801Y13074294D01*
X3763060Y13077494D01*
X3775760Y13082371D01*
X3787749Y13088924D01*
X3798722Y13097002D01*
X3808526Y13106501D01*
X3816959Y13117220D01*
X3823919Y13128955D01*
X3829253Y13141502D01*
X3832860Y13154660D01*
X3834637Y13168172D01*
X3834637Y13181787D01*
X3832860Y13195300D01*
X3829253Y13208457D01*
X3823919Y13221004D01*
X3816959Y13232739D01*
X3808526Y13243458D01*
X3798722Y13252957D01*
X3787749Y13261035D01*
X3775760Y13267588D01*
X3766362Y13271195D01*
X3762806Y13273481D01*
X3383178Y13653160D01*
X3380994Y13656462D01*
X3380232Y13660323D01*
X3380232Y13867892D01*
X3380994Y13871854D01*
X3383330Y13875207D01*
X3386734Y13877340D01*
X3390747Y13878001D01*
X3394659Y13877086D01*
X3397961Y13874648D01*
X3407867Y13863574D01*
X3418230Y13854785D01*
X3429711Y13847470D01*
X3434334Y13845336D01*
X3434334Y13892530D01*
X3390392Y13892530D01*
X3386480Y13893292D01*
X3383178Y13895527D01*
X3380994Y13898778D01*
X3380232Y13902690D01*
X3380232Y13971269D01*
X3380994Y13975181D01*
X3383178Y13978432D01*
X3386480Y13980668D01*
X3390392Y13981430D01*
X3434334Y13981430D01*
X3434334Y14028623D01*
X3429711Y14026489D01*
X3418230Y14019174D01*
X3407867Y14010386D01*
X3397961Y13999311D01*
X3394659Y13996873D01*
X3390747Y13995958D01*
X3386734Y13996619D01*
X3383330Y13998752D01*
X3380994Y14002105D01*
X3380232Y14006068D01*
X3380232Y14365224D01*
X3379724Y14374774D01*
X3378708Y14382038D01*
X3378708Y14408505D01*
X3379622Y14412772D01*
X3382314Y14416278D01*
X3386226Y14418310D01*
X3390646Y14418462D01*
X3394710Y14416786D01*
X3396742Y14415312D01*
X3407765Y14409623D01*
X3419449Y14405457D01*
X3431590Y14402968D01*
X3444341Y14402054D01*
X3896918Y14402054D01*
X3900779Y14401292D01*
X3904081Y14399107D01*
X4246981Y14056207D01*
X4249166Y14052956D01*
X4249978Y14049146D01*
X4249267Y14045285D01*
X4247134Y14041983D01*
X4243933Y14039748D01*
X4240123Y14038884D01*
X4230573Y14038529D01*
X4217111Y14036294D01*
X4204106Y14032230D01*
X4191711Y14026489D01*
X4180230Y14019174D01*
X4169816Y14010386D01*
X4160672Y14000226D01*
X4152950Y13988999D01*
X4146804Y13976857D01*
X4142333Y13963954D01*
X4139641Y13950594D01*
X4138726Y13936980D01*
X4139641Y13923365D01*
X4142333Y13910005D01*
X4146804Y13897101D01*
X4152950Y13884960D01*
X4160672Y13873734D01*
X4169816Y13863574D01*
X4180230Y13854785D01*
X4191711Y13847470D01*
X4204106Y13841730D01*
X4217111Y13837666D01*
X4230573Y13835430D01*
X4244187Y13834973D01*
X4257802Y13836294D01*
X4271060Y13839494D01*
X4283760Y13844371D01*
X4295749Y13850924D01*
X4306722Y13859001D01*
X4316526Y13868501D01*
X4324959Y13879220D01*
X4331919Y13890955D01*
X4337253Y13903502D01*
X4340860Y13916660D01*
X4342638Y13930172D01*
X4342638Y13936014D01*
X4343450Y13939926D01*
X4345635Y13943177D01*
X4348937Y13945412D01*
X4352798Y13946174D01*
X4356709Y13945412D01*
X4360011Y13943177D01*
X4396384Y13906855D01*
X4398772Y13902994D01*
X4400804Y13897101D01*
X4406950Y13884960D01*
X4414672Y13873734D01*
X4423816Y13863574D01*
X4434230Y13854785D01*
X4445711Y13847470D01*
X4458106Y13841730D01*
X4471111Y13837666D01*
X4484573Y13835430D01*
X4498187Y13834973D01*
X4511802Y13836294D01*
X4525060Y13839494D01*
X4537760Y13844371D01*
X4549749Y13850924D01*
X4560722Y13859001D01*
X4570526Y13868501D01*
X4578959Y13879220D01*
X4585919Y13890955D01*
X4591253Y13903502D01*
X4594860Y13916660D01*
X4596638Y13930172D01*
X4596638Y13936014D01*
X4597450Y13939926D01*
X4599635Y13943177D01*
X4602937Y13945412D01*
X4606798Y13946174D01*
X4610709Y13945412D01*
X4614011Y13943177D01*
X4650384Y13906855D01*
X4652772Y13902994D01*
X4654804Y13897101D01*
X4660950Y13884960D01*
X4668672Y13873734D01*
X4677816Y13863574D01*
X4688230Y13854785D01*
X4699711Y13847470D01*
X4712106Y13841730D01*
X4725111Y13837666D01*
X4738573Y13835430D01*
X4752187Y13834973D01*
X4765802Y13836294D01*
X4779060Y13839494D01*
X4791760Y13844371D01*
X4803749Y13850924D01*
X4814722Y13859001D01*
X4824526Y13868501D01*
X4832959Y13879220D01*
X4839919Y13890955D01*
X4845253Y13903502D01*
X4848860Y13916660D01*
X4850638Y13930172D01*
X4850638Y13943787D01*
X4848860Y13957300D01*
X4845253Y13970457D01*
X4839919Y13983004D01*
X4832959Y13994739D01*
X4824526Y14005458D01*
X4814722Y14014957D01*
X4803749Y14023035D01*
X4791760Y14029588D01*
X4782362Y14033195D01*
X4778806Y14035481D01*
X4399178Y14415160D01*
X4396994Y14418462D01*
X4396232Y14422323D01*
X4396232Y14621611D01*
X4396689Y14624710D01*
X4398162Y14627555D01*
X4404360Y14636089D01*
X4411472Y14649043D01*
X4416907Y14662708D01*
X4420565Y14676983D01*
X4422394Y14691613D01*
X4422394Y14706346D01*
X4420565Y14720976D01*
X4416907Y14735251D01*
X4411472Y14748916D01*
X4404360Y14761870D01*
X4395724Y14773757D01*
X4385614Y14784527D01*
X4374286Y14793925D01*
X4361840Y14801799D01*
X4348480Y14808047D01*
X4334459Y14812619D01*
X4319981Y14815362D01*
X4305300Y14816328D01*
X4290618Y14815362D01*
X4276140Y14812619D01*
X4262120Y14808047D01*
X4248759Y14801799D01*
X4236313Y14793925D01*
X4224985Y14784527D01*
X4214876Y14773757D01*
X4206240Y14761870D01*
X4199128Y14748916D01*
X4193692Y14735251D01*
X4190034Y14720976D01*
X4188358Y14707717D01*
X4187037Y14703806D01*
X4184192Y14700757D01*
X4180382Y14699081D01*
X4176217Y14699081D01*
X4172407Y14700757D01*
X4169562Y14703806D01*
X4168241Y14707717D01*
X4166565Y14720976D01*
X4162907Y14735251D01*
X4157472Y14748916D01*
X4150360Y14761870D01*
X4141724Y14773757D01*
X4131614Y14784527D01*
X4120286Y14793925D01*
X4107840Y14801799D01*
X4094479Y14808047D01*
X4080459Y14812619D01*
X4065981Y14815362D01*
X4051300Y14816328D01*
X4036618Y14815362D01*
X4022140Y14812619D01*
X4008120Y14808047D01*
X3994759Y14801799D01*
X3982313Y14793925D01*
X3970985Y14784527D01*
X3960876Y14773757D01*
X3952240Y14761870D01*
X3945128Y14748916D01*
X3939692Y14735251D01*
X3936034Y14720976D01*
X3934358Y14707717D01*
X3933037Y14703806D01*
X3930192Y14700757D01*
X3926382Y14699081D01*
X3922217Y14699081D01*
X3918407Y14700757D01*
X3915562Y14703806D01*
X3914241Y14707717D01*
X3912565Y14720976D01*
X3908907Y14735251D01*
X3903472Y14748916D01*
X3896360Y14761870D01*
X3887724Y14773757D01*
X3877614Y14784527D01*
X3866286Y14793925D01*
X3853840Y14801799D01*
X3840479Y14808047D01*
X3826459Y14812619D01*
X3811981Y14815362D01*
X3797300Y14816328D01*
X3782618Y14815362D01*
X3768140Y14812619D01*
X3754120Y14808047D01*
X3740759Y14801799D01*
X3728313Y14793925D01*
X3716985Y14784527D01*
X3706876Y14773757D01*
X3698240Y14761870D01*
X3691128Y14748916D01*
X3685692Y14735251D01*
X3682034Y14720976D01*
X3680358Y14707717D01*
X3679037Y14703806D01*
X3676192Y14700757D01*
X3672382Y14699081D01*
X3668217Y14699081D01*
X3664407Y14700757D01*
X3661562Y14703806D01*
X3660241Y14707717D01*
X3658565Y14720976D01*
X3654907Y14735251D01*
X3649472Y14748916D01*
X3642360Y14761870D01*
X3633724Y14773757D01*
X3623614Y14784527D01*
X3612286Y14793925D01*
X3599840Y14801799D01*
X3586479Y14808047D01*
X3572459Y14812619D01*
X3557981Y14815362D01*
X3543300Y14816328D01*
X3528618Y14815362D01*
X3514140Y14812619D01*
X3500120Y14808047D01*
X3486759Y14801799D01*
X3474313Y14793925D01*
X3462985Y14784527D01*
X3452876Y14773757D01*
X3444240Y14761870D01*
X3437128Y14748916D01*
X3431692Y14735251D01*
X3428034Y14720976D01*
X3426358Y14707717D01*
X3425037Y14703806D01*
X3422192Y14700757D01*
X3418382Y14699081D01*
X3414217Y14699081D01*
X3410407Y14700757D01*
X3407562Y14703806D01*
X3406241Y14707717D01*
X3404565Y14720976D01*
X3400907Y14735251D01*
X3395472Y14748916D01*
X3388360Y14761870D01*
X3379724Y14773757D01*
X3369614Y14784527D01*
X3358286Y14793925D01*
X3345840Y14801799D01*
X3332479Y14808047D01*
X3318459Y14812619D01*
X3303981Y14815362D01*
X3289300Y14816328D01*
X3274618Y14815362D01*
X3260140Y14812619D01*
X3246120Y14808047D01*
X3232759Y14801799D01*
X3220313Y14793925D01*
X3208985Y14784527D01*
X3198876Y14773757D01*
X3190240Y14761870D01*
X3183128Y14748916D01*
X3177692Y14735251D01*
X3174034Y14720976D01*
X3172358Y14707717D01*
X3171037Y14703806D01*
X3168192Y14700757D01*
X3164382Y14699081D01*
X3160217Y14699081D01*
X3156407Y14700757D01*
X3153562Y14703806D01*
X3152241Y14707717D01*
X3150565Y14720976D01*
X3146907Y14735251D01*
X3141472Y14748916D01*
X3134360Y14761870D01*
X3125724Y14773757D01*
X3115614Y14784527D01*
X3104286Y14793925D01*
X3091840Y14801799D01*
X3078480Y14808047D01*
X3064459Y14812619D01*
X3049981Y14815362D01*
X3035300Y14816328D01*
X3020618Y14815362D01*
X3006140Y14812619D01*
X2992120Y14808047D01*
X2978759Y14801799D01*
X2966313Y14793925D01*
X2954985Y14784527D01*
X2944876Y14773757D01*
X2936240Y14761870D01*
X2929128Y14748916D01*
X2923692Y14735251D01*
X2920034Y14720976D01*
X2918206Y14706346D01*
X2918206Y14691613D01*
X2920034Y14676983D01*
X2923692Y14662708D01*
X2929128Y14649043D01*
X2936240Y14636089D01*
X2944876Y14624202D01*
X2954985Y14613432D01*
X2966313Y14604034D01*
X2978759Y14596160D01*
X2992120Y14589912D01*
X3006140Y14585340D01*
X3020618Y14582597D01*
X3035300Y14581632D01*
X3049981Y14582597D01*
X3064459Y14585340D01*
X3078480Y14589912D01*
X3091840Y14596160D01*
X3104286Y14604034D01*
X3115614Y14613432D01*
X3125724Y14624202D01*
X3134360Y14636089D01*
X3141472Y14649043D01*
X3146907Y14662708D01*
X3150565Y14676983D01*
X3152241Y14690242D01*
X3153562Y14694154D01*
X3156407Y14697201D01*
X3160217Y14698878D01*
X3164382Y14698878D01*
X3168192Y14697201D01*
X3171037Y14694154D01*
X3172358Y14690242D01*
X3174034Y14676983D01*
X3177692Y14662708D01*
X3183128Y14649043D01*
X3190240Y14636089D01*
X3194913Y14629638D01*
X3196386Y14626844D01*
X3196844Y14623694D01*
X3196844Y14367256D01*
X3197352Y14357705D01*
X3198368Y14350441D01*
X3198368Y14271396D01*
X3197606Y14267484D01*
X3195421Y14264233D01*
X3192119Y14261998D01*
X3188208Y14261236D01*
X3184347Y14261998D01*
X3181045Y14264233D01*
X3057347Y14387931D01*
X3050133Y14394434D01*
X3047949Y14396161D01*
X3039973Y14401596D01*
X3028950Y14407286D01*
X3017266Y14411401D01*
X3014573Y14412112D01*
X3002330Y14414246D01*
X2992628Y14414703D01*
X2209647Y14414703D01*
X2205786Y14415516D01*
X2202484Y14417700D01*
X2053183Y14566950D01*
X2050948Y14570354D01*
X2050237Y14574367D01*
X2051151Y14578330D01*
X2053539Y14581632D01*
X2056993Y14583714D01*
X2061057Y14584273D01*
X2064969Y14583206D01*
X2068322Y14581530D01*
X2081225Y14577060D01*
X2094585Y14574316D01*
X2108200Y14573402D01*
X2121814Y14574316D01*
X2135174Y14577060D01*
X2148078Y14581530D01*
X2160219Y14587677D01*
X2171446Y14595398D01*
X2181606Y14604542D01*
X2190394Y14614956D01*
X2197709Y14626437D01*
X2203450Y14638832D01*
X2207514Y14651837D01*
X2209749Y14665299D01*
X2210206Y14678913D01*
X2208885Y14692477D01*
X2205685Y14705736D01*
X2200808Y14718487D01*
X2194255Y14730425D01*
X2186178Y14741398D01*
X2176678Y14751202D01*
X2165959Y14759686D01*
X2154224Y14766594D01*
X2141677Y14771928D01*
X2128520Y14775535D01*
X2115007Y14777364D01*
X2101392Y14777364D01*
X2087880Y14775535D01*
X2074722Y14771928D01*
X2062175Y14766594D01*
X2050440Y14759686D01*
X2039721Y14751202D01*
X2030222Y14741398D01*
X2022144Y14730425D01*
X2015591Y14718487D01*
X2010714Y14705736D01*
X2007514Y14692477D01*
X2006193Y14678913D01*
X2006650Y14665299D01*
X2008886Y14651837D01*
X2012950Y14638832D01*
X2016150Y14631873D01*
X2017064Y14627961D01*
X2016455Y14623999D01*
X2014270Y14620595D01*
X2010968Y14618309D01*
X2007057Y14617446D01*
X2003094Y14618207D01*
X1999742Y14620443D01*
X1914601Y14705584D01*
X1912315Y14709089D01*
X1908708Y14718487D01*
X1902155Y14730425D01*
X1894078Y14741398D01*
X1884578Y14751202D01*
X1873859Y14759686D01*
X1862124Y14766594D01*
X1849577Y14771928D01*
X1836420Y14775535D01*
X1822907Y14777364D01*
X1809292Y14777364D01*
X1795780Y14775535D01*
X1782622Y14771928D01*
X1770075Y14766594D01*
X1758340Y14759686D01*
X1747621Y14751202D01*
X1738122Y14741398D01*
X1730044Y14730425D01*
X1723491Y14718487D01*
X1718614Y14705736D01*
X1715414Y14692477D01*
X1714093Y14678913D01*
X1714550Y14665299D01*
X1716786Y14651837D01*
X1720850Y14638832D01*
X1726590Y14626437D01*
X1733905Y14614956D01*
X1742693Y14604542D01*
X1752854Y14595398D01*
X1764080Y14587677D01*
X1776222Y14581530D01*
X1782165Y14579447D01*
X1785975Y14577060D01*
X2103323Y14259712D01*
X2110536Y14253210D01*
X2112721Y14251482D01*
X2120696Y14246047D01*
X2131720Y14240357D01*
X2143455Y14236242D01*
X2146096Y14235531D01*
X2158339Y14233398D01*
X2168042Y14232890D01*
X2289302Y14232890D01*
X2293670Y14231924D01*
X2297176Y14229181D01*
X2299157Y14225219D01*
X2299258Y14220748D01*
X2298700Y14217904D01*
X2298700Y12982346D01*
X2297938Y12978434D01*
X2295702Y12975132D01*
X2292451Y12972948D01*
X2288540Y12972186D01*
X2284628Y12972948D01*
X2281377Y12975132D01*
X2276805Y12979704D01*
X2274570Y12983006D01*
X2273808Y12986918D01*
X2273808Y13728192D01*
X2272995Y13736218D01*
X2270810Y13743432D01*
X2267254Y13750137D01*
X2262124Y13756335D01*
X1808276Y14210233D01*
X1805889Y14213941D01*
X1805330Y14218259D01*
X1805787Y14224000D01*
X1804924Y14234566D01*
X1802384Y14244878D01*
X1798218Y14254632D01*
X1792579Y14263573D01*
X1785518Y14271498D01*
X1777339Y14278203D01*
X1768144Y14283537D01*
X1758238Y14287296D01*
X1747824Y14289379D01*
X1737258Y14289836D01*
X1726742Y14288566D01*
X1716532Y14285569D01*
X1706981Y14281048D01*
X1698243Y14275003D01*
X1690573Y14267688D01*
X1684223Y14259204D01*
X1679295Y14249806D01*
X1675942Y14239748D01*
X1674469Y14230553D01*
X1672793Y14226489D01*
X1669592Y14223441D01*
X1665376Y14222069D01*
X1660956Y14222628D01*
X1657248Y14225016D01*
X1441754Y14440509D01*
X1434541Y14447012D01*
X1432356Y14448739D01*
X1424381Y14454174D01*
X1413357Y14459864D01*
X1401622Y14463979D01*
X1398981Y14464690D01*
X1386738Y14466824D01*
X1377035Y14467332D01*
X1231392Y14467332D01*
X1227632Y14468043D01*
X1224432Y14470075D01*
X1222197Y14473174D01*
X1221282Y14476882D01*
X1221790Y14480692D01*
X1223670Y14484045D01*
X1225194Y14485823D01*
X1232509Y14497354D01*
X1238250Y14509699D01*
X1242314Y14522754D01*
X1244549Y14536166D01*
X1245006Y14549831D01*
X1243685Y14563394D01*
X1240485Y14576653D01*
X1235608Y14589353D01*
X1229055Y14601342D01*
X1220978Y14612315D01*
X1211478Y14622119D01*
X1200759Y14630552D01*
X1189024Y14637512D01*
X1176477Y14642846D01*
X1163320Y14646452D01*
X1149807Y14648281D01*
X1136192Y14648281D01*
X1122680Y14646452D01*
X1109522Y14642846D01*
X1096975Y14637512D01*
X1085240Y14630552D01*
X1074521Y14622119D01*
X1065022Y14612315D01*
X1056944Y14601342D01*
X1050391Y14589353D01*
X1045514Y14576653D01*
X1042314Y14563394D01*
X1040993Y14549831D01*
X1041450Y14536166D01*
X1043686Y14522754D01*
X1047750Y14509699D01*
X1053490Y14497354D01*
X1060805Y14485823D01*
X1062329Y14484045D01*
X1064209Y14480692D01*
X1064717Y14476882D01*
X1063802Y14473174D01*
X1061567Y14470075D01*
X1058367Y14468043D01*
X1054608Y14467332D01*
X625246Y14467332D01*
X618896Y14467078D01*
X612698Y14466468D01*
X606602Y14465401D01*
X600557Y14463928D01*
X594664Y14462048D01*
X588873Y14459762D01*
X583285Y14457121D01*
X577850Y14454073D01*
X572668Y14450669D01*
X567740Y14446910D01*
X563067Y14442846D01*
X558647Y14438426D01*
X554583Y14433753D01*
X550824Y14428825D01*
X547420Y14423644D01*
X544372Y14418208D01*
X541731Y14412620D01*
X539445Y14406829D01*
X537565Y14400936D01*
X536092Y14394891D01*
X535025Y14388795D01*
X534416Y14382597D01*
X534212Y14376247D01*
X534212Y14313255D01*
X533552Y14309699D01*
X531723Y14306600D01*
X528878Y14304365D01*
X519988Y14301266D01*
X515061Y14298218D01*
X510997Y14294104D01*
X505612Y14285264D01*
X502259Y14282826D01*
X498195Y14282013D01*
X494131Y14282826D01*
X490728Y14285264D01*
X485343Y14294104D01*
X481279Y14298218D01*
X476351Y14301266D01*
X470916Y14303197D01*
X464566Y14303908D01*
X277774Y14303908D01*
X271424Y14303197D01*
X265988Y14301266D01*
X261061Y14298218D01*
X256997Y14294104D01*
X253898Y14289227D01*
X252018Y14283740D01*
X251307Y14277441D01*
X251307Y14090599D01*
X252018Y14084300D01*
X253898Y14078813D01*
X256997Y14073936D01*
X261061Y14069822D01*
X269951Y14064488D01*
X272338Y14061084D01*
X273202Y14057020D01*
X272338Y14052956D01*
X269951Y14049552D01*
X261061Y14044218D01*
X256997Y14040104D01*
X253898Y14035227D01*
X252018Y14029740D01*
X251307Y14023441D01*
X251307Y13836599D01*
X252018Y13830300D01*
X253898Y13824813D01*
X256997Y13819936D01*
X261061Y13815822D01*
X269951Y13810488D01*
X272338Y13807084D01*
X273202Y13803020D01*
X272338Y13798956D01*
X269951Y13795552D01*
X261061Y13790218D01*
X256997Y13786104D01*
X253898Y13781227D01*
X252018Y13775740D01*
X251307Y13769441D01*
X251307Y13582599D01*
X252018Y13576300D01*
X253898Y13570813D01*
X256997Y13565936D01*
X261061Y13561822D01*
X265988Y13558774D01*
X271424Y13556843D01*
X277774Y13556132D01*
X464566Y13556132D01*
X470916Y13556843D01*
X476351Y13558774D01*
X481279Y13561822D01*
X485343Y13565936D01*
X490728Y13574776D01*
X494131Y13577214D01*
X498195Y13578027D01*
X502259Y13577214D01*
X505612Y13574776D01*
X510997Y13565936D01*
X515061Y13561822D01*
X519988Y13558774D01*
X525424Y13556843D01*
X531774Y13556132D01*
X718566Y13556132D01*
X724916Y13556843D01*
X730351Y13558774D01*
X735279Y13561822D01*
X739343Y13565936D01*
X742442Y13570813D01*
X745439Y13579805D01*
X747725Y13582650D01*
X750824Y13584580D01*
X754430Y13585190D01*
X807415Y13585190D01*
X811326Y13584428D01*
X814628Y13582243D01*
X854557Y13542213D01*
X856742Y13538911D01*
X857503Y13534999D01*
X857503Y11412982D01*
X858012Y11403279D01*
X860145Y11391036D01*
X860856Y11388394D01*
X864971Y11376660D01*
X870661Y11365636D01*
X876096Y11357660D01*
X877824Y11355476D01*
X884326Y11348262D01*
X1167180Y11065408D01*
X1174394Y11058906D01*
X1176578Y11057178D01*
X1184554Y11051743D01*
X1195578Y11046053D01*
X1207312Y11041938D01*
X1209954Y11041227D01*
X1222197Y11039094D01*
G37*

%LPD*%
D10*
X2667000Y11506200D02*
G01*
X2324100Y11849100D01*
X1993900Y11849100D01*
X1651000Y11506200D01*
X3683000Y11506200D02*
G01*
X3340100Y11849100D01*
X3009900Y11849100D01*
X2667000Y11506200D01*
X1651000Y11506200D02*
G01*
X1651000Y12610592D01*
X1778507Y12738100D01*
D11*
X3683000Y11506200D02*
G01*
X4114800Y11938000D01*
X4953000Y11938000D01*
X4953000Y11290300D01*
X5448300Y11290300D01*
X5448300Y12570460D01*
X5448300Y12570460D02*
G01*
X5353304Y12570460D01*
X4748784Y13174979D01*
X948436Y13576807D02*
G01*
X849376Y13676121D01*
X3986784Y13174979D02*
G01*
X3986784Y13346684D01*
X3986784Y13346684D02*
G01*
X3986784Y13428979D01*
X3478784Y13936979D01*
X3986784Y13346684D02*
G01*
X4577079Y13346684D01*
X4748784Y13174979D01*
X4970779Y13936979D02*
G01*
X5002784Y13936979D01*
X4748784Y13174979D02*
G01*
X4970779Y13396976D01*
X4970779Y13936979D01*
X3732784Y13174979D02*
G01*
X3289300Y13618463D01*
X3289300Y14365478D01*
X3287775Y14367002D01*
X3287775Y14697455D01*
X3289300Y14698979D01*
X4305300Y14698979D02*
G01*
X4305300Y14380463D01*
X4748784Y13936979D01*
X371094Y14184121D02*
G01*
X371094Y13930121D01*
X371094Y13930121D02*
G01*
X371094Y13676121D01*
X4494784Y13936979D02*
G01*
X3938777Y14492986D01*
X3443986Y14492986D01*
X5226558Y12972795D02*
G01*
X5226558Y14567407D01*
X4912106Y14881860D01*
D12*
X736600Y14706600D02*
G01*
X927100Y14897100D01*
X4447540Y14897100D01*
X4559300Y14785339D01*
X4559300Y14698979D01*
D11*
X625096Y14184119D02*
G01*
X625096Y14376400D01*
X1377289Y14376400D01*
X2108200Y13645489D01*
X3478784Y13174979D02*
G01*
X3132830Y13520930D01*
X3132830Y14183865D01*
X2992884Y14323819D01*
X2167790Y14323819D01*
X1816100Y14675510D01*
D13*
X1778380Y12738100D02*
G01*
X1778380Y13379729D01*
X1746910Y13411200D01*
X1143000Y13741400D02*
G01*
X1143000Y14206397D01*
D11*
X4970779Y13936979D02*
G01*
X4970779Y14031213D01*
X4559300Y14442947D01*
X4559300Y14698979D01*
D13*
X1739900Y14224000D02*
G01*
X2235200Y13728700D01*
X2235200Y12966700D01*
X2387600Y12814300D01*
X4813300Y12814300D01*
D11*
X625094Y13676121D02*
G01*
X849376Y13676121D01*
X4191000Y11506200D02*
G01*
X3814318Y11129518D01*
X1231645Y11129518D01*
X948436Y11412728D01*
X948436Y13576807D01*
X1524000Y13645489D02*
G01*
X1524000Y13474700D01*
X1282700Y13233400D01*
X948436Y13233400D01*
X2108200Y13645489D02*
G01*
X2108200Y12941305D01*
X2373635Y12675870D01*
X4811527Y12675870D01*
X5207000Y12280137D01*
X5207000Y11506200D01*
D14*
G01*
X1524000Y14675510D03*
G01*
X1524000Y13645489D03*
G01*
X1816100Y14675510D03*
G01*
X1816100Y13645489D03*
G01*
X2108200Y14675510D03*
G01*
X2108200Y13645489D03*
D15*
G01*
X3035300Y12412979D03*
G01*
X4813300Y14698979D03*
G01*
X4559300Y14698979D03*
G01*
X4305300Y14698979D03*
G01*
X4051300Y14698979D03*
G01*
X3797300Y14698979D03*
G01*
X3543300Y14698979D03*
G01*
X3289300Y14698979D03*
G01*
X3035300Y14698979D03*
G01*
X4813300Y12412979D03*
G01*
X4559300Y12412979D03*
G01*
X4305300Y12412979D03*
G01*
X4051300Y12412979D03*
G01*
X3797300Y12412979D03*
G01*
X3543300Y12412979D03*
G01*
X3289300Y12412979D03*
G36*
X143598Y14791601D02*
G01*
X313601Y14791601D01*
X313601Y14621598D01*
X143598Y14621598D01*
G37*
D16*
G01*
X482600Y14706600D03*
G01*
X736600Y14706600D03*
D14*
G01*
X1270380Y12738100D03*
G01*
X1778380Y12738100D03*
G36*
X5847079Y14472920D02*
G01*
X6040120Y14472920D01*
X6040120Y14279879D01*
X5847079Y14279879D01*
G37*
G36*
X5847079Y14726920D02*
G01*
X6040120Y14726920D01*
X6040120Y14533879D01*
X5847079Y14533879D01*
G37*
D17*
G01*
X4191000Y11506200D03*
G01*
X4699000Y11506200D03*
G01*
X5207000Y11506200D03*
G01*
X5715000Y11506200D03*
G01*
X3175000Y11506200D03*
G01*
X3683000Y11506200D03*
G01*
X2159000Y11506200D03*
G01*
X2667000Y11506200D03*
G01*
X1143000Y11506200D03*
G01*
X1651000Y11506200D03*
D18*
G01*
X5448300Y12570460D03*
G01*
X5448300Y13078460D03*
D19*
G01*
X625170Y13676020D03*
G01*
X371170Y13676020D03*
G01*
X625170Y13930020D03*
G01*
X371170Y13930020D03*
G01*
X625170Y14184020D03*
G01*
X371170Y14184020D03*
D14*
G01*
X5002809Y13936979D03*
G01*
X4240809Y13936979D03*
G01*
X4494809Y13936979D03*
G01*
X4748809Y13936979D03*
G01*
X4240809Y13174979D03*
G01*
X5002809Y13174979D03*
G01*
X4748809Y13174979D03*
G01*
X4494809Y13174979D03*
G01*
X3986809Y13936979D03*
G01*
X3732809Y13936979D03*
G01*
X3478809Y13936979D03*
G01*
X3478809Y13174979D03*
G01*
X3986809Y13174979D03*
G01*
X3732809Y13174979D03*
G01*
X1746910Y13411200D03*
G01*
X716889Y13411200D03*
G01*
X1143000Y14206397D03*
G01*
X1143000Y14546402D03*
D20*
G01*
X3443986Y14492986D03*
G01*
X5226558Y12972795D03*
G01*
X4912106Y14881860D03*
D21*
G01*
X1143000Y13741400D03*
D22*
G01*
X1143000Y13741400D03*
D21*
G01*
X1739900Y14224000D03*
D22*
G01*
X1739900Y14224000D03*
G01*
X4813300Y12814300D03*
D21*
G01*
X3683711Y14155038D03*
G01*
X3953713Y14155038D03*
G01*
X4763693Y14425041D03*
G01*
X5033695Y14425041D03*
G01*
X5033695Y14155038D03*
G01*
X5573699Y14425041D03*
G01*
X5573699Y14155038D03*
G01*
X5573699Y13885037D03*
G01*
X5573699Y13615060D03*
G01*
X5153202Y12540995D03*
G01*
X5423179Y12810997D03*
G01*
X5693181Y12540995D03*
G01*
X5693181Y12270994D03*
G01*
X5693181Y12000992D03*
G01*
X547801Y13483412D03*
G01*
X1357807Y13753414D03*
G01*
X4327804Y11323421D03*
G01*
X4597781Y11323421D03*
G01*
X-6400Y14937790D03*
G01*
X-6400Y14667788D03*
G01*
X-6400Y12507798D03*
G01*
X-6400Y12237796D03*
G01*
X-6400Y11967794D03*
G01*
X-6400Y11157788D03*
G01*
X263601Y14937790D03*
G01*
X263601Y12507798D03*
G01*
X263601Y12237796D03*
G01*
X263601Y11967794D03*
G01*
X263601Y11157788D03*
G01*
X533603Y14937790D03*
G01*
X533603Y12237796D03*
G01*
X533603Y11967794D03*
G01*
X533603Y11157788D03*
G01*
X803605Y12237796D03*
G01*
X803605Y11967794D03*
G01*
X803605Y11157788D03*
G01*
X1343609Y12237796D03*
G01*
X1343609Y11967794D03*
G01*
X5123586Y14937790D03*
G01*
X5393588Y14937790D03*
G01*
X5663590Y14937790D03*
G01*
X5933592Y14937790D03*
G01*
X5933592Y13317804D03*
G01*
X5933592Y13047802D03*
D23*
X210794Y11418900D02*
G01*
X210794Y11618899D01*
X551179Y11418900D02*
G01*
X551179Y11618899D01*
X210794Y12765100D02*
G01*
X210794Y12965099D01*
X551179Y12765100D02*
G01*
X551179Y12965099D01*
X210794Y11418900D02*
G01*
X210794Y11618899D01*
X551179Y11418900D02*
G01*
X551179Y11618899D01*
X210794Y12765100D02*
G01*
X210794Y12965099D01*
X551179Y12765100D02*
G01*
X551179Y12965099D01*
M02*
