M48
METRIC,LZ,000.000
;FILE_FORMAT=3:3
;TYPE=PLATED
;Layer: PTH_Through
;EasyEDA v6.5.9, 2022-07-22 15:44:18
;5ff184f8cbf64bab9cd3d91aa24c5a25,4245c91a3b6e4cf7aa995480f5c7e4a3,10
;Gerber Generator version 0.2
;Holesize 1 = 0.351 mm
T01C0.351
;Holesize 2 = 0.400 mm
T02C0.400
;Holesize 3 = 0.501 mm
T03C0.501
;Holesize 4 = 0.702 mm
T04C0.702
;Holesize 5 = 0.712 mm
T05C0.712
;Holesize 6 = 0.762 mm
T06C0.762
;Holesize 7 = 0.915 mm
T07C0.915
;Holesize 8 = 1.000 mm
T08C1.000
;Holesize 9 = 1.001 mm
T09C1.001
;Holesize 10 = 1.016 mm
T10C1.016
;Holesize 11 = 1.101 mm
T11C1.101
;Holesize 12 = 1.301 mm
T12C1.301
%
G05
G90
T01
X011430Y137414
X017399Y142240
X036837Y141550
X039537Y141550
X047637Y144250
X050337Y144250
X050337Y141550
X055737Y144250
X055737Y141550
X055737Y138850
X055737Y136151
X051532Y125410
X054232Y128110
X056932Y125410
X056932Y122710
X056932Y120010
X005478Y134834
X013578Y137534
X043278Y113234
X045978Y113234
X-000064Y149378
X-000064Y146678
X-000064Y125078
X-000064Y122378
X-000064Y119678
X-000064Y111578
X002636Y149378
X002636Y125078
X002636Y122378
X002636Y119678
X002636Y111578
X005336Y149378
X005336Y122378
X005336Y119678
X005336Y111578
X008036Y122378
X008036Y119678
X008036Y111578
X013436Y122378
X013436Y119678
X051236Y149378
X053936Y149378
X056636Y149378
X059336Y149378
X059336Y133178
X059336Y130478
T02
X011430Y137414
X017399Y142240
X048133Y128143
T03
X034440Y144930
X052266Y129728
X049121Y148819
T04
X050028Y139370
X042408Y139370
X044948Y139370
X047488Y139370
X042408Y131750
X050028Y131750
X047488Y131750
X044948Y131750
X039868Y139370
X037328Y139370
X034788Y139370
X034788Y131750
X039868Y131750
X037328Y131750
T05
X054483Y125705
X054483Y130785
T06
X011430Y142064
X011430Y145464
T07
X012704Y127381
X017784Y127381
T08
X015240Y146755
X015240Y136455
X018161Y146755
X018161Y136455
X021082Y146755
X021082Y136455
X002108Y114439G85X002108Y115939
X005512Y114439G85X005512Y115939
X002108Y127901G85X002108Y129401
X005512Y127901G85X005512Y129401
X017469Y134112
X007169Y134112
X002108Y114439G85X002108Y115939
X005512Y114439G85X005512Y115939
X002108Y127901G85X002108Y129401
X005512Y127901G85X005512Y129401
T09
X059436Y143764
X059436Y146304
T10
X030353Y124130
X048133Y146990
X045593Y146990
X043053Y146990
X040513Y146990
X037973Y146990
X035433Y146990
X032893Y146990
X030353Y146990
X048133Y124130
X045593Y124130
X043053Y124130
X040513Y124130
X037973Y124130
X035433Y124130
X032893Y124130
X006252Y136760
X003712Y136760
X006252Y139300
X003712Y139300
X006252Y141840
X003712Y141840
T11
X002286Y147066
X004826Y147066
X007366Y147066
T12
X041910Y115062
X046990Y115062
X052070Y115062
X057150Y115062
X031750Y115062
X036830Y115062
X021590Y115062
X026670Y115062
X011430Y115062
X016510Y115062
M30
