G04 Layer: TopLayer*
G04 EasyEDA v6.4.20.6, 2021-07-29T18:27:26+02:00*
G04 b234656e15784b60829a7703d43b9120,4245c91a3b6e4cf7aa995480f5c7e4a3,10*
G04 Gerber Generator version 0.2*
G04 Scale: 100 percent, Rotated: No, Reflected: No *
G04 Dimensions in millimeters *
G04 leading zeros omitted , absolute positions ,4 integer and 5 decimal *
%FSLAX45Y45*%
%MOMM*%

%ADD11C,1.6000*%
%ADD12C,1.3000*%
%ADD13C,4.2000*%
%ADD14C,1.0000*%
%ADD15C,0.7000*%
%ADD17C,1.7000*%
%ADD18C,1.8288*%
%ADD19C,1.5240*%
%ADD21C,2.0320*%
%ADD22C,1.7780*%
%ADD23R,1.8796X1.8796*%
%ADD24C,2.0000*%

%LPD*%
G36*
X5826963Y11574526D02*
G01*
X5822950Y11575694D01*
X5819800Y11578386D01*
X5810250Y11590578D01*
X5799378Y11601450D01*
X5787288Y11610898D01*
X5774131Y11618874D01*
X5760110Y11625173D01*
X5745429Y11629745D01*
X5730341Y11632488D01*
X5719876Y11633149D01*
X5716320Y11634012D01*
X5713323Y11636095D01*
X5156962Y12192406D01*
X5147614Y12200636D01*
X5137302Y12207443D01*
X5128666Y12211710D01*
X5126126Y12212777D01*
X5114340Y12216536D01*
X5102148Y12218670D01*
X5092446Y12219178D01*
X2964535Y12219178D01*
X2960624Y12219940D01*
X2957372Y12222124D01*
X2298954Y12880543D01*
X2296769Y12883794D01*
X2296007Y12887706D01*
X2296769Y12891617D01*
X2298954Y12894868D01*
X2302256Y12897104D01*
X2306167Y12897866D01*
X2958084Y12897866D01*
X2959100Y12898882D01*
X2959100Y13841780D01*
X2959963Y13845895D01*
X2962402Y13849299D01*
X2966008Y13851432D01*
X2970174Y13851890D01*
X2974187Y13850670D01*
X2977337Y13847927D01*
X2979928Y13844524D01*
X2986379Y13837412D01*
X3486912Y13336879D01*
X3496259Y13328650D01*
X3506571Y13321842D01*
X3515207Y13317575D01*
X3517747Y13316508D01*
X3529533Y13312749D01*
X3541725Y13310616D01*
X3551428Y13310107D01*
X3973423Y13310107D01*
X3977335Y13309346D01*
X3980637Y13307161D01*
X4028287Y13259460D01*
X4030472Y13256158D01*
X4031234Y13252246D01*
X4031234Y13219430D01*
X4064050Y13219430D01*
X4067911Y13218668D01*
X4071213Y13216432D01*
X4142587Y13145007D01*
X4144975Y13141198D01*
X4147058Y13135203D01*
X4153204Y13123062D01*
X4160875Y13111886D01*
X4170019Y13101777D01*
X4180382Y13092988D01*
X4191863Y13085673D01*
X4204208Y13079933D01*
X4217212Y13075919D01*
X4230624Y13073684D01*
X4244187Y13073227D01*
X4257751Y13074548D01*
X4270959Y13077698D01*
X4283659Y13082625D01*
X4295597Y13089128D01*
X4306519Y13097205D01*
X4316323Y13106654D01*
X4324756Y13117372D01*
X4331665Y13129056D01*
X4336999Y13141553D01*
X4340606Y13154710D01*
X4342384Y13168172D01*
X4342384Y13174624D01*
X4343196Y13178536D01*
X4345381Y13181838D01*
X4348683Y13184022D01*
X4352544Y13184784D01*
X4356455Y13184022D01*
X4359757Y13181838D01*
X4396587Y13144957D01*
X4398975Y13141147D01*
X4401058Y13135203D01*
X4407204Y13123062D01*
X4414875Y13111886D01*
X4424019Y13101777D01*
X4434382Y13092988D01*
X4445863Y13085673D01*
X4458208Y13079933D01*
X4471212Y13075919D01*
X4484624Y13073684D01*
X4498187Y13073227D01*
X4511751Y13074548D01*
X4524959Y13077698D01*
X4537659Y13082625D01*
X4549597Y13089128D01*
X4560519Y13097205D01*
X4570323Y13106654D01*
X4578756Y13117372D01*
X4585665Y13129056D01*
X4590999Y13141553D01*
X4594606Y13154710D01*
X4596384Y13168172D01*
X4596384Y13181787D01*
X4594606Y13195249D01*
X4590999Y13208406D01*
X4585665Y13220903D01*
X4578756Y13232587D01*
X4570323Y13243306D01*
X4560519Y13252754D01*
X4549597Y13260832D01*
X4537659Y13267334D01*
X4528210Y13270992D01*
X4524705Y13273278D01*
X4008120Y13789812D01*
X3998772Y13798042D01*
X3988460Y13804849D01*
X3979824Y13809116D01*
X3977284Y13810183D01*
X3965498Y13813942D01*
X3953306Y13816076D01*
X3943604Y13816584D01*
X3752240Y13816584D01*
X3748125Y13817447D01*
X3744722Y13819886D01*
X3742588Y13823492D01*
X3742131Y13827658D01*
X3743350Y13831620D01*
X3746093Y13834821D01*
X3749903Y13836599D01*
X3762959Y13839698D01*
X3775659Y13844625D01*
X3787597Y13851128D01*
X3798519Y13859205D01*
X3808323Y13868654D01*
X3816756Y13879372D01*
X3823665Y13891056D01*
X3828999Y13903553D01*
X3832606Y13916710D01*
X3834384Y13930172D01*
X3834384Y13943787D01*
X3832606Y13957249D01*
X3828999Y13970406D01*
X3823665Y13982903D01*
X3816756Y13994587D01*
X3808323Y14005306D01*
X3798519Y14014754D01*
X3787597Y14022832D01*
X3775659Y14029334D01*
X3762959Y14034262D01*
X3749751Y14037411D01*
X3736187Y14038732D01*
X3722624Y14038275D01*
X3709212Y14036040D01*
X3696208Y14032026D01*
X3683863Y14026286D01*
X3672382Y14018971D01*
X3662019Y14010182D01*
X3652875Y14000073D01*
X3645204Y13988897D01*
X3639058Y13976756D01*
X3634587Y13963904D01*
X3631895Y13950543D01*
X3630980Y13936980D01*
X3631895Y13923416D01*
X3634587Y13910056D01*
X3639058Y13897203D01*
X3645204Y13885062D01*
X3652875Y13873886D01*
X3662019Y13863777D01*
X3672382Y13854988D01*
X3683863Y13847673D01*
X3696208Y13841933D01*
X3709212Y13837919D01*
X3716223Y13836751D01*
X3720185Y13835126D01*
X3723182Y13832078D01*
X3724605Y13828013D01*
X3724249Y13823746D01*
X3722166Y13820038D01*
X3718712Y13817447D01*
X3714546Y13816584D01*
X3491077Y13816584D01*
X3487165Y13817346D01*
X3483914Y13819530D01*
X3437331Y13866113D01*
X3435096Y13869416D01*
X3434334Y13873276D01*
X3434334Y13892530D01*
X3415131Y13892530D01*
X3411220Y13893292D01*
X3407918Y13895527D01*
X3392322Y13911122D01*
X3390137Y13914374D01*
X3389376Y13918285D01*
X3389376Y13971269D01*
X3390137Y13975181D01*
X3392322Y13978432D01*
X3395624Y13980668D01*
X3399536Y13981430D01*
X3434334Y13981430D01*
X3434334Y14028369D01*
X3429863Y14026286D01*
X3418382Y14018971D01*
X3403803Y14006728D01*
X3399840Y14005763D01*
X3395878Y14006474D01*
X3392424Y14008607D01*
X3390137Y14011960D01*
X3389376Y14015923D01*
X3389376Y14023492D01*
X3390137Y14027404D01*
X3392322Y14030655D01*
X3664356Y14302740D01*
X3672586Y14312087D01*
X3679393Y14322399D01*
X3683660Y14331035D01*
X3684727Y14333575D01*
X3688486Y14345361D01*
X3690620Y14357553D01*
X3691128Y14367256D01*
X3691128Y14615718D01*
X3691890Y14619681D01*
X3694176Y14622983D01*
X3697528Y14625167D01*
X3701491Y14625878D01*
X3705402Y14625015D01*
X3708654Y14622678D01*
X3717137Y14613636D01*
X3728465Y14604288D01*
X3740912Y14596363D01*
X3754221Y14590115D01*
X3768191Y14585594D01*
X3782618Y14582851D01*
X3797300Y14581886D01*
X3811981Y14582851D01*
X3826408Y14585594D01*
X3840378Y14590115D01*
X3853687Y14596363D01*
X3866134Y14604288D01*
X3877462Y14613636D01*
X3887520Y14624354D01*
X3896156Y14636242D01*
X3903218Y14649145D01*
X3908653Y14662810D01*
X3912311Y14677034D01*
X3914241Y14692223D01*
X3915562Y14696186D01*
X3918153Y14698980D01*
X3915562Y14701774D01*
X3914241Y14705736D01*
X3912311Y14720925D01*
X3908653Y14735149D01*
X3903218Y14748814D01*
X3896156Y14761718D01*
X3887063Y14774113D01*
X3884980Y14777415D01*
X3884320Y14781276D01*
X3885133Y14785086D01*
X3887368Y14788286D01*
X3890619Y14790470D01*
X3894480Y14791182D01*
X3954119Y14791182D01*
X3957980Y14790470D01*
X3961231Y14788286D01*
X3963466Y14785086D01*
X3964279Y14781276D01*
X3963619Y14777415D01*
X3961079Y14773605D01*
X3952443Y14761718D01*
X3945382Y14748814D01*
X3939946Y14735149D01*
X3936288Y14720925D01*
X3934358Y14705736D01*
X3933037Y14701774D01*
X3930446Y14698980D01*
X3933037Y14696186D01*
X3934358Y14692223D01*
X3936288Y14677034D01*
X3939946Y14662810D01*
X3945382Y14649145D01*
X3952443Y14636242D01*
X3961079Y14624354D01*
X3971137Y14613636D01*
X3982465Y14604288D01*
X3994912Y14596363D01*
X4008221Y14590115D01*
X4022191Y14585594D01*
X4036618Y14582851D01*
X4051300Y14581886D01*
X4065981Y14582851D01*
X4080408Y14585594D01*
X4094378Y14590115D01*
X4107687Y14596363D01*
X4120134Y14604288D01*
X4131462Y14613636D01*
X4141520Y14624354D01*
X4150156Y14636242D01*
X4157218Y14649145D01*
X4162653Y14662810D01*
X4166311Y14677034D01*
X4168241Y14692223D01*
X4169562Y14696186D01*
X4172153Y14698980D01*
X4169562Y14701774D01*
X4168241Y14705736D01*
X4166311Y14720925D01*
X4162653Y14735149D01*
X4157218Y14748814D01*
X4150156Y14761718D01*
X4141063Y14774113D01*
X4138980Y14777415D01*
X4138320Y14781276D01*
X4139133Y14785086D01*
X4141368Y14788286D01*
X4144619Y14790470D01*
X4148480Y14791182D01*
X4208119Y14791182D01*
X4211980Y14790470D01*
X4215231Y14788286D01*
X4217466Y14785086D01*
X4218279Y14781276D01*
X4217619Y14777415D01*
X4215079Y14773605D01*
X4206443Y14761718D01*
X4199382Y14748814D01*
X4193946Y14735149D01*
X4190288Y14720925D01*
X4188358Y14705736D01*
X4187037Y14701774D01*
X4184446Y14698980D01*
X4187037Y14696186D01*
X4188358Y14692223D01*
X4190288Y14677034D01*
X4193946Y14662810D01*
X4199382Y14649145D01*
X4206443Y14636242D01*
X4215079Y14624354D01*
X4225137Y14613636D01*
X4236466Y14604288D01*
X4248912Y14596363D01*
X4262221Y14590115D01*
X4276191Y14585594D01*
X4290618Y14582851D01*
X4305300Y14581886D01*
X4319981Y14582851D01*
X4334408Y14585594D01*
X4348378Y14590115D01*
X4361688Y14596363D01*
X4374134Y14604288D01*
X4385462Y14613636D01*
X4395520Y14624354D01*
X4404156Y14636242D01*
X4411218Y14649145D01*
X4416653Y14662810D01*
X4420311Y14677034D01*
X4422140Y14691613D01*
X4422140Y14706346D01*
X4420311Y14720925D01*
X4416653Y14735149D01*
X4411218Y14748814D01*
X4404156Y14761718D01*
X4395063Y14774113D01*
X4392980Y14777415D01*
X4392320Y14781276D01*
X4393133Y14785086D01*
X4395368Y14788286D01*
X4398619Y14790470D01*
X4402480Y14791182D01*
X4462119Y14791182D01*
X4465980Y14790470D01*
X4469231Y14788286D01*
X4471466Y14785086D01*
X4472279Y14781276D01*
X4471619Y14777415D01*
X4469079Y14773605D01*
X4460443Y14761718D01*
X4454601Y14751050D01*
X4507230Y14751050D01*
X4507230Y14781022D01*
X4507992Y14784933D01*
X4510227Y14788235D01*
X4513478Y14790419D01*
X4517390Y14791182D01*
X4601210Y14791182D01*
X4605121Y14790419D01*
X4608372Y14788235D01*
X4610608Y14784933D01*
X4611370Y14781022D01*
X4611370Y14751050D01*
X4663998Y14751050D01*
X4658156Y14761718D01*
X4649063Y14774113D01*
X4646980Y14777415D01*
X4646320Y14781276D01*
X4647133Y14785086D01*
X4649368Y14788286D01*
X4652619Y14790470D01*
X4656480Y14791182D01*
X4716119Y14791182D01*
X4719980Y14790470D01*
X4723231Y14788286D01*
X4725466Y14785086D01*
X4726279Y14781276D01*
X4725619Y14777415D01*
X4723079Y14773605D01*
X4714443Y14761718D01*
X4707382Y14748814D01*
X4701946Y14735149D01*
X4698288Y14720925D01*
X4696460Y14706346D01*
X4696460Y14691613D01*
X4698288Y14677034D01*
X4701946Y14662810D01*
X4707382Y14649145D01*
X4714443Y14636242D01*
X4723079Y14624354D01*
X4733137Y14613636D01*
X4744466Y14604288D01*
X4756912Y14596363D01*
X4770221Y14590115D01*
X4773828Y14588642D01*
X4775657Y14587169D01*
X4806950Y14555927D01*
X4817567Y14546580D01*
X4829048Y14538909D01*
X4841443Y14532813D01*
X4854549Y14528342D01*
X4868113Y14525650D01*
X4882235Y14524736D01*
X5817158Y14524736D01*
X5820511Y14524177D01*
X5823508Y14522551D01*
X5825794Y14520011D01*
X5827064Y14517928D01*
X5831128Y14513864D01*
X5834126Y14511985D01*
X5837072Y14509191D01*
X5838647Y14505432D01*
X5838647Y14501368D01*
X5837072Y14497608D01*
X5834126Y14494814D01*
X5831128Y14492935D01*
X5827064Y14488871D01*
X5824016Y14484045D01*
X5822137Y14478609D01*
X5821426Y14472361D01*
X5821426Y14280438D01*
X5822137Y14274190D01*
X5824016Y14268754D01*
X5827064Y14263928D01*
X5831128Y14259864D01*
X5833211Y14258594D01*
X5835751Y14256308D01*
X5837377Y14253311D01*
X5837936Y14249958D01*
X5837936Y13621715D01*
X5837174Y13617854D01*
X5834989Y13614552D01*
X5444896Y13224459D01*
X5441594Y13222274D01*
X5437682Y13221462D01*
X5433822Y13222274D01*
X5430520Y13224459D01*
X5416042Y13238886D01*
X5406694Y13247116D01*
X5396382Y13253923D01*
X5387746Y13258190D01*
X5385206Y13259257D01*
X5373420Y13263016D01*
X5361228Y13265150D01*
X5351526Y13265657D01*
X5051399Y13265657D01*
X5048859Y13265962D01*
X5036210Y13270992D01*
X5032705Y13273278D01*
X4488027Y13817955D01*
X4485792Y13821308D01*
X4485030Y13825270D01*
X4485894Y13829182D01*
X4488180Y13832484D01*
X4491583Y13834618D01*
X4495546Y13835278D01*
X4498187Y13835227D01*
X4511751Y13836548D01*
X4524959Y13839698D01*
X4537659Y13844625D01*
X4549597Y13851128D01*
X4560519Y13859205D01*
X4570323Y13868654D01*
X4578756Y13879372D01*
X4585665Y13891056D01*
X4590999Y13903553D01*
X4594606Y13916710D01*
X4596384Y13930172D01*
X4596384Y13943787D01*
X4594606Y13957249D01*
X4590999Y13970406D01*
X4585665Y13982903D01*
X4578756Y13994587D01*
X4570323Y14005306D01*
X4560519Y14014754D01*
X4549597Y14022832D01*
X4537659Y14029334D01*
X4524959Y14034262D01*
X4511751Y14037411D01*
X4498187Y14038732D01*
X4484624Y14038275D01*
X4471212Y14036040D01*
X4458208Y14032026D01*
X4445863Y14026286D01*
X4434382Y14018971D01*
X4424019Y14010182D01*
X4414875Y14000073D01*
X4407204Y13988897D01*
X4401058Y13976756D01*
X4396587Y13963904D01*
X4393895Y13950543D01*
X4392980Y13936827D01*
X4391964Y13933119D01*
X4389678Y13930020D01*
X4386376Y13927988D01*
X4382617Y13927378D01*
X4378807Y13928191D01*
X4375658Y13930325D01*
X4339437Y13966545D01*
X4337253Y13969746D01*
X4331665Y13982903D01*
X4324756Y13994587D01*
X4316323Y14005306D01*
X4306519Y14014754D01*
X4295597Y14022832D01*
X4283659Y14029334D01*
X4270959Y14034262D01*
X4257751Y14037411D01*
X4244187Y14038732D01*
X4230624Y14038275D01*
X4217212Y14036040D01*
X4204208Y14032026D01*
X4191863Y14026286D01*
X4180382Y14018971D01*
X4170019Y14010182D01*
X4160875Y14000073D01*
X4153204Y13988897D01*
X4147058Y13976756D01*
X4142587Y13963904D01*
X4139895Y13950543D01*
X4138980Y13936980D01*
X4139895Y13923416D01*
X4142587Y13910056D01*
X4147058Y13897203D01*
X4153204Y13885062D01*
X4160875Y13873886D01*
X4170019Y13863777D01*
X4180382Y13854988D01*
X4191863Y13847673D01*
X4204208Y13841933D01*
X4208983Y13840155D01*
X4210913Y13838631D01*
X4790287Y13259307D01*
X4792472Y13256006D01*
X4793234Y13252094D01*
X4793234Y13219430D01*
X4825898Y13219430D01*
X4829810Y13218668D01*
X4833112Y13216432D01*
X4904587Y13144957D01*
X4906975Y13141147D01*
X4909058Y13135203D01*
X4915204Y13123062D01*
X4922875Y13111886D01*
X4932019Y13101777D01*
X4942382Y13092988D01*
X4953863Y13085673D01*
X4960010Y13082828D01*
X4963160Y13080542D01*
X4965242Y13077240D01*
X4965903Y13073380D01*
X4965039Y13069569D01*
X4962804Y13066318D01*
X4959553Y13064185D01*
X4955743Y13063474D01*
X4796383Y13063474D01*
X4792065Y13064439D01*
X4789830Y13066115D01*
X4786985Y13064236D01*
X4783074Y13063474D01*
X4714494Y13063474D01*
X4710633Y13064236D01*
X4708144Y13065861D01*
X4705553Y13064185D01*
X4701743Y13063474D01*
X4588510Y13063474D01*
X4578807Y13062965D01*
X4566615Y13060832D01*
X4554829Y13057073D01*
X4552289Y13056006D01*
X4543653Y13051739D01*
X4533341Y13044932D01*
X4523994Y13036702D01*
X4011117Y12523876D01*
X4008272Y12521844D01*
X3994912Y12515596D01*
X3982465Y12507671D01*
X3971137Y12498324D01*
X3961079Y12487605D01*
X3952443Y12475718D01*
X3945382Y12462814D01*
X3939946Y12449149D01*
X3936288Y12434925D01*
X3934358Y12419736D01*
X3933037Y12415774D01*
X3930446Y12412980D01*
X3933037Y12410186D01*
X3934358Y12406223D01*
X3936288Y12391034D01*
X3939946Y12376810D01*
X3945382Y12363145D01*
X3952443Y12350242D01*
X3961079Y12338354D01*
X3971137Y12327636D01*
X3982465Y12318288D01*
X3994912Y12310364D01*
X4008221Y12304115D01*
X4022191Y12299594D01*
X4036618Y12296851D01*
X4051300Y12295886D01*
X4065981Y12296851D01*
X4080408Y12299594D01*
X4094378Y12304115D01*
X4107687Y12310364D01*
X4120134Y12318288D01*
X4131462Y12327636D01*
X4141520Y12338354D01*
X4150156Y12350242D01*
X4157218Y12363145D01*
X4162653Y12376810D01*
X4166311Y12391034D01*
X4168241Y12406223D01*
X4169562Y12410186D01*
X4172407Y12413234D01*
X4176217Y12414910D01*
X4180382Y12414910D01*
X4184192Y12413234D01*
X4187037Y12410186D01*
X4188358Y12406223D01*
X4190288Y12391034D01*
X4193946Y12376810D01*
X4199382Y12363145D01*
X4206443Y12350242D01*
X4215079Y12338354D01*
X4225137Y12327636D01*
X4236466Y12318288D01*
X4248912Y12310364D01*
X4262221Y12304115D01*
X4276191Y12299594D01*
X4290618Y12296851D01*
X4305300Y12295886D01*
X4319981Y12296851D01*
X4334408Y12299594D01*
X4348378Y12304115D01*
X4361688Y12310364D01*
X4374134Y12318288D01*
X4385462Y12327636D01*
X4395520Y12338354D01*
X4404156Y12350242D01*
X4411218Y12363145D01*
X4416653Y12376810D01*
X4420311Y12391034D01*
X4422241Y12406223D01*
X4423562Y12410186D01*
X4426153Y12412980D01*
X4423562Y12415774D01*
X4422241Y12419736D01*
X4420311Y12434925D01*
X4416653Y12449149D01*
X4411218Y12462814D01*
X4404156Y12475718D01*
X4395520Y12487605D01*
X4385462Y12498324D01*
X4374134Y12507671D01*
X4361688Y12515596D01*
X4348378Y12521844D01*
X4334408Y12526365D01*
X4319981Y12529108D01*
X4305300Y12530074D01*
X4298442Y12529616D01*
X4294378Y12530175D01*
X4290923Y12532258D01*
X4288536Y12535560D01*
X4287621Y12539573D01*
X4288383Y12543536D01*
X4290618Y12546939D01*
X4622850Y12879171D01*
X4626102Y12881356D01*
X4630013Y12882118D01*
X5226202Y12882118D01*
X5238902Y12883032D01*
X5250992Y12885521D01*
X5262676Y12889687D01*
X5273649Y12895376D01*
X5283758Y12902488D01*
X5292801Y12910921D01*
X5300624Y12920522D01*
X5307025Y12931089D01*
X5311952Y12942468D01*
X5315305Y12954355D01*
X5316982Y12966598D01*
X5316982Y12978993D01*
X5315305Y12991236D01*
X5311952Y13003123D01*
X5307025Y13014502D01*
X5300624Y13025069D01*
X5292801Y13034670D01*
X5283758Y13043103D01*
X5273649Y13050215D01*
X5262676Y13055904D01*
X5250992Y13060070D01*
X5238902Y13062559D01*
X5226202Y13063474D01*
X5050383Y13063474D01*
X5046065Y13064439D01*
X5042560Y13067131D01*
X5040528Y13071094D01*
X5040376Y13075513D01*
X5042154Y13079577D01*
X5046522Y13083082D01*
X5048859Y13083997D01*
X5051399Y13084302D01*
X5310022Y13084302D01*
X5313934Y13083540D01*
X5317185Y13081355D01*
X5332526Y13066064D01*
X5334457Y13063321D01*
X5335422Y13060121D01*
X5335778Y13057022D01*
X5339384Y13043052D01*
X5344668Y13029692D01*
X5351576Y13017093D01*
X5360060Y13005460D01*
X5369915Y12994944D01*
X5380990Y12985800D01*
X5393131Y12978079D01*
X5403088Y12973405D01*
X5405932Y12971373D01*
X5834989Y12542367D01*
X5837174Y12539065D01*
X5837936Y12535204D01*
X5837936Y11584635D01*
X5837072Y11580571D01*
X5834684Y11577167D01*
X5831078Y11575034D01*
G37*

%LPC*%
G36*
X4793234Y13083489D02*
G01*
X4803597Y13089128D01*
X4814519Y13097205D01*
X4824323Y13106654D01*
X4832756Y13117372D01*
X4839665Y13129056D01*
X4840325Y13130530D01*
X4793234Y13130530D01*
G37*
G36*
X3289300Y12295886D02*
G01*
X3303981Y12296851D01*
X3318408Y12299594D01*
X3332378Y12304115D01*
X3345687Y12310364D01*
X3358134Y12318288D01*
X3369462Y12327636D01*
X3379520Y12338354D01*
X3388156Y12350242D01*
X3395218Y12363145D01*
X3400653Y12376810D01*
X3404311Y12391034D01*
X3406241Y12406223D01*
X3407562Y12410186D01*
X3410153Y12412980D01*
X3407562Y12415774D01*
X3406241Y12419736D01*
X3404311Y12434925D01*
X3400653Y12449149D01*
X3395218Y12462814D01*
X3388156Y12475718D01*
X3379520Y12487605D01*
X3369462Y12498324D01*
X3358134Y12507671D01*
X3345687Y12515596D01*
X3332378Y12521844D01*
X3318408Y12526365D01*
X3303981Y12529108D01*
X3289300Y12530074D01*
X3274618Y12529108D01*
X3260191Y12526365D01*
X3246221Y12521844D01*
X3232912Y12515596D01*
X3220466Y12507671D01*
X3209137Y12498324D01*
X3199079Y12487605D01*
X3190443Y12475718D01*
X3183382Y12462814D01*
X3177946Y12449149D01*
X3174288Y12434925D01*
X3172358Y12419736D01*
X3171037Y12415774D01*
X3168446Y12412980D01*
X3171037Y12410186D01*
X3172358Y12406223D01*
X3174288Y12391034D01*
X3177946Y12376810D01*
X3183382Y12363145D01*
X3190443Y12350242D01*
X3199079Y12338354D01*
X3209137Y12327636D01*
X3220466Y12318288D01*
X3232912Y12310364D01*
X3246221Y12304115D01*
X3260191Y12299594D01*
X3274618Y12296851D01*
G37*
G36*
X3543300Y12295886D02*
G01*
X3557981Y12296851D01*
X3572408Y12299594D01*
X3586378Y12304115D01*
X3599687Y12310364D01*
X3612134Y12318288D01*
X3623462Y12327636D01*
X3633520Y12338354D01*
X3642156Y12350242D01*
X3649218Y12363145D01*
X3654653Y12376810D01*
X3658311Y12391034D01*
X3660241Y12406223D01*
X3661562Y12410186D01*
X3664153Y12412980D01*
X3661562Y12415774D01*
X3660241Y12419736D01*
X3658311Y12434925D01*
X3654653Y12449149D01*
X3649218Y12462814D01*
X3642156Y12475718D01*
X3633520Y12487605D01*
X3623462Y12498324D01*
X3612134Y12507671D01*
X3599687Y12515596D01*
X3586378Y12521844D01*
X3572408Y12526365D01*
X3557981Y12529108D01*
X3543300Y12530074D01*
X3528618Y12529108D01*
X3514191Y12526365D01*
X3500221Y12521844D01*
X3486912Y12515596D01*
X3474465Y12507671D01*
X3463137Y12498324D01*
X3453079Y12487605D01*
X3444443Y12475718D01*
X3437382Y12462814D01*
X3431946Y12449149D01*
X3428288Y12434925D01*
X3426358Y12419736D01*
X3425037Y12415774D01*
X3422446Y12412980D01*
X3425037Y12410186D01*
X3426358Y12406223D01*
X3428288Y12391034D01*
X3431946Y12376810D01*
X3437382Y12363145D01*
X3444443Y12350242D01*
X3453079Y12338354D01*
X3463137Y12327636D01*
X3474465Y12318288D01*
X3486912Y12310364D01*
X3500221Y12304115D01*
X3514191Y12299594D01*
X3528618Y12296851D01*
G37*
G36*
X4507230Y14594332D02*
G01*
X4507230Y14646910D01*
X4454601Y14646910D01*
X4460443Y14636242D01*
X4469079Y14624354D01*
X4479137Y14613636D01*
X4490466Y14604288D01*
X4502912Y14596363D01*
G37*
G36*
X3523234Y13981430D02*
G01*
X3570325Y13981430D01*
X3569665Y13982903D01*
X3562756Y13994587D01*
X3554323Y14005306D01*
X3544519Y14014754D01*
X3533597Y14022832D01*
X3523234Y14028470D01*
G37*
G36*
X5397500Y12468047D02*
G01*
X5397500Y12519660D01*
X5345785Y12519660D01*
X5351576Y12509093D01*
X5360060Y12497460D01*
X5369915Y12486944D01*
X5380990Y12477800D01*
X5393131Y12470079D01*
G37*
G36*
X5499100Y12468047D02*
G01*
X5503468Y12470079D01*
X5515610Y12477800D01*
X5526684Y12486944D01*
X5536539Y12497460D01*
X5545023Y12509093D01*
X5550814Y12519660D01*
X5499100Y12519660D01*
G37*
G36*
X5047234Y13981430D02*
G01*
X5094325Y13981430D01*
X5093665Y13982903D01*
X5086756Y13994587D01*
X5078323Y14005306D01*
X5068519Y14014754D01*
X5057597Y14022832D01*
X5047234Y14028470D01*
G37*
G36*
X5345785Y12621260D02*
G01*
X5397500Y12621260D01*
X5397500Y12672872D01*
X5393131Y12670840D01*
X5380990Y12663119D01*
X5369915Y12653975D01*
X5360060Y12643459D01*
X5351576Y12631826D01*
G37*
G36*
X5499100Y12621260D02*
G01*
X5550814Y12621260D01*
X5545023Y12631826D01*
X5536539Y12643459D01*
X5526684Y12653975D01*
X5515610Y12663119D01*
X5503468Y12670840D01*
X5499100Y12672872D01*
G37*
G36*
X3482187Y13073227D02*
G01*
X3495751Y13074548D01*
X3508959Y13077698D01*
X3521659Y13082625D01*
X3533597Y13089128D01*
X3544519Y13097205D01*
X3554323Y13106654D01*
X3562756Y13117372D01*
X3569665Y13129056D01*
X3574999Y13141553D01*
X3578606Y13154710D01*
X3580384Y13168172D01*
X3580384Y13181787D01*
X3578606Y13195249D01*
X3574999Y13208406D01*
X3569665Y13220903D01*
X3562756Y13232587D01*
X3554323Y13243306D01*
X3544519Y13252754D01*
X3533597Y13260832D01*
X3521659Y13267334D01*
X3508959Y13272262D01*
X3495751Y13275411D01*
X3482187Y13276732D01*
X3468624Y13276275D01*
X3455212Y13274040D01*
X3442208Y13270026D01*
X3429863Y13264286D01*
X3418382Y13256971D01*
X3408019Y13248182D01*
X3398875Y13238073D01*
X3391204Y13226897D01*
X3385058Y13214756D01*
X3380587Y13201904D01*
X3377895Y13188543D01*
X3376980Y13174980D01*
X3377895Y13161416D01*
X3380587Y13148056D01*
X3385058Y13135203D01*
X3391204Y13123062D01*
X3398875Y13111886D01*
X3408019Y13101777D01*
X3418382Y13092988D01*
X3429863Y13085673D01*
X3442208Y13079933D01*
X3455212Y13075919D01*
X3468624Y13073684D01*
G37*
G36*
X4611370Y14594332D02*
G01*
X4615688Y14596363D01*
X4628134Y14604288D01*
X4639462Y14613636D01*
X4649520Y14624354D01*
X4658156Y14636242D01*
X4663998Y14646910D01*
X4611370Y14646910D01*
G37*
G36*
X3035300Y12295886D02*
G01*
X3049981Y12296851D01*
X3064408Y12299594D01*
X3078378Y12304115D01*
X3091688Y12310364D01*
X3104134Y12318288D01*
X3115462Y12327636D01*
X3125520Y12338354D01*
X3134156Y12350242D01*
X3141218Y12363145D01*
X3146653Y12376810D01*
X3150311Y12391034D01*
X3152241Y12406223D01*
X3153562Y12410186D01*
X3156153Y12412980D01*
X3153562Y12415774D01*
X3152241Y12419736D01*
X3150311Y12434925D01*
X3146653Y12449149D01*
X3141218Y12462814D01*
X3134156Y12475718D01*
X3125520Y12487605D01*
X3115462Y12498324D01*
X3104134Y12507671D01*
X3091688Y12515596D01*
X3078378Y12521844D01*
X3064408Y12526365D01*
X3049981Y12529108D01*
X3035300Y12530074D01*
X3020618Y12529108D01*
X3006191Y12526365D01*
X2992221Y12521844D01*
X2978912Y12515596D01*
X2966466Y12507671D01*
X2955137Y12498324D01*
X2945079Y12487605D01*
X2936443Y12475718D01*
X2929382Y12462814D01*
X2923946Y12449149D01*
X2920288Y12434925D01*
X2918460Y12420346D01*
X2918460Y12405614D01*
X2920288Y12391034D01*
X2923946Y12376810D01*
X2929382Y12363145D01*
X2936443Y12350242D01*
X2945079Y12338354D01*
X2955137Y12327636D01*
X2966466Y12318288D01*
X2978912Y12310364D01*
X2992221Y12304115D01*
X3006191Y12299594D01*
X3020618Y12296851D01*
G37*
G36*
X4911394Y13981430D02*
G01*
X4958334Y13981430D01*
X4958334Y14028369D01*
X4953863Y14026286D01*
X4942382Y14018971D01*
X4932019Y14010182D01*
X4922875Y14000073D01*
X4915204Y13988897D01*
G37*
G36*
X4958334Y13845590D02*
G01*
X4958334Y13892530D01*
X4911394Y13892530D01*
X4915204Y13885062D01*
X4922875Y13873886D01*
X4932019Y13863777D01*
X4942382Y13854988D01*
X4953863Y13847673D01*
G37*
G36*
X3523234Y13845489D02*
G01*
X3533597Y13851128D01*
X3544519Y13859205D01*
X3554323Y13868654D01*
X3562756Y13879372D01*
X3569665Y13891056D01*
X3570325Y13892530D01*
X3523234Y13892530D01*
G37*
G36*
X3736187Y13073227D02*
G01*
X3749751Y13074548D01*
X3762959Y13077698D01*
X3775659Y13082625D01*
X3787597Y13089128D01*
X3798519Y13097205D01*
X3808323Y13106654D01*
X3816756Y13117372D01*
X3823665Y13129056D01*
X3828999Y13141553D01*
X3832606Y13154710D01*
X3834384Y13168172D01*
X3834384Y13181787D01*
X3832606Y13195249D01*
X3828999Y13208406D01*
X3823665Y13220903D01*
X3816756Y13232587D01*
X3808323Y13243306D01*
X3798519Y13252754D01*
X3787597Y13260832D01*
X3775659Y13267334D01*
X3762959Y13272262D01*
X3749751Y13275411D01*
X3736187Y13276732D01*
X3722624Y13276275D01*
X3709212Y13274040D01*
X3696208Y13270026D01*
X3683863Y13264286D01*
X3672382Y13256971D01*
X3662019Y13248182D01*
X3652875Y13238073D01*
X3645204Y13226897D01*
X3639058Y13214756D01*
X3634587Y13201904D01*
X3631895Y13188543D01*
X3630980Y13174980D01*
X3631895Y13161416D01*
X3634587Y13148056D01*
X3639058Y13135203D01*
X3645204Y13123062D01*
X3652875Y13111886D01*
X3662019Y13101777D01*
X3672382Y13092988D01*
X3683863Y13085673D01*
X3696208Y13079933D01*
X3709212Y13075919D01*
X3722624Y13073684D01*
G37*
G36*
X5047234Y13845489D02*
G01*
X5057597Y13851128D01*
X5068519Y13859205D01*
X5078323Y13868654D01*
X5086756Y13879372D01*
X5093665Y13891056D01*
X5094325Y13892530D01*
X5047234Y13892530D01*
G37*
G36*
X4752187Y13835227D02*
G01*
X4765751Y13836548D01*
X4778959Y13839698D01*
X4791659Y13844625D01*
X4803597Y13851128D01*
X4814519Y13859205D01*
X4824323Y13868654D01*
X4832756Y13879372D01*
X4839665Y13891056D01*
X4844999Y13903553D01*
X4848606Y13916710D01*
X4850384Y13930172D01*
X4850384Y13943787D01*
X4848606Y13957249D01*
X4844999Y13970406D01*
X4839665Y13982903D01*
X4832756Y13994587D01*
X4824323Y14005306D01*
X4814519Y14014754D01*
X4803597Y14022832D01*
X4791659Y14029334D01*
X4778959Y14034262D01*
X4765751Y14037411D01*
X4752187Y14038732D01*
X4738624Y14038275D01*
X4725212Y14036040D01*
X4712208Y14032026D01*
X4699863Y14026286D01*
X4688382Y14018971D01*
X4678019Y14010182D01*
X4668875Y14000073D01*
X4661204Y13988897D01*
X4655058Y13976756D01*
X4650587Y13963904D01*
X4647895Y13950543D01*
X4646980Y13936980D01*
X4647895Y13923416D01*
X4650587Y13910056D01*
X4655058Y13897203D01*
X4661204Y13885062D01*
X4668875Y13873886D01*
X4678019Y13863777D01*
X4688382Y13854988D01*
X4699863Y13847673D01*
X4712208Y13841933D01*
X4725212Y13837919D01*
X4738624Y13835684D01*
G37*
G36*
X3990187Y13835227D02*
G01*
X4003751Y13836548D01*
X4016959Y13839698D01*
X4029659Y13844625D01*
X4041597Y13851128D01*
X4052519Y13859205D01*
X4062323Y13868654D01*
X4070756Y13879372D01*
X4077665Y13891056D01*
X4082999Y13903553D01*
X4086606Y13916710D01*
X4088384Y13930172D01*
X4088384Y13943787D01*
X4086606Y13957249D01*
X4082999Y13970406D01*
X4077665Y13982903D01*
X4070756Y13994587D01*
X4062323Y14005306D01*
X4052519Y14014754D01*
X4041597Y14022832D01*
X4029659Y14029334D01*
X4016959Y14034262D01*
X4003751Y14037411D01*
X3990187Y14038732D01*
X3976624Y14038275D01*
X3963212Y14036040D01*
X3950208Y14032026D01*
X3937863Y14026286D01*
X3926382Y14018971D01*
X3916019Y14010182D01*
X3906875Y14000073D01*
X3899204Y13988897D01*
X3893058Y13976756D01*
X3888587Y13963904D01*
X3885895Y13950543D01*
X3884980Y13936980D01*
X3885895Y13923416D01*
X3888587Y13910056D01*
X3893058Y13897203D01*
X3899204Y13885062D01*
X3906875Y13873886D01*
X3916019Y13863777D01*
X3926382Y13854988D01*
X3937863Y13847673D01*
X3950208Y13841933D01*
X3963212Y13837919D01*
X3976624Y13835684D01*
G37*
G36*
X4031234Y13083489D02*
G01*
X4041597Y13089128D01*
X4052519Y13097205D01*
X4062323Y13106654D01*
X4070756Y13117372D01*
X4077665Y13129056D01*
X4078325Y13130530D01*
X4031234Y13130530D01*
G37*
G36*
X4813300Y12295886D02*
G01*
X4827981Y12296851D01*
X4842408Y12299594D01*
X4856378Y12304115D01*
X4869688Y12310364D01*
X4882134Y12318288D01*
X4893462Y12327636D01*
X4903520Y12338354D01*
X4912156Y12350242D01*
X4919218Y12363145D01*
X4924653Y12376810D01*
X4928311Y12391034D01*
X4930140Y12405614D01*
X4930140Y12420346D01*
X4928311Y12434925D01*
X4924653Y12449149D01*
X4919218Y12462814D01*
X4912156Y12475718D01*
X4903520Y12487605D01*
X4893462Y12498324D01*
X4882134Y12507671D01*
X4869688Y12515596D01*
X4856378Y12521844D01*
X4842408Y12526365D01*
X4827981Y12529108D01*
X4813300Y12530074D01*
X4798618Y12529108D01*
X4784191Y12526365D01*
X4770221Y12521844D01*
X4756912Y12515596D01*
X4744466Y12507671D01*
X4733137Y12498324D01*
X4723079Y12487605D01*
X4714443Y12475718D01*
X4707382Y12462814D01*
X4701946Y12449149D01*
X4698288Y12434925D01*
X4696358Y12419736D01*
X4695037Y12415774D01*
X4692446Y12412980D01*
X4695037Y12410186D01*
X4696358Y12406223D01*
X4698288Y12391034D01*
X4701946Y12376810D01*
X4707382Y12363145D01*
X4714443Y12350242D01*
X4723079Y12338354D01*
X4733137Y12327636D01*
X4744466Y12318288D01*
X4756912Y12310364D01*
X4770221Y12304115D01*
X4784191Y12299594D01*
X4798618Y12296851D01*
G37*
G36*
X3942334Y13083590D02*
G01*
X3942334Y13130530D01*
X3895394Y13130530D01*
X3899204Y13123062D01*
X3906875Y13111886D01*
X3916019Y13101777D01*
X3926382Y13092988D01*
X3937863Y13085673D01*
G37*
G36*
X4704334Y13083590D02*
G01*
X4704334Y13130530D01*
X4657394Y13130530D01*
X4661204Y13123062D01*
X4668875Y13111886D01*
X4678019Y13101777D01*
X4688382Y13092988D01*
X4699863Y13085673D01*
G37*
G36*
X4559300Y12295886D02*
G01*
X4573981Y12296851D01*
X4588408Y12299594D01*
X4602378Y12304115D01*
X4615688Y12310364D01*
X4628134Y12318288D01*
X4639462Y12327636D01*
X4649520Y12338354D01*
X4658156Y12350242D01*
X4665218Y12363145D01*
X4670653Y12376810D01*
X4674311Y12391034D01*
X4676241Y12406223D01*
X4677562Y12410186D01*
X4680153Y12412980D01*
X4677562Y12415774D01*
X4676241Y12419736D01*
X4674311Y12434925D01*
X4670653Y12449149D01*
X4665218Y12462814D01*
X4658156Y12475718D01*
X4649520Y12487605D01*
X4639462Y12498324D01*
X4628134Y12507671D01*
X4615688Y12515596D01*
X4602378Y12521844D01*
X4588408Y12526365D01*
X4573981Y12529108D01*
X4559300Y12530074D01*
X4544618Y12529108D01*
X4530191Y12526365D01*
X4516221Y12521844D01*
X4502912Y12515596D01*
X4490466Y12507671D01*
X4479137Y12498324D01*
X4469079Y12487605D01*
X4460443Y12475718D01*
X4453382Y12462814D01*
X4447946Y12449149D01*
X4444288Y12434925D01*
X4442358Y12419736D01*
X4441037Y12415774D01*
X4438446Y12412980D01*
X4441037Y12410186D01*
X4442358Y12406223D01*
X4444288Y12391034D01*
X4447946Y12376810D01*
X4453382Y12363145D01*
X4460443Y12350242D01*
X4469079Y12338354D01*
X4479137Y12327636D01*
X4490466Y12318288D01*
X4502912Y12310364D01*
X4516221Y12304115D01*
X4530191Y12299594D01*
X4544618Y12296851D01*
G37*
G36*
X4657394Y13219430D02*
G01*
X4704334Y13219430D01*
X4704334Y13266369D01*
X4699863Y13264286D01*
X4688382Y13256971D01*
X4678019Y13248182D01*
X4668875Y13238073D01*
X4661204Y13226897D01*
G37*
G36*
X3895394Y13219430D02*
G01*
X3942334Y13219430D01*
X3942334Y13266369D01*
X3937863Y13264286D01*
X3926382Y13256971D01*
X3916019Y13248182D01*
X3906875Y13238073D01*
X3899204Y13226897D01*
G37*
G36*
X3797300Y12295886D02*
G01*
X3811981Y12296851D01*
X3826408Y12299594D01*
X3840378Y12304115D01*
X3853687Y12310364D01*
X3866134Y12318288D01*
X3877462Y12327636D01*
X3887520Y12338354D01*
X3896156Y12350242D01*
X3903218Y12363145D01*
X3908653Y12376810D01*
X3912311Y12391034D01*
X3914241Y12406223D01*
X3915562Y12410186D01*
X3918153Y12412980D01*
X3915562Y12415774D01*
X3914241Y12419736D01*
X3912311Y12434925D01*
X3908653Y12449149D01*
X3903218Y12462814D01*
X3896156Y12475718D01*
X3887520Y12487605D01*
X3877462Y12498324D01*
X3866134Y12507671D01*
X3853687Y12515596D01*
X3840378Y12521844D01*
X3826408Y12526365D01*
X3811981Y12529108D01*
X3797300Y12530074D01*
X3782618Y12529108D01*
X3768191Y12526365D01*
X3754221Y12521844D01*
X3740912Y12515596D01*
X3728465Y12507671D01*
X3717137Y12498324D01*
X3707079Y12487605D01*
X3698443Y12475718D01*
X3691382Y12462814D01*
X3685946Y12449149D01*
X3682288Y12434925D01*
X3680358Y12419736D01*
X3679037Y12415774D01*
X3676446Y12412980D01*
X3679037Y12410186D01*
X3680358Y12406223D01*
X3682288Y12391034D01*
X3685946Y12376810D01*
X3691382Y12363145D01*
X3698443Y12350242D01*
X3707079Y12338354D01*
X3717137Y12327636D01*
X3728465Y12318288D01*
X3740912Y12310364D01*
X3754221Y12304115D01*
X3768191Y12299594D01*
X3782618Y12296851D01*
G37*

%LPD*%
G36*
X3690823Y11143996D02*
G01*
X3686962Y11144758D01*
X3683660Y11146942D01*
X3402837Y11427764D01*
X3400755Y11430762D01*
X3399891Y11434267D01*
X3400298Y11437874D01*
X3403549Y11448796D01*
X3407765Y11469522D01*
X3410102Y11490502D01*
X3410559Y11511686D01*
X3409137Y11532768D01*
X3405835Y11553647D01*
X3400653Y11574119D01*
X3393643Y11594084D01*
X3384854Y11613337D01*
X3374440Y11631726D01*
X3362401Y11649100D01*
X3348837Y11665305D01*
X3333851Y11680240D01*
X3317595Y11693804D01*
X3300222Y11705844D01*
X3281832Y11716258D01*
X3262579Y11724944D01*
X3242614Y11731955D01*
X3222091Y11737086D01*
X3201212Y11740388D01*
X3180130Y11741810D01*
X3158947Y11741302D01*
X3137966Y11738914D01*
X3117240Y11734647D01*
X3097022Y11728551D01*
X3077362Y11720677D01*
X3058566Y11711076D01*
X3040634Y11699798D01*
X3023870Y11686997D01*
X3008071Y11672570D01*
X2787904Y11452047D01*
X2784602Y11449812D01*
X2780690Y11449050D01*
X2724150Y11449050D01*
X2724150Y11414455D01*
X2723388Y11410543D01*
X2721152Y11407241D01*
X2717901Y11405057D01*
X2713990Y11404295D01*
X2620010Y11404295D01*
X2616098Y11405057D01*
X2612847Y11407241D01*
X2610612Y11410543D01*
X2609850Y11414455D01*
X2609850Y11449050D01*
X2553614Y11449050D01*
X2549753Y11449812D01*
X2546451Y11452047D01*
X2397607Y11600840D01*
X2395423Y11604142D01*
X2394661Y11608003D01*
X2394661Y11849404D01*
X2394102Y11865610D01*
X2393696Y11870537D01*
X2391714Y11886641D01*
X2390902Y11891518D01*
X2387447Y11907367D01*
X2386228Y11912142D01*
X2381351Y11927586D01*
X2379675Y11932259D01*
X2373477Y11947194D01*
X2371394Y11951716D01*
X2363876Y11966041D01*
X2361387Y11970308D01*
X2352598Y11983923D01*
X2349754Y11987987D01*
X2339797Y12000738D01*
X2336596Y12004548D01*
X2325471Y12016384D01*
X1437284Y12904571D01*
X1425448Y12915696D01*
X1421638Y12918897D01*
X1408887Y12928854D01*
X1404823Y12931698D01*
X1391208Y12940487D01*
X1386941Y12942976D01*
X1372616Y12950494D01*
X1368094Y12952577D01*
X1353159Y12958775D01*
X1348486Y12960451D01*
X1333042Y12965328D01*
X1328267Y12966547D01*
X1312418Y12970002D01*
X1307541Y12970814D01*
X1291437Y12972796D01*
X1286510Y12973202D01*
X1270304Y12973761D01*
X779983Y12973761D01*
X776122Y12974523D01*
X772820Y12976707D01*
X717956Y13031571D01*
X706120Y13042696D01*
X702310Y13045897D01*
X689559Y13055854D01*
X685495Y13058698D01*
X671880Y13067487D01*
X667613Y13069976D01*
X653288Y13077494D01*
X644652Y13081254D01*
X641299Y13083438D01*
X639064Y13086689D01*
X638251Y13090601D01*
X639013Y13094512D01*
X641197Y13097814D01*
X644550Y13100050D01*
X648411Y13100812D01*
X1520088Y13100812D01*
X1524000Y13100050D01*
X1527251Y13097865D01*
X1819859Y12805257D01*
X1822043Y12802006D01*
X1822805Y12798094D01*
X1822805Y12782550D01*
X1838401Y12782550D01*
X1842262Y12781788D01*
X1845564Y12779552D01*
X2814574Y11810593D01*
X2823921Y11802364D01*
X2834233Y11795556D01*
X2842869Y11791289D01*
X2845409Y11790222D01*
X2857195Y11786463D01*
X2869387Y11784330D01*
X2879090Y11783822D01*
X4288942Y11783822D01*
X4292854Y11783060D01*
X4296105Y11780875D01*
X4569104Y11507876D01*
X4571187Y11504879D01*
X4572050Y11501323D01*
X4572711Y11490858D01*
X4575454Y11475770D01*
X4580026Y11461089D01*
X4586325Y11447068D01*
X4594301Y11433911D01*
X4603750Y11421821D01*
X4614621Y11410950D01*
X4626711Y11401501D01*
X4639868Y11393525D01*
X4653889Y11387226D01*
X4668570Y11382654D01*
X4683658Y11379911D01*
X4699000Y11378946D01*
X4714341Y11379911D01*
X4729429Y11382654D01*
X4744110Y11387226D01*
X4758131Y11393525D01*
X4771288Y11401501D01*
X4783378Y11410950D01*
X4794250Y11421821D01*
X4803698Y11433911D01*
X4811674Y11447068D01*
X4817973Y11461089D01*
X4822545Y11475770D01*
X4825288Y11490858D01*
X4826254Y11506200D01*
X4825288Y11521541D01*
X4822545Y11536629D01*
X4817973Y11551310D01*
X4811674Y11565331D01*
X4803698Y11578488D01*
X4794250Y11590578D01*
X4783378Y11601450D01*
X4771288Y11610898D01*
X4758131Y11618874D01*
X4744110Y11625173D01*
X4729429Y11629745D01*
X4714341Y11632488D01*
X4703876Y11633149D01*
X4700320Y11634012D01*
X4697323Y11636095D01*
X4394962Y11938406D01*
X4385614Y11946636D01*
X4375302Y11953443D01*
X4366666Y11957710D01*
X4364126Y11958777D01*
X4352340Y11962536D01*
X4340148Y11964670D01*
X4330446Y11965178D01*
X2920593Y11965178D01*
X2916682Y11965940D01*
X2913430Y11968124D01*
X1626107Y13255396D01*
X1616760Y13263626D01*
X1606448Y13270433D01*
X1597812Y13274700D01*
X1595272Y13275767D01*
X1583486Y13279526D01*
X1571294Y13281660D01*
X1561592Y13282168D01*
X673404Y13282168D01*
X669544Y13282930D01*
X666242Y13285114D01*
X464718Y13486434D01*
X462534Y13489736D01*
X461772Y13493648D01*
X461772Y13546988D01*
X462432Y13550595D01*
X464312Y13553744D01*
X467258Y13556030D01*
X476250Y13558977D01*
X481126Y13562025D01*
X485140Y13566089D01*
X488188Y13570915D01*
X490728Y13575588D01*
X494131Y13577976D01*
X498195Y13578840D01*
X502259Y13577976D01*
X505612Y13575588D01*
X508152Y13570915D01*
X511200Y13566089D01*
X515213Y13562025D01*
X520090Y13558977D01*
X525475Y13557097D01*
X531774Y13556386D01*
X718566Y13556386D01*
X724865Y13557097D01*
X730250Y13558977D01*
X735126Y13562025D01*
X739140Y13566089D01*
X742188Y13570915D01*
X744118Y13576350D01*
X744829Y13582599D01*
X744829Y13769441D01*
X744118Y13775690D01*
X742188Y13781125D01*
X739140Y13785951D01*
X735126Y13790015D01*
X730250Y13793063D01*
X725627Y13795552D01*
X723239Y13798956D01*
X722376Y13803020D01*
X723239Y13807084D01*
X725627Y13810488D01*
X730250Y13812977D01*
X735126Y13816025D01*
X739140Y13820089D01*
X742188Y13824915D01*
X745185Y13833957D01*
X747420Y13836904D01*
X750570Y13838783D01*
X754227Y13839444D01*
X1220876Y13839444D01*
X1224737Y13838682D01*
X1228039Y13836497D01*
X1512671Y13551662D01*
X1514195Y13549731D01*
X1515973Y13544905D01*
X1519529Y13537285D01*
X1520444Y13533018D01*
X1520444Y13440410D01*
X1520952Y13430707D01*
X1523085Y13418515D01*
X1526844Y13406729D01*
X1527911Y13404189D01*
X1532178Y13395553D01*
X1538986Y13385241D01*
X1547215Y13375894D01*
X2858516Y12064593D01*
X2867863Y12056364D01*
X2878175Y12049556D01*
X2886811Y12045289D01*
X2889351Y12044222D01*
X2901137Y12040463D01*
X2913329Y12038330D01*
X2923032Y12037822D01*
X5050942Y12037822D01*
X5054854Y12037060D01*
X5058105Y12034875D01*
X5585104Y11507876D01*
X5587187Y11504879D01*
X5588050Y11501323D01*
X5588711Y11490858D01*
X5591454Y11475770D01*
X5596026Y11461089D01*
X5602325Y11447068D01*
X5610301Y11433911D01*
X5619750Y11421821D01*
X5630621Y11410950D01*
X5642711Y11401501D01*
X5655868Y11393525D01*
X5669889Y11387226D01*
X5684570Y11382654D01*
X5699658Y11379911D01*
X5715000Y11378946D01*
X5730341Y11379911D01*
X5745429Y11382654D01*
X5760110Y11387226D01*
X5774131Y11393525D01*
X5787288Y11401501D01*
X5799378Y11410950D01*
X5810250Y11421821D01*
X5819800Y11434013D01*
X5822950Y11436705D01*
X5826963Y11437874D01*
X5831078Y11437366D01*
X5834684Y11435232D01*
X5837072Y11431828D01*
X5837936Y11427764D01*
X5837936Y11350955D01*
X5837174Y11347094D01*
X5834989Y11343792D01*
X5638139Y11146942D01*
X5634837Y11144758D01*
X5630976Y11143996D01*
G37*

%LPC*%
G36*
X2553462Y11563350D02*
G01*
X2609850Y11563350D01*
X2609850Y11619738D01*
X2607868Y11618874D01*
X2594711Y11610898D01*
X2582621Y11601450D01*
X2571750Y11590578D01*
X2562301Y11578488D01*
X2554325Y11565331D01*
G37*
G36*
X1203502Y13475004D02*
G01*
X1217066Y13475919D01*
X1230376Y13478611D01*
X1243228Y13483082D01*
X1255369Y13489228D01*
X1266596Y13496899D01*
X1276705Y13506043D01*
X1285443Y13516406D01*
X1292809Y13527887D01*
X1298498Y13540232D01*
X1302562Y13553236D01*
X1304798Y13566648D01*
X1305255Y13580211D01*
X1303883Y13593775D01*
X1300734Y13606983D01*
X1295857Y13619683D01*
X1289304Y13631621D01*
X1281226Y13642594D01*
X1271778Y13652347D01*
X1261110Y13660780D01*
X1249426Y13667689D01*
X1236878Y13673023D01*
X1223772Y13676630D01*
X1210310Y13678407D01*
X1196695Y13678407D01*
X1183182Y13676630D01*
X1170076Y13673023D01*
X1157579Y13667689D01*
X1145844Y13660780D01*
X1135176Y13652347D01*
X1125728Y13642594D01*
X1117650Y13631621D01*
X1111097Y13619683D01*
X1106220Y13606983D01*
X1103071Y13593775D01*
X1101699Y13580211D01*
X1102156Y13566648D01*
X1104442Y13553236D01*
X1108456Y13540232D01*
X1114196Y13527887D01*
X1121511Y13516406D01*
X1130300Y13506043D01*
X1140358Y13496899D01*
X1151585Y13489228D01*
X1163726Y13483082D01*
X1176578Y13478611D01*
X1189888Y13475919D01*
G37*
G36*
X4191000Y11378946D02*
G01*
X4206341Y11379911D01*
X4221429Y11382654D01*
X4236110Y11387226D01*
X4250131Y11393525D01*
X4263288Y11401501D01*
X4275378Y11410950D01*
X4286250Y11421821D01*
X4295698Y11433911D01*
X4303674Y11447068D01*
X4309973Y11461089D01*
X4314545Y11475770D01*
X4317288Y11490858D01*
X4318254Y11506200D01*
X4317288Y11521541D01*
X4314545Y11536629D01*
X4309973Y11551310D01*
X4303674Y11565331D01*
X4295698Y11578488D01*
X4286250Y11590578D01*
X4275378Y11601450D01*
X4263288Y11610898D01*
X4250131Y11618874D01*
X4236110Y11625173D01*
X4221429Y11629745D01*
X4206341Y11632488D01*
X4191000Y11633454D01*
X4175658Y11632488D01*
X4160570Y11629745D01*
X4145889Y11625173D01*
X4131868Y11618874D01*
X4118711Y11610898D01*
X4106621Y11601450D01*
X4095750Y11590578D01*
X4086301Y11578488D01*
X4078325Y11565331D01*
X4072026Y11551310D01*
X4067454Y11536629D01*
X4064711Y11521541D01*
X4063746Y11506200D01*
X4064711Y11490858D01*
X4067454Y11475770D01*
X4072026Y11461089D01*
X4078325Y11447068D01*
X4086301Y11433911D01*
X4095750Y11421821D01*
X4106621Y11410950D01*
X4118711Y11401501D01*
X4131868Y11393525D01*
X4145889Y11387226D01*
X4160570Y11382654D01*
X4175658Y11379911D01*
G37*
G36*
X3740150Y11563350D02*
G01*
X3796537Y11563350D01*
X3795674Y11565331D01*
X3787698Y11578488D01*
X3778250Y11590578D01*
X3767378Y11601450D01*
X3755288Y11610898D01*
X3742131Y11618874D01*
X3740150Y11619738D01*
G37*
G36*
X2724150Y11563350D02*
G01*
X2780538Y11563350D01*
X2779674Y11565331D01*
X2771698Y11578488D01*
X2762250Y11590578D01*
X2751378Y11601450D01*
X2739288Y11610898D01*
X2726131Y11618874D01*
X2724150Y11619738D01*
G37*
G36*
X3569462Y11563350D02*
G01*
X3625850Y11563350D01*
X3625850Y11619738D01*
X3623868Y11618874D01*
X3610711Y11610898D01*
X3598621Y11601450D01*
X3587750Y11590578D01*
X3578301Y11578488D01*
X3570325Y11565331D01*
G37*
G36*
X3625850Y11392662D02*
G01*
X3625850Y11449050D01*
X3569462Y11449050D01*
X3570325Y11447068D01*
X3578301Y11433911D01*
X3587750Y11421821D01*
X3598621Y11410950D01*
X3610711Y11401501D01*
X3623868Y11393525D01*
G37*
G36*
X5207000Y11378946D02*
G01*
X5222341Y11379911D01*
X5237429Y11382654D01*
X5252110Y11387226D01*
X5266131Y11393525D01*
X5279288Y11401501D01*
X5291378Y11410950D01*
X5302250Y11421821D01*
X5311698Y11433911D01*
X5319674Y11447068D01*
X5325973Y11461089D01*
X5330545Y11475770D01*
X5333288Y11490858D01*
X5334254Y11506200D01*
X5333288Y11521541D01*
X5330545Y11536629D01*
X5325973Y11551310D01*
X5319674Y11565331D01*
X5311698Y11578488D01*
X5302250Y11590578D01*
X5291378Y11601450D01*
X5279288Y11610898D01*
X5266131Y11618874D01*
X5252110Y11625173D01*
X5237429Y11629745D01*
X5222341Y11632488D01*
X5207000Y11633454D01*
X5191658Y11632488D01*
X5176570Y11629745D01*
X5161889Y11625173D01*
X5147868Y11618874D01*
X5134711Y11610898D01*
X5122621Y11601450D01*
X5111750Y11590578D01*
X5102301Y11578488D01*
X5094325Y11565331D01*
X5088026Y11551310D01*
X5083454Y11536629D01*
X5080711Y11521541D01*
X5079746Y11506200D01*
X5080711Y11490858D01*
X5083454Y11475770D01*
X5088026Y11461089D01*
X5094325Y11447068D01*
X5102301Y11433911D01*
X5111750Y11421821D01*
X5122621Y11410950D01*
X5134711Y11401501D01*
X5147868Y11393525D01*
X5161889Y11387226D01*
X5176570Y11382654D01*
X5191658Y11379911D01*
G37*
G36*
X1733905Y12646609D02*
G01*
X1733905Y12693650D01*
X1686864Y12693650D01*
X1687474Y12692176D01*
X1694434Y12680442D01*
X1702866Y12669774D01*
X1712620Y12660325D01*
X1723593Y12652248D01*
G37*
G36*
X1822805Y12646710D02*
G01*
X1827326Y12648793D01*
X1838807Y12656108D01*
X1849170Y12664897D01*
X1858314Y12675006D01*
X1865985Y12686182D01*
X1869744Y12693650D01*
X1822805Y12693650D01*
G37*
G36*
X1686864Y12782550D02*
G01*
X1733905Y12782550D01*
X1733905Y12829590D01*
X1723593Y12823952D01*
X1712620Y12815874D01*
X1702866Y12806426D01*
X1694434Y12795707D01*
X1687474Y12784023D01*
G37*
G36*
X3740150Y11392662D02*
G01*
X3742131Y11393525D01*
X3755288Y11401501D01*
X3767378Y11410950D01*
X3778250Y11421821D01*
X3787698Y11433911D01*
X3795674Y11447068D01*
X3796537Y11449050D01*
X3740150Y11449050D01*
G37*

%LPD*%
G36*
X-66395Y10950143D02*
G01*
X-73761Y10951006D01*
X-78232Y10952581D01*
X-82346Y10954969D01*
X-85852Y10958118D01*
X-88696Y10961928D01*
X-90779Y10966196D01*
X-91948Y10970768D01*
X-92456Y10976203D01*
X-92456Y14997785D01*
X-91592Y15005202D01*
X-90017Y15009672D01*
X-87630Y15013736D01*
X-84480Y15017242D01*
X-80670Y15020137D01*
X-76403Y15022169D01*
X-71831Y15023338D01*
X-66395Y15023846D01*
X6120485Y15023846D01*
X6127902Y15022982D01*
X6132372Y15021407D01*
X6136436Y15019019D01*
X6139942Y15015870D01*
X6142837Y15012060D01*
X6144869Y15007793D01*
X6146038Y15003221D01*
X6146546Y14997785D01*
X6146546Y10976203D01*
X6145682Y10968837D01*
X6144107Y10964367D01*
X6141720Y10960252D01*
X6138570Y10956747D01*
X6134760Y10953902D01*
X6130493Y10951819D01*
X6125921Y10950651D01*
X6120485Y10950143D01*
X5764682Y10950143D01*
X5760821Y10950905D01*
X5757519Y10953140D01*
X5755335Y10956442D01*
X5754522Y10960303D01*
X5755335Y10964214D01*
X5757519Y10967516D01*
X6018072Y11228070D01*
X6027420Y11238687D01*
X6035090Y11250168D01*
X6041186Y11262563D01*
X6045657Y11275669D01*
X6048349Y11289233D01*
X6049264Y11303355D01*
X6049264Y12582804D01*
X6048349Y12596926D01*
X6045657Y12610490D01*
X6041186Y12623596D01*
X6035090Y12635992D01*
X6027420Y12647472D01*
X6018072Y12658090D01*
X5604916Y13071297D01*
X5602681Y13074548D01*
X5601919Y13078460D01*
X5602681Y13082371D01*
X5604916Y13085622D01*
X6018072Y13498830D01*
X6027420Y13509447D01*
X6035090Y13520928D01*
X6041186Y13533323D01*
X6045657Y13546429D01*
X6048349Y13559993D01*
X6049264Y13574115D01*
X6049264Y14249958D01*
X6049822Y14253311D01*
X6051448Y14256308D01*
X6053988Y14258594D01*
X6056071Y14259864D01*
X6060135Y14263928D01*
X6063183Y14268754D01*
X6065062Y14274190D01*
X6065774Y14280438D01*
X6065774Y14472361D01*
X6065062Y14478609D01*
X6063183Y14484045D01*
X6060135Y14488871D01*
X6056071Y14492935D01*
X6053074Y14494814D01*
X6050127Y14497608D01*
X6048552Y14501368D01*
X6048552Y14505432D01*
X6050127Y14509191D01*
X6053074Y14511985D01*
X6056071Y14513864D01*
X6060135Y14517928D01*
X6063183Y14522754D01*
X6065062Y14528190D01*
X6065774Y14534438D01*
X6065774Y14726361D01*
X6065062Y14732609D01*
X6063183Y14738045D01*
X6060135Y14742871D01*
X6056071Y14746935D01*
X6051245Y14749983D01*
X6045809Y14751862D01*
X6039561Y14752574D01*
X5847638Y14752574D01*
X5841390Y14751862D01*
X5835954Y14749983D01*
X5831128Y14746935D01*
X5827064Y14742871D01*
X5825794Y14740788D01*
X5823508Y14738248D01*
X5820511Y14736622D01*
X5817158Y14736063D01*
X4931206Y14736063D01*
X4927244Y14736826D01*
X4923942Y14739112D01*
X4921758Y14742464D01*
X4919218Y14748814D01*
X4912156Y14761718D01*
X4903063Y14774113D01*
X4900980Y14777415D01*
X4900320Y14781276D01*
X4901133Y14785086D01*
X4903368Y14788286D01*
X4906619Y14790470D01*
X4911750Y14791182D01*
X4924450Y14792096D01*
X4936540Y14794585D01*
X4948224Y14798751D01*
X4959197Y14804440D01*
X4969306Y14811552D01*
X4978349Y14819985D01*
X4986172Y14829586D01*
X4992573Y14840153D01*
X4997500Y14851532D01*
X5000853Y14863419D01*
X5002530Y14875662D01*
X5002530Y14888057D01*
X5000853Y14900300D01*
X4997500Y14912187D01*
X4992573Y14923566D01*
X4986172Y14934133D01*
X4978349Y14943734D01*
X4969306Y14952167D01*
X4959197Y14959279D01*
X4948224Y14964968D01*
X4936540Y14969134D01*
X4924450Y14971623D01*
X4911750Y14972487D01*
X1238758Y14972487D01*
X1229055Y14972030D01*
X1216863Y14969896D01*
X1205077Y14966137D01*
X1202537Y14965070D01*
X1193901Y14960803D01*
X1183589Y14953996D01*
X1174242Y14945766D01*
X844499Y14616074D01*
X841248Y14613890D01*
X837336Y14613128D01*
X823976Y14613128D01*
X820216Y14613839D01*
X817016Y14615871D01*
X814781Y14619020D01*
X813866Y14622729D01*
X814374Y14626539D01*
X816254Y14629841D01*
X825246Y14640407D01*
X833018Y14652294D01*
X835609Y14657730D01*
X785469Y14657730D01*
X785469Y14623288D01*
X784656Y14619376D01*
X782472Y14616074D01*
X779170Y14613890D01*
X775309Y14613128D01*
X708507Y14613128D01*
X704596Y14613890D01*
X701344Y14616074D01*
X690727Y14626691D01*
X688543Y14629993D01*
X687730Y14633854D01*
X687730Y14657730D01*
X663854Y14657730D01*
X659993Y14658543D01*
X656691Y14660727D01*
X593496Y14723922D01*
X591667Y14726361D01*
X590702Y14729155D01*
X589635Y14734641D01*
X585165Y14748103D01*
X579018Y14760905D01*
X571246Y14772792D01*
X562051Y14783562D01*
X551586Y14793112D01*
X539953Y14801189D01*
X527405Y14807742D01*
X514096Y14812670D01*
X500278Y14815819D01*
X486156Y14817191D01*
X471982Y14816734D01*
X457962Y14814448D01*
X444398Y14810435D01*
X431444Y14804694D01*
X419303Y14797328D01*
X408228Y14788489D01*
X398373Y14778329D01*
X389890Y14766950D01*
X382930Y14754606D01*
X377596Y14741448D01*
X373989Y14727732D01*
X372211Y14713712D01*
X372211Y14699488D01*
X373989Y14685467D01*
X377596Y14671751D01*
X382930Y14658594D01*
X389890Y14646249D01*
X398373Y14634870D01*
X408228Y14624710D01*
X419303Y14615871D01*
X431444Y14608505D01*
X444398Y14602764D01*
X462838Y14597430D01*
X465378Y14595601D01*
X602488Y14458543D01*
X611835Y14450313D01*
X622147Y14443506D01*
X630783Y14439239D01*
X633323Y14438172D01*
X645109Y14434413D01*
X657301Y14432280D01*
X667004Y14431772D01*
X878840Y14431772D01*
X888542Y14432280D01*
X900734Y14434413D01*
X912520Y14438172D01*
X915060Y14439239D01*
X923696Y14443506D01*
X934008Y14450313D01*
X943356Y14458543D01*
X1085240Y14600428D01*
X1088999Y14602764D01*
X1093368Y14603323D01*
X1097534Y14602002D01*
X1100785Y14599005D01*
X1102461Y14594890D01*
X1104442Y14583206D01*
X1108456Y14570201D01*
X1114196Y14557908D01*
X1121511Y14546427D01*
X1130300Y14536013D01*
X1140358Y14526920D01*
X1151585Y14519198D01*
X1163726Y14513051D01*
X1169517Y14511070D01*
X1173378Y14508632D01*
X1409446Y14272615D01*
X1418793Y14264386D01*
X1429105Y14257578D01*
X1437741Y14253311D01*
X1440281Y14252244D01*
X1452067Y14248485D01*
X1464259Y14246351D01*
X1473962Y14245844D01*
X2930956Y14245844D01*
X2934868Y14245082D01*
X2938170Y14242897D01*
X2945028Y14235988D01*
X2947212Y14232686D01*
X2947974Y14228826D01*
X2947212Y14224914D01*
X2944977Y14221612D01*
X2941726Y14219428D01*
X2937814Y14218666D01*
X2299716Y14218666D01*
X2298700Y14217650D01*
X2298700Y12905333D01*
X2297938Y12901422D01*
X2295702Y12898120D01*
X2292451Y12895935D01*
X2288540Y12895173D01*
X2284628Y12895935D01*
X2281377Y12898120D01*
X1704746Y13474750D01*
X1702562Y13478001D01*
X1701800Y13481913D01*
X1701800Y13533475D01*
X1702714Y13537793D01*
X1706016Y13544905D01*
X1710080Y13557910D01*
X1712315Y13571321D01*
X1712772Y13584936D01*
X1711401Y13598448D01*
X1708251Y13611707D01*
X1703374Y13624407D01*
X1696821Y13636345D01*
X1688795Y13647267D01*
X1679295Y13657072D01*
X1668627Y13665504D01*
X1656943Y13672413D01*
X1643786Y13678001D01*
X1640586Y13680186D01*
X1326946Y13994028D01*
X1319682Y14000530D01*
X1317548Y14002207D01*
X1309573Y14007642D01*
X1307236Y14009014D01*
X1298600Y14013332D01*
X1296060Y14014399D01*
X1284274Y14018158D01*
X1272133Y14020292D01*
X1262380Y14020800D01*
X754176Y14020800D01*
X750570Y14021409D01*
X747471Y14023340D01*
X745185Y14026184D01*
X742188Y14035125D01*
X739140Y14039951D01*
X735126Y14044015D01*
X730250Y14047063D01*
X725627Y14049552D01*
X723239Y14052956D01*
X722376Y14057020D01*
X723239Y14061084D01*
X725627Y14064488D01*
X730250Y14066977D01*
X735126Y14070025D01*
X739140Y14074089D01*
X742188Y14078915D01*
X744118Y14084350D01*
X744829Y14090599D01*
X744829Y14277441D01*
X744118Y14283690D01*
X742188Y14289125D01*
X739140Y14293951D01*
X735126Y14298015D01*
X730250Y14301063D01*
X724865Y14302943D01*
X718566Y14303654D01*
X531774Y14303654D01*
X525475Y14302943D01*
X520090Y14301063D01*
X515213Y14298015D01*
X511200Y14293951D01*
X508152Y14289125D01*
X505612Y14284502D01*
X502259Y14282064D01*
X498195Y14281251D01*
X494131Y14282064D01*
X490728Y14284502D01*
X488188Y14289125D01*
X485140Y14293951D01*
X481126Y14298015D01*
X476250Y14301063D01*
X470865Y14302943D01*
X464566Y14303654D01*
X277774Y14303654D01*
X271475Y14302943D01*
X266090Y14301063D01*
X261213Y14298015D01*
X257200Y14293951D01*
X254152Y14289125D01*
X252221Y14283690D01*
X251561Y14277441D01*
X251561Y14090599D01*
X252221Y14084350D01*
X254152Y14078915D01*
X257200Y14074089D01*
X261213Y14070025D01*
X266090Y14066977D01*
X270713Y14064488D01*
X273100Y14061084D01*
X273964Y14057020D01*
X273100Y14052956D01*
X270713Y14049552D01*
X266090Y14047063D01*
X261213Y14044015D01*
X257200Y14039951D01*
X254152Y14035125D01*
X252221Y14029690D01*
X251561Y14023441D01*
X251561Y13836599D01*
X252221Y13830350D01*
X254152Y13824915D01*
X257200Y13820089D01*
X261213Y13816025D01*
X266090Y13812977D01*
X270713Y13810488D01*
X273100Y13807084D01*
X273964Y13803020D01*
X273100Y13798956D01*
X270713Y13795552D01*
X266090Y13793063D01*
X261213Y13790015D01*
X257200Y13785951D01*
X254152Y13781125D01*
X252221Y13775690D01*
X251561Y13769441D01*
X251561Y13582599D01*
X252221Y13576350D01*
X254152Y13570915D01*
X257200Y13566089D01*
X261213Y13562025D01*
X266090Y13558977D01*
X274980Y13556030D01*
X277876Y13553744D01*
X279755Y13550595D01*
X280416Y13546988D01*
X280416Y13452094D01*
X280924Y13442340D01*
X283057Y13430148D01*
X286867Y13418362D01*
X287883Y13415873D01*
X292201Y13407237D01*
X293573Y13404900D01*
X299008Y13396874D01*
X307187Y13387527D01*
X567436Y13127532D01*
X574548Y13121132D01*
X578561Y13118134D01*
X581406Y13114832D01*
X582676Y13110718D01*
X582015Y13106400D01*
X579678Y13102742D01*
X576021Y13100456D01*
X571703Y13099846D01*
X567182Y13100202D01*
X550976Y13100761D01*
X213614Y13100761D01*
X209702Y13101523D01*
X206400Y13103707D01*
X204216Y13107009D01*
X203454Y13110921D01*
X203454Y14312696D01*
X204216Y14316557D01*
X206400Y14319859D01*
X303072Y14416532D01*
X312420Y14427149D01*
X320090Y14438630D01*
X326186Y14451025D01*
X330657Y14464131D01*
X333349Y14477695D01*
X334264Y14491817D01*
X334264Y14603730D01*
X334670Y14606574D01*
X336651Y14610486D01*
X338531Y14615922D01*
X339242Y14622170D01*
X339242Y14791029D01*
X338531Y14797278D01*
X336651Y14802713D01*
X333603Y14807539D01*
X329539Y14811603D01*
X324713Y14814651D01*
X319278Y14816531D01*
X313029Y14817242D01*
X144170Y14817242D01*
X137922Y14816531D01*
X132486Y14814651D01*
X127660Y14811603D01*
X123596Y14807539D01*
X120548Y14802713D01*
X118668Y14797278D01*
X117957Y14791029D01*
X117957Y14622170D01*
X118668Y14615922D01*
X120548Y14610486D01*
X122529Y14606574D01*
X122935Y14603730D01*
X122935Y14539417D01*
X122174Y14535556D01*
X119989Y14532254D01*
X23317Y14435582D01*
X13970Y14424964D01*
X6299Y14413484D01*
X203Y14401088D01*
X-4267Y14387982D01*
X-6959Y14374418D01*
X-7873Y14360296D01*
X-7873Y12978485D01*
X-6959Y12964363D01*
X-6248Y12960959D01*
X-6096Y12958165D01*
X-6705Y12955422D01*
X-13309Y12937896D01*
X-18897Y12917525D01*
X-22707Y12896748D01*
X-24587Y12875666D01*
X-24587Y12854533D01*
X-22707Y12833451D01*
X-18897Y12812674D01*
X-13309Y12792303D01*
X-5842Y12772491D01*
X3302Y12753441D01*
X14173Y12735306D01*
X26568Y12718186D01*
X40487Y12702235D01*
X55778Y12687655D01*
X72288Y12674447D01*
X89966Y12662814D01*
X108559Y12652806D01*
X128016Y12644475D01*
X148132Y12637973D01*
X168757Y12633248D01*
X189687Y12630404D01*
X211023Y12629438D01*
X449376Y12629438D01*
X453237Y12628676D01*
X456539Y12626492D01*
X511403Y12571628D01*
X523240Y12560503D01*
X527050Y12557302D01*
X539800Y12547346D01*
X543864Y12544501D01*
X557479Y12535712D01*
X561746Y12533223D01*
X576072Y12525705D01*
X580593Y12523622D01*
X595528Y12517424D01*
X600202Y12515748D01*
X615645Y12510871D01*
X620420Y12509652D01*
X636270Y12506198D01*
X641146Y12505385D01*
X657250Y12503404D01*
X662178Y12502997D01*
X678383Y12502438D01*
X1168704Y12502438D01*
X1172565Y12501676D01*
X1175867Y12499492D01*
X1920392Y11754967D01*
X1922576Y11751665D01*
X1923338Y11747804D01*
X1923338Y11506403D01*
X1923897Y11490198D01*
X1924304Y11485270D01*
X1926285Y11469166D01*
X1927098Y11464290D01*
X1930552Y11448440D01*
X1931771Y11443665D01*
X1936648Y11428222D01*
X1938324Y11423548D01*
X1944522Y11408613D01*
X1946605Y11404092D01*
X1954123Y11389766D01*
X1956612Y11385499D01*
X1965401Y11371884D01*
X1968246Y11367820D01*
X1978202Y11355070D01*
X1981403Y11351260D01*
X1992528Y11339423D01*
X2329789Y11002162D01*
X2341626Y10991037D01*
X2345436Y10987836D01*
X2358186Y10977880D01*
X2362250Y10974984D01*
X2371852Y10968888D01*
X2374950Y10965840D01*
X2376474Y10961776D01*
X2376170Y10957458D01*
X2374087Y10953648D01*
X2370632Y10951057D01*
X2366416Y10950143D01*
G37*

%LPC*%
G36*
X637387Y14755469D02*
G01*
X687730Y14755469D01*
X687730Y14805710D01*
X685444Y14804694D01*
X673303Y14797328D01*
X662228Y14788489D01*
X652373Y14778329D01*
X643890Y14766950D01*
G37*
G36*
X785469Y14755469D02*
G01*
X835609Y14755469D01*
X833018Y14760905D01*
X825246Y14772792D01*
X816051Y14783562D01*
X805586Y14793112D01*
X793953Y14801189D01*
X785469Y14805660D01*
G37*
G36*
X564083Y11270538D02*
G01*
X1142796Y11270538D01*
X1164132Y11271504D01*
X1185062Y11274348D01*
X1205687Y11279073D01*
X1225804Y11285575D01*
X1245260Y11293906D01*
X1263853Y11303914D01*
X1281531Y11315547D01*
X1298041Y11328755D01*
X1313332Y11343335D01*
X1327251Y11359286D01*
X1339646Y11376406D01*
X1350518Y11394541D01*
X1359662Y11413591D01*
X1367129Y11433403D01*
X1372717Y11453774D01*
X1376527Y11474551D01*
X1378407Y11495633D01*
X1378407Y11516766D01*
X1376527Y11537848D01*
X1372717Y11558625D01*
X1367129Y11578996D01*
X1359662Y11598808D01*
X1350518Y11617858D01*
X1339646Y11635994D01*
X1327251Y11653113D01*
X1313332Y11669064D01*
X1298041Y11683644D01*
X1281531Y11696852D01*
X1263853Y11708485D01*
X1245260Y11718493D01*
X1225804Y11726824D01*
X1205687Y11733326D01*
X1185062Y11738051D01*
X1164132Y11740896D01*
X1142796Y11741861D01*
X628700Y11741861D01*
X625652Y11742318D01*
X613765Y11746077D01*
X608939Y11747347D01*
X593090Y11750802D01*
X588213Y11751614D01*
X572109Y11753596D01*
X567182Y11754002D01*
X550976Y11754561D01*
X211023Y11754561D01*
X189687Y11753596D01*
X168757Y11750751D01*
X148132Y11746026D01*
X128016Y11739524D01*
X108559Y11731193D01*
X89966Y11721185D01*
X72288Y11709552D01*
X55778Y11696344D01*
X40487Y11681764D01*
X26568Y11665813D01*
X14173Y11648694D01*
X3302Y11630558D01*
X-5842Y11611508D01*
X-13309Y11591696D01*
X-18897Y11571325D01*
X-22707Y11550548D01*
X-24587Y11529466D01*
X-24587Y11508333D01*
X-22707Y11487251D01*
X-18897Y11466474D01*
X-13309Y11446103D01*
X-5842Y11426291D01*
X3302Y11407241D01*
X14173Y11389106D01*
X26568Y11371986D01*
X40487Y11356035D01*
X55778Y11341455D01*
X72288Y11328247D01*
X89966Y11316614D01*
X108559Y11306606D01*
X128016Y11298275D01*
X148132Y11291773D01*
X168757Y11287048D01*
X189687Y11284204D01*
X211023Y11283238D01*
X486359Y11283238D01*
X489407Y11282781D01*
X501294Y11279022D01*
X506120Y11277752D01*
X521970Y11274298D01*
X526846Y11273485D01*
X542950Y11271504D01*
X547878Y11271097D01*
G37*
G36*
X2004415Y13479678D02*
G01*
X2018030Y13480592D01*
X2031339Y13483336D01*
X2044192Y13487806D01*
X2056333Y13493902D01*
X2067560Y13501624D01*
X2077618Y13510717D01*
X2086406Y13521131D01*
X2093722Y13532612D01*
X2099462Y13544956D01*
X2103475Y13557910D01*
X2105761Y13571321D01*
X2106218Y13584936D01*
X2104847Y13598448D01*
X2101697Y13611707D01*
X2096820Y13624407D01*
X2090267Y13636345D01*
X2082190Y13647267D01*
X2072741Y13657072D01*
X2062073Y13665504D01*
X2050338Y13672413D01*
X2037842Y13677747D01*
X2024735Y13681303D01*
X2011222Y13683132D01*
X1997608Y13683132D01*
X1984146Y13681303D01*
X1971039Y13677747D01*
X1958492Y13672413D01*
X1946808Y13665504D01*
X1936140Y13657072D01*
X1926691Y13647267D01*
X1918614Y13636345D01*
X1912061Y13624407D01*
X1907184Y13611707D01*
X1904034Y13598448D01*
X1902663Y13584936D01*
X1903120Y13571321D01*
X1905355Y13557910D01*
X1909419Y13544956D01*
X1915109Y13532612D01*
X1922475Y13521131D01*
X1931212Y13510717D01*
X1941322Y13501624D01*
X1952548Y13493902D01*
X1964689Y13487806D01*
X1977542Y13483336D01*
X1990852Y13480592D01*
G37*
G36*
X1708150Y11563350D02*
G01*
X1764538Y11563350D01*
X1763674Y11565331D01*
X1755698Y11578488D01*
X1746250Y11590578D01*
X1735378Y11601450D01*
X1723288Y11610898D01*
X1710131Y11618874D01*
X1708150Y11619738D01*
G37*
G36*
X1537462Y11563350D02*
G01*
X1593850Y11563350D01*
X1593850Y11619738D01*
X1591868Y11618874D01*
X1578711Y11610898D01*
X1566621Y11601450D01*
X1555750Y11590578D01*
X1546301Y11578488D01*
X1538325Y11565331D01*
G37*
G36*
X1708150Y11392662D02*
G01*
X1710131Y11393525D01*
X1723288Y11401501D01*
X1735378Y11410950D01*
X1746250Y11421821D01*
X1755698Y11433911D01*
X1763674Y11447068D01*
X1764538Y11449050D01*
X1708150Y11449050D01*
G37*
G36*
X1593850Y11392662D02*
G01*
X1593850Y11449050D01*
X1537462Y11449050D01*
X1538325Y11447068D01*
X1546301Y11433911D01*
X1555750Y11421821D01*
X1566621Y11410950D01*
X1578711Y11401501D01*
X1591868Y11393525D01*
G37*

%LPD*%
D11*
X5448300Y13078460D02*
G01*
X5943600Y13573760D01*
X5943600Y14376400D01*
D12*
X1238504Y14881860D02*
G01*
X879094Y14522450D01*
X666750Y14522450D01*
X482600Y14706600D01*
D11*
X210820Y12865100D02*
G01*
X97789Y12978129D01*
X97789Y14360652D01*
X228600Y14491462D01*
D12*
X2004568Y14611604D02*
G01*
X2123186Y14492986D01*
X3443986Y14492986D01*
D11*
X228600Y14706600D02*
G01*
X228600Y14491462D01*
D12*
X4240784Y13936979D02*
G01*
X5002784Y13174979D01*
X4240784Y13174979D02*
G01*
X4015231Y13400786D01*
X3551174Y13400786D01*
X3050286Y13901674D01*
X3050286Y14258797D01*
X2972815Y14336521D01*
X1473707Y14336521D01*
X1203452Y14606778D01*
X625094Y13930121D02*
G01*
X1262634Y13930121D01*
X1611121Y13581379D01*
X371094Y13676121D02*
G01*
X371094Y13451839D01*
X4051300Y12412979D02*
G01*
X4051300Y12435839D01*
X4588256Y12972795D01*
X5226558Y12972795D01*
X3543300Y14698979D02*
G01*
X3600450Y14641829D01*
X3600450Y14367002D01*
X3298697Y14065250D01*
X3298697Y13876528D01*
X3449320Y13725905D01*
X3943858Y13725905D01*
X4494784Y13174979D01*
X5002784Y13174979D02*
G01*
X5351779Y13174979D01*
X5448300Y13078460D01*
X1611121Y13581379D02*
G01*
X1611121Y13440155D01*
X2922777Y12128500D01*
X5092700Y12128500D01*
X5715000Y11506200D01*
X371094Y13451839D02*
G01*
X631697Y13191489D01*
X1561845Y13191489D01*
X2878836Y11874500D01*
X4330700Y11874500D01*
X4699000Y11506200D01*
D13*
X1143000Y11506200D02*
G01*
X563879Y11506200D01*
X551179Y11518900D01*
X551179Y11518900D02*
G01*
X210820Y11518900D01*
D11*
X5943600Y14630400D02*
G01*
X4881879Y14630400D01*
X4813300Y14698979D01*
D13*
X551179Y12865100D02*
G01*
X210820Y12865100D01*
X2159000Y11506200D02*
G01*
X2159000Y11849608D01*
X1270507Y12738100D01*
X1270507Y12738100D02*
G01*
X678179Y12738100D01*
X551179Y12865100D01*
D12*
X4912108Y14881857D02*
G01*
X1238504Y14881857D01*
D13*
X3175000Y11506200D02*
G01*
X2837941Y11168634D01*
X2496565Y11168634D01*
X2159000Y11506200D01*
D11*
X3175000Y11506200D02*
G01*
X3642868Y11038331D01*
X5678931Y11038331D01*
X5943600Y11303000D01*
X5943600Y12583160D01*
X5448300Y13078460D01*
G36*
X143598Y14791601D02*
G01*
X313601Y14791601D01*
X313601Y14621598D01*
X143598Y14621598D01*
G37*
D17*
G01*
X482600Y14706600D03*
G01*
X736600Y14706600D03*
D18*
G01*
X3035300Y12412979D03*
G01*
X4813300Y14698979D03*
G01*
X4559300Y14698979D03*
G01*
X4305300Y14698979D03*
G01*
X4051300Y14698979D03*
G01*
X3797300Y14698979D03*
G01*
X3543300Y14698979D03*
G01*
X3289300Y14698979D03*
G01*
X3035300Y14698979D03*
G01*
X4813300Y12412979D03*
G01*
X4559300Y12412979D03*
G01*
X4305300Y12412979D03*
G01*
X4051300Y12412979D03*
G01*
X3797300Y12412979D03*
G01*
X3543300Y12412979D03*
G01*
X3289300Y12412979D03*
D19*
G01*
X1270380Y12738100D03*
G01*
X1778380Y12738100D03*
G36*
X5847079Y14472920D02*
G01*
X6040120Y14472920D01*
X6040120Y14279879D01*
X5847079Y14279879D01*
G37*
G36*
X5847079Y14726920D02*
G01*
X6040120Y14726920D01*
X6040120Y14533879D01*
X5847079Y14533879D01*
G37*
D21*
G01*
X4191000Y11506200D03*
G01*
X4699000Y11506200D03*
G01*
X5207000Y11506200D03*
G01*
X5715000Y11506200D03*
G01*
X3175000Y11506200D03*
G01*
X3683000Y11506200D03*
G01*
X2159000Y11506200D03*
G01*
X2667000Y11506200D03*
G01*
X1143000Y11506200D03*
G01*
X1651000Y11506200D03*
D22*
G01*
X5448300Y12570460D03*
G01*
X5448300Y13078460D03*
D23*
G01*
X625170Y13676020D03*
G01*
X371170Y13676020D03*
G01*
X625170Y13930020D03*
G01*
X371170Y13930020D03*
G01*
X625170Y14184020D03*
G01*
X371170Y14184020D03*
D19*
G01*
X1203477Y14606828D03*
G01*
X1203477Y13576807D03*
G01*
X1611020Y14611527D03*
G01*
X1611020Y13581506D03*
G01*
X2004440Y14611553D03*
G01*
X2004440Y13581532D03*
G01*
X5002809Y13936979D03*
G01*
X4240809Y13936979D03*
G01*
X4494809Y13936979D03*
G01*
X4748809Y13936979D03*
G01*
X4240809Y13174979D03*
G01*
X5002809Y13174979D03*
G01*
X4748809Y13174979D03*
G01*
X4494809Y13174979D03*
G01*
X3986809Y13936979D03*
G01*
X3732809Y13936979D03*
G01*
X3478809Y13936979D03*
G01*
X3478809Y13174979D03*
G01*
X3986809Y13174979D03*
G01*
X3732809Y13174979D03*
D14*
G01*
X3443986Y14492986D03*
G01*
X5226558Y12972795D03*
G01*
X4912106Y14881860D03*
D15*
G01*
X3262833Y13075030D03*
G01*
X3802837Y14155038D03*
G01*
X4342841Y13615035D03*
G01*
X4612843Y14425041D03*
G01*
X4612843Y13345032D03*
G01*
X4882845Y14425041D03*
G01*
X4882845Y14155038D03*
G01*
X4882845Y13615035D03*
G01*
X5152847Y12805029D03*
G01*
X5422849Y14425041D03*
G01*
X5422849Y14155038D03*
G01*
X5422849Y13885037D03*
G01*
X5422849Y13615035D03*
G01*
X5422849Y13345032D03*
G01*
X5422849Y12805029D03*
G01*
X5422849Y12265050D03*
G01*
X5692825Y14425041D03*
G01*
X5692825Y14155038D03*
G01*
X5692825Y13885037D03*
G01*
X5692825Y13615035D03*
G01*
X5692825Y12535052D03*
G01*
X5692825Y12265050D03*
G01*
X5692825Y11995048D03*
G01*
X566038Y13483666D03*
G01*
X1106043Y13753668D03*
G01*
X1376045Y13483666D03*
G01*
X2456027Y11863654D03*
G01*
X4346041Y11323675D03*
G01*
X4616043Y11863654D03*
G01*
X4616043Y11323675D03*
G01*
X4886045Y11863654D03*
G01*
X4886045Y11593652D03*
G01*
X4886045Y11323675D03*
G01*
X5156047Y11323675D03*
G01*
X5426049Y11323675D03*
G01*
X-6654Y14938044D03*
G01*
X-6654Y14668042D03*
G01*
X-6654Y12508052D03*
G01*
X-6654Y12238050D03*
G01*
X-6654Y11968048D03*
G01*
X-6654Y11158042D03*
G01*
X263347Y14938044D03*
G01*
X263347Y12508052D03*
G01*
X263347Y12238050D03*
G01*
X263347Y11968048D03*
G01*
X263347Y11158042D03*
G01*
X533349Y14938044D03*
G01*
X533349Y14398040D03*
G01*
X533349Y12238050D03*
G01*
X533349Y11968048D03*
G01*
X533349Y11158042D03*
G01*
X803351Y14938044D03*
G01*
X803351Y11158042D03*
G01*
X1073353Y14938044D03*
G01*
X1073353Y14398040D03*
G01*
X1343355Y12238050D03*
G01*
X1343355Y11968048D03*
G01*
X1613357Y11968048D03*
G01*
X1613357Y11698046D03*
G01*
X1883359Y14128038D03*
G01*
X2153361Y14128038D03*
G01*
X2153361Y13858036D03*
G01*
X5123357Y14938044D03*
G01*
X5393359Y14938044D03*
G01*
X5663361Y14938044D03*
G01*
X5933363Y14938044D03*
G01*
X5933363Y13318032D03*
G01*
X5933363Y13048056D03*
D24*
X210794Y11418900D02*
G01*
X210794Y11618899D01*
X551179Y11418900D02*
G01*
X551179Y11618899D01*
X210794Y12765100D02*
G01*
X210794Y12965099D01*
X551179Y12765100D02*
G01*
X551179Y12965099D01*
M02*
