G04 Layer: TopLayer*
G04 EasyEDA v6.5.9, 2022-07-22 15:44:18*
G04 5ff184f8cbf64bab9cd3d91aa24c5a25,4245c91a3b6e4cf7aa995480f5c7e4a3,10*
G04 Gerber Generator version 0.2*
G04 Scale: 100 percent, Rotated: No, Reflected: No *
G04 Dimensions in millimeters *
G04 leading zeros omitted , absolute positions ,4 integer and 5 decimal *
%FSLAX45Y45*%
%MOMM*%

%ADD10C,1.6000*%
%ADD11C,4.2000*%
%ADD12C,1.3000*%
%ADD13C,0.2540*%
%ADD14C,1.5240*%
%ADD15C,1.8288*%
%ADD16C,1.7000*%
%ADD17C,2.0320*%
%ADD18C,1.7780*%
%ADD19R,1.8796X1.8796*%
%ADD20C,1.0000*%
%ADD21C,0.7000*%
%ADD22C,0.8000*%
%ADD23C,2.0000*%
%ADD24C,0.0146*%

%LPD*%
G36*
X3414217Y12413081D02*
G01*
X3410407Y12414758D01*
X3407562Y12417806D01*
X3406241Y12421717D01*
X3404565Y12434976D01*
X3400907Y12449251D01*
X3395472Y12462916D01*
X3388360Y12475870D01*
X3379724Y12487757D01*
X3369614Y12498527D01*
X3358286Y12507925D01*
X3345840Y12515799D01*
X3333750Y12521488D01*
X3330651Y12523724D01*
X3328619Y12526924D01*
X3327908Y12530683D01*
X3327908Y13470940D01*
X3328670Y13474852D01*
X3330905Y13478154D01*
X3334156Y13480338D01*
X3338068Y13481100D01*
X3341979Y13480338D01*
X3345230Y13478154D01*
X3486708Y13336676D01*
X3493922Y13330174D01*
X3496106Y13328446D01*
X3504082Y13323011D01*
X3515106Y13317321D01*
X3526840Y13313206D01*
X3529482Y13312495D01*
X3541725Y13310362D01*
X3551428Y13309904D01*
X3973322Y13309904D01*
X3977233Y13309092D01*
X3980535Y13306907D01*
X4028287Y13259104D01*
X4030472Y13255802D01*
X4031234Y13251891D01*
X4031234Y13219430D01*
X4063695Y13219430D01*
X4067556Y13218668D01*
X4070858Y13216432D01*
X4142333Y13144906D01*
X4144772Y13141045D01*
X4146804Y13135101D01*
X4152950Y13122960D01*
X4160672Y13111734D01*
X4169816Y13101574D01*
X4180230Y13092785D01*
X4191711Y13085470D01*
X4204106Y13079730D01*
X4217111Y13075665D01*
X4230573Y13073430D01*
X4244187Y13072973D01*
X4257802Y13074294D01*
X4271060Y13077494D01*
X4283760Y13082371D01*
X4295749Y13088924D01*
X4306722Y13097002D01*
X4316526Y13106501D01*
X4324959Y13117220D01*
X4331919Y13128955D01*
X4337253Y13141502D01*
X4340860Y13154660D01*
X4342638Y13168172D01*
X4342638Y13174014D01*
X4343450Y13177926D01*
X4345635Y13181177D01*
X4348937Y13183412D01*
X4352798Y13184174D01*
X4356709Y13183412D01*
X4360011Y13181177D01*
X4396384Y13144855D01*
X4398772Y13140994D01*
X4400804Y13135101D01*
X4406950Y13122960D01*
X4414672Y13111734D01*
X4423816Y13101574D01*
X4434230Y13092785D01*
X4445711Y13085470D01*
X4458106Y13079730D01*
X4471111Y13075665D01*
X4484573Y13073430D01*
X4498187Y13072973D01*
X4511802Y13074294D01*
X4525060Y13077494D01*
X4537760Y13082371D01*
X4549749Y13088924D01*
X4560722Y13097002D01*
X4570526Y13106501D01*
X4578959Y13117220D01*
X4585919Y13128955D01*
X4591253Y13141502D01*
X4594860Y13154660D01*
X4596638Y13168172D01*
X4596638Y13181787D01*
X4594860Y13195300D01*
X4591253Y13208457D01*
X4585919Y13221004D01*
X4578959Y13232739D01*
X4570526Y13243458D01*
X4560722Y13252957D01*
X4549749Y13261035D01*
X4537760Y13267588D01*
X4528362Y13271195D01*
X4524806Y13273481D01*
X4008323Y13790015D01*
X4001109Y13796518D01*
X3998925Y13798245D01*
X3990949Y13803680D01*
X3979926Y13809370D01*
X3968191Y13813485D01*
X3965549Y13814196D01*
X3953306Y13816330D01*
X3943604Y13816838D01*
X3754374Y13816838D01*
X3750310Y13817701D01*
X3746906Y13820140D01*
X3744772Y13823746D01*
X3744264Y13827912D01*
X3745534Y13831874D01*
X3748278Y13835075D01*
X3752037Y13836853D01*
X3763060Y13839494D01*
X3775760Y13844371D01*
X3787749Y13850924D01*
X3798722Y13859001D01*
X3808526Y13868501D01*
X3816959Y13879220D01*
X3823919Y13890955D01*
X3829253Y13903502D01*
X3832860Y13916660D01*
X3834637Y13930172D01*
X3834637Y13943787D01*
X3832860Y13957300D01*
X3829253Y13970457D01*
X3823919Y13983004D01*
X3816959Y13994739D01*
X3808526Y14005458D01*
X3798722Y14014957D01*
X3787749Y14023035D01*
X3775760Y14029588D01*
X3763060Y14034465D01*
X3749801Y14037665D01*
X3736187Y14038986D01*
X3722573Y14038529D01*
X3709111Y14036294D01*
X3696106Y14032230D01*
X3683711Y14026489D01*
X3672230Y14019174D01*
X3661816Y14010386D01*
X3652672Y14000226D01*
X3644950Y13988999D01*
X3638804Y13976857D01*
X3634333Y13963954D01*
X3631641Y13950594D01*
X3630726Y13936980D01*
X3631641Y13923365D01*
X3634333Y13910005D01*
X3638804Y13897101D01*
X3644950Y13884960D01*
X3652672Y13873734D01*
X3661816Y13863574D01*
X3672230Y13854785D01*
X3683711Y13847470D01*
X3696106Y13841730D01*
X3709111Y13837666D01*
X3713175Y13837005D01*
X3717137Y13835380D01*
X3720134Y13832332D01*
X3721557Y13828268D01*
X3721201Y13824000D01*
X3719118Y13820292D01*
X3715664Y13817701D01*
X3711498Y13816838D01*
X3491179Y13816838D01*
X3487318Y13817600D01*
X3484016Y13819784D01*
X3437331Y13866469D01*
X3435096Y13869771D01*
X3434334Y13873632D01*
X3434334Y13892530D01*
X3415487Y13892530D01*
X3411575Y13893292D01*
X3408273Y13895527D01*
X3392576Y13911224D01*
X3390392Y13914526D01*
X3389629Y13918387D01*
X3389629Y13971269D01*
X3390392Y13975181D01*
X3392576Y13978432D01*
X3395878Y13980668D01*
X3399790Y13981430D01*
X3434334Y13981430D01*
X3434334Y14028623D01*
X3429711Y14026489D01*
X3418230Y14019174D01*
X3404057Y14007388D01*
X3400094Y14006423D01*
X3396132Y14007134D01*
X3392678Y14009268D01*
X3390392Y14012621D01*
X3389629Y14016583D01*
X3389629Y14023390D01*
X3390392Y14027251D01*
X3392576Y14030553D01*
X3664559Y14302536D01*
X3671062Y14309750D01*
X3672789Y14311934D01*
X3678224Y14319910D01*
X3683914Y14330934D01*
X3688029Y14342668D01*
X3688740Y14345310D01*
X3690874Y14357553D01*
X3691382Y14367256D01*
X3691382Y14615058D01*
X3692144Y14619020D01*
X3694429Y14622322D01*
X3697782Y14624507D01*
X3701745Y14625218D01*
X3705656Y14624354D01*
X3708908Y14622018D01*
X3716985Y14613432D01*
X3728313Y14604034D01*
X3740759Y14596160D01*
X3754120Y14589912D01*
X3768140Y14585340D01*
X3782618Y14582597D01*
X3797300Y14581632D01*
X3811981Y14582597D01*
X3826459Y14585340D01*
X3840479Y14589912D01*
X3853840Y14596160D01*
X3866286Y14604034D01*
X3877614Y14613432D01*
X3887724Y14624202D01*
X3896360Y14636089D01*
X3903472Y14649043D01*
X3908907Y14662708D01*
X3912565Y14676983D01*
X3914241Y14690242D01*
X3915562Y14694154D01*
X3918407Y14697201D01*
X3922217Y14698878D01*
X3926382Y14698878D01*
X3930192Y14697201D01*
X3933037Y14694154D01*
X3934358Y14690242D01*
X3936034Y14676983D01*
X3939692Y14662708D01*
X3945128Y14649043D01*
X3952240Y14636089D01*
X3960876Y14624202D01*
X3970985Y14613432D01*
X3982313Y14604034D01*
X3994759Y14596160D01*
X4008120Y14589912D01*
X4022140Y14585340D01*
X4036618Y14582597D01*
X4051300Y14581632D01*
X4065981Y14582597D01*
X4080459Y14585340D01*
X4094479Y14589912D01*
X4107840Y14596160D01*
X4120286Y14604034D01*
X4131614Y14613432D01*
X4141724Y14624202D01*
X4150360Y14636089D01*
X4157472Y14649043D01*
X4162907Y14662708D01*
X4166565Y14676983D01*
X4168241Y14690242D01*
X4169562Y14694154D01*
X4172407Y14697201D01*
X4176217Y14698878D01*
X4180382Y14698878D01*
X4184192Y14697201D01*
X4187037Y14694154D01*
X4188358Y14690242D01*
X4190034Y14676983D01*
X4193692Y14662708D01*
X4199128Y14649043D01*
X4206240Y14636089D01*
X4214876Y14624202D01*
X4224985Y14613432D01*
X4236313Y14604034D01*
X4248759Y14596160D01*
X4262120Y14589912D01*
X4276140Y14585340D01*
X4290618Y14582597D01*
X4305300Y14581632D01*
X4319981Y14582597D01*
X4334459Y14585340D01*
X4348480Y14589912D01*
X4361840Y14596160D01*
X4374286Y14604034D01*
X4385614Y14613432D01*
X4395724Y14624202D01*
X4404360Y14636089D01*
X4411472Y14649043D01*
X4416907Y14662708D01*
X4420565Y14676983D01*
X4422394Y14691613D01*
X4422394Y14706346D01*
X4420565Y14720976D01*
X4416907Y14735251D01*
X4411472Y14748916D01*
X4404360Y14761870D01*
X4395622Y14773859D01*
X4393539Y14777161D01*
X4392879Y14781022D01*
X4393742Y14784832D01*
X4395927Y14788032D01*
X4399229Y14790216D01*
X4403039Y14790928D01*
X4461560Y14790928D01*
X4465370Y14790216D01*
X4468672Y14788032D01*
X4470857Y14784832D01*
X4471720Y14781022D01*
X4471060Y14777161D01*
X4468876Y14773757D01*
X4460240Y14761870D01*
X4454296Y14751050D01*
X4507230Y14751050D01*
X4507230Y14780768D01*
X4507992Y14784679D01*
X4510227Y14787981D01*
X4513478Y14790166D01*
X4517390Y14790928D01*
X4601210Y14790928D01*
X4605121Y14790166D01*
X4608372Y14787981D01*
X4610608Y14784679D01*
X4611370Y14780768D01*
X4611370Y14751050D01*
X4664303Y14751050D01*
X4658360Y14761870D01*
X4649622Y14773859D01*
X4647539Y14777161D01*
X4646879Y14781022D01*
X4647742Y14784832D01*
X4649927Y14788032D01*
X4653229Y14790216D01*
X4657039Y14790928D01*
X4715560Y14790928D01*
X4719370Y14790216D01*
X4722672Y14788032D01*
X4724857Y14784832D01*
X4725720Y14781022D01*
X4725060Y14777161D01*
X4722876Y14773757D01*
X4714240Y14761870D01*
X4707128Y14748916D01*
X4701692Y14735251D01*
X4698034Y14720976D01*
X4696206Y14706346D01*
X4696206Y14691613D01*
X4698034Y14676983D01*
X4701692Y14662708D01*
X4707128Y14649043D01*
X4714240Y14636089D01*
X4722876Y14624202D01*
X4732985Y14613432D01*
X4744313Y14604034D01*
X4756759Y14596160D01*
X4770120Y14589912D01*
X4773676Y14588439D01*
X4775555Y14586966D01*
X4806746Y14555724D01*
X4817414Y14546376D01*
X4828946Y14538706D01*
X4841341Y14532559D01*
X4854498Y14528139D01*
X4868062Y14525396D01*
X4882235Y14524482D01*
X5817057Y14524482D01*
X5820410Y14523923D01*
X5823356Y14522297D01*
X5825642Y14519757D01*
X5826861Y14517776D01*
X5830976Y14513661D01*
X5833618Y14511985D01*
X5836564Y14509191D01*
X5838190Y14505432D01*
X5838190Y14501368D01*
X5836564Y14497608D01*
X5833618Y14494814D01*
X5830976Y14493138D01*
X5826861Y14489023D01*
X5823813Y14484146D01*
X5821883Y14478660D01*
X5821172Y14472361D01*
X5821172Y14280438D01*
X5821883Y14274139D01*
X5823813Y14268653D01*
X5826861Y14263776D01*
X5830976Y14259661D01*
X5832957Y14258442D01*
X5835497Y14256156D01*
X5837123Y14253210D01*
X5837682Y14249857D01*
X5837682Y13621816D01*
X5836920Y13617956D01*
X5834735Y13614654D01*
X5444896Y13224814D01*
X5441594Y13222630D01*
X5437682Y13221817D01*
X5433822Y13222630D01*
X5430520Y13224814D01*
X5416245Y13239089D01*
X5409031Y13245592D01*
X5406847Y13247319D01*
X5398871Y13252754D01*
X5387848Y13258444D01*
X5376113Y13262559D01*
X5373471Y13263270D01*
X5361228Y13265404D01*
X5351526Y13265912D01*
X5051450Y13265912D01*
X5048961Y13266216D01*
X5036362Y13271195D01*
X5032806Y13273481D01*
X4488637Y13817701D01*
X4486402Y13821054D01*
X4485690Y13824966D01*
X4486503Y13828928D01*
X4488789Y13832230D01*
X4492193Y13834363D01*
X4496155Y13835024D01*
X4498187Y13834973D01*
X4511802Y13836294D01*
X4525060Y13839494D01*
X4537760Y13844371D01*
X4549749Y13850924D01*
X4560722Y13859001D01*
X4570526Y13868501D01*
X4578959Y13879220D01*
X4585919Y13890955D01*
X4591253Y13903502D01*
X4594860Y13916660D01*
X4596638Y13930172D01*
X4596638Y13943787D01*
X4594860Y13957300D01*
X4591253Y13970457D01*
X4585919Y13983004D01*
X4578959Y13994739D01*
X4570526Y14005458D01*
X4560722Y14014957D01*
X4549749Y14023035D01*
X4537760Y14029588D01*
X4525060Y14034465D01*
X4511802Y14037665D01*
X4498187Y14038986D01*
X4484573Y14038529D01*
X4471111Y14036294D01*
X4458106Y14032230D01*
X4445711Y14026489D01*
X4434230Y14019174D01*
X4423816Y14010386D01*
X4414672Y14000226D01*
X4406950Y13988999D01*
X4400804Y13976857D01*
X4396333Y13963954D01*
X4393641Y13950594D01*
X4392726Y13937437D01*
X4391761Y13933678D01*
X4389475Y13930579D01*
X4386173Y13928598D01*
X4382363Y13927937D01*
X4378604Y13928750D01*
X4375404Y13930884D01*
X4339640Y13966698D01*
X4337456Y13969898D01*
X4331919Y13983004D01*
X4324959Y13994739D01*
X4316526Y14005458D01*
X4306722Y14014957D01*
X4295749Y14023035D01*
X4283760Y14029588D01*
X4271060Y14034465D01*
X4257802Y14037665D01*
X4244187Y14038986D01*
X4230573Y14038529D01*
X4217111Y14036294D01*
X4204106Y14032230D01*
X4191711Y14026489D01*
X4180230Y14019174D01*
X4169816Y14010386D01*
X4160672Y14000226D01*
X4152950Y13988999D01*
X4146804Y13976857D01*
X4142333Y13963954D01*
X4139641Y13950594D01*
X4138726Y13936980D01*
X4139641Y13923365D01*
X4142333Y13910005D01*
X4146804Y13897101D01*
X4152950Y13884960D01*
X4160672Y13873734D01*
X4169816Y13863574D01*
X4180230Y13854785D01*
X4191711Y13847470D01*
X4204106Y13841730D01*
X4208830Y13839951D01*
X4210761Y13838428D01*
X4790287Y13258952D01*
X4792472Y13255650D01*
X4793234Y13251738D01*
X4793234Y13219430D01*
X4825542Y13219430D01*
X4829454Y13218668D01*
X4832756Y13216432D01*
X4904384Y13144855D01*
X4906772Y13140994D01*
X4908804Y13135101D01*
X4914950Y13122960D01*
X4922672Y13111734D01*
X4931816Y13101574D01*
X4942230Y13092785D01*
X4953711Y13085470D01*
X4958842Y13083082D01*
X4962042Y13080796D01*
X4964074Y13077494D01*
X4964734Y13073634D01*
X4963871Y13069824D01*
X4961686Y13066572D01*
X4958435Y13064439D01*
X4954574Y13063728D01*
X4797348Y13063728D01*
X4793030Y13064693D01*
X4790287Y13066674D01*
X4786985Y13064490D01*
X4783074Y13063728D01*
X4714494Y13063728D01*
X4710633Y13064490D01*
X4707585Y13066521D01*
X4704435Y13064439D01*
X4700574Y13063728D01*
X4588510Y13063728D01*
X4578807Y13063219D01*
X4566564Y13061086D01*
X4563922Y13060375D01*
X4552188Y13056260D01*
X4541164Y13050570D01*
X4533188Y13045135D01*
X4531004Y13043408D01*
X4523790Y13036905D01*
X4010964Y12524079D01*
X4008120Y12522098D01*
X3994759Y12515799D01*
X3982313Y12507925D01*
X3970985Y12498527D01*
X3960876Y12487757D01*
X3952240Y12475870D01*
X3945128Y12462916D01*
X3939692Y12449251D01*
X3936034Y12434976D01*
X3934358Y12421717D01*
X3933037Y12417806D01*
X3930192Y12414758D01*
X3926382Y12413081D01*
X3922217Y12413081D01*
X3918407Y12414758D01*
X3915562Y12417806D01*
X3914241Y12421717D01*
X3912565Y12434976D01*
X3908907Y12449251D01*
X3903472Y12462916D01*
X3896360Y12475870D01*
X3887724Y12487757D01*
X3877614Y12498527D01*
X3866286Y12507925D01*
X3853840Y12515799D01*
X3840479Y12522047D01*
X3826459Y12526619D01*
X3811981Y12529362D01*
X3797300Y12530328D01*
X3782618Y12529362D01*
X3768140Y12526619D01*
X3754120Y12522047D01*
X3740759Y12515799D01*
X3728313Y12507925D01*
X3716985Y12498527D01*
X3706876Y12487757D01*
X3698240Y12475870D01*
X3691128Y12462916D01*
X3685692Y12449251D01*
X3682034Y12434976D01*
X3680358Y12421717D01*
X3679037Y12417806D01*
X3676192Y12414758D01*
X3672382Y12413081D01*
X3668217Y12413081D01*
X3664407Y12414758D01*
X3661562Y12417806D01*
X3660241Y12421717D01*
X3658565Y12434976D01*
X3654907Y12449251D01*
X3649472Y12462916D01*
X3642360Y12475870D01*
X3633724Y12487757D01*
X3623614Y12498527D01*
X3612286Y12507925D01*
X3599840Y12515799D01*
X3586479Y12522047D01*
X3572459Y12526619D01*
X3557981Y12529362D01*
X3543300Y12530328D01*
X3528618Y12529362D01*
X3514140Y12526619D01*
X3500120Y12522047D01*
X3486759Y12515799D01*
X3474313Y12507925D01*
X3462985Y12498527D01*
X3452876Y12487757D01*
X3444240Y12475870D01*
X3437128Y12462916D01*
X3431692Y12449251D01*
X3428034Y12434976D01*
X3426358Y12421717D01*
X3425037Y12417806D01*
X3422192Y12414758D01*
X3418382Y12413081D01*
G37*

%LPC*%
G36*
X4657140Y13219430D02*
G01*
X4704334Y13219430D01*
X4704334Y13266623D01*
X4699711Y13264489D01*
X4688230Y13257174D01*
X4677816Y13248386D01*
X4668672Y13238226D01*
X4660950Y13226999D01*
G37*
G36*
X3990187Y13834973D02*
G01*
X4003801Y13836294D01*
X4017060Y13839494D01*
X4029760Y13844371D01*
X4041749Y13850924D01*
X4052722Y13859001D01*
X4062526Y13868501D01*
X4070959Y13879220D01*
X4077919Y13890955D01*
X4083253Y13903502D01*
X4086860Y13916660D01*
X4088637Y13930172D01*
X4088637Y13943787D01*
X4086860Y13957300D01*
X4083253Y13970457D01*
X4077919Y13983004D01*
X4070959Y13994739D01*
X4062526Y14005458D01*
X4052722Y14014957D01*
X4041749Y14023035D01*
X4029760Y14029588D01*
X4017060Y14034465D01*
X4003801Y14037665D01*
X3990187Y14038986D01*
X3976573Y14038529D01*
X3963111Y14036294D01*
X3950106Y14032230D01*
X3937711Y14026489D01*
X3926230Y14019174D01*
X3915816Y14010386D01*
X3906672Y14000226D01*
X3898950Y13988999D01*
X3892804Y13976857D01*
X3888333Y13963954D01*
X3885641Y13950594D01*
X3884726Y13936980D01*
X3885641Y13923365D01*
X3888333Y13910005D01*
X3892804Y13897101D01*
X3898950Y13884960D01*
X3906672Y13873734D01*
X3915816Y13863574D01*
X3926230Y13854785D01*
X3937711Y13847470D01*
X3950106Y13841730D01*
X3963111Y13837666D01*
X3976573Y13835430D01*
G37*
G36*
X4611370Y14594078D02*
G01*
X4615840Y14596160D01*
X4628286Y14604034D01*
X4639614Y14613432D01*
X4649724Y14624202D01*
X4658360Y14636089D01*
X4664303Y14646910D01*
X4611370Y14646910D01*
G37*
G36*
X4507230Y14594078D02*
G01*
X4507230Y14646910D01*
X4454296Y14646910D01*
X4460240Y14636089D01*
X4468876Y14624202D01*
X4478985Y14613432D01*
X4490313Y14604034D01*
X4502759Y14596160D01*
G37*
G36*
X5047234Y13981430D02*
G01*
X5094579Y13981430D01*
X5093919Y13983004D01*
X5086959Y13994739D01*
X5078526Y14005458D01*
X5068722Y14014957D01*
X5057749Y14023035D01*
X5047234Y14028775D01*
G37*
G36*
X3523234Y13981430D02*
G01*
X3570579Y13981430D01*
X3569919Y13983004D01*
X3562959Y13994739D01*
X3554526Y14005458D01*
X3544722Y14014957D01*
X3533749Y14023035D01*
X3523234Y14028775D01*
G37*
G36*
X4911140Y13981430D02*
G01*
X4958334Y13981430D01*
X4958334Y14028623D01*
X4953711Y14026489D01*
X4942230Y14019174D01*
X4931816Y14010386D01*
X4922672Y14000226D01*
X4914950Y13988999D01*
G37*
G36*
X4958334Y13845336D02*
G01*
X4958334Y13892530D01*
X4911140Y13892530D01*
X4914950Y13884960D01*
X4922672Y13873734D01*
X4931816Y13863574D01*
X4942230Y13854785D01*
X4953711Y13847470D01*
G37*
G36*
X3523234Y13845184D02*
G01*
X3533749Y13850924D01*
X3544722Y13859001D01*
X3554526Y13868501D01*
X3562959Y13879220D01*
X3569919Y13890955D01*
X3570579Y13892530D01*
X3523234Y13892530D01*
G37*
G36*
X5047234Y13845184D02*
G01*
X5057749Y13850924D01*
X5068722Y13859001D01*
X5078526Y13868501D01*
X5086959Y13879220D01*
X5093919Y13890955D01*
X5094579Y13892530D01*
X5047234Y13892530D01*
G37*
G36*
X4752187Y13834973D02*
G01*
X4765802Y13836294D01*
X4779060Y13839494D01*
X4791760Y13844371D01*
X4803749Y13850924D01*
X4814722Y13859001D01*
X4824526Y13868501D01*
X4832959Y13879220D01*
X4839919Y13890955D01*
X4845253Y13903502D01*
X4848860Y13916660D01*
X4850638Y13930172D01*
X4850638Y13943787D01*
X4848860Y13957300D01*
X4845253Y13970457D01*
X4839919Y13983004D01*
X4832959Y13994739D01*
X4824526Y14005458D01*
X4814722Y14014957D01*
X4803749Y14023035D01*
X4791760Y14029588D01*
X4779060Y14034465D01*
X4765802Y14037665D01*
X4752187Y14038986D01*
X4738573Y14038529D01*
X4725111Y14036294D01*
X4712106Y14032230D01*
X4699711Y14026489D01*
X4688230Y14019174D01*
X4677816Y14010386D01*
X4668672Y14000226D01*
X4660950Y13988999D01*
X4654804Y13976857D01*
X4650333Y13963954D01*
X4647641Y13950594D01*
X4646726Y13936980D01*
X4647641Y13923365D01*
X4650333Y13910005D01*
X4654804Y13897101D01*
X4660950Y13884960D01*
X4668672Y13873734D01*
X4677816Y13863574D01*
X4688230Y13854785D01*
X4699711Y13847470D01*
X4712106Y13841730D01*
X4725111Y13837666D01*
X4738573Y13835430D01*
G37*
G36*
X4031234Y13083184D02*
G01*
X4041749Y13088924D01*
X4052722Y13097002D01*
X4062526Y13106501D01*
X4070959Y13117220D01*
X4077919Y13128955D01*
X4078579Y13130530D01*
X4031234Y13130530D01*
G37*
G36*
X3736187Y13072973D02*
G01*
X3749801Y13074294D01*
X3763060Y13077494D01*
X3775760Y13082371D01*
X3787749Y13088924D01*
X3798722Y13097002D01*
X3808526Y13106501D01*
X3816959Y13117220D01*
X3823919Y13128955D01*
X3829253Y13141502D01*
X3832860Y13154660D01*
X3834637Y13168172D01*
X3834637Y13181787D01*
X3832860Y13195300D01*
X3829253Y13208457D01*
X3823919Y13221004D01*
X3816959Y13232739D01*
X3808526Y13243458D01*
X3798722Y13252957D01*
X3787749Y13261035D01*
X3775760Y13267588D01*
X3763060Y13272465D01*
X3749801Y13275665D01*
X3736187Y13276986D01*
X3722573Y13276529D01*
X3709111Y13274294D01*
X3696106Y13270230D01*
X3683711Y13264489D01*
X3672230Y13257174D01*
X3661816Y13248386D01*
X3652672Y13238226D01*
X3644950Y13226999D01*
X3638804Y13214857D01*
X3634333Y13201954D01*
X3631641Y13188594D01*
X3630726Y13174980D01*
X3631641Y13161365D01*
X3634333Y13148005D01*
X3638804Y13135101D01*
X3644950Y13122960D01*
X3652672Y13111734D01*
X3661816Y13101574D01*
X3672230Y13092785D01*
X3683711Y13085470D01*
X3696106Y13079730D01*
X3709111Y13075665D01*
X3722573Y13073430D01*
G37*
G36*
X3482187Y13072973D02*
G01*
X3495801Y13074294D01*
X3509060Y13077494D01*
X3521760Y13082371D01*
X3533749Y13088924D01*
X3544722Y13097002D01*
X3554526Y13106501D01*
X3562959Y13117220D01*
X3569919Y13128955D01*
X3575253Y13141502D01*
X3578860Y13154660D01*
X3580637Y13168172D01*
X3580637Y13181787D01*
X3578860Y13195300D01*
X3575253Y13208457D01*
X3569919Y13221004D01*
X3562959Y13232739D01*
X3554526Y13243458D01*
X3544722Y13252957D01*
X3533749Y13261035D01*
X3521760Y13267588D01*
X3509060Y13272465D01*
X3495801Y13275665D01*
X3482187Y13276986D01*
X3468573Y13276529D01*
X3455111Y13274294D01*
X3442106Y13270230D01*
X3429711Y13264489D01*
X3418230Y13257174D01*
X3407816Y13248386D01*
X3398672Y13238226D01*
X3390950Y13226999D01*
X3384804Y13214857D01*
X3380333Y13201954D01*
X3377641Y13188594D01*
X3376726Y13174980D01*
X3377641Y13161365D01*
X3380333Y13148005D01*
X3384804Y13135101D01*
X3390950Y13122960D01*
X3398672Y13111734D01*
X3407816Y13101574D01*
X3418230Y13092785D01*
X3429711Y13085470D01*
X3442106Y13079730D01*
X3455111Y13075665D01*
X3468573Y13073430D01*
G37*
G36*
X3895140Y13219430D02*
G01*
X3942334Y13219430D01*
X3942334Y13266623D01*
X3937711Y13264489D01*
X3926230Y13257174D01*
X3915816Y13248386D01*
X3906672Y13238226D01*
X3898950Y13226999D01*
G37*
G36*
X3942334Y13083336D02*
G01*
X3942334Y13130530D01*
X3895140Y13130530D01*
X3898950Y13122960D01*
X3906672Y13111734D01*
X3915816Y13101574D01*
X3926230Y13092785D01*
X3937711Y13085470D01*
G37*
G36*
X4793234Y13083184D02*
G01*
X4803749Y13088924D01*
X4814722Y13097002D01*
X4824526Y13106501D01*
X4832959Y13117220D01*
X4839919Y13128955D01*
X4840579Y13130530D01*
X4793234Y13130530D01*
G37*
G36*
X4704334Y13083336D02*
G01*
X4704334Y13130530D01*
X4657140Y13130530D01*
X4660950Y13122960D01*
X4668672Y13111734D01*
X4677816Y13101574D01*
X4688230Y13092785D01*
X4699711Y13085470D01*
G37*

%LPD*%
G36*
X5826709Y11575237D02*
G01*
X5822696Y11576456D01*
X5819546Y11579098D01*
X5810402Y11590731D01*
X5799531Y11601602D01*
X5787440Y11611102D01*
X5774232Y11619077D01*
X5760212Y11625427D01*
X5745530Y11629999D01*
X5730392Y11632742D01*
X5719978Y11633403D01*
X5716422Y11634266D01*
X5713425Y11636349D01*
X5157165Y12192609D01*
X5149951Y12199112D01*
X5147767Y12200839D01*
X5139791Y12206274D01*
X5128768Y12211964D01*
X5117033Y12216079D01*
X5114391Y12216790D01*
X5102148Y12218924D01*
X5092446Y12219432D01*
X2964637Y12219432D01*
X2960776Y12220194D01*
X2957474Y12222378D01*
X2299309Y12880543D01*
X2297125Y12883794D01*
X2296363Y12887706D01*
X2297125Y12891617D01*
X2299309Y12894868D01*
X2302611Y12897104D01*
X2306523Y12897866D01*
X2958084Y12897866D01*
X2959100Y12898882D01*
X2959100Y13767663D01*
X2959862Y13771575D01*
X2962097Y13774877D01*
X2965348Y13777061D01*
X2969260Y13777823D01*
X2973171Y13777061D01*
X2976422Y13774877D01*
X3247694Y13503605D01*
X3249930Y13500303D01*
X3250692Y13496391D01*
X3250692Y12530683D01*
X3249980Y12526924D01*
X3247948Y12523724D01*
X3244850Y12521488D01*
X3232759Y12515799D01*
X3220313Y12507925D01*
X3208985Y12498527D01*
X3198876Y12487757D01*
X3190240Y12475870D01*
X3183128Y12462916D01*
X3177692Y12449251D01*
X3174034Y12434976D01*
X3172358Y12421717D01*
X3171037Y12417806D01*
X3168192Y12414758D01*
X3164382Y12413081D01*
X3160217Y12413081D01*
X3156407Y12414758D01*
X3153562Y12417806D01*
X3152241Y12421717D01*
X3150565Y12434976D01*
X3146907Y12449251D01*
X3141472Y12462916D01*
X3134360Y12475870D01*
X3125724Y12487757D01*
X3115614Y12498527D01*
X3104286Y12507925D01*
X3091840Y12515799D01*
X3078480Y12522047D01*
X3064459Y12526619D01*
X3049981Y12529362D01*
X3035300Y12530328D01*
X3020618Y12529362D01*
X3006140Y12526619D01*
X2992120Y12522047D01*
X2978759Y12515799D01*
X2966313Y12507925D01*
X2954985Y12498527D01*
X2944876Y12487757D01*
X2936240Y12475870D01*
X2929128Y12462916D01*
X2923692Y12449251D01*
X2920034Y12434976D01*
X2918206Y12420346D01*
X2918206Y12405614D01*
X2920034Y12390983D01*
X2923692Y12376708D01*
X2929128Y12363043D01*
X2936240Y12350089D01*
X2944876Y12338202D01*
X2954985Y12327432D01*
X2966313Y12318034D01*
X2978759Y12310160D01*
X2992120Y12303912D01*
X3006140Y12299340D01*
X3020618Y12296597D01*
X3035300Y12295632D01*
X3049981Y12296597D01*
X3064459Y12299340D01*
X3078480Y12303912D01*
X3091840Y12310160D01*
X3104286Y12318034D01*
X3115614Y12327432D01*
X3125724Y12338202D01*
X3134360Y12350089D01*
X3141472Y12363043D01*
X3146907Y12376708D01*
X3150565Y12390983D01*
X3152241Y12404242D01*
X3153562Y12408154D01*
X3156407Y12411202D01*
X3160217Y12412878D01*
X3164382Y12412878D01*
X3168192Y12411202D01*
X3171037Y12408154D01*
X3172358Y12404242D01*
X3174034Y12390983D01*
X3177692Y12376708D01*
X3183128Y12363043D01*
X3190240Y12350089D01*
X3198876Y12338202D01*
X3208985Y12327432D01*
X3220313Y12318034D01*
X3232759Y12310160D01*
X3246120Y12303912D01*
X3260140Y12299340D01*
X3274618Y12296597D01*
X3289300Y12295632D01*
X3303981Y12296597D01*
X3318459Y12299340D01*
X3332479Y12303912D01*
X3345840Y12310160D01*
X3358286Y12318034D01*
X3369614Y12327432D01*
X3379724Y12338202D01*
X3388360Y12350089D01*
X3395472Y12363043D01*
X3400907Y12376708D01*
X3404565Y12390983D01*
X3406241Y12404242D01*
X3407562Y12408154D01*
X3410407Y12411202D01*
X3414217Y12412878D01*
X3418382Y12412878D01*
X3422192Y12411202D01*
X3425037Y12408154D01*
X3426358Y12404242D01*
X3428034Y12390983D01*
X3431692Y12376708D01*
X3437128Y12363043D01*
X3444240Y12350089D01*
X3452876Y12338202D01*
X3462985Y12327432D01*
X3474313Y12318034D01*
X3486759Y12310160D01*
X3500120Y12303912D01*
X3514140Y12299340D01*
X3528618Y12296597D01*
X3543300Y12295632D01*
X3557981Y12296597D01*
X3572459Y12299340D01*
X3586479Y12303912D01*
X3599840Y12310160D01*
X3612286Y12318034D01*
X3623614Y12327432D01*
X3633724Y12338202D01*
X3642360Y12350089D01*
X3649472Y12363043D01*
X3654907Y12376708D01*
X3658565Y12390983D01*
X3660241Y12404242D01*
X3661562Y12408154D01*
X3664407Y12411202D01*
X3668217Y12412878D01*
X3672382Y12412878D01*
X3676192Y12411202D01*
X3679037Y12408154D01*
X3680358Y12404242D01*
X3682034Y12390983D01*
X3685692Y12376708D01*
X3691128Y12363043D01*
X3698240Y12350089D01*
X3706876Y12338202D01*
X3716985Y12327432D01*
X3728313Y12318034D01*
X3740759Y12310160D01*
X3754120Y12303912D01*
X3768140Y12299340D01*
X3782618Y12296597D01*
X3797300Y12295632D01*
X3811981Y12296597D01*
X3826459Y12299340D01*
X3840479Y12303912D01*
X3853840Y12310160D01*
X3866286Y12318034D01*
X3877614Y12327432D01*
X3887724Y12338202D01*
X3896360Y12350089D01*
X3903472Y12363043D01*
X3908907Y12376708D01*
X3912565Y12390983D01*
X3914241Y12404242D01*
X3915562Y12408154D01*
X3918407Y12411202D01*
X3922217Y12412878D01*
X3926382Y12412878D01*
X3930192Y12411202D01*
X3933037Y12408154D01*
X3934358Y12404242D01*
X3936034Y12390983D01*
X3939692Y12376708D01*
X3945128Y12363043D01*
X3952240Y12350089D01*
X3960876Y12338202D01*
X3970985Y12327432D01*
X3982313Y12318034D01*
X3994759Y12310160D01*
X4008120Y12303912D01*
X4022140Y12299340D01*
X4036618Y12296597D01*
X4051300Y12295632D01*
X4065981Y12296597D01*
X4080459Y12299340D01*
X4094479Y12303912D01*
X4107840Y12310160D01*
X4120286Y12318034D01*
X4131614Y12327432D01*
X4141724Y12338202D01*
X4150360Y12350089D01*
X4157472Y12363043D01*
X4162907Y12376708D01*
X4166565Y12390983D01*
X4168241Y12404242D01*
X4169562Y12408154D01*
X4172407Y12411202D01*
X4176217Y12412878D01*
X4180382Y12412878D01*
X4184192Y12411202D01*
X4187037Y12408154D01*
X4188358Y12404242D01*
X4190034Y12390983D01*
X4193692Y12376708D01*
X4199128Y12363043D01*
X4206240Y12350089D01*
X4214876Y12338202D01*
X4224985Y12327432D01*
X4236313Y12318034D01*
X4248759Y12310160D01*
X4262120Y12303912D01*
X4276140Y12299340D01*
X4290618Y12296597D01*
X4305300Y12295632D01*
X4319981Y12296597D01*
X4334459Y12299340D01*
X4348480Y12303912D01*
X4361840Y12310160D01*
X4374286Y12318034D01*
X4385614Y12327432D01*
X4395724Y12338202D01*
X4404360Y12350089D01*
X4411472Y12363043D01*
X4416907Y12376708D01*
X4420565Y12390983D01*
X4422241Y12404242D01*
X4423562Y12408154D01*
X4426407Y12411202D01*
X4430217Y12412878D01*
X4434382Y12412878D01*
X4438192Y12411202D01*
X4441037Y12408154D01*
X4442358Y12404242D01*
X4444034Y12390983D01*
X4447692Y12376708D01*
X4453128Y12363043D01*
X4460240Y12350089D01*
X4468876Y12338202D01*
X4478985Y12327432D01*
X4490313Y12318034D01*
X4502759Y12310160D01*
X4516120Y12303912D01*
X4530140Y12299340D01*
X4544618Y12296597D01*
X4559300Y12295632D01*
X4573981Y12296597D01*
X4588459Y12299340D01*
X4602480Y12303912D01*
X4615840Y12310160D01*
X4628286Y12318034D01*
X4639614Y12327432D01*
X4649724Y12338202D01*
X4658360Y12350089D01*
X4665472Y12363043D01*
X4670907Y12376708D01*
X4674565Y12390983D01*
X4676241Y12404242D01*
X4677562Y12408154D01*
X4680407Y12411202D01*
X4684217Y12412878D01*
X4688382Y12412878D01*
X4692192Y12411202D01*
X4695037Y12408154D01*
X4696358Y12404242D01*
X4698034Y12390983D01*
X4701692Y12376708D01*
X4707128Y12363043D01*
X4714240Y12350089D01*
X4722876Y12338202D01*
X4732985Y12327432D01*
X4744313Y12318034D01*
X4756759Y12310160D01*
X4770120Y12303912D01*
X4784140Y12299340D01*
X4798618Y12296597D01*
X4813300Y12295632D01*
X4827981Y12296597D01*
X4842459Y12299340D01*
X4856480Y12303912D01*
X4869840Y12310160D01*
X4882286Y12318034D01*
X4893614Y12327432D01*
X4903724Y12338202D01*
X4912360Y12350089D01*
X4919472Y12363043D01*
X4924907Y12376708D01*
X4928565Y12390983D01*
X4930394Y12405614D01*
X4930394Y12420346D01*
X4928565Y12434976D01*
X4924907Y12449251D01*
X4919472Y12462916D01*
X4912360Y12475870D01*
X4903724Y12487757D01*
X4893614Y12498527D01*
X4882286Y12507925D01*
X4869840Y12515799D01*
X4857750Y12521488D01*
X4854651Y12523724D01*
X4852619Y12526924D01*
X4851908Y12530683D01*
X4851908Y12756235D01*
X4852873Y12760604D01*
X4855667Y12764109D01*
X4858918Y12766802D01*
X4865979Y12774726D01*
X4871618Y12783667D01*
X4875784Y12793421D01*
X4878324Y12803733D01*
X4879187Y12814300D01*
X4878324Y12824866D01*
X4875784Y12835178D01*
X4871618Y12844932D01*
X4865979Y12853873D01*
X4858918Y12861798D01*
X4856429Y12863880D01*
X4853838Y12867081D01*
X4852720Y12871043D01*
X4853279Y12875158D01*
X4855413Y12878663D01*
X4858816Y12881051D01*
X4862830Y12881864D01*
X5226202Y12881864D01*
X5238953Y12882778D01*
X5251094Y12885267D01*
X5262778Y12889433D01*
X5273802Y12895122D01*
X5283911Y12902285D01*
X5293004Y12910769D01*
X5300827Y12920370D01*
X5307228Y12930987D01*
X5312206Y12942366D01*
X5315559Y12954304D01*
X5317236Y12966598D01*
X5317236Y12978993D01*
X5315559Y12991287D01*
X5312206Y13003225D01*
X5307228Y13014604D01*
X5300827Y13025221D01*
X5293004Y13034822D01*
X5283911Y13043306D01*
X5273802Y13050469D01*
X5262778Y13056158D01*
X5251094Y13060324D01*
X5238953Y13062813D01*
X5226202Y13063728D01*
X5051348Y13063728D01*
X5047030Y13064693D01*
X5043525Y13067385D01*
X5041544Y13071348D01*
X5041392Y13075767D01*
X5043170Y13079831D01*
X5046573Y13082828D01*
X5048961Y13083743D01*
X5051450Y13084048D01*
X5309920Y13084048D01*
X5313781Y13083286D01*
X5317083Y13081101D01*
X5332272Y13065912D01*
X5334203Y13063219D01*
X5335168Y13060019D01*
X5335524Y13056971D01*
X5339130Y13043001D01*
X5344414Y13029590D01*
X5351373Y13016941D01*
X5359857Y13005308D01*
X5369712Y12994792D01*
X5380837Y12985597D01*
X5392978Y12977876D01*
X5402935Y12973202D01*
X5405780Y12971170D01*
X5834735Y12542266D01*
X5836920Y12538964D01*
X5837682Y12535103D01*
X5837682Y11585397D01*
X5836818Y11581282D01*
X5834430Y11577929D01*
X5830824Y11575796D01*
G37*

%LPC*%
G36*
X5345480Y12621260D02*
G01*
X5397500Y12621260D01*
X5397500Y12673177D01*
X5392978Y12671044D01*
X5380837Y12663322D01*
X5369712Y12654127D01*
X5359857Y12643612D01*
X5351373Y12631978D01*
G37*
G36*
X5499100Y12621260D02*
G01*
X5551119Y12621260D01*
X5545226Y12631978D01*
X5536742Y12643612D01*
X5526887Y12654127D01*
X5515762Y12663322D01*
X5503621Y12671044D01*
X5499100Y12673177D01*
G37*
G36*
X5499100Y12467742D02*
G01*
X5503621Y12469876D01*
X5515762Y12477597D01*
X5526887Y12486792D01*
X5536742Y12497308D01*
X5545226Y12508941D01*
X5551119Y12519660D01*
X5499100Y12519660D01*
G37*
G36*
X5397500Y12467742D02*
G01*
X5397500Y12519660D01*
X5345480Y12519660D01*
X5351373Y12508941D01*
X5359857Y12497308D01*
X5369712Y12486792D01*
X5380837Y12477597D01*
X5392978Y12469876D01*
G37*

%LPD*%
G36*
X3690924Y11144250D02*
G01*
X3687064Y11145012D01*
X3683762Y11147196D01*
X3403092Y11427866D01*
X3401060Y11430863D01*
X3400145Y11434368D01*
X3400551Y11437975D01*
X3403803Y11448745D01*
X3408019Y11469471D01*
X3410356Y11490502D01*
X3410813Y11511686D01*
X3409391Y11532768D01*
X3406089Y11553698D01*
X3400856Y11574221D01*
X3393897Y11594185D01*
X3385108Y11613438D01*
X3374644Y11631879D01*
X3362553Y11649252D01*
X3348990Y11665508D01*
X3334004Y11680444D01*
X3317748Y11694007D01*
X3300374Y11706047D01*
X3281934Y11716461D01*
X3262680Y11725198D01*
X3242665Y11732158D01*
X3222142Y11737340D01*
X3201212Y11740642D01*
X3180130Y11742064D01*
X3158947Y11741556D01*
X3137916Y11739168D01*
X3117189Y11734901D01*
X3096920Y11728805D01*
X3077260Y11720880D01*
X3058414Y11711279D01*
X3040532Y11700002D01*
X3023666Y11687149D01*
X3007918Y11672722D01*
X2787548Y11452047D01*
X2784246Y11449812D01*
X2780334Y11449050D01*
X2724150Y11449050D01*
X2724150Y11414709D01*
X2723388Y11410797D01*
X2721152Y11407495D01*
X2717901Y11405311D01*
X2713990Y11404549D01*
X2620010Y11404549D01*
X2616098Y11405311D01*
X2612847Y11407495D01*
X2610612Y11410797D01*
X2609850Y11414709D01*
X2609850Y11449050D01*
X2553970Y11449050D01*
X2550109Y11449812D01*
X2546807Y11452047D01*
X2397861Y11600942D01*
X2395677Y11604244D01*
X2394915Y11608104D01*
X2394915Y11849404D01*
X2394356Y11865660D01*
X2393950Y11870588D01*
X2391968Y11886692D01*
X2391156Y11891568D01*
X2387701Y11907418D01*
X2386431Y11912193D01*
X2381605Y11927687D01*
X2379929Y11932361D01*
X2376678Y11939879D01*
X2373731Y11947347D01*
X2371598Y11951817D01*
X2364079Y11966194D01*
X2361590Y11970461D01*
X2352802Y11984075D01*
X2349957Y11988139D01*
X2340000Y12000941D01*
X2336749Y12004700D01*
X2325674Y12016587D01*
X1437487Y12904774D01*
X1425600Y12915849D01*
X1421841Y12919100D01*
X1409039Y12929057D01*
X1404975Y12931902D01*
X1391361Y12940690D01*
X1387094Y12943179D01*
X1372717Y12950698D01*
X1368247Y12952831D01*
X1353261Y12959029D01*
X1348587Y12960705D01*
X1333093Y12965531D01*
X1328318Y12966801D01*
X1312468Y12970256D01*
X1307592Y12971068D01*
X1291488Y12973050D01*
X1286560Y12973456D01*
X1270304Y12974015D01*
X780084Y12974015D01*
X776224Y12974777D01*
X772922Y12976961D01*
X718159Y13031774D01*
X706272Y13042849D01*
X702513Y13046100D01*
X689711Y13056057D01*
X685647Y13058902D01*
X672033Y13067690D01*
X667766Y13070179D01*
X653491Y13077647D01*
X645617Y13081152D01*
X642416Y13083387D01*
X640283Y13086689D01*
X639572Y13090550D01*
X640384Y13094411D01*
X642620Y13097662D01*
X645871Y13099846D01*
X649732Y13100558D01*
X1519986Y13100558D01*
X1523847Y13099796D01*
X1527149Y13097611D01*
X1819859Y12804902D01*
X1822043Y12801600D01*
X1822805Y12797739D01*
X1822805Y12782550D01*
X1837994Y12782550D01*
X1841906Y12781788D01*
X1845208Y12779552D01*
X2814370Y11810390D01*
X2821584Y11803888D01*
X2823768Y11802160D01*
X2831744Y11796725D01*
X2842768Y11791035D01*
X2854502Y11786920D01*
X2857144Y11786209D01*
X2869387Y11784076D01*
X2879090Y11783568D01*
X4288840Y11783568D01*
X4292701Y11782806D01*
X4296003Y11780621D01*
X4568850Y11507774D01*
X4570933Y11504777D01*
X4571796Y11501221D01*
X4572457Y11490807D01*
X4575200Y11475669D01*
X4579772Y11460988D01*
X4586122Y11446967D01*
X4594098Y11433759D01*
X4603597Y11421668D01*
X4614468Y11410797D01*
X4626559Y11401298D01*
X4639767Y11393322D01*
X4653788Y11386972D01*
X4668469Y11382400D01*
X4683607Y11379657D01*
X4699000Y11378692D01*
X4714392Y11379657D01*
X4729530Y11382400D01*
X4744212Y11386972D01*
X4758232Y11393322D01*
X4771440Y11401298D01*
X4783531Y11410797D01*
X4794402Y11421668D01*
X4803902Y11433759D01*
X4811877Y11446967D01*
X4818227Y11460988D01*
X4822799Y11475669D01*
X4825542Y11490807D01*
X4826508Y11506200D01*
X4825542Y11521592D01*
X4822799Y11536730D01*
X4818227Y11551412D01*
X4811877Y11565432D01*
X4803902Y11578640D01*
X4794402Y11590731D01*
X4783531Y11601602D01*
X4771440Y11611102D01*
X4758232Y11619077D01*
X4744212Y11625427D01*
X4729530Y11629999D01*
X4714392Y11632742D01*
X4703978Y11633403D01*
X4700422Y11634266D01*
X4697425Y11636349D01*
X4395165Y11938609D01*
X4387951Y11945112D01*
X4385767Y11946839D01*
X4377791Y11952274D01*
X4366768Y11957964D01*
X4355033Y11962079D01*
X4352391Y11962790D01*
X4340148Y11964924D01*
X4330446Y11965432D01*
X2920695Y11965432D01*
X2916834Y11966194D01*
X2913532Y11968378D01*
X1626311Y13255599D01*
X1619097Y13262101D01*
X1616913Y13263829D01*
X1608937Y13269264D01*
X1597914Y13274954D01*
X1586179Y13279069D01*
X1583537Y13279780D01*
X1571294Y13281913D01*
X1561592Y13282422D01*
X502869Y13282422D01*
X499008Y13283184D01*
X495706Y13285368D01*
X464972Y13316102D01*
X462788Y13319404D01*
X462026Y13323265D01*
X462026Y13546785D01*
X462635Y13550341D01*
X464566Y13553490D01*
X467410Y13555726D01*
X476351Y13558774D01*
X481279Y13561822D01*
X485343Y13565936D01*
X490728Y13574776D01*
X494131Y13577214D01*
X498195Y13578027D01*
X502259Y13577214D01*
X505612Y13574776D01*
X510997Y13565936D01*
X515061Y13561822D01*
X519988Y13558774D01*
X525424Y13556843D01*
X531774Y13556132D01*
X718566Y13556132D01*
X724916Y13556843D01*
X730351Y13558774D01*
X735279Y13561822D01*
X739343Y13565936D01*
X742442Y13570813D01*
X744372Y13576300D01*
X745083Y13582599D01*
X745083Y13769441D01*
X744372Y13775740D01*
X742442Y13781227D01*
X739343Y13786104D01*
X735279Y13790218D01*
X726389Y13795552D01*
X724001Y13798956D01*
X723138Y13803020D01*
X724001Y13807084D01*
X726389Y13810488D01*
X735279Y13815822D01*
X739343Y13819936D01*
X742442Y13824813D01*
X745439Y13833805D01*
X747725Y13836650D01*
X750824Y13838529D01*
X754430Y13839190D01*
X1489608Y13839190D01*
X1493520Y13838428D01*
X1496771Y13836243D01*
X1578914Y13754100D01*
X1581099Y13750798D01*
X1581861Y13746886D01*
X1581099Y13743025D01*
X1578864Y13739723D01*
X1575562Y13737539D01*
X1571650Y13736777D01*
X1567738Y13737590D01*
X1557477Y13741958D01*
X1544320Y13745514D01*
X1530807Y13747343D01*
X1517192Y13747343D01*
X1503680Y13745514D01*
X1490522Y13741958D01*
X1477975Y13736624D01*
X1466240Y13729665D01*
X1455521Y13721232D01*
X1446022Y13711428D01*
X1437944Y13700455D01*
X1431391Y13688466D01*
X1426514Y13675766D01*
X1423314Y13662456D01*
X1421993Y13648893D01*
X1422450Y13635278D01*
X1424686Y13621816D01*
X1428750Y13608812D01*
X1434490Y13596416D01*
X1441805Y13584936D01*
X1450594Y13574522D01*
X1460754Y13565378D01*
X1471980Y13557656D01*
X1484122Y13551509D01*
X1497025Y13547039D01*
X1510385Y13544346D01*
X1524000Y13543432D01*
X1537614Y13544346D01*
X1550974Y13547039D01*
X1563878Y13551509D01*
X1576019Y13557656D01*
X1587246Y13565378D01*
X1597406Y13574522D01*
X1606194Y13584936D01*
X1613509Y13596416D01*
X1619250Y13608812D01*
X1623314Y13621816D01*
X1625549Y13635278D01*
X1626006Y13648893D01*
X1624685Y13662456D01*
X1621485Y13675715D01*
X1616303Y13689228D01*
X1615592Y13693089D01*
X1616456Y13696950D01*
X1618691Y13700201D01*
X1621942Y13702334D01*
X1625854Y13703046D01*
X1629664Y13702284D01*
X1632966Y13700099D01*
X1717548Y13615466D01*
X1719072Y13613536D01*
X1720850Y13608812D01*
X1726590Y13596416D01*
X1733905Y13584936D01*
X1742693Y13574522D01*
X1752854Y13565378D01*
X1764080Y13557656D01*
X1776222Y13551509D01*
X1789125Y13547039D01*
X1802485Y13544346D01*
X1816100Y13543432D01*
X1828647Y13544245D01*
X1832762Y13543686D01*
X1836267Y13541552D01*
X1838655Y13538149D01*
X1839468Y13534136D01*
X1839468Y13487298D01*
X1838706Y13483437D01*
X1836572Y13480186D01*
X1833321Y13477951D01*
X1829460Y13477138D01*
X1825599Y13477849D01*
X1822246Y13480034D01*
X1812798Y13489178D01*
X1801825Y13497255D01*
X1791360Y13502995D01*
X1791360Y13455650D01*
X1829307Y13455650D01*
X1833219Y13454888D01*
X1836521Y13452652D01*
X1838706Y13449401D01*
X1839468Y13445490D01*
X1839468Y13376910D01*
X1838706Y13372998D01*
X1836521Y13369747D01*
X1833219Y13367512D01*
X1829307Y13366750D01*
X1791360Y13366750D01*
X1791360Y13319404D01*
X1801825Y13325144D01*
X1812798Y13333222D01*
X1822246Y13342366D01*
X1825599Y13344550D01*
X1829460Y13345261D01*
X1833321Y13344448D01*
X1836572Y13342213D01*
X1838706Y13338962D01*
X1839468Y13335101D01*
X1839468Y13121132D01*
X1839975Y13111429D01*
X1842109Y13099186D01*
X1842820Y13096544D01*
X1846935Y13084810D01*
X1852625Y13073786D01*
X1858060Y13065810D01*
X1859788Y13063626D01*
X1866290Y13056412D01*
X2858312Y12064390D01*
X2865526Y12057888D01*
X2867710Y12056160D01*
X2875686Y12050725D01*
X2886710Y12045035D01*
X2898444Y12040920D01*
X2901086Y12040209D01*
X2913329Y12038076D01*
X2923032Y12037568D01*
X5050840Y12037568D01*
X5054701Y12036806D01*
X5058003Y12034621D01*
X5584850Y11507774D01*
X5586933Y11504777D01*
X5587796Y11501221D01*
X5588457Y11490807D01*
X5591200Y11475669D01*
X5595772Y11460988D01*
X5602122Y11446967D01*
X5610098Y11433759D01*
X5619597Y11421668D01*
X5630468Y11410797D01*
X5642559Y11401298D01*
X5655767Y11393322D01*
X5669788Y11386972D01*
X5684469Y11382400D01*
X5699607Y11379657D01*
X5715000Y11378692D01*
X5730392Y11379657D01*
X5745530Y11382400D01*
X5760212Y11386972D01*
X5774232Y11393322D01*
X5787440Y11401298D01*
X5799531Y11410797D01*
X5810402Y11421668D01*
X5819546Y11433302D01*
X5822696Y11435943D01*
X5826709Y11437162D01*
X5830824Y11436604D01*
X5834430Y11434470D01*
X5836818Y11431117D01*
X5837682Y11427002D01*
X5837682Y11351056D01*
X5836920Y11347196D01*
X5834735Y11343894D01*
X5638038Y11147196D01*
X5634736Y11145012D01*
X5630875Y11144250D01*
G37*

%LPC*%
G36*
X3625850Y11392357D02*
G01*
X3625850Y11449050D01*
X3569157Y11449050D01*
X3570122Y11446967D01*
X3578098Y11433759D01*
X3587597Y11421668D01*
X3598468Y11410797D01*
X3610559Y11401298D01*
X3623767Y11393322D01*
G37*
G36*
X720293Y13309193D02*
G01*
X733856Y13310514D01*
X747166Y13313714D01*
X759866Y13318591D01*
X771855Y13325144D01*
X782828Y13333222D01*
X792632Y13342721D01*
X801065Y13353440D01*
X810768Y13369645D01*
X814019Y13371830D01*
X817880Y13372592D01*
X1015492Y13372592D01*
X1023518Y13373404D01*
X1030732Y13375589D01*
X1037437Y13379145D01*
X1043635Y13384276D01*
X1169924Y13510564D01*
X1175054Y13516762D01*
X1178610Y13523468D01*
X1180795Y13530681D01*
X1181608Y13538707D01*
X1181608Y13683335D01*
X1182573Y13687704D01*
X1185367Y13691209D01*
X1188618Y13693901D01*
X1195679Y13701826D01*
X1201318Y13710767D01*
X1205484Y13720521D01*
X1208024Y13730833D01*
X1208887Y13741400D01*
X1208024Y13751966D01*
X1205484Y13762278D01*
X1201318Y13772032D01*
X1195679Y13780973D01*
X1188618Y13788898D01*
X1180439Y13795603D01*
X1171244Y13800937D01*
X1161338Y13804696D01*
X1150924Y13806779D01*
X1140358Y13807236D01*
X1129842Y13805966D01*
X1119632Y13802969D01*
X1110081Y13798448D01*
X1101344Y13792403D01*
X1093673Y13785088D01*
X1087323Y13776604D01*
X1082395Y13767206D01*
X1079042Y13757148D01*
X1077315Y13746683D01*
X1077315Y13736116D01*
X1079042Y13725651D01*
X1082395Y13715593D01*
X1087323Y13706195D01*
X1093673Y13697712D01*
X1101293Y13690447D01*
X1103579Y13687094D01*
X1104392Y13683132D01*
X1104392Y13558418D01*
X1103630Y13554506D01*
X1101394Y13551204D01*
X1002995Y13452805D01*
X999693Y13450569D01*
X995781Y13449807D01*
X817880Y13449807D01*
X814019Y13450569D01*
X810768Y13452754D01*
X801065Y13468959D01*
X792632Y13479678D01*
X782828Y13489178D01*
X771855Y13497255D01*
X759866Y13503808D01*
X747166Y13508685D01*
X733856Y13511885D01*
X720293Y13513206D01*
X706678Y13512749D01*
X693216Y13510513D01*
X680212Y13506450D01*
X667816Y13500709D01*
X656336Y13493394D01*
X645922Y13484606D01*
X636778Y13474446D01*
X629056Y13463219D01*
X622909Y13451078D01*
X618439Y13438174D01*
X615746Y13424814D01*
X614832Y13411200D01*
X615746Y13397585D01*
X618439Y13384225D01*
X622909Y13371322D01*
X629056Y13359180D01*
X636778Y13347954D01*
X645922Y13337794D01*
X656336Y13329005D01*
X667816Y13321690D01*
X680212Y13315950D01*
X693216Y13311886D01*
X706678Y13309650D01*
G37*
G36*
X4191000Y11378692D02*
G01*
X4206392Y11379657D01*
X4221530Y11382400D01*
X4236212Y11386972D01*
X4250232Y11393322D01*
X4263440Y11401298D01*
X4275531Y11410797D01*
X4286402Y11421668D01*
X4295902Y11433759D01*
X4303877Y11446967D01*
X4310227Y11460988D01*
X4314799Y11475669D01*
X4317542Y11490807D01*
X4318508Y11506200D01*
X4317542Y11521592D01*
X4314799Y11536730D01*
X4310227Y11551412D01*
X4303877Y11565432D01*
X4295902Y11578640D01*
X4286402Y11590731D01*
X4275531Y11601602D01*
X4263440Y11611102D01*
X4250232Y11619077D01*
X4236212Y11625427D01*
X4221530Y11629999D01*
X4206392Y11632742D01*
X4191000Y11633708D01*
X4175607Y11632742D01*
X4160469Y11629999D01*
X4145787Y11625427D01*
X4131767Y11619077D01*
X4118559Y11611102D01*
X4106468Y11601602D01*
X4095597Y11590731D01*
X4086098Y11578640D01*
X4078122Y11565432D01*
X4071772Y11551412D01*
X4067200Y11536730D01*
X4064457Y11521592D01*
X4063492Y11506200D01*
X4064457Y11490807D01*
X4067200Y11475669D01*
X4071772Y11460988D01*
X4078122Y11446967D01*
X4086098Y11433759D01*
X4095597Y11421668D01*
X4106468Y11410797D01*
X4118559Y11401298D01*
X4131767Y11393322D01*
X4145787Y11386972D01*
X4160469Y11382400D01*
X4175607Y11379657D01*
G37*
G36*
X5207000Y11378692D02*
G01*
X5222392Y11379657D01*
X5237530Y11382400D01*
X5252212Y11386972D01*
X5266232Y11393322D01*
X5279440Y11401298D01*
X5291531Y11410797D01*
X5302402Y11421668D01*
X5311902Y11433759D01*
X5319877Y11446967D01*
X5326227Y11460988D01*
X5330799Y11475669D01*
X5333542Y11490807D01*
X5334508Y11506200D01*
X5333542Y11521592D01*
X5330799Y11536730D01*
X5326227Y11551412D01*
X5319877Y11565432D01*
X5311902Y11578640D01*
X5302402Y11590731D01*
X5291531Y11601602D01*
X5279440Y11611102D01*
X5266232Y11619077D01*
X5252212Y11625427D01*
X5237530Y11629999D01*
X5222392Y11632742D01*
X5207000Y11633708D01*
X5191607Y11632742D01*
X5176469Y11629999D01*
X5161788Y11625427D01*
X5147767Y11619077D01*
X5134559Y11611102D01*
X5122468Y11601602D01*
X5111597Y11590731D01*
X5102098Y11578640D01*
X5094122Y11565432D01*
X5087772Y11551412D01*
X5083200Y11536730D01*
X5080457Y11521592D01*
X5079492Y11506200D01*
X5080457Y11490807D01*
X5083200Y11475669D01*
X5087772Y11460988D01*
X5094122Y11446967D01*
X5102098Y11433759D01*
X5111597Y11421668D01*
X5122468Y11410797D01*
X5134559Y11401298D01*
X5147767Y11393322D01*
X5161788Y11386972D01*
X5176469Y11382400D01*
X5191607Y11379657D01*
G37*
G36*
X3740150Y11563350D02*
G01*
X3796842Y11563350D01*
X3795877Y11565432D01*
X3787901Y11578640D01*
X3778402Y11590731D01*
X3767531Y11601602D01*
X3755440Y11611102D01*
X3742232Y11619077D01*
X3740150Y11620042D01*
G37*
G36*
X2553157Y11563350D02*
G01*
X2609850Y11563350D01*
X2609850Y11620042D01*
X2607767Y11619077D01*
X2594559Y11611102D01*
X2582468Y11601602D01*
X2571597Y11590731D01*
X2562098Y11578640D01*
X2554122Y11565432D01*
G37*
G36*
X2724150Y11563350D02*
G01*
X2780842Y11563350D01*
X2779877Y11565432D01*
X2771902Y11578640D01*
X2762402Y11590731D01*
X2751531Y11601602D01*
X2739440Y11611102D01*
X2726232Y11619077D01*
X2724150Y11620042D01*
G37*
G36*
X3569157Y11563350D02*
G01*
X3625850Y11563350D01*
X3625850Y11620042D01*
X3623767Y11619077D01*
X3610559Y11611102D01*
X3598468Y11601602D01*
X3587597Y11590731D01*
X3578098Y11578640D01*
X3570122Y11565432D01*
G37*
G36*
X1686610Y12782550D02*
G01*
X1733905Y12782550D01*
X1733905Y12829895D01*
X1723440Y12824155D01*
X1712468Y12816078D01*
X1702663Y12806578D01*
X1694230Y12795859D01*
X1687271Y12784124D01*
G37*
G36*
X3740150Y11392357D02*
G01*
X3742232Y11393322D01*
X3755440Y11401298D01*
X3767531Y11410797D01*
X3778402Y11421668D01*
X3787901Y11433759D01*
X3795877Y11446967D01*
X3796842Y11449050D01*
X3740150Y11449050D01*
G37*
G36*
X1655216Y13455650D02*
G01*
X1702460Y13455650D01*
X1702460Y13502843D01*
X1697837Y13500709D01*
X1686356Y13493394D01*
X1675942Y13484606D01*
X1666798Y13474446D01*
X1659077Y13463219D01*
G37*
G36*
X1822805Y12646456D02*
G01*
X1827428Y12648590D01*
X1838909Y12655905D01*
X1849323Y12664694D01*
X1858518Y12674854D01*
X1866188Y12686080D01*
X1870049Y12693650D01*
X1822805Y12693650D01*
G37*
G36*
X1733905Y12646304D02*
G01*
X1733905Y12693650D01*
X1686610Y12693650D01*
X1687271Y12692075D01*
X1694230Y12680340D01*
X1702663Y12669621D01*
X1712468Y12660122D01*
X1723440Y12652044D01*
G37*
G36*
X1702460Y13319556D02*
G01*
X1702460Y13366750D01*
X1655216Y13366750D01*
X1659077Y13359180D01*
X1666798Y13347954D01*
X1675942Y13337794D01*
X1686356Y13329005D01*
X1697837Y13321690D01*
G37*

%LPD*%
G36*
X-66395Y10950397D02*
G01*
X-73710Y10951260D01*
X-78181Y10952835D01*
X-82194Y10955223D01*
X-85699Y10958322D01*
X-88493Y10962081D01*
X-90525Y10966297D01*
X-91694Y10970818D01*
X-92202Y10976203D01*
X-92202Y14997785D01*
X-91338Y15005151D01*
X-89763Y15009571D01*
X-87376Y15013584D01*
X-84277Y15017089D01*
X-80518Y15019883D01*
X-76301Y15021915D01*
X-71780Y15023134D01*
X-66395Y15023592D01*
X6120485Y15023592D01*
X6127851Y15022728D01*
X6132271Y15021153D01*
X6136284Y15018816D01*
X6139789Y15015667D01*
X6142583Y15011958D01*
X6144615Y15007691D01*
X6145834Y15003170D01*
X6146292Y14997785D01*
X6146292Y10976203D01*
X6145428Y10968888D01*
X6143853Y10964418D01*
X6141516Y10960404D01*
X6138367Y10956899D01*
X6134658Y10954105D01*
X6130391Y10952073D01*
X6125870Y10950905D01*
X6120485Y10950397D01*
X5765292Y10950397D01*
X5761431Y10951159D01*
X5758129Y10953394D01*
X5755944Y10956696D01*
X5755132Y10960557D01*
X5755944Y10964468D01*
X5758129Y10967770D01*
X6018276Y11227866D01*
X6027623Y11238534D01*
X6035294Y11250066D01*
X6041440Y11262461D01*
X6045860Y11275618D01*
X6048603Y11289182D01*
X6049518Y11303355D01*
X6049518Y12582804D01*
X6048603Y12596977D01*
X6045860Y12610541D01*
X6041440Y12623698D01*
X6035294Y12636093D01*
X6027623Y12647625D01*
X6018276Y12658293D01*
X5605272Y13071297D01*
X5603036Y13074548D01*
X5602274Y13078460D01*
X5603036Y13082371D01*
X5605272Y13085622D01*
X6018276Y13498626D01*
X6027623Y13509294D01*
X6035294Y13520826D01*
X6041440Y13533221D01*
X6045860Y13546378D01*
X6048603Y13559942D01*
X6049518Y13574115D01*
X6049518Y14249857D01*
X6050076Y14253210D01*
X6051702Y14256156D01*
X6054242Y14258442D01*
X6056223Y14259661D01*
X6060338Y14263776D01*
X6063386Y14268653D01*
X6065316Y14274139D01*
X6066028Y14280438D01*
X6066028Y14472361D01*
X6065316Y14478660D01*
X6063386Y14484146D01*
X6060338Y14489023D01*
X6056223Y14493138D01*
X6053582Y14494814D01*
X6050635Y14497608D01*
X6049010Y14501368D01*
X6049010Y14505432D01*
X6050635Y14509191D01*
X6053582Y14511985D01*
X6056223Y14513661D01*
X6060338Y14517776D01*
X6063386Y14522653D01*
X6065316Y14528139D01*
X6066028Y14534438D01*
X6066028Y14726361D01*
X6065316Y14732660D01*
X6063386Y14738146D01*
X6060338Y14743023D01*
X6056223Y14747138D01*
X6051346Y14750186D01*
X6045860Y14752116D01*
X6039561Y14752828D01*
X5847638Y14752828D01*
X5841339Y14752116D01*
X5835853Y14750186D01*
X5830976Y14747138D01*
X5826861Y14743023D01*
X5825642Y14741042D01*
X5823356Y14738502D01*
X5820410Y14736876D01*
X5817057Y14736318D01*
X4931359Y14736318D01*
X4927447Y14737080D01*
X4924094Y14739366D01*
X4921910Y14742718D01*
X4919472Y14748916D01*
X4912360Y14761870D01*
X4903317Y14774265D01*
X4901742Y14777567D01*
X4901438Y14781174D01*
X4902403Y14784679D01*
X4905095Y14788184D01*
X4908042Y14790115D01*
X4911394Y14790928D01*
X4924501Y14791842D01*
X4936642Y14794331D01*
X4948326Y14798497D01*
X4959350Y14804186D01*
X4969459Y14811349D01*
X4978552Y14819833D01*
X4986375Y14829434D01*
X4992827Y14840051D01*
X4997754Y14851430D01*
X5001107Y14863368D01*
X5002784Y14875662D01*
X5002784Y14888057D01*
X5001107Y14900351D01*
X4997754Y14912289D01*
X4992827Y14923668D01*
X4986375Y14934285D01*
X4978552Y14943886D01*
X4969459Y14952370D01*
X4959350Y14959533D01*
X4948326Y14965222D01*
X4936642Y14969388D01*
X4924501Y14971877D01*
X4911750Y14972741D01*
X1238758Y14972741D01*
X1229055Y14972284D01*
X1216812Y14970150D01*
X1214170Y14969439D01*
X1202436Y14965324D01*
X1191412Y14959634D01*
X1183436Y14954199D01*
X1181252Y14952472D01*
X1174038Y14945969D01*
X844397Y14616328D01*
X841095Y14614144D01*
X837234Y14613382D01*
X824534Y14613382D01*
X820775Y14614093D01*
X817575Y14616125D01*
X815340Y14619274D01*
X814374Y14622983D01*
X814933Y14626793D01*
X816813Y14630095D01*
X825449Y14640255D01*
X833221Y14652193D01*
X835914Y14657730D01*
X785469Y14657730D01*
X785469Y14623542D01*
X784656Y14619630D01*
X782472Y14616328D01*
X779170Y14614144D01*
X775309Y14613382D01*
X708609Y14613382D01*
X704748Y14614144D01*
X701446Y14616328D01*
X690727Y14627047D01*
X688543Y14630349D01*
X687730Y14634210D01*
X687730Y14657730D01*
X664210Y14657730D01*
X660349Y14658543D01*
X657047Y14660727D01*
X593699Y14724075D01*
X591921Y14726462D01*
X590905Y14729307D01*
X589838Y14734743D01*
X585368Y14748205D01*
X579221Y14761006D01*
X571449Y14772944D01*
X562254Y14783765D01*
X551738Y14793315D01*
X540105Y14801443D01*
X527507Y14807996D01*
X514146Y14812924D01*
X500278Y14816074D01*
X486156Y14817445D01*
X471932Y14816988D01*
X457911Y14814702D01*
X444296Y14810638D01*
X431292Y14804898D01*
X419150Y14797532D01*
X408025Y14788692D01*
X398170Y14778482D01*
X389686Y14767102D01*
X382676Y14754707D01*
X377342Y14741550D01*
X373735Y14727783D01*
X371957Y14713712D01*
X371957Y14699488D01*
X373735Y14685416D01*
X377342Y14671649D01*
X382676Y14658492D01*
X389686Y14646097D01*
X398170Y14634718D01*
X408025Y14624507D01*
X419150Y14615668D01*
X431292Y14608301D01*
X444296Y14602510D01*
X462737Y14597227D01*
X465277Y14595348D01*
X602284Y14458340D01*
X609498Y14451838D01*
X611682Y14450110D01*
X619658Y14444675D01*
X630682Y14438985D01*
X642416Y14434870D01*
X645058Y14434159D01*
X657301Y14432026D01*
X667004Y14431518D01*
X878840Y14431518D01*
X888542Y14432026D01*
X900785Y14434159D01*
X903427Y14434870D01*
X915162Y14438985D01*
X926185Y14444675D01*
X934161Y14450110D01*
X936345Y14451838D01*
X943559Y14458340D01*
X1024585Y14539417D01*
X1028344Y14541754D01*
X1032713Y14542312D01*
X1036929Y14540992D01*
X1040130Y14537994D01*
X1041806Y14533930D01*
X1043686Y14522754D01*
X1047750Y14509699D01*
X1053490Y14497354D01*
X1060805Y14485823D01*
X1069594Y14475409D01*
X1079754Y14466265D01*
X1090980Y14458543D01*
X1103122Y14452396D01*
X1116025Y14447926D01*
X1129385Y14445234D01*
X1143000Y14444319D01*
X1156614Y14445234D01*
X1169974Y14447926D01*
X1182878Y14452396D01*
X1195019Y14458543D01*
X1206246Y14466265D01*
X1216406Y14475409D01*
X1225194Y14485823D01*
X1232509Y14497354D01*
X1234643Y14501926D01*
X1236878Y14505025D01*
X1240078Y14507057D01*
X1243838Y14507768D01*
X1397304Y14507768D01*
X1401165Y14507006D01*
X1404467Y14504822D01*
X1671370Y14237919D01*
X1673606Y14234617D01*
X1674317Y14230654D01*
X1674266Y14218666D01*
X1675942Y14208251D01*
X1679295Y14198193D01*
X1684223Y14188795D01*
X1690573Y14180312D01*
X1698243Y14172996D01*
X1706981Y14166951D01*
X1716532Y14162430D01*
X1726742Y14159433D01*
X1737258Y14158163D01*
X1747824Y14158620D01*
X1754733Y14159992D01*
X1759000Y14159941D01*
X1762912Y14158112D01*
X1765706Y14154861D01*
X1766874Y14150746D01*
X1766265Y14146479D01*
X1763928Y14142872D01*
X1721561Y14100505D01*
X1718259Y14098269D01*
X1714347Y14097507D01*
X1239418Y14097507D01*
X1235506Y14098269D01*
X1232204Y14100505D01*
X1213916Y14118793D01*
X1211630Y14122196D01*
X1210919Y14126260D01*
X1211834Y14130223D01*
X1214272Y14133525D01*
X1216406Y14135404D01*
X1225194Y14145818D01*
X1232509Y14157350D01*
X1238250Y14169694D01*
X1242314Y14182750D01*
X1244549Y14196161D01*
X1245006Y14209826D01*
X1243685Y14223390D01*
X1240485Y14236649D01*
X1235608Y14249349D01*
X1229055Y14261338D01*
X1220978Y14272310D01*
X1211478Y14282115D01*
X1200759Y14290548D01*
X1189024Y14297507D01*
X1176477Y14302841D01*
X1163320Y14306448D01*
X1149807Y14308277D01*
X1136192Y14308277D01*
X1122680Y14306448D01*
X1109522Y14302841D01*
X1096975Y14297507D01*
X1085240Y14290548D01*
X1074521Y14282115D01*
X1065022Y14272310D01*
X1056944Y14261338D01*
X1050391Y14249349D01*
X1045514Y14236649D01*
X1042314Y14223390D01*
X1040993Y14209826D01*
X1041450Y14196161D01*
X1043686Y14182750D01*
X1047750Y14169694D01*
X1053490Y14157350D01*
X1060805Y14145818D01*
X1069594Y14135404D01*
X1079754Y14126260D01*
X1090980Y14118539D01*
X1103122Y14112392D01*
X1113129Y14108938D01*
X1116939Y14106550D01*
X1185113Y14038376D01*
X1187348Y14035074D01*
X1188110Y14031163D01*
X1187348Y14027302D01*
X1185113Y14024000D01*
X1181811Y14021816D01*
X1177950Y14021003D01*
X754430Y14021003D01*
X750874Y14021663D01*
X747776Y14023492D01*
X745490Y14026337D01*
X742442Y14035227D01*
X739343Y14040104D01*
X735279Y14044218D01*
X726389Y14049552D01*
X724001Y14052956D01*
X723138Y14057020D01*
X724001Y14061084D01*
X726389Y14064488D01*
X735279Y14069822D01*
X739343Y14073936D01*
X742442Y14078813D01*
X744372Y14084300D01*
X745083Y14090599D01*
X745083Y14277441D01*
X744372Y14283740D01*
X742442Y14289227D01*
X739343Y14294104D01*
X735279Y14298218D01*
X730351Y14301266D01*
X724916Y14303197D01*
X718566Y14303908D01*
X531774Y14303908D01*
X525424Y14303197D01*
X519988Y14301266D01*
X515061Y14298218D01*
X510997Y14294104D01*
X505612Y14285264D01*
X502259Y14282826D01*
X498195Y14282013D01*
X494131Y14282826D01*
X490728Y14285264D01*
X485343Y14294104D01*
X481279Y14298218D01*
X476351Y14301266D01*
X470916Y14303197D01*
X464566Y14303908D01*
X277774Y14303908D01*
X271424Y14303197D01*
X265988Y14301266D01*
X261061Y14298218D01*
X256997Y14294104D01*
X253898Y14289227D01*
X252018Y14283740D01*
X251307Y14277441D01*
X251307Y14090599D01*
X252018Y14084300D01*
X253898Y14078813D01*
X256997Y14073936D01*
X261061Y14069822D01*
X269951Y14064488D01*
X272338Y14061084D01*
X273202Y14057020D01*
X272338Y14052956D01*
X269951Y14049552D01*
X261061Y14044218D01*
X256997Y14040104D01*
X253898Y14035227D01*
X252018Y14029740D01*
X251307Y14023441D01*
X251307Y13836599D01*
X252018Y13830300D01*
X253898Y13824813D01*
X256997Y13819936D01*
X261061Y13815822D01*
X269951Y13810488D01*
X272338Y13807084D01*
X273202Y13803020D01*
X272338Y13798956D01*
X269951Y13795552D01*
X261061Y13790218D01*
X256997Y13786104D01*
X253898Y13781227D01*
X252018Y13775740D01*
X251307Y13769441D01*
X251307Y13582599D01*
X252018Y13576300D01*
X253898Y13570813D01*
X256997Y13565936D01*
X261061Y13561822D01*
X265988Y13558774D01*
X274878Y13555726D01*
X277723Y13553440D01*
X279552Y13550341D01*
X280162Y13546785D01*
X280162Y13281660D01*
X280670Y13271957D01*
X282803Y13259714D01*
X283514Y13257072D01*
X287629Y13245338D01*
X293319Y13234314D01*
X298754Y13226338D01*
X300482Y13224154D01*
X306984Y13216940D01*
X396544Y13127380D01*
X403758Y13120878D01*
X405942Y13119150D01*
X408635Y13115950D01*
X409803Y13111988D01*
X409295Y13107822D01*
X407162Y13104266D01*
X403758Y13101878D01*
X399694Y13101015D01*
X213867Y13101015D01*
X209956Y13101777D01*
X206654Y13103961D01*
X204470Y13107263D01*
X203708Y13111175D01*
X203708Y14312595D01*
X204470Y14316456D01*
X206654Y14319757D01*
X303276Y14416328D01*
X312623Y14426996D01*
X320294Y14438528D01*
X326440Y14450923D01*
X330860Y14464080D01*
X333603Y14477644D01*
X334518Y14491817D01*
X334518Y14603679D01*
X334924Y14606473D01*
X336905Y14610384D01*
X338785Y14615871D01*
X339496Y14622170D01*
X339496Y14791029D01*
X338785Y14797328D01*
X336905Y14802815D01*
X333806Y14807692D01*
X329692Y14811806D01*
X324815Y14814905D01*
X319328Y14816785D01*
X313029Y14817496D01*
X144170Y14817496D01*
X137871Y14816785D01*
X132384Y14814905D01*
X127508Y14811806D01*
X123393Y14807692D01*
X120294Y14802815D01*
X118414Y14797328D01*
X117703Y14791029D01*
X117703Y14622170D01*
X118414Y14615871D01*
X120294Y14610384D01*
X122275Y14606473D01*
X122682Y14603679D01*
X122682Y14539518D01*
X121920Y14535657D01*
X119735Y14532356D01*
X23114Y14435785D01*
X13766Y14425117D01*
X6096Y14413585D01*
X-50Y14401190D01*
X-4470Y14388033D01*
X-7213Y14374469D01*
X-8128Y14360296D01*
X-8128Y12978485D01*
X-7213Y12964312D01*
X-6553Y12961010D01*
X-6350Y12958165D01*
X-6959Y12955422D01*
X-13512Y12937998D01*
X-19151Y12917576D01*
X-22961Y12896748D01*
X-24841Y12875666D01*
X-24841Y12854533D01*
X-22961Y12833451D01*
X-19151Y12812623D01*
X-13512Y12792202D01*
X-6096Y12772390D01*
X3098Y12753340D01*
X13970Y12735153D01*
X26365Y12718034D01*
X40335Y12702082D01*
X55626Y12687452D01*
X72186Y12674244D01*
X89814Y12662611D01*
X108458Y12652552D01*
X127914Y12644221D01*
X148082Y12637719D01*
X168706Y12632994D01*
X189687Y12630150D01*
X211023Y12629184D01*
X449275Y12629184D01*
X453135Y12628422D01*
X456438Y12626238D01*
X511200Y12571425D01*
X523087Y12560350D01*
X526846Y12557099D01*
X539648Y12547142D01*
X543712Y12544298D01*
X557326Y12535509D01*
X561594Y12533020D01*
X575970Y12525502D01*
X580440Y12523368D01*
X595426Y12517170D01*
X600100Y12515494D01*
X615594Y12510668D01*
X620369Y12509398D01*
X636219Y12505944D01*
X641096Y12505131D01*
X657199Y12503150D01*
X662127Y12502743D01*
X678383Y12502184D01*
X1168603Y12502184D01*
X1172464Y12501422D01*
X1175766Y12499238D01*
X1920138Y11754866D01*
X1922322Y11751564D01*
X1923084Y11747703D01*
X1923084Y11506403D01*
X1923643Y11490147D01*
X1924050Y11485219D01*
X1926031Y11469116D01*
X1926843Y11464239D01*
X1930298Y11448389D01*
X1931568Y11443614D01*
X1936394Y11428120D01*
X1938070Y11423446D01*
X1941322Y11415928D01*
X1944268Y11408460D01*
X1946402Y11403990D01*
X1953920Y11389614D01*
X1956409Y11385346D01*
X1965198Y11371732D01*
X1968042Y11367668D01*
X1977999Y11354866D01*
X1981250Y11351107D01*
X1992325Y11339220D01*
X2329586Y11001959D01*
X2341473Y10990884D01*
X2345232Y10987633D01*
X2358034Y10977676D01*
X2362098Y10974781D01*
X2370988Y10969142D01*
X2374087Y10966094D01*
X2375611Y10962030D01*
X2375306Y10957712D01*
X2373223Y10953902D01*
X2369769Y10951311D01*
X2365552Y10950397D01*
G37*

%LPC*%
G36*
X637133Y14755469D02*
G01*
X687730Y14755469D01*
X687730Y14806015D01*
X685292Y14804898D01*
X673150Y14797532D01*
X662025Y14788692D01*
X652170Y14778482D01*
X643686Y14767102D01*
G37*
G36*
X785469Y14755469D02*
G01*
X835914Y14755469D01*
X833221Y14761006D01*
X825449Y14772944D01*
X816254Y14783765D01*
X805738Y14793315D01*
X794105Y14801443D01*
X785469Y14805913D01*
G37*
G36*
X564083Y11270284D02*
G01*
X1142796Y11270284D01*
X1164132Y11271250D01*
X1185113Y11274094D01*
X1205738Y11278819D01*
X1225905Y11285321D01*
X1245362Y11293652D01*
X1264005Y11303711D01*
X1281633Y11315344D01*
X1298194Y11328552D01*
X1313484Y11343182D01*
X1327454Y11359134D01*
X1339850Y11376253D01*
X1350721Y11394440D01*
X1359916Y11413490D01*
X1367332Y11433302D01*
X1372971Y11453723D01*
X1376781Y11474551D01*
X1378661Y11495633D01*
X1378661Y11516766D01*
X1376781Y11537848D01*
X1372971Y11558676D01*
X1367332Y11579098D01*
X1359916Y11598910D01*
X1350721Y11617960D01*
X1339850Y11636146D01*
X1327454Y11653266D01*
X1313484Y11669217D01*
X1298194Y11683847D01*
X1281633Y11697055D01*
X1264005Y11708688D01*
X1245362Y11718747D01*
X1225905Y11727078D01*
X1205738Y11733580D01*
X1185113Y11738305D01*
X1164132Y11741150D01*
X1142796Y11742115D01*
X628751Y11742115D01*
X625703Y11742572D01*
X613816Y11746331D01*
X608990Y11747601D01*
X593140Y11751056D01*
X588264Y11751868D01*
X572160Y11753850D01*
X567232Y11754256D01*
X550976Y11754815D01*
X211023Y11754815D01*
X189687Y11753850D01*
X168706Y11751005D01*
X148082Y11746280D01*
X127914Y11739778D01*
X108458Y11731447D01*
X89814Y11721388D01*
X72186Y11709755D01*
X55626Y11696547D01*
X40335Y11681917D01*
X26365Y11665966D01*
X13970Y11648846D01*
X3098Y11630660D01*
X-6096Y11611610D01*
X-13512Y11591798D01*
X-19151Y11571376D01*
X-22961Y11550548D01*
X-24841Y11529466D01*
X-24841Y11508333D01*
X-22961Y11487251D01*
X-19151Y11466423D01*
X-13512Y11446002D01*
X-6096Y11426190D01*
X3098Y11407140D01*
X13970Y11388953D01*
X26365Y11371834D01*
X40335Y11355882D01*
X55626Y11341252D01*
X72186Y11328044D01*
X89814Y11316411D01*
X108458Y11306352D01*
X127914Y11298021D01*
X148082Y11291519D01*
X168706Y11286794D01*
X189687Y11283950D01*
X211023Y11282984D01*
X486308Y11282984D01*
X489356Y11282527D01*
X501243Y11278768D01*
X506069Y11277498D01*
X521919Y11274044D01*
X526796Y11273231D01*
X542899Y11271250D01*
X547827Y11270843D01*
G37*
G36*
X1708150Y11563350D02*
G01*
X1764842Y11563350D01*
X1763877Y11565432D01*
X1755902Y11578640D01*
X1746402Y11590731D01*
X1735531Y11601602D01*
X1723440Y11611102D01*
X1710232Y11619077D01*
X1708150Y11620042D01*
G37*
G36*
X1537157Y11563350D02*
G01*
X1593850Y11563350D01*
X1593850Y11620042D01*
X1591767Y11619077D01*
X1578559Y11611102D01*
X1566468Y11601602D01*
X1555597Y11590731D01*
X1546098Y11578640D01*
X1538122Y11565432D01*
G37*
G36*
X1708150Y11392357D02*
G01*
X1710232Y11393322D01*
X1723440Y11401298D01*
X1735531Y11410797D01*
X1746402Y11421668D01*
X1755902Y11433759D01*
X1763877Y11446967D01*
X1764842Y11449050D01*
X1708150Y11449050D01*
G37*
G36*
X1593850Y11392357D02*
G01*
X1593850Y11449050D01*
X1537157Y11449050D01*
X1538122Y11446967D01*
X1546098Y11433759D01*
X1555597Y11421668D01*
X1566468Y11410797D01*
X1578559Y11401298D01*
X1591767Y11393322D01*
G37*

%LPD*%
D10*
X3175000Y11506200D02*
G01*
X3642868Y11038331D01*
X5678931Y11038331D01*
X5943600Y11303000D01*
X5943600Y12583160D01*
X5448300Y13078460D01*
D11*
X3175000Y11506200D02*
G01*
X2837941Y11168634D01*
X2496565Y11168634D01*
X2159000Y11506200D01*
X1270507Y12738100D02*
G01*
X678179Y12738100D01*
X551179Y12865100D01*
X2159000Y11506200D02*
G01*
X2159000Y11849608D01*
X1270507Y12738100D01*
D10*
X5943600Y14630400D02*
G01*
X4881879Y14630400D01*
X4813300Y14698979D01*
D11*
X551179Y11518900D02*
G01*
X210820Y11518900D01*
X1143000Y11506200D02*
G01*
X563879Y11506200D01*
X551179Y11518900D01*
D12*
X5002784Y13174979D02*
G01*
X5351779Y13174979D01*
X5448300Y13078460D01*
X3543300Y14698979D02*
G01*
X3600450Y14641829D01*
X3600450Y14367002D01*
X3298697Y14065250D01*
X3298697Y13876528D01*
X3449320Y13725905D01*
X3943858Y13725905D01*
X4494784Y13174979D01*
X4051300Y12412979D02*
G01*
X4051300Y12435839D01*
X4588256Y12972795D01*
X5226558Y12972795D01*
X371094Y13676121D02*
G01*
X371094Y13451839D01*
X4240784Y13936979D02*
G01*
X5002784Y13174979D01*
D10*
X228600Y14706600D02*
G01*
X228600Y14491462D01*
X210820Y12865100D02*
G01*
X97789Y12978129D01*
X97789Y14360652D01*
X228600Y14491462D01*
X5448300Y13078460D02*
G01*
X5943600Y13573760D01*
X5943600Y14376400D01*
D11*
X551179Y12865100D02*
G01*
X210820Y12865100D01*
D12*
X625096Y13930119D02*
G01*
X1531470Y13930119D01*
X1816100Y13645489D01*
X4912108Y14881857D02*
G01*
X1238504Y14881857D01*
X1238504Y14881860D02*
G01*
X879094Y14522450D01*
X666750Y14522450D01*
X482600Y14706600D01*
X2108200Y14675510D02*
G01*
X2290721Y14492988D01*
X3443980Y14492988D01*
X1816100Y13645387D02*
G01*
X1930400Y13645387D01*
X1930400Y13120878D01*
X2922777Y12128500D01*
X5092700Y12128500D01*
X5715000Y11506200D01*
X371094Y13451839D02*
G01*
X371094Y13281405D01*
X461010Y13191489D01*
X1561845Y13191489D01*
X2878836Y11874500D01*
X4330700Y11874500D01*
X4699000Y11506200D01*
D13*
X1143000Y14546402D02*
G01*
X1417497Y14546402D01*
X1739900Y14224000D01*
D12*
X4240784Y13174979D02*
G01*
X4015234Y13400788D01*
X3551176Y13400788D01*
X3050280Y13901676D01*
X3050280Y14258800D01*
X2972815Y14336519D01*
X1862990Y14336519D01*
X1524000Y14675510D01*
D13*
X716787Y13411200D02*
G01*
X1016000Y13411200D01*
X1143000Y13538200D01*
X1143000Y13741400D01*
X3289300Y12412979D02*
G01*
X3289300Y13516610D01*
X2946400Y13859510D01*
X2946400Y14216634D01*
X1892300Y14216634D01*
X1734565Y14058900D01*
X1219200Y14058900D01*
X1143000Y14135100D01*
X1143000Y14206474D01*
X4813300Y12814300D02*
G01*
X4813300Y12412979D01*
D14*
G01*
X1524000Y14675510D03*
G01*
X1524000Y13645489D03*
G01*
X1816100Y14675510D03*
G01*
X1816100Y13645489D03*
G01*
X2108200Y14675510D03*
G01*
X2108200Y13645489D03*
D15*
G01*
X3035300Y12412979D03*
G01*
X4813300Y14698979D03*
G01*
X4559300Y14698979D03*
G01*
X4305300Y14698979D03*
G01*
X4051300Y14698979D03*
G01*
X3797300Y14698979D03*
G01*
X3543300Y14698979D03*
G01*
X3289300Y14698979D03*
G01*
X3035300Y14698979D03*
G01*
X4813300Y12412979D03*
G01*
X4559300Y12412979D03*
G01*
X4305300Y12412979D03*
G01*
X4051300Y12412979D03*
G01*
X3797300Y12412979D03*
G01*
X3543300Y12412979D03*
G01*
X3289300Y12412979D03*
G36*
X143598Y14791601D02*
G01*
X313601Y14791601D01*
X313601Y14621598D01*
X143598Y14621598D01*
G37*
D16*
G01*
X482600Y14706600D03*
G01*
X736600Y14706600D03*
D14*
G01*
X1270380Y12738100D03*
G01*
X1778380Y12738100D03*
G36*
X5847079Y14472920D02*
G01*
X6040120Y14472920D01*
X6040120Y14279879D01*
X5847079Y14279879D01*
G37*
G36*
X5847079Y14726920D02*
G01*
X6040120Y14726920D01*
X6040120Y14533879D01*
X5847079Y14533879D01*
G37*
D17*
G01*
X4191000Y11506200D03*
G01*
X4699000Y11506200D03*
G01*
X5207000Y11506200D03*
G01*
X5715000Y11506200D03*
G01*
X3175000Y11506200D03*
G01*
X3683000Y11506200D03*
G01*
X2159000Y11506200D03*
G01*
X2667000Y11506200D03*
G01*
X1143000Y11506200D03*
G01*
X1651000Y11506200D03*
D18*
G01*
X5448300Y12570460D03*
G01*
X5448300Y13078460D03*
D19*
G01*
X625170Y13676020D03*
G01*
X371170Y13676020D03*
G01*
X625170Y13930020D03*
G01*
X371170Y13930020D03*
G01*
X625170Y14184020D03*
G01*
X371170Y14184020D03*
D14*
G01*
X5002809Y13936979D03*
G01*
X4240809Y13936979D03*
G01*
X4494809Y13936979D03*
G01*
X4748809Y13936979D03*
G01*
X4240809Y13174979D03*
G01*
X5002809Y13174979D03*
G01*
X4748809Y13174979D03*
G01*
X4494809Y13174979D03*
G01*
X3986809Y13936979D03*
G01*
X3732809Y13936979D03*
G01*
X3478809Y13936979D03*
G01*
X3478809Y13174979D03*
G01*
X3986809Y13174979D03*
G01*
X3732809Y13174979D03*
G01*
X1746910Y13411200D03*
G01*
X716889Y13411200D03*
G01*
X1143000Y14206397D03*
G01*
X1143000Y14546402D03*
D20*
G01*
X3443986Y14492986D03*
G01*
X5226558Y12972795D03*
G01*
X4912106Y14881860D03*
D21*
G01*
X1143000Y13741400D03*
D22*
G01*
X1143000Y13741400D03*
D21*
G01*
X1739900Y14224000D03*
D22*
G01*
X1739900Y14224000D03*
G01*
X4813300Y12814300D03*
D21*
G01*
X3683711Y14155038D03*
G01*
X3953713Y14155038D03*
G01*
X4763693Y14425041D03*
G01*
X5033695Y14425041D03*
G01*
X5033695Y14155038D03*
G01*
X5573699Y14425041D03*
G01*
X5573699Y14155038D03*
G01*
X5573699Y13885037D03*
G01*
X5573699Y13615060D03*
G01*
X5153202Y12540995D03*
G01*
X5423179Y12810997D03*
G01*
X5693181Y12540995D03*
G01*
X5693181Y12270994D03*
G01*
X5693181Y12000992D03*
G01*
X547801Y13483412D03*
G01*
X1357807Y13753414D03*
G01*
X4327804Y11323421D03*
G01*
X4597781Y11323421D03*
G01*
X-6400Y14937790D03*
G01*
X-6400Y14667788D03*
G01*
X-6400Y12507798D03*
G01*
X-6400Y12237796D03*
G01*
X-6400Y11967794D03*
G01*
X-6400Y11157788D03*
G01*
X263601Y14937790D03*
G01*
X263601Y12507798D03*
G01*
X263601Y12237796D03*
G01*
X263601Y11967794D03*
G01*
X263601Y11157788D03*
G01*
X533603Y14937790D03*
G01*
X533603Y12237796D03*
G01*
X533603Y11967794D03*
G01*
X533603Y11157788D03*
G01*
X803605Y12237796D03*
G01*
X803605Y11967794D03*
G01*
X803605Y11157788D03*
G01*
X1343609Y12237796D03*
G01*
X1343609Y11967794D03*
G01*
X5123586Y14937790D03*
G01*
X5393588Y14937790D03*
G01*
X5663590Y14937790D03*
G01*
X5933592Y14937790D03*
G01*
X5933592Y13317804D03*
G01*
X5933592Y13047802D03*
D23*
X210794Y11418900D02*
G01*
X210794Y11618899D01*
X551179Y11418900D02*
G01*
X551179Y11618899D01*
X210794Y12765100D02*
G01*
X210794Y12965099D01*
X551179Y12765100D02*
G01*
X551179Y12965099D01*
X210794Y11418900D02*
G01*
X210794Y11618899D01*
X551179Y11418900D02*
G01*
X551179Y11618899D01*
X210794Y12765100D02*
G01*
X210794Y12965099D01*
X551179Y12765100D02*
G01*
X551179Y12965099D01*
M02*
