M48
METRIC,LZ,000.000
;FILE_FORMAT=3:3
;TYPE=PLATED
;Layer: Drill PTH
;EasyEDA v6.4.20.6, 2021-07-29T18:27:26+02:00
;b234656e15784b60829a7703d43b9120,4245c91a3b6e4cf7aa995480f5c7e4a3,10
;Gerber Generator version 0.2
;Holesize 1 = 0.351 mm
T01C0.351
;Holesize 2 = 0.501 mm
T02C0.501
;Holesize 3 = 0.702 mm
T03C0.702
;Holesize 4 = 0.712 mm
T04C0.712
;Holesize 5 = 0.915 mm
T05C0.915
;Holesize 6 = 1.000 mm
T06C1.000
;Holesize 7 = 1.001 mm
T07C1.001
;Holesize 8 = 1.002 mm
T08C1.002
;Holesize 9 = 1.016 mm
T09C1.016
;Holesize 10 = 1.301 mm
T10C1.301
%
G05
G90
T01
X032628Y130750
X038028Y141550
X043428Y136150
X046128Y144250
X046128Y133450
X048828Y144250
X048828Y141550
X048828Y136150
X051528Y128050
X054228Y144250
X054228Y141550
X054228Y138850
X054228Y136150
X054228Y133450
X054228Y128050
X054228Y122651
X056928Y144250
X056928Y141550
X056928Y138850
X056928Y136150
X056928Y125351
X056928Y122651
X056928Y119950
X005660Y134837
X011060Y137537
X013760Y134837
X024560Y118637
X043460Y113237
X046160Y118637
X046160Y113237
X048860Y118637
X048860Y115937
X048860Y113237
X051560Y113237
X054260Y113237
X-000067Y149380
X-000067Y146680
X-000067Y125081
X-000067Y122381
X-000067Y119680
X-000067Y111580
X002633Y149380
X002633Y125081
X002633Y122381
X002633Y119680
X002633Y111580
X005333Y149380
X005333Y143980
X005333Y122381
X005333Y119680
X005333Y111580
X008034Y149380
X008034Y111580
X010734Y149380
X010734Y143980
X013434Y122381
X013434Y119680
X016134Y119680
X016134Y116980
X018834Y141280
X021534Y141280
X021534Y138580
X051234Y149380
X053934Y149380
X056634Y149380
X059334Y149380
X059334Y133180
X059334Y130481
T02
X034440Y144930
X052266Y129728
X049121Y148819
T03
X050028Y139370
X042408Y139370
X044948Y139370
X047488Y139370
X042408Y131750
X050028Y131750
X047488Y131750
X044948Y131750
X039868Y139370
X037328Y139370
X034788Y139370
X034788Y131750
X039868Y131750
X037328Y131750
T04
X054483Y125705
X054483Y130785
T05
X012704Y127381
X017784Y127381
T06
X012035Y146068
X012035Y135768
X016110Y146115
X016110Y135815
X020044Y146115
X020044Y135815
X002108Y114439G85X002108Y115939
X005512Y114439G85X005512Y115939
X002108Y127901G85X002108Y129401
X005512Y127901G85X005512Y129401
T07
X059436Y143764
X059436Y146304
T08
X002286Y147066
X004826Y147066
X007366Y147066
T09
X030353Y124130
X048133Y146990
X045593Y146990
X043053Y146990
X040513Y146990
X037973Y146990
X035433Y146990
X032893Y146990
X030353Y146990
X048133Y124130
X045593Y124130
X043053Y124130
X040513Y124130
X037973Y124130
X035433Y124130
X032893Y124130
X006252Y136760
X003712Y136760
X006252Y139300
X003712Y139300
X006252Y141840
X003712Y141840
T10
X041910Y115062
X046990Y115062
X052070Y115062
X057150Y115062
X031750Y115062
X036830Y115062
X021590Y115062
X026670Y115062
X011430Y115062
X016510Y115062
M30
