G04 Layer: TopSilkLayer*
G04 EasyEDA v6.4.20.6, 2021-07-29T18:27:26+02:00*
G04 b234656e15784b60829a7703d43b9120,4245c91a3b6e4cf7aa995480f5c7e4a3,10*
G04 Gerber Generator version 0.2*
G04 Scale: 100 percent, Rotated: No, Reflected: No *
G04 Dimensions in millimeters *
G04 leading zeros omitted , absolute positions ,4 integer and 5 decimal *
%FSLAX45Y45*%
%MOMM*%

%ADD10C,0.2540*%
%ADD25C,0.1778*%
%ADD26C,0.2032*%
%ADD27C,0.2030*%
%ADD28C,0.1530*%
%ADD29C,0.1524*%
%ADD30C,0.1540*%

%LPD*%
G36*
X5073345Y14580666D02*
G01*
X5073345Y14518182D01*
X5510834Y14518182D01*
X5510834Y14236954D01*
X5135829Y14236954D01*
X5135829Y14518182D01*
X5073345Y14518182D01*
X5073345Y14174419D01*
X5260848Y14174419D01*
X5260848Y14143177D01*
X5229606Y14143177D01*
X5229606Y14111935D01*
X5198313Y14111935D01*
X5198313Y14080693D01*
X5448350Y14080693D01*
X5448350Y14111935D01*
X5417108Y14111935D01*
X5417108Y14143177D01*
X5385816Y14143177D01*
X5385816Y14174419D01*
X5573318Y14174419D01*
X5573318Y14580666D01*
G37*
G36*
X5354574Y14486940D02*
G01*
X5354574Y14268196D01*
X5417108Y14268196D01*
X5417108Y14486940D01*
G37*
G36*
X5229606Y14486940D02*
G01*
X5229606Y14268196D01*
X5292090Y14268196D01*
X5292090Y14486940D01*
G37*
G36*
X899921Y11160353D02*
G01*
X893927Y11160150D01*
X888085Y11159642D01*
X882345Y11158829D01*
X876706Y11157661D01*
X871270Y11156188D01*
X865936Y11154359D01*
X860806Y11152225D01*
X855878Y11149838D01*
X851153Y11147094D01*
X846632Y11144097D01*
X842314Y11140744D01*
X838250Y11137138D01*
X834440Y11133277D01*
X830884Y11129111D01*
X827633Y11124692D01*
X824687Y11119967D01*
X821994Y11114989D01*
X819607Y11109756D01*
X817575Y11104270D01*
X815898Y11098530D01*
X814578Y11092586D01*
X813612Y11086338D01*
X813003Y11079886D01*
X812800Y11073231D01*
X823976Y11073231D01*
X824230Y11080343D01*
X824941Y11087201D01*
X826109Y11093754D01*
X827735Y11100003D01*
X829818Y11105896D01*
X832256Y11111484D01*
X835101Y11116767D01*
X838352Y11121694D01*
X841908Y11126317D01*
X845870Y11130534D01*
X850087Y11134394D01*
X854659Y11137900D01*
X859485Y11140998D01*
X864565Y11143742D01*
X869950Y11146028D01*
X875537Y11147958D01*
X881329Y11149482D01*
X887374Y11150549D01*
X893571Y11151209D01*
X899921Y11151463D01*
X906221Y11151209D01*
X912317Y11150549D01*
X918311Y11149482D01*
X924052Y11147958D01*
X929589Y11146028D01*
X934923Y11143691D01*
X940003Y11140948D01*
X944778Y11137798D01*
X949299Y11134293D01*
X953566Y11130432D01*
X957427Y11126165D01*
X961034Y11121593D01*
X964234Y11116665D01*
X967079Y11111382D01*
X969518Y11105794D01*
X971600Y11099901D01*
X973226Y11093653D01*
X974394Y11087150D01*
X975106Y11080292D01*
X975360Y11073231D01*
X975106Y11066068D01*
X974394Y11059210D01*
X973226Y11052657D01*
X971600Y11046358D01*
X969518Y11040414D01*
X967079Y11034776D01*
X964234Y11029442D01*
X961034Y11024463D01*
X957427Y11019790D01*
X953566Y11015522D01*
X949299Y11011611D01*
X944778Y11008055D01*
X940003Y11004905D01*
X934923Y11002111D01*
X929589Y10999724D01*
X924052Y10997793D01*
X918311Y10996218D01*
X912317Y10995101D01*
X906221Y10994440D01*
X899921Y10994237D01*
X893571Y10994440D01*
X887374Y10995101D01*
X881329Y10996218D01*
X875537Y10997742D01*
X869950Y10999673D01*
X864565Y11002010D01*
X859485Y11004753D01*
X854659Y11007902D01*
X850087Y11011408D01*
X845870Y11015319D01*
X841908Y11019586D01*
X838352Y11024209D01*
X835101Y11029188D01*
X832256Y11034522D01*
X829818Y11040211D01*
X827735Y11046155D01*
X826109Y11052454D01*
X824941Y11059109D01*
X824230Y11066018D01*
X823976Y11073231D01*
X812800Y11073231D01*
X813003Y11066475D01*
X813612Y11060023D01*
X814578Y11053775D01*
X815898Y11047730D01*
X817575Y11041989D01*
X819607Y11036452D01*
X821994Y11031169D01*
X824687Y11026140D01*
X827633Y11021415D01*
X830884Y11016945D01*
X834440Y11012728D01*
X838250Y11008817D01*
X842314Y11005159D01*
X846632Y11001806D01*
X851153Y10998758D01*
X855878Y10995964D01*
X860806Y10993526D01*
X865936Y10991392D01*
X871270Y10989564D01*
X876706Y10988040D01*
X882345Y10986871D01*
X888085Y10986008D01*
X893927Y10985500D01*
X899921Y10985347D01*
X905865Y10985500D01*
X911707Y10986008D01*
X917448Y10986871D01*
X923036Y10988040D01*
X928471Y10989564D01*
X933754Y10991392D01*
X938834Y10993526D01*
X943762Y10995964D01*
X948486Y10998758D01*
X953008Y11001806D01*
X957326Y11005159D01*
X961339Y11008817D01*
X965149Y11012728D01*
X968705Y11016945D01*
X971956Y11021415D01*
X974953Y11026140D01*
X977595Y11031169D01*
X979982Y11036452D01*
X982014Y11041989D01*
X983691Y11047730D01*
X985012Y11053775D01*
X985977Y11060023D01*
X986586Y11066475D01*
X986790Y11073231D01*
X986586Y11079886D01*
X985977Y11086338D01*
X985012Y11092586D01*
X983691Y11098530D01*
X982014Y11104270D01*
X979982Y11109756D01*
X977595Y11114989D01*
X974953Y11119967D01*
X971956Y11124692D01*
X968705Y11129111D01*
X965149Y11133277D01*
X961339Y11137138D01*
X957326Y11140744D01*
X953008Y11144097D01*
X948486Y11147094D01*
X943762Y11149838D01*
X938834Y11152225D01*
X933754Y11154359D01*
X928471Y11156188D01*
X923036Y11157661D01*
X917448Y11158829D01*
X911707Y11159642D01*
X905865Y11160150D01*
G37*
G36*
X903732Y11124539D02*
G01*
X896874Y11124082D01*
X890422Y11122812D01*
X884275Y11120729D01*
X878586Y11117884D01*
X873404Y11114328D01*
X868730Y11110112D01*
X864666Y11105286D01*
X861212Y11099850D01*
X858418Y11093856D01*
X856386Y11087404D01*
X855116Y11080496D01*
X854710Y11073231D01*
X855116Y11065865D01*
X856335Y11058956D01*
X858316Y11052505D01*
X861009Y11046561D01*
X864362Y11041176D01*
X868375Y11036350D01*
X872998Y11032185D01*
X878128Y11028680D01*
X883869Y11025886D01*
X890066Y11023854D01*
X896670Y11022584D01*
X903732Y11022177D01*
X911707Y11022533D01*
X919276Y11023803D01*
X926490Y11025886D01*
X933450Y11029035D01*
X934212Y11053165D01*
X924052Y11053165D01*
X920496Y11033607D01*
X916482Y11032337D01*
X912571Y11031575D01*
X908913Y11031169D01*
X905764Y11031067D01*
X900937Y11031372D01*
X896416Y11032286D01*
X892149Y11033810D01*
X888288Y11035944D01*
X884732Y11038636D01*
X881583Y11041938D01*
X878840Y11045799D01*
X876503Y11050219D01*
X874674Y11055146D01*
X873353Y11060633D01*
X872540Y11066678D01*
X872236Y11073231D01*
X872540Y11079937D01*
X873404Y11086084D01*
X874826Y11091672D01*
X876757Y11096701D01*
X879144Y11101171D01*
X881989Y11105032D01*
X885190Y11108334D01*
X888796Y11111026D01*
X892708Y11113160D01*
X896924Y11114684D01*
X901344Y11115598D01*
X906018Y11115903D01*
X909167Y11115802D01*
X912418Y11115395D01*
X915822Y11114684D01*
X919226Y11113617D01*
X923036Y11093297D01*
X932687Y11093297D01*
X931926Y11117427D01*
X925220Y11120780D01*
X918565Y11122964D01*
X911555Y11124184D01*
G37*
D26*
X5054600Y14703552D02*
G01*
X5054600Y14627097D01*
X5054600Y14627097D02*
G01*
X5098288Y14627097D01*
X5122163Y14703552D02*
G01*
X5122163Y14648942D01*
X5125974Y14638020D01*
X5133086Y14630654D01*
X5144008Y14627097D01*
X5151374Y14627097D01*
X5162295Y14630654D01*
X5169408Y14638020D01*
X5173218Y14648942D01*
X5173218Y14703552D01*
X5251704Y14685263D02*
G01*
X5248147Y14692629D01*
X5240781Y14699995D01*
X5233415Y14703552D01*
X5218938Y14703552D01*
X5211572Y14699995D01*
X5204459Y14692629D01*
X5200904Y14685263D01*
X5197093Y14674342D01*
X5197093Y14656307D01*
X5200904Y14645386D01*
X5204459Y14638020D01*
X5211572Y14630654D01*
X5218938Y14627097D01*
X5233415Y14627097D01*
X5240781Y14630654D01*
X5248147Y14638020D01*
X5251704Y14645386D01*
X5275579Y14703552D02*
G01*
X5275579Y14627097D01*
X5299709Y14703552D02*
G01*
X5299709Y14627097D01*
X5299709Y14703552D02*
G01*
X5346954Y14703552D01*
X5299709Y14667229D02*
G01*
X5328665Y14667229D01*
X5371084Y14703552D02*
G01*
X5371084Y14627097D01*
X5371084Y14703552D02*
G01*
X5418327Y14703552D01*
X5371084Y14667229D02*
G01*
X5400040Y14667229D01*
X5371084Y14627097D02*
G01*
X5418327Y14627097D01*
X5442204Y14703552D02*
G01*
X5442204Y14627097D01*
X5442204Y14703552D02*
G01*
X5474970Y14703552D01*
X5485891Y14699995D01*
X5489447Y14696186D01*
X5493258Y14689074D01*
X5493258Y14681707D01*
X5489447Y14674342D01*
X5485891Y14670786D01*
X5474970Y14667229D01*
X5442204Y14667229D01*
X5467604Y14667229D02*
G01*
X5493258Y14627097D01*
X5517134Y14703552D02*
G01*
X5517134Y14627097D01*
X5541263Y14703552D02*
G01*
X5541263Y14627097D01*
X5541263Y14703552D02*
G01*
X5592063Y14627097D01*
X5592063Y14703552D02*
G01*
X5592063Y14627097D01*
D27*
X5080000Y11102594D02*
G01*
X5087365Y11106150D01*
X5098288Y11117071D01*
X5098288Y11040618D01*
X5144008Y11117071D02*
G01*
X5133086Y11113515D01*
X5125720Y11102594D01*
X5122163Y11084305D01*
X5122163Y11073384D01*
X5125720Y11055095D01*
X5133086Y11044174D01*
X5144008Y11040618D01*
X5151374Y11040618D01*
X5162295Y11044174D01*
X5169408Y11055095D01*
X5172963Y11073384D01*
X5172963Y11084305D01*
X5169408Y11102594D01*
X5162295Y11113515D01*
X5151374Y11117071D01*
X5144008Y11117071D01*
X5226304Y11117071D02*
G01*
X5197093Y11040618D01*
X5226304Y11117071D02*
G01*
X5255259Y11040618D01*
X5208015Y11066018D02*
G01*
X5244338Y11066018D01*
X5335270Y11117071D02*
G01*
X5335270Y11040618D01*
X5335270Y11117071D02*
G01*
X5364479Y11040618D01*
X5393436Y11117071D02*
G01*
X5364479Y11040618D01*
X5393436Y11117071D02*
G01*
X5393436Y11040618D01*
X5446522Y11117071D02*
G01*
X5417565Y11040618D01*
X5446522Y11117071D02*
G01*
X5475731Y11040618D01*
X5428488Y11066018D02*
G01*
X5464809Y11066018D01*
X5499608Y11117071D02*
G01*
X5550661Y11040618D01*
X5550661Y11117071D02*
G01*
X5499608Y11040618D01*
X5630672Y11073384D02*
G01*
X5695950Y11073384D01*
X5775959Y11102594D02*
G01*
X5783325Y11106150D01*
X5794247Y11117071D01*
X5794247Y11040618D01*
X5836411Y11091671D02*
G01*
X5829045Y11087862D01*
X5821934Y11080750D01*
X5818124Y11069828D01*
X5818124Y11062462D01*
X5821934Y11051539D01*
X5829045Y11044174D01*
X5836411Y11040618D01*
X5847334Y11040618D01*
X5854445Y11044174D01*
X5861811Y11051539D01*
X5865368Y11062462D01*
X5865368Y11069828D01*
X5861811Y11080750D01*
X5854445Y11087862D01*
X5847334Y11091671D01*
X5836411Y11091671D01*
X5929375Y11091671D02*
G01*
X5889497Y11040618D01*
X5889497Y11091671D02*
G01*
X5929375Y11091671D01*
X5889497Y11040618D02*
G01*
X5929375Y11040618D01*
X6039865Y11074400D02*
G01*
X6036309Y11081765D01*
X6025388Y11092687D01*
X6101841Y11092687D01*
X6025388Y11160252D02*
G01*
X6025388Y11123929D01*
X6058154Y11120120D01*
X6054597Y11123929D01*
X6050788Y11134852D01*
X6050788Y11145774D01*
X6054597Y11156695D01*
X6061709Y11163808D01*
X6072631Y11167363D01*
X6079997Y11167363D01*
X6090920Y11163808D01*
X6098286Y11156695D01*
X6101841Y11145774D01*
X6101841Y11134852D01*
X6098286Y11123929D01*
X6094475Y11120120D01*
X6087363Y11116563D01*
X6025388Y11220704D02*
G01*
X6101841Y11191494D01*
X6025388Y11220704D02*
G01*
X6101841Y11249660D01*
X6076441Y11202415D02*
G01*
X6076441Y11238737D01*
X6025388Y11329670D02*
G01*
X6101841Y11329670D01*
X6025388Y11329670D02*
G01*
X6101841Y11358879D01*
X6025388Y11387836D02*
G01*
X6101841Y11358879D01*
X6025388Y11387836D02*
G01*
X6101841Y11387836D01*
X6025388Y11440921D02*
G01*
X6101841Y11411965D01*
X6025388Y11440921D02*
G01*
X6101841Y11470131D01*
X6076441Y11422887D02*
G01*
X6076441Y11459210D01*
X6025388Y11494008D02*
G01*
X6101841Y11545062D01*
X6025388Y11545062D02*
G01*
X6101841Y11494008D01*
X6069075Y11624818D02*
G01*
X6069075Y11690350D01*
X6043675Y11773915D02*
G01*
X6039865Y11773915D01*
X6032754Y11777726D01*
X6028943Y11781281D01*
X6025388Y11788647D01*
X6025388Y11803126D01*
X6028943Y11810492D01*
X6032754Y11814047D01*
X6039865Y11817604D01*
X6047231Y11817604D01*
X6054597Y11814047D01*
X6065520Y11806681D01*
X6101841Y11770360D01*
X6101841Y11821413D01*
X6050788Y11863578D02*
G01*
X6054597Y11856212D01*
X6061709Y11848845D01*
X6072631Y11845289D01*
X6079997Y11845289D01*
X6090920Y11848845D01*
X6098286Y11856212D01*
X6101841Y11863578D01*
X6101841Y11874500D01*
X6098286Y11881612D01*
X6090920Y11888978D01*
X6079997Y11892534D01*
X6072631Y11892534D01*
X6061709Y11888978D01*
X6054597Y11881612D01*
X6050788Y11874500D01*
X6050788Y11863578D01*
X6050788Y11956542D02*
G01*
X6101841Y11916663D01*
X6050788Y11916663D02*
G01*
X6050788Y11956542D01*
X6101841Y11916663D02*
G01*
X6101841Y11956542D01*
D26*
X1384300Y12094971D02*
G01*
X1384300Y12018518D01*
X1408176Y12094971D02*
G01*
X1408176Y12018518D01*
X1408176Y12094971D02*
G01*
X1459229Y12018518D01*
X1459229Y12094971D02*
G01*
X1459229Y12018518D01*
X3349243Y12094971D02*
G01*
X3341877Y12091415D01*
X3334765Y12084050D01*
X3330956Y12076684D01*
X3327400Y12065762D01*
X3327400Y12047728D01*
X3330956Y12036805D01*
X3334765Y12029439D01*
X3341877Y12022074D01*
X3349243Y12018518D01*
X3363722Y12018518D01*
X3371088Y12022074D01*
X3378200Y12029439D01*
X3382009Y12036805D01*
X3385565Y12047728D01*
X3385565Y12065762D01*
X3382009Y12076684D01*
X3378200Y12084050D01*
X3371088Y12091415D01*
X3363722Y12094971D01*
X3349243Y12094971D01*
X3409695Y12094971D02*
G01*
X3409695Y12040362D01*
X3413252Y12029439D01*
X3420363Y12022074D01*
X3431286Y12018518D01*
X3438652Y12018518D01*
X3449574Y12022074D01*
X3456940Y12029439D01*
X3460495Y12040362D01*
X3460495Y12094971D01*
X3510025Y12094971D02*
G01*
X3510025Y12018518D01*
X3484372Y12094971D02*
G01*
X3535425Y12094971D01*
X2333243Y12094971D02*
G01*
X2325877Y12091415D01*
X2318765Y12084050D01*
X2314956Y12076684D01*
X2311400Y12065762D01*
X2311400Y12047728D01*
X2314956Y12036805D01*
X2318765Y12029439D01*
X2325877Y12022074D01*
X2333243Y12018518D01*
X2347722Y12018518D01*
X2355088Y12022074D01*
X2362200Y12029439D01*
X2366009Y12036805D01*
X2369565Y12047728D01*
X2369565Y12065762D01*
X2366009Y12076684D01*
X2362200Y12084050D01*
X2355088Y12091415D01*
X2347722Y12094971D01*
X2333243Y12094971D01*
X2393695Y12094971D02*
G01*
X2393695Y12040362D01*
X2397252Y12029439D01*
X2404363Y12022074D01*
X2415286Y12018518D01*
X2422652Y12018518D01*
X2433574Y12022074D01*
X2440940Y12029439D01*
X2444495Y12040362D01*
X2444495Y12094971D01*
X2494025Y12094971D02*
G01*
X2494025Y12018518D01*
X2468372Y12094971D02*
G01*
X2519425Y12094971D01*
X74421Y13707871D02*
G01*
X38100Y13656818D01*
X92710Y13656818D01*
X74421Y13707871D02*
G01*
X74421Y13631418D01*
X116586Y13707871D02*
G01*
X145795Y13671550D01*
X145795Y13631418D01*
X174752Y13707871D02*
G01*
X145795Y13671550D01*
X45465Y13961871D02*
G01*
X85344Y13961871D01*
X63500Y13932662D01*
X74421Y13932662D01*
X81787Y13929105D01*
X85344Y13925550D01*
X88900Y13914628D01*
X88900Y13907262D01*
X85344Y13896339D01*
X77978Y13888974D01*
X67310Y13885418D01*
X56387Y13885418D01*
X45465Y13888974D01*
X41655Y13892784D01*
X38100Y13899895D01*
X113029Y13961871D02*
G01*
X141986Y13925550D01*
X141986Y13885418D01*
X171195Y13961871D02*
G01*
X141986Y13925550D01*
X63500Y14201394D02*
G01*
X70865Y14204950D01*
X81787Y14215871D01*
X81787Y14139418D01*
X105663Y14215871D02*
G01*
X134873Y14179550D01*
X134873Y14139418D01*
X163829Y14215871D02*
G01*
X134873Y14179550D01*
X894587Y13707871D02*
G01*
X858265Y13707871D01*
X854455Y13675105D01*
X858265Y13678662D01*
X869187Y13682471D01*
X880110Y13682471D01*
X890778Y13678662D01*
X898144Y13671550D01*
X901700Y13660628D01*
X901700Y13653262D01*
X898144Y13642339D01*
X890778Y13634974D01*
X880110Y13631418D01*
X869187Y13631418D01*
X858265Y13634974D01*
X854455Y13638784D01*
X850900Y13645895D01*
X858265Y13961871D02*
G01*
X898144Y13961871D01*
X876300Y13932662D01*
X887221Y13932662D01*
X894587Y13929105D01*
X898144Y13925550D01*
X901700Y13914628D01*
X901700Y13907262D01*
X898144Y13896339D01*
X890778Y13888974D01*
X880110Y13885418D01*
X869187Y13885418D01*
X858265Y13888974D01*
X854455Y13892784D01*
X850900Y13899895D01*
X854455Y14197584D02*
G01*
X854455Y14201394D01*
X858265Y14208505D01*
X861821Y14212316D01*
X869187Y14215871D01*
X883665Y14215871D01*
X890778Y14212316D01*
X894587Y14208505D01*
X898144Y14201394D01*
X898144Y14194028D01*
X894587Y14186662D01*
X887221Y14175739D01*
X850900Y14139418D01*
X901700Y14139418D01*
D27*
X5903468Y12115800D02*
G01*
X5989574Y12115800D01*
X5948679Y12115800D02*
G01*
X5936234Y12127992D01*
X5932170Y12136374D01*
X5932170Y12148565D01*
X5936234Y12156694D01*
X5948679Y12160758D01*
X5989574Y12160758D01*
X5903468Y12200128D02*
G01*
X5973063Y12200128D01*
X5985509Y12204192D01*
X5989574Y12212320D01*
X5989574Y12220447D01*
X5932170Y12187681D02*
G01*
X5932170Y12216384D01*
X5903468Y12259818D02*
G01*
X5973063Y12259818D01*
X5985509Y12263881D01*
X5989574Y12272010D01*
X5989574Y12280137D01*
X5932170Y12247626D02*
G01*
X5932170Y12276074D01*
X5932170Y12307315D02*
G01*
X6018022Y12307315D01*
X5944615Y12307315D02*
G01*
X5936234Y12315444D01*
X5932170Y12323571D01*
X5932170Y12335763D01*
X5936234Y12344145D01*
X5944615Y12352274D01*
X5956808Y12356337D01*
X5964936Y12356337D01*
X5977127Y12352274D01*
X5985509Y12344145D01*
X5989574Y12335763D01*
X5989574Y12323571D01*
X5985509Y12315444D01*
X5977127Y12307315D01*
X5944615Y12428220D02*
G01*
X5936234Y12424155D01*
X5932170Y12411963D01*
X5932170Y12399771D01*
X5936234Y12387326D01*
X5944615Y12383262D01*
X5952743Y12387326D01*
X5956808Y12395708D01*
X5960872Y12416028D01*
X5964936Y12424155D01*
X5973063Y12428220D01*
X5977127Y12428220D01*
X5985509Y12424155D01*
X5989574Y12411963D01*
X5989574Y12399771D01*
X5985509Y12387326D01*
X5977127Y12383262D01*
X5940297Y12459462D02*
G01*
X5944615Y12455397D01*
X5948679Y12459462D01*
X5944615Y12463526D01*
X5940297Y12459462D01*
X5969000Y12459462D02*
G01*
X5973063Y12455397D01*
X5977127Y12459462D01*
X5973063Y12463526D01*
X5969000Y12459462D01*
X5887211Y12564110D02*
G01*
X6018022Y12490450D01*
X5887211Y12664694D02*
G01*
X6018022Y12591287D01*
X5932170Y12740894D02*
G01*
X5997702Y12740894D01*
X6009893Y12736829D01*
X6013958Y12732765D01*
X6018022Y12724637D01*
X6018022Y12712192D01*
X6013958Y12704063D01*
X5944615Y12740894D02*
G01*
X5936234Y12732765D01*
X5932170Y12724637D01*
X5932170Y12712192D01*
X5936234Y12704063D01*
X5944615Y12695936D01*
X5956808Y12691871D01*
X5964936Y12691871D01*
X5977127Y12695936D01*
X5985509Y12704063D01*
X5989574Y12712192D01*
X5989574Y12724637D01*
X5985509Y12732765D01*
X5977127Y12740894D01*
X5903468Y12767818D02*
G01*
X5907786Y12771881D01*
X5903468Y12775945D01*
X5899404Y12771881D01*
X5903468Y12767818D01*
X5932170Y12771881D02*
G01*
X5989574Y12771881D01*
X5903468Y12815315D02*
G01*
X5973063Y12815315D01*
X5985509Y12819379D01*
X5989574Y12827508D01*
X5989574Y12835889D01*
X5932170Y12803124D02*
G01*
X5932170Y12831826D01*
X5903468Y12862813D02*
G01*
X5989574Y12862813D01*
X5948679Y12862813D02*
G01*
X5936234Y12875005D01*
X5932170Y12883134D01*
X5932170Y12895579D01*
X5936234Y12903708D01*
X5948679Y12907771D01*
X5989574Y12907771D01*
X5932170Y12934695D02*
G01*
X5973063Y12934695D01*
X5985509Y12939013D01*
X5989574Y12947142D01*
X5989574Y12959334D01*
X5985509Y12967462D01*
X5973063Y12979908D01*
X5932170Y12979908D02*
G01*
X5989574Y12979908D01*
X5903468Y13006831D02*
G01*
X5989574Y13006831D01*
X5944615Y13006831D02*
G01*
X5936234Y13014960D01*
X5932170Y13023087D01*
X5932170Y13035534D01*
X5936234Y13043662D01*
X5944615Y13051789D01*
X5956808Y13055854D01*
X5964936Y13055854D01*
X5977127Y13051789D01*
X5985509Y13043662D01*
X5989574Y13035534D01*
X5989574Y13023087D01*
X5985509Y13014960D01*
X5977127Y13006831D01*
X5969000Y13087095D02*
G01*
X5973063Y13082778D01*
X5977127Y13087095D01*
X5973063Y13091160D01*
X5969000Y13087095D01*
X5944615Y13167105D02*
G01*
X5936234Y13158978D01*
X5932170Y13150850D01*
X5932170Y13138404D01*
X5936234Y13130276D01*
X5944615Y13122147D01*
X5956808Y13118084D01*
X5964936Y13118084D01*
X5977127Y13122147D01*
X5985509Y13130276D01*
X5989574Y13138404D01*
X5989574Y13150850D01*
X5985509Y13158978D01*
X5977127Y13167105D01*
X5932170Y13214604D02*
G01*
X5936234Y13206476D01*
X5944615Y13198347D01*
X5956808Y13194284D01*
X5964936Y13194284D01*
X5977127Y13198347D01*
X5985509Y13206476D01*
X5989574Y13214604D01*
X5989574Y13226795D01*
X5985509Y13235178D01*
X5977127Y13243305D01*
X5964936Y13247370D01*
X5956808Y13247370D01*
X5944615Y13243305D01*
X5936234Y13235178D01*
X5932170Y13226795D01*
X5932170Y13214604D01*
X5932170Y13274294D02*
G01*
X5989574Y13274294D01*
X5948679Y13274294D02*
G01*
X5936234Y13286739D01*
X5932170Y13294868D01*
X5932170Y13307060D01*
X5936234Y13315187D01*
X5948679Y13319252D01*
X5989574Y13319252D01*
X5948679Y13319252D02*
G01*
X5936234Y13331697D01*
X5932170Y13339826D01*
X5932170Y13352018D01*
X5936234Y13360145D01*
X5948679Y13364463D01*
X5989574Y13364463D01*
X5887211Y13465047D02*
G01*
X6018022Y13391387D01*
X5944615Y13536929D02*
G01*
X5936234Y13532866D01*
X5932170Y13520674D01*
X5932170Y13508228D01*
X5936234Y13496036D01*
X5944615Y13491971D01*
X5952743Y13496036D01*
X5956808Y13504163D01*
X5960872Y13524737D01*
X5964936Y13532866D01*
X5973063Y13536929D01*
X5977127Y13536929D01*
X5985509Y13532866D01*
X5989574Y13520674D01*
X5989574Y13508228D01*
X5985509Y13496036D01*
X5977127Y13491971D01*
X5903468Y13564107D02*
G01*
X5989574Y13564107D01*
X5944615Y13564107D02*
G01*
X5936234Y13572236D01*
X5932170Y13580363D01*
X5932170Y13592555D01*
X5936234Y13600684D01*
X5944615Y13609066D01*
X5956808Y13613129D01*
X5964936Y13613129D01*
X5977127Y13609066D01*
X5985509Y13600684D01*
X5989574Y13592555D01*
X5989574Y13580363D01*
X5985509Y13572236D01*
X5977127Y13564107D01*
X5903468Y13640054D02*
G01*
X5989574Y13640054D01*
X5932170Y13716254D02*
G01*
X5989574Y13716254D01*
X5944615Y13716254D02*
G01*
X5936234Y13707871D01*
X5932170Y13699744D01*
X5932170Y13687552D01*
X5936234Y13679424D01*
X5944615Y13671042D01*
X5956808Y13666978D01*
X5964936Y13666978D01*
X5977127Y13671042D01*
X5985509Y13679424D01*
X5989574Y13687552D01*
X5989574Y13699744D01*
X5985509Y13707871D01*
X5977127Y13716254D01*
X5932170Y13743178D02*
G01*
X5989574Y13743178D01*
X5948679Y13743178D02*
G01*
X5936234Y13755370D01*
X5932170Y13763497D01*
X5932170Y13775944D01*
X5936234Y13784071D01*
X5948679Y13788136D01*
X5989574Y13788136D01*
X5903468Y13827505D02*
G01*
X5973063Y13827505D01*
X5985509Y13831570D01*
X5989574Y13839697D01*
X5989574Y13847826D01*
X5932170Y13815060D02*
G01*
X5932170Y13843762D01*
X5903468Y13875004D02*
G01*
X5907786Y13879068D01*
X5903468Y13883131D01*
X5899404Y13879068D01*
X5903468Y13875004D01*
X5932170Y13879068D02*
G01*
X5989574Y13879068D01*
X5932170Y13910055D02*
G01*
X6018022Y13910055D01*
X5944615Y13910055D02*
G01*
X5936234Y13918184D01*
X5932170Y13926312D01*
X5932170Y13938757D01*
X5936234Y13946886D01*
X5944615Y13955013D01*
X5956808Y13959078D01*
X5964936Y13959078D01*
X5977127Y13955013D01*
X5985509Y13946886D01*
X5989574Y13938757D01*
X5989574Y13926312D01*
X5985509Y13918184D01*
X5977127Y13910055D01*
X5932170Y14006576D02*
G01*
X5936234Y13998447D01*
X5944615Y13990320D01*
X5956808Y13986255D01*
X5964936Y13986255D01*
X5977127Y13990320D01*
X5985509Y13998447D01*
X5989574Y14006576D01*
X5989574Y14018768D01*
X5985509Y14027150D01*
X5977127Y14035278D01*
X5964936Y14039342D01*
X5956808Y14039342D01*
X5944615Y14035278D01*
X5936234Y14027150D01*
X5932170Y14018768D01*
X5932170Y14006576D01*
X5903468Y14115542D02*
G01*
X5989574Y14115542D01*
X5944615Y14115542D02*
G01*
X5936234Y14107160D01*
X5932170Y14099031D01*
X5932170Y14086839D01*
X5936234Y14078712D01*
X5944615Y14070329D01*
X5956808Y14066266D01*
X5964936Y14066266D01*
X5977127Y14070329D01*
X5985509Y14078712D01*
X5989574Y14086839D01*
X5989574Y14099031D01*
X5985509Y14107160D01*
X5977127Y14115542D01*
X5903468Y14142466D02*
G01*
X5907786Y14146529D01*
X5903468Y14150594D01*
X5899404Y14146529D01*
X5903468Y14142466D01*
X5932170Y14146529D02*
G01*
X5989574Y14146529D01*
D28*
X121724Y14522465D02*
G01*
X121724Y14456933D01*
X88958Y14489699D02*
G01*
X154236Y14489699D01*
X222054Y14533387D02*
G01*
X185732Y14533387D01*
X181922Y14500621D01*
X185732Y14504177D01*
X196654Y14507987D01*
X207322Y14507987D01*
X218244Y14504177D01*
X225610Y14497065D01*
X229166Y14486143D01*
X229166Y14478777D01*
X225610Y14467855D01*
X218244Y14460489D01*
X207322Y14456933D01*
X196654Y14456933D01*
X185732Y14460489D01*
X181922Y14464299D01*
X178366Y14471411D01*
X253296Y14533387D02*
G01*
X282252Y14456933D01*
X311462Y14533387D02*
G01*
X282252Y14456933D01*
D27*
X689554Y14515175D02*
G01*
X685998Y14522541D01*
X678632Y14529653D01*
X671266Y14533209D01*
X656788Y14533209D01*
X649422Y14529653D01*
X642310Y14522541D01*
X638754Y14515175D01*
X634944Y14504253D01*
X634944Y14485965D01*
X638754Y14475043D01*
X642310Y14467931D01*
X649422Y14460565D01*
X656788Y14457009D01*
X671266Y14457009D01*
X678632Y14460565D01*
X685998Y14467931D01*
X689554Y14475043D01*
X689554Y14485965D01*
X671266Y14485965D02*
G01*
X689554Y14485965D01*
X713430Y14533209D02*
G01*
X713430Y14457009D01*
X713430Y14533209D02*
G01*
X764484Y14457009D01*
X764484Y14533209D02*
G01*
X764484Y14457009D01*
X788360Y14533209D02*
G01*
X788360Y14457009D01*
X788360Y14533209D02*
G01*
X814014Y14533209D01*
X824936Y14529653D01*
X832048Y14522541D01*
X835604Y14515175D01*
X839414Y14504253D01*
X839414Y14485965D01*
X835604Y14475043D01*
X832048Y14467931D01*
X824936Y14460565D01*
X814014Y14457009D01*
X788360Y14457009D01*
X436118Y14518894D02*
G01*
X443229Y14522450D01*
X454152Y14533371D01*
X454152Y14456918D01*
X481837Y14515084D02*
G01*
X481837Y14518894D01*
X485394Y14526005D01*
X489204Y14529816D01*
X496315Y14533371D01*
X511047Y14533371D01*
X518160Y14529816D01*
X521970Y14526005D01*
X525526Y14518894D01*
X525526Y14511528D01*
X521970Y14504162D01*
X514604Y14493239D01*
X478281Y14456918D01*
X529081Y14456918D01*
D26*
X50800Y11121897D02*
G01*
X50800Y11026394D01*
X50800Y11026394D02*
G01*
X105410Y11026394D01*
X135381Y11121897D02*
G01*
X135381Y11053826D01*
X139954Y11040110D01*
X149097Y11030965D01*
X162560Y11026394D01*
X171704Y11026394D01*
X185420Y11030965D01*
X194310Y11040110D01*
X198881Y11053826D01*
X198881Y11121897D01*
X297179Y11099292D02*
G01*
X292607Y11108436D01*
X283463Y11117326D01*
X274320Y11121897D01*
X256286Y11121897D01*
X247142Y11117326D01*
X237997Y11108436D01*
X233426Y11099292D01*
X229107Y11085576D01*
X229107Y11062970D01*
X233426Y11049254D01*
X237997Y11040110D01*
X247142Y11030965D01*
X256286Y11026394D01*
X274320Y11026394D01*
X283463Y11030965D01*
X292607Y11040110D01*
X297179Y11049254D01*
X327152Y11121897D02*
G01*
X327152Y11026394D01*
X357123Y11121897D02*
G01*
X357123Y11026394D01*
X357123Y11121897D02*
G01*
X416305Y11121897D01*
X357123Y11076431D02*
G01*
X393445Y11076431D01*
X446278Y11121897D02*
G01*
X446278Y11026394D01*
X446278Y11121897D02*
G01*
X505460Y11121897D01*
X446278Y11076431D02*
G01*
X482600Y11076431D01*
X446278Y11026394D02*
G01*
X505460Y11026394D01*
X535431Y11121897D02*
G01*
X535431Y11026394D01*
X535431Y11121897D02*
G01*
X576326Y11121897D01*
X589787Y11117326D01*
X594360Y11112754D01*
X598931Y11103863D01*
X598931Y11094720D01*
X594360Y11085576D01*
X589787Y11081004D01*
X576326Y11076431D01*
X535431Y11076431D01*
X567181Y11076431D02*
G01*
X598931Y11026394D01*
X628904Y11121897D02*
G01*
X628904Y11026394D01*
X658876Y11121897D02*
G01*
X658876Y11026394D01*
X658876Y11121897D02*
G01*
X722629Y11026394D01*
X722629Y11121897D02*
G01*
X722629Y11026394D01*
X1066800Y11121897D02*
G01*
X1066800Y11026394D01*
X1066800Y11121897D02*
G01*
X1098550Y11121897D01*
X1112265Y11117326D01*
X1121410Y11108436D01*
X1125981Y11099292D01*
X1130554Y11085576D01*
X1130554Y11062970D01*
X1125981Y11049254D01*
X1121410Y11040110D01*
X1112265Y11030965D01*
X1098550Y11026394D01*
X1066800Y11026394D01*
X1214881Y11090147D02*
G01*
X1214881Y11026394D01*
X1214881Y11076431D02*
G01*
X1205992Y11085576D01*
X1196847Y11090147D01*
X1183131Y11090147D01*
X1173987Y11085576D01*
X1165097Y11076431D01*
X1160526Y11062970D01*
X1160526Y11053826D01*
X1165097Y11040110D01*
X1173987Y11030965D01*
X1183131Y11026394D01*
X1196847Y11026394D01*
X1205992Y11030965D01*
X1214881Y11040110D01*
X1245107Y11090147D02*
G01*
X1272286Y11026394D01*
X1299463Y11090147D02*
G01*
X1272286Y11026394D01*
X1329436Y11121897D02*
G01*
X1334007Y11117326D01*
X1338579Y11121897D01*
X1334007Y11126470D01*
X1329436Y11121897D01*
X1334007Y11090147D02*
G01*
X1334007Y11026394D01*
X1423162Y11121897D02*
G01*
X1423162Y11026394D01*
X1423162Y11076431D02*
G01*
X1414018Y11085576D01*
X1404873Y11090147D01*
X1391412Y11090147D01*
X1382268Y11085576D01*
X1373123Y11076431D01*
X1368552Y11062970D01*
X1368552Y11053826D01*
X1373123Y11040110D01*
X1382268Y11030965D01*
X1391412Y11026394D01*
X1404873Y11026394D01*
X1414018Y11030965D01*
X1423162Y11040110D01*
X1453134Y11062970D02*
G01*
X1507744Y11062970D01*
X1507744Y11071860D01*
X1503171Y11081004D01*
X1498600Y11085576D01*
X1489455Y11090147D01*
X1475994Y11090147D01*
X1466850Y11085576D01*
X1457705Y11076431D01*
X1453134Y11062970D01*
X1453134Y11053826D01*
X1457705Y11040110D01*
X1466850Y11030965D01*
X1475994Y11026394D01*
X1489455Y11026394D01*
X1498600Y11030965D01*
X1507744Y11040110D01*
X1607820Y11121897D02*
G01*
X1607820Y11026394D01*
X1607820Y11121897D02*
G01*
X1648713Y11121897D01*
X1662176Y11117326D01*
X1666747Y11112754D01*
X1671320Y11103863D01*
X1671320Y11090147D01*
X1666747Y11081004D01*
X1662176Y11076431D01*
X1648713Y11071860D01*
X1607820Y11071860D01*
X1701292Y11062970D02*
G01*
X1755902Y11062970D01*
X1755902Y11071860D01*
X1751329Y11081004D01*
X1746757Y11085576D01*
X1737613Y11090147D01*
X1724152Y11090147D01*
X1715007Y11085576D01*
X1705863Y11076431D01*
X1701292Y11062970D01*
X1701292Y11053826D01*
X1705863Y11040110D01*
X1715007Y11030965D01*
X1724152Y11026394D01*
X1737613Y11026394D01*
X1746757Y11030965D01*
X1755902Y11040110D01*
X1785873Y11090147D02*
G01*
X1785873Y11026394D01*
X1785873Y11062970D02*
G01*
X1790445Y11076431D01*
X1799589Y11085576D01*
X1808734Y11090147D01*
X1822195Y11090147D01*
X1852168Y11121897D02*
G01*
X1856739Y11117326D01*
X1861312Y11121897D01*
X1856739Y11126470D01*
X1852168Y11121897D01*
X1856739Y11090147D02*
G01*
X1856739Y11026394D01*
X1891284Y11090147D02*
G01*
X1891284Y11026394D01*
X1891284Y11071860D02*
G01*
X1905000Y11085576D01*
X1914144Y11090147D01*
X1927605Y11090147D01*
X1936750Y11085576D01*
X1941322Y11071860D01*
X1941322Y11026394D01*
X1971293Y11121897D02*
G01*
X1975865Y11117326D01*
X1980438Y11121897D01*
X1975865Y11126470D01*
X1971293Y11121897D01*
X1975865Y11090147D02*
G01*
X1975865Y11026394D01*
D28*
X305564Y14961870D02*
G01*
X305564Y14885416D01*
X305564Y14961870D02*
G01*
X338330Y14961870D01*
X349252Y14958313D01*
X352808Y14954504D01*
X356364Y14947392D01*
X356364Y14940026D01*
X352808Y14932660D01*
X349252Y14929104D01*
X338330Y14925547D01*
X305564Y14925547D01*
X330964Y14925547D02*
G01*
X356364Y14885416D01*
X380494Y14961870D02*
G01*
X380494Y14885416D01*
X380494Y14961870D02*
G01*
X427738Y14961870D01*
X380494Y14925547D02*
G01*
X409450Y14925547D01*
X380494Y14885416D02*
G01*
X427738Y14885416D01*
X451614Y14961870D02*
G01*
X451614Y14885416D01*
X451614Y14885416D02*
G01*
X495302Y14885416D01*
X548388Y14961870D02*
G01*
X519432Y14885416D01*
X548388Y14961870D02*
G01*
X577598Y14885416D01*
X530354Y14910816D02*
G01*
X566676Y14910816D01*
X601474Y14961870D02*
G01*
X630684Y14925547D01*
X630684Y14885416D01*
X659640Y14961870D02*
G01*
X630684Y14925547D01*
D29*
X2998215Y12616179D02*
G01*
X3071113Y12616179D01*
X2998215Y12616179D02*
G01*
X2998215Y12647421D01*
X3001772Y12657836D01*
X3005327Y12661137D01*
X3012186Y12664694D01*
X3019043Y12664694D01*
X3025902Y12661137D01*
X3029458Y12657836D01*
X3033013Y12647421D01*
X3033013Y12616179D01*
X3033013Y12640310D02*
G01*
X3071113Y12664694D01*
X3008629Y12736068D02*
G01*
X3001772Y12729210D01*
X2998215Y12718795D01*
X2998215Y12704826D01*
X3001772Y12694412D01*
X3008629Y12687554D01*
X3015741Y12687554D01*
X3022600Y12691110D01*
X3025902Y12694412D01*
X3029458Y12701270D01*
X3036315Y12722097D01*
X3039872Y12729210D01*
X3043427Y12732512D01*
X3050286Y12736068D01*
X3060700Y12736068D01*
X3067558Y12729210D01*
X3071113Y12718795D01*
X3071113Y12704826D01*
X3067558Y12694412D01*
X3060700Y12687554D01*
X2998215Y12783058D02*
G01*
X3071113Y12783058D01*
X2998215Y12758928D02*
G01*
X2998215Y12807442D01*
X3252215Y12643865D02*
G01*
X3325113Y12616179D01*
X3252215Y12643865D02*
G01*
X3325113Y12671552D01*
X3300729Y12626594D02*
G01*
X3300729Y12661137D01*
X3252215Y12715239D02*
G01*
X3255772Y12704826D01*
X3266186Y12697968D01*
X3283458Y12694412D01*
X3293872Y12694412D01*
X3311143Y12697968D01*
X3321558Y12704826D01*
X3325113Y12715239D01*
X3325113Y12722097D01*
X3321558Y12732512D01*
X3311143Y12739370D01*
X3293872Y12742926D01*
X3283458Y12742926D01*
X3266186Y12739370D01*
X3255772Y12732512D01*
X3252215Y12722097D01*
X3252215Y12715239D01*
X3506215Y12616179D02*
G01*
X3579113Y12616179D01*
X3506215Y12616179D02*
G01*
X3506215Y12640310D01*
X3509772Y12650724D01*
X3516629Y12657836D01*
X3523741Y12661137D01*
X3533902Y12664694D01*
X3551427Y12664694D01*
X3561841Y12661137D01*
X3568700Y12657836D01*
X3575558Y12650724D01*
X3579113Y12640310D01*
X3579113Y12616179D01*
X3506215Y12708381D02*
G01*
X3509772Y12697968D01*
X3520186Y12691110D01*
X3537458Y12687554D01*
X3547872Y12687554D01*
X3565143Y12691110D01*
X3575558Y12697968D01*
X3579113Y12708381D01*
X3579113Y12715239D01*
X3575558Y12725654D01*
X3565143Y12732512D01*
X3547872Y12736068D01*
X3537458Y12736068D01*
X3520186Y12732512D01*
X3509772Y12725654D01*
X3506215Y12715239D01*
X3506215Y12708381D01*
X3760215Y12616179D02*
G01*
X3833113Y12616179D01*
X3760215Y12616179D02*
G01*
X3760215Y12640310D01*
X3763772Y12650724D01*
X3770629Y12657836D01*
X3777741Y12661137D01*
X3787902Y12664694D01*
X3805427Y12664694D01*
X3815841Y12661137D01*
X3822700Y12657836D01*
X3829558Y12650724D01*
X3833113Y12640310D01*
X3833113Y12616179D01*
X3760215Y12729210D02*
G01*
X3760215Y12694412D01*
X3791458Y12691110D01*
X3787902Y12694412D01*
X3784600Y12704826D01*
X3784600Y12715239D01*
X3787902Y12725654D01*
X3795013Y12732512D01*
X3805427Y12736068D01*
X3812286Y12736068D01*
X3822700Y12732512D01*
X3829558Y12725654D01*
X3833113Y12715239D01*
X3833113Y12704826D01*
X3829558Y12694412D01*
X3826002Y12691110D01*
X3819143Y12687554D01*
X4014215Y12616179D02*
G01*
X4087113Y12616179D01*
X4014215Y12616179D02*
G01*
X4014215Y12640310D01*
X4017772Y12650724D01*
X4024629Y12657836D01*
X4031741Y12661137D01*
X4041902Y12664694D01*
X4059427Y12664694D01*
X4069841Y12661137D01*
X4076700Y12657836D01*
X4083558Y12650724D01*
X4087113Y12640310D01*
X4087113Y12616179D01*
X4024629Y12729210D02*
G01*
X4017772Y12725654D01*
X4014215Y12715239D01*
X4014215Y12708381D01*
X4017772Y12697968D01*
X4028186Y12691110D01*
X4045458Y12687554D01*
X4062729Y12687554D01*
X4076700Y12691110D01*
X4083558Y12697968D01*
X4087113Y12708381D01*
X4087113Y12711684D01*
X4083558Y12722097D01*
X4076700Y12729210D01*
X4066286Y12732512D01*
X4062729Y12732512D01*
X4052315Y12729210D01*
X4045458Y12722097D01*
X4041902Y12711684D01*
X4041902Y12708381D01*
X4045458Y12697968D01*
X4052315Y12691110D01*
X4062729Y12687554D01*
X4268215Y12616179D02*
G01*
X4341113Y12616179D01*
X4268215Y12616179D02*
G01*
X4268215Y12640310D01*
X4271772Y12650724D01*
X4278629Y12657836D01*
X4285741Y12661137D01*
X4295902Y12664694D01*
X4313427Y12664694D01*
X4323841Y12661137D01*
X4330700Y12657836D01*
X4337558Y12650724D01*
X4341113Y12640310D01*
X4341113Y12616179D01*
X4268215Y12736068D02*
G01*
X4341113Y12701270D01*
X4268215Y12687554D02*
G01*
X4268215Y12736068D01*
X4522215Y12616179D02*
G01*
X4595113Y12616179D01*
X4522215Y12616179D02*
G01*
X4522215Y12640310D01*
X4525772Y12650724D01*
X4532629Y12657836D01*
X4539741Y12661137D01*
X4549902Y12664694D01*
X4567427Y12664694D01*
X4577841Y12661137D01*
X4584700Y12657836D01*
X4591558Y12650724D01*
X4595113Y12640310D01*
X4595113Y12616179D01*
X4522215Y12704826D02*
G01*
X4525772Y12694412D01*
X4532629Y12691110D01*
X4539741Y12691110D01*
X4546600Y12694412D01*
X4549902Y12701270D01*
X4553458Y12715239D01*
X4557013Y12725654D01*
X4563872Y12732512D01*
X4570729Y12736068D01*
X4581143Y12736068D01*
X4588002Y12732512D01*
X4591558Y12729210D01*
X4595113Y12718795D01*
X4595113Y12704826D01*
X4591558Y12694412D01*
X4588002Y12691110D01*
X4581143Y12687554D01*
X4570729Y12687554D01*
X4563872Y12691110D01*
X4557013Y12697968D01*
X4553458Y12708381D01*
X4549902Y12722097D01*
X4546600Y12729210D01*
X4539741Y12732512D01*
X4532629Y12732512D01*
X4525772Y12729210D01*
X4522215Y12718795D01*
X4522215Y12704826D01*
X4776215Y12623037D02*
G01*
X4776215Y12661137D01*
X4803902Y12640310D01*
X4803902Y12650724D01*
X4807458Y12657836D01*
X4811013Y12661137D01*
X4821427Y12664694D01*
X4828286Y12664694D01*
X4838700Y12661137D01*
X4845558Y12654279D01*
X4849113Y12643865D01*
X4849113Y12633452D01*
X4845558Y12623037D01*
X4842002Y12619736D01*
X4835143Y12616179D01*
X4776215Y12687554D02*
G01*
X4849113Y12715239D01*
X4776215Y12742926D02*
G01*
X4849113Y12715239D01*
X4776215Y12772644D02*
G01*
X4776215Y12810744D01*
X4803902Y12790170D01*
X4803902Y12800329D01*
X4807458Y12807442D01*
X4811013Y12810744D01*
X4821427Y12814300D01*
X4828286Y12814300D01*
X4838700Y12810744D01*
X4845558Y12803886D01*
X4849113Y12793471D01*
X4849113Y12783058D01*
X4845558Y12772644D01*
X4842002Y12769342D01*
X4835143Y12765786D01*
X4767072Y14410436D02*
G01*
X4767072Y14375637D01*
X4798313Y14372336D01*
X4794758Y14375637D01*
X4791456Y14386052D01*
X4791456Y14396466D01*
X4794758Y14406879D01*
X4801870Y14413737D01*
X4812284Y14417294D01*
X4819141Y14417294D01*
X4829556Y14413737D01*
X4836413Y14406879D01*
X4839970Y14396466D01*
X4839970Y14386052D01*
X4836413Y14375637D01*
X4832858Y14372336D01*
X4826000Y14368779D01*
X4767072Y14440154D02*
G01*
X4839970Y14467839D01*
X4767072Y14495526D02*
G01*
X4839970Y14467839D01*
X4530597Y14344650D02*
G01*
X4523486Y14341094D01*
X4516627Y14334236D01*
X4513072Y14327124D01*
X4513072Y14313407D01*
X4516627Y14306550D01*
X4523486Y14299437D01*
X4530597Y14296136D01*
X4540758Y14292579D01*
X4558284Y14292579D01*
X4568697Y14296136D01*
X4575556Y14299437D01*
X4582413Y14306550D01*
X4585970Y14313407D01*
X4585970Y14327124D01*
X4582413Y14334236D01*
X4575556Y14341094D01*
X4568697Y14344650D01*
X4558284Y14344650D01*
X4558284Y14327124D02*
G01*
X4558284Y14344650D01*
X4513072Y14367510D02*
G01*
X4585970Y14367510D01*
X4513072Y14367510D02*
G01*
X4585970Y14415770D01*
X4513072Y14415770D02*
G01*
X4585970Y14415770D01*
X4513072Y14438629D02*
G01*
X4585970Y14438629D01*
X4513072Y14438629D02*
G01*
X4513072Y14463013D01*
X4516627Y14473428D01*
X4523486Y14480286D01*
X4530597Y14483842D01*
X4540758Y14487144D01*
X4558284Y14487144D01*
X4568697Y14483842D01*
X4575556Y14480286D01*
X4582413Y14473428D01*
X4585970Y14463013D01*
X4585970Y14438629D01*
X4259072Y14368779D02*
G01*
X4331970Y14368779D01*
X4259072Y14368779D02*
G01*
X4259072Y14392910D01*
X4262627Y14403324D01*
X4269486Y14410436D01*
X4276597Y14413737D01*
X4286758Y14417294D01*
X4304284Y14417294D01*
X4314697Y14413737D01*
X4321556Y14410436D01*
X4328413Y14403324D01*
X4331970Y14392910D01*
X4331970Y14368779D01*
X4259072Y14474697D02*
G01*
X4307586Y14440154D01*
X4307586Y14491970D01*
X4259072Y14474697D02*
G01*
X4331970Y14474697D01*
X4005072Y14368779D02*
G01*
X4077970Y14368779D01*
X4005072Y14368779D02*
G01*
X4005072Y14392910D01*
X4008627Y14403324D01*
X4015486Y14410436D01*
X4022597Y14413737D01*
X4032758Y14417294D01*
X4050284Y14417294D01*
X4060697Y14413737D01*
X4067556Y14410436D01*
X4074413Y14403324D01*
X4077970Y14392910D01*
X4077970Y14368779D01*
X4005072Y14447012D02*
G01*
X4005072Y14485112D01*
X4032758Y14464284D01*
X4032758Y14474697D01*
X4036313Y14481810D01*
X4039870Y14485112D01*
X4050284Y14488668D01*
X4057141Y14488668D01*
X4067556Y14485112D01*
X4074413Y14478254D01*
X4077970Y14467839D01*
X4077970Y14457426D01*
X4074413Y14447012D01*
X4070858Y14443710D01*
X4064000Y14440154D01*
X3751072Y14368779D02*
G01*
X3823970Y14368779D01*
X3751072Y14368779D02*
G01*
X3751072Y14392910D01*
X3754627Y14403324D01*
X3761486Y14410436D01*
X3768597Y14413737D01*
X3778758Y14417294D01*
X3796284Y14417294D01*
X3806697Y14413737D01*
X3813556Y14410436D01*
X3820413Y14403324D01*
X3823970Y14392910D01*
X3823970Y14368779D01*
X3768597Y14443710D02*
G01*
X3765041Y14443710D01*
X3758184Y14447012D01*
X3754627Y14450568D01*
X3751072Y14457426D01*
X3751072Y14471395D01*
X3754627Y14478254D01*
X3758184Y14481810D01*
X3765041Y14485112D01*
X3771900Y14485112D01*
X3778758Y14481810D01*
X3789172Y14474697D01*
X3823970Y14440154D01*
X3823970Y14488668D01*
X3497072Y14394179D02*
G01*
X3569970Y14394179D01*
X3497072Y14394179D02*
G01*
X3497072Y14418310D01*
X3500627Y14428724D01*
X3507486Y14435836D01*
X3514597Y14439137D01*
X3524758Y14442694D01*
X3542284Y14442694D01*
X3552697Y14439137D01*
X3559556Y14435836D01*
X3566413Y14428724D01*
X3569970Y14418310D01*
X3569970Y14394179D01*
X3511041Y14465554D02*
G01*
X3507486Y14472412D01*
X3497072Y14482826D01*
X3569970Y14482826D01*
X3243072Y14368779D02*
G01*
X3315970Y14368779D01*
X3243072Y14368779D02*
G01*
X3243072Y14400021D01*
X3246627Y14410436D01*
X3250184Y14413737D01*
X3257041Y14417294D01*
X3263900Y14417294D01*
X3270758Y14413737D01*
X3274313Y14410436D01*
X3277870Y14400021D01*
X3277870Y14368779D01*
X3277870Y14392910D02*
G01*
X3315970Y14417294D01*
X3243072Y14440154D02*
G01*
X3315970Y14488668D01*
X3243072Y14488668D02*
G01*
X3315970Y14440154D01*
X2989072Y14392910D02*
G01*
X3061970Y14392910D01*
X2989072Y14368779D02*
G01*
X2989072Y14417294D01*
X2989072Y14440154D02*
G01*
X3061970Y14488668D01*
X2989072Y14488668D02*
G01*
X3061970Y14440154D01*
X2580640Y13268197D02*
G01*
X2677668Y13231368D01*
X2580640Y13268197D02*
G01*
X2677668Y13305281D01*
X2645156Y13245337D02*
G01*
X2645156Y13291312D01*
X2580640Y13335762D02*
G01*
X2677668Y13335762D01*
X2580640Y13335762D02*
G01*
X2677668Y13400278D01*
X2580640Y13400278D02*
G01*
X2677668Y13400278D01*
X2580640Y13463270D02*
G01*
X2677668Y13463270D01*
X2580640Y13430757D02*
G01*
X2580640Y13495528D01*
X2580640Y13526007D02*
G01*
X2677668Y13526007D01*
X2580640Y13526007D02*
G01*
X2580640Y13585952D01*
X2626868Y13526007D02*
G01*
X2626868Y13562837D01*
X2677668Y13526007D02*
G01*
X2677668Y13585952D01*
X2580640Y13616431D02*
G01*
X2677668Y13616431D01*
X2580640Y13616431D02*
G01*
X2677668Y13681202D01*
X2580640Y13681202D02*
G01*
X2677668Y13681202D01*
X2580640Y13711681D02*
G01*
X2677668Y13711681D01*
X2580640Y13711681D02*
G01*
X2677668Y13776197D01*
X2580640Y13776197D02*
G01*
X2677668Y13776197D01*
X2580640Y13843762D02*
G01*
X2677668Y13806678D01*
X2580640Y13843762D02*
G01*
X2677668Y13880592D01*
X2645156Y13820647D02*
G01*
X2645156Y13866876D01*
D28*
X877300Y12348182D02*
G01*
X869934Y12344626D01*
X862822Y12337260D01*
X859012Y12329894D01*
X859012Y12315416D01*
X862822Y12308050D01*
X869934Y12300938D01*
X877300Y12297128D01*
X888222Y12293572D01*
X906256Y12293572D01*
X917178Y12297128D01*
X924544Y12300938D01*
X931910Y12308050D01*
X935466Y12315416D01*
X935466Y12329894D01*
X931910Y12337260D01*
X924544Y12344626D01*
X917178Y12348182D01*
X873744Y12372058D02*
G01*
X869934Y12379424D01*
X859012Y12390346D01*
X935466Y12390346D01*
X902700Y12414222D02*
G01*
X902700Y12479754D01*
X873744Y12503884D02*
G01*
X869934Y12510996D01*
X859012Y12521918D01*
X935466Y12521918D01*
X859012Y12589482D02*
G01*
X859012Y12553160D01*
X891778Y12549604D01*
X888222Y12553160D01*
X884412Y12564082D01*
X884412Y12575004D01*
X888222Y12585926D01*
X895334Y12593292D01*
X906256Y12596848D01*
X913622Y12596848D01*
X924544Y12593292D01*
X931910Y12585926D01*
X935466Y12575004D01*
X935466Y12564082D01*
X931910Y12553160D01*
X928100Y12549604D01*
X920988Y12546048D01*
X859012Y12642568D02*
G01*
X862822Y12631900D01*
X873744Y12624534D01*
X891778Y12620978D01*
X902700Y12620978D01*
X920988Y12624534D01*
X931910Y12631900D01*
X935466Y12642568D01*
X935466Y12649934D01*
X931910Y12660856D01*
X920988Y12668222D01*
X902700Y12671778D01*
X891778Y12671778D01*
X873744Y12668222D01*
X862822Y12660856D01*
X859012Y12649934D01*
X859012Y12642568D01*
X859012Y12717498D02*
G01*
X862822Y12706576D01*
X873744Y12699464D01*
X891778Y12695654D01*
X902700Y12695654D01*
X920988Y12699464D01*
X931910Y12706576D01*
X935466Y12717498D01*
X935466Y12724864D01*
X931910Y12735786D01*
X920988Y12743152D01*
X902700Y12746708D01*
X891778Y12746708D01*
X873744Y12743152D01*
X862822Y12735786D01*
X859012Y12724864D01*
X859012Y12717498D01*
X859012Y12770584D02*
G01*
X913622Y12770584D01*
X924544Y12774394D01*
X931910Y12781506D01*
X935466Y12792428D01*
X935466Y12799794D01*
X931910Y12810716D01*
X924544Y12818082D01*
X913622Y12821638D01*
X859012Y12821638D01*
X859012Y12845514D02*
G01*
X935466Y12845514D01*
X859012Y12845514D02*
G01*
X859012Y12892758D01*
X895334Y12845514D02*
G01*
X895334Y12874724D01*
X902700Y12916888D02*
G01*
X902700Y12982420D01*
X873744Y13006296D02*
G01*
X869934Y13013662D01*
X859012Y13024584D01*
X935466Y13024584D01*
X869934Y13092148D02*
G01*
X862822Y13088592D01*
X859012Y13077670D01*
X859012Y13070304D01*
X862822Y13059382D01*
X873744Y13052016D01*
X891778Y13048460D01*
X910066Y13048460D01*
X924544Y13052016D01*
X931910Y13059382D01*
X935466Y13070304D01*
X935466Y13073860D01*
X931910Y13084782D01*
X924544Y13092148D01*
X913622Y13095704D01*
X910066Y13095704D01*
X899144Y13092148D01*
X891778Y13084782D01*
X888222Y13073860D01*
X888222Y13070304D01*
X891778Y13059382D01*
X899144Y13052016D01*
X910066Y13048460D01*
X859012Y13119834D02*
G01*
X935466Y13148790D01*
X859012Y13178000D02*
G01*
X935466Y13148790D01*
X5842000Y14901671D02*
G01*
X5842000Y14847062D01*
X5845556Y14836139D01*
X5852922Y14828774D01*
X5863843Y14825218D01*
X5871209Y14825218D01*
X5881877Y14828774D01*
X5889243Y14836139D01*
X5892800Y14847062D01*
X5892800Y14901671D01*
X5967729Y14890750D02*
G01*
X5960618Y14898116D01*
X5949695Y14901671D01*
X5934963Y14901671D01*
X5924295Y14898116D01*
X5916929Y14890750D01*
X5916929Y14883384D01*
X5920486Y14876271D01*
X5924295Y14872462D01*
X5931408Y14868905D01*
X5953252Y14861539D01*
X5960618Y14857984D01*
X5964174Y14854428D01*
X5967729Y14847062D01*
X5967729Y14836139D01*
X5960618Y14828774D01*
X5949695Y14825218D01*
X5934963Y14825218D01*
X5924295Y14828774D01*
X5916929Y14836139D01*
X5991859Y14901671D02*
G01*
X5991859Y14825218D01*
X5991859Y14901671D02*
G01*
X6024625Y14901671D01*
X6035547Y14898116D01*
X6039104Y14894305D01*
X6042659Y14887194D01*
X6042659Y14879828D01*
X6039104Y14872462D01*
X6035547Y14868905D01*
X6024625Y14865350D01*
X5991859Y14865350D02*
G01*
X6024625Y14865350D01*
X6035547Y14861539D01*
X6039104Y14857984D01*
X6042659Y14850618D01*
X6042659Y14839695D01*
X6039104Y14832584D01*
X6035547Y14828774D01*
X6024625Y14825218D01*
X5991859Y14825218D01*
D29*
X5310886Y14156436D02*
G01*
X5310886Y14158721D01*
X5313172Y14163294D01*
X5315458Y14165579D01*
X5320029Y14167866D01*
X5329427Y14167866D01*
X5334000Y14165579D01*
X5336286Y14163294D01*
X5338572Y14158721D01*
X5338572Y14154150D01*
X5336286Y14149324D01*
X5331713Y14142466D01*
X5308600Y14119352D01*
X5340858Y14119352D01*
X5278120Y14157452D02*
G01*
X5282691Y14159737D01*
X5289550Y14166595D01*
X5289550Y14118081D01*
D27*
X4209288Y12094971D02*
G01*
X4172965Y12094971D01*
X4169156Y12062205D01*
X4172965Y12065762D01*
X4183888Y12069571D01*
X4194809Y12069571D01*
X4205477Y12065762D01*
X4212843Y12058650D01*
X4216400Y12047728D01*
X4216400Y12040362D01*
X4212843Y12029439D01*
X4205477Y12022074D01*
X4194809Y12018518D01*
X4183888Y12018518D01*
X4172965Y12022074D01*
X4169156Y12025884D01*
X4165600Y12032995D01*
D26*
X4626609Y12094971D02*
G01*
X4597400Y12018518D01*
X4626609Y12094971D02*
G01*
X4655565Y12018518D01*
X4608322Y12043918D02*
G01*
X4644643Y12043918D01*
X4679695Y12094971D02*
G01*
X4679695Y12018518D01*
X4679695Y12018518D02*
G01*
X4723129Y12018518D01*
X4747259Y12094971D02*
G01*
X4747259Y12018518D01*
X4747259Y12018518D02*
G01*
X4790947Y12018518D01*
X5185156Y12076684D02*
G01*
X5185156Y12080494D01*
X5188965Y12087605D01*
X5192522Y12091415D01*
X5199888Y12094971D01*
X5214365Y12094971D01*
X5221477Y12091415D01*
X5225288Y12087605D01*
X5228843Y12080494D01*
X5228843Y12073128D01*
X5225288Y12065762D01*
X5217922Y12054839D01*
X5181600Y12018518D01*
X5232400Y12018518D01*
X5696965Y12094971D02*
G01*
X5736843Y12094971D01*
X5715000Y12065762D01*
X5725922Y12065762D01*
X5733288Y12062205D01*
X5736843Y12058650D01*
X5740400Y12047728D01*
X5740400Y12040362D01*
X5736843Y12029439D01*
X5729477Y12022074D01*
X5718809Y12018518D01*
X5707888Y12018518D01*
X5696965Y12022074D01*
X5693156Y12025884D01*
X5689600Y12032995D01*
X3169665Y12084050D02*
G01*
X3169665Y12018518D01*
X3136900Y12051284D02*
G01*
X3202431Y12051284D01*
X3644900Y12051284D02*
G01*
X3710431Y12051284D01*
X2166365Y12084050D02*
G01*
X2166365Y12018518D01*
X2133600Y12051284D02*
G01*
X2199131Y12051284D01*
X2641600Y12051284D02*
G01*
X2707131Y12051284D01*
X1150365Y12084050D02*
G01*
X1150365Y12018518D01*
X1117600Y12051284D02*
G01*
X1183131Y12051284D01*
X1612900Y12038584D02*
G01*
X1678431Y12038584D01*
D28*
X5105476Y12600556D02*
G01*
X5098110Y12596746D01*
X5090744Y12589634D01*
X5087188Y12582268D01*
X5087188Y12567790D01*
X5090744Y12560424D01*
X5098110Y12553312D01*
X5105476Y12549502D01*
X5116398Y12545946D01*
X5134432Y12545946D01*
X5145354Y12549502D01*
X5152720Y12553312D01*
X5160086Y12560424D01*
X5163642Y12567790D01*
X5163642Y12582268D01*
X5160086Y12589634D01*
X5152720Y12596746D01*
X5145354Y12600556D01*
X5105476Y12628242D02*
G01*
X5101666Y12628242D01*
X5094554Y12631798D01*
X5090744Y12635354D01*
X5087188Y12642720D01*
X5087188Y12657198D01*
X5090744Y12664564D01*
X5094554Y12668120D01*
X5101666Y12671676D01*
X5109032Y12671676D01*
X5116398Y12668120D01*
X5127320Y12660754D01*
X5163642Y12624432D01*
X5163642Y12675486D01*
X5130876Y12699362D02*
G01*
X5130876Y12764894D01*
X5101666Y12788770D02*
G01*
X5098110Y12796136D01*
X5087188Y12807058D01*
X5163642Y12807058D01*
X5087188Y12852778D02*
G01*
X5090744Y12841856D01*
X5101666Y12834744D01*
X5119954Y12830934D01*
X5130876Y12830934D01*
X5149164Y12834744D01*
X5160086Y12841856D01*
X5163642Y12852778D01*
X5163642Y12860144D01*
X5160086Y12871066D01*
X5149164Y12878432D01*
X5130876Y12881988D01*
X5119954Y12881988D01*
X5101666Y12878432D01*
X5090744Y12871066D01*
X5087188Y12860144D01*
X5087188Y12852778D01*
X5087188Y12927708D02*
G01*
X5090744Y12916786D01*
X5101666Y12909674D01*
X5119954Y12905864D01*
X5130876Y12905864D01*
X5149164Y12909674D01*
X5160086Y12916786D01*
X5163642Y12927708D01*
X5163642Y12935074D01*
X5160086Y12945996D01*
X5149164Y12953108D01*
X5130876Y12956918D01*
X5119954Y12956918D01*
X5101666Y12953108D01*
X5090744Y12945996D01*
X5087188Y12935074D01*
X5087188Y12927708D01*
X5087188Y12980794D02*
G01*
X5163642Y12980794D01*
X5087188Y12980794D02*
G01*
X5163642Y13031848D01*
X5087188Y13031848D02*
G01*
X5163642Y13031848D01*
X5087188Y13055724D02*
G01*
X5163642Y13055724D01*
X5087188Y13055724D02*
G01*
X5087188Y13102968D01*
X5123510Y13055724D02*
G01*
X5123510Y13084934D01*
X422910Y13473684D02*
G01*
X419100Y13481050D01*
X411987Y13488416D01*
X404621Y13491971D01*
X390144Y13491971D01*
X382778Y13488416D01*
X375665Y13481050D01*
X371855Y13473684D01*
X368300Y13462762D01*
X368300Y13444728D01*
X371855Y13433805D01*
X375665Y13426439D01*
X382778Y13419074D01*
X390144Y13415518D01*
X404621Y13415518D01*
X411987Y13419074D01*
X419100Y13426439D01*
X422910Y13433805D01*
X422910Y13444728D01*
X404621Y13444728D02*
G01*
X422910Y13444728D01*
X446786Y13491971D02*
G01*
X446786Y13415518D01*
X446786Y13491971D02*
G01*
X479552Y13491971D01*
X490473Y13488416D01*
X494029Y13484605D01*
X497839Y13477494D01*
X497839Y13466571D01*
X494029Y13459205D01*
X490473Y13455650D01*
X479552Y13451839D01*
X446786Y13451839D01*
X521715Y13491971D02*
G01*
X521715Y13415518D01*
X567689Y13491971D02*
G01*
X560323Y13488416D01*
X552957Y13481050D01*
X549402Y13473684D01*
X545845Y13462762D01*
X545845Y13444728D01*
X549402Y13433805D01*
X552957Y13426439D01*
X560323Y13419074D01*
X567689Y13415518D01*
X582168Y13415518D01*
X589279Y13419074D01*
X596645Y13426439D01*
X600202Y13433805D01*
X604012Y13444728D01*
X604012Y13462762D01*
X600202Y13473684D01*
X596645Y13481050D01*
X589279Y13488416D01*
X582168Y13491971D01*
X567689Y13491971D01*
X1165255Y14045338D02*
G01*
X1241709Y14045338D01*
X1165255Y14045338D02*
G01*
X1165255Y14078104D01*
X1168811Y14089026D01*
X1172621Y14092582D01*
X1179733Y14096138D01*
X1187099Y14096138D01*
X1194465Y14092582D01*
X1198021Y14089026D01*
X1201577Y14078104D01*
X1201577Y14045338D01*
X1201577Y14070738D02*
G01*
X1241709Y14096138D01*
X1179733Y14120268D02*
G01*
X1176177Y14127634D01*
X1165255Y14138302D01*
X1241709Y14138302D01*
X1572783Y14033657D02*
G01*
X1649237Y14033657D01*
X1572783Y14033657D02*
G01*
X1572783Y14066423D01*
X1576339Y14077345D01*
X1580149Y14080901D01*
X1587261Y14084457D01*
X1594627Y14084457D01*
X1601993Y14080901D01*
X1605549Y14077345D01*
X1609105Y14066423D01*
X1609105Y14033657D01*
X1609105Y14059057D02*
G01*
X1649237Y14084457D01*
X1591071Y14112143D02*
G01*
X1587261Y14112143D01*
X1580149Y14115953D01*
X1576339Y14119509D01*
X1572783Y14126621D01*
X1572783Y14141353D01*
X1576339Y14148465D01*
X1580149Y14152275D01*
X1587261Y14155831D01*
X1594627Y14155831D01*
X1601993Y14152275D01*
X1612915Y14144909D01*
X1649237Y14108587D01*
X1649237Y14159387D01*
X1966203Y14033662D02*
G01*
X2042657Y14033662D01*
X1966203Y14033662D02*
G01*
X1966203Y14066428D01*
X1969759Y14077350D01*
X1973569Y14080906D01*
X1980681Y14084462D01*
X1988047Y14084462D01*
X1995413Y14080906D01*
X1998969Y14077350D01*
X2002525Y14066428D01*
X2002525Y14033662D01*
X2002525Y14059062D02*
G01*
X2042657Y14084462D01*
X1966203Y14115958D02*
G01*
X1966203Y14155836D01*
X1995413Y14133992D01*
X1995413Y14144914D01*
X1998969Y14152280D01*
X2002525Y14155836D01*
X2013447Y14159392D01*
X2020813Y14159392D01*
X2031735Y14155836D01*
X2039101Y14148470D01*
X2042657Y14137548D01*
X2042657Y14126626D01*
X2039101Y14115958D01*
X2035291Y14112148D01*
X2028179Y14108592D01*
X3897896Y13598652D02*
G01*
X3861574Y13522197D01*
X3847096Y13598652D02*
G01*
X3897896Y13598652D01*
X3958348Y13598652D02*
G01*
X3922026Y13547597D01*
X3976636Y13547597D01*
X3958348Y13598652D02*
G01*
X3958348Y13522197D01*
X4029722Y13598652D02*
G01*
X4000512Y13522197D01*
X4029722Y13598652D02*
G01*
X4058678Y13522197D01*
X4011434Y13547597D02*
G01*
X4047756Y13547597D01*
X4082808Y13598652D02*
G01*
X4082808Y13522197D01*
X4133608Y13598652D02*
G01*
X4133608Y13522197D01*
X4082808Y13562329D02*
G01*
X4133608Y13562329D01*
X4212094Y13580363D02*
G01*
X4208538Y13587729D01*
X4201172Y13595095D01*
X4194060Y13598652D01*
X4179582Y13598652D01*
X4172216Y13595095D01*
X4164850Y13587729D01*
X4161294Y13580363D01*
X4157738Y13569442D01*
X4157738Y13551407D01*
X4161294Y13540486D01*
X4164850Y13533120D01*
X4172216Y13525754D01*
X4179582Y13522197D01*
X4194060Y13522197D01*
X4201172Y13525754D01*
X4208538Y13533120D01*
X4212094Y13540486D01*
X4261624Y13598652D02*
G01*
X4261624Y13522197D01*
X4236224Y13598652D02*
G01*
X4287024Y13598652D01*
X4311154Y13584174D02*
G01*
X4318266Y13587729D01*
X4329188Y13598652D01*
X4329188Y13522197D01*
X4356874Y13580363D02*
G01*
X4356874Y13584174D01*
X4360430Y13591286D01*
X4364240Y13595095D01*
X4371352Y13598652D01*
X4386084Y13598652D01*
X4393196Y13595095D01*
X4397006Y13591286D01*
X4400562Y13584174D01*
X4400562Y13576807D01*
X4397006Y13569442D01*
X4389640Y13558520D01*
X4353318Y13522197D01*
X4404118Y13522197D01*
X4471936Y13598652D02*
G01*
X4435360Y13598652D01*
X4431804Y13565886D01*
X4435360Y13569442D01*
X4446282Y13573252D01*
X4457204Y13573252D01*
X4468126Y13569442D01*
X4475492Y13562329D01*
X4479048Y13551407D01*
X4479048Y13544042D01*
X4475492Y13533120D01*
X4468126Y13525754D01*
X4457204Y13522197D01*
X4446282Y13522197D01*
X4435360Y13525754D01*
X4431804Y13529563D01*
X4428248Y13536676D01*
X4503178Y13598652D02*
G01*
X4503178Y13522197D01*
X4503178Y13598652D02*
G01*
X4553978Y13522197D01*
X4553978Y13598652D02*
G01*
X4553978Y13522197D01*
D30*
X246763Y12230229D02*
G01*
X246763Y12153775D01*
X246763Y12230229D02*
G01*
X294007Y12230229D01*
X246763Y12193907D02*
G01*
X275973Y12193907D01*
X318137Y12230229D02*
G01*
X318137Y12175619D01*
X321693Y12164697D01*
X329059Y12157331D01*
X339727Y12153775D01*
X347093Y12153775D01*
X358015Y12157331D01*
X365381Y12164697D01*
X368937Y12175619D01*
X368937Y12230229D01*
X443867Y12219307D02*
G01*
X436501Y12226673D01*
X425579Y12230229D01*
X411101Y12230229D01*
X400179Y12226673D01*
X393067Y12219307D01*
X393067Y12211941D01*
X396623Y12204829D01*
X400179Y12201019D01*
X407545Y12197463D01*
X429389Y12190097D01*
X436501Y12186541D01*
X440311Y12182985D01*
X443867Y12175619D01*
X443867Y12164697D01*
X436501Y12157331D01*
X425579Y12153775D01*
X411101Y12153775D01*
X400179Y12157331D01*
X393067Y12164697D01*
X467743Y12230229D02*
G01*
X467743Y12153775D01*
X467743Y12230229D02*
G01*
X515241Y12230229D01*
X467743Y12193907D02*
G01*
X496953Y12193907D01*
X467743Y12153775D02*
G01*
X515241Y12153775D01*
G36*
X1879955Y13093700D02*
G01*
X1879955Y12382500D01*
X1956155Y12484100D01*
X2006955Y12636500D01*
X2032355Y12788900D01*
X2006955Y12890500D01*
G37*
D10*
X884600Y14833600D02*
G01*
X884600Y14579600D01*
X80599Y14833600D02*
G01*
X884600Y14833600D01*
X357952Y14833600D02*
G01*
X357952Y14579600D01*
X80599Y14579600D02*
G01*
X884600Y14579600D01*
X80599Y14833600D02*
G01*
X80599Y14579600D01*
X2984500Y12870179D02*
G01*
X2984500Y14241779D01*
X2273300Y12539979D02*
G01*
X2273300Y14571979D01*
X2984500Y12870179D02*
G01*
X2273300Y12870179D01*
X2984500Y14241779D02*
G01*
X2273300Y14241779D01*
X4944872Y12285979D02*
G01*
X5071872Y12412979D01*
X5706872Y12412979D01*
X2531872Y14825979D02*
G01*
X5706872Y14825979D01*
X5706872Y12412979D01*
X2531872Y12285979D02*
G01*
X4944872Y12285979D01*
X1067178Y12738097D02*
G01*
X1168778Y12738097D01*
X1117978Y12814297D02*
G01*
X1117978Y12661897D01*
X5816600Y14757400D02*
G01*
X6070600Y14757400D01*
X6070600Y14249400D01*
X5816600Y14249400D01*
X5816600Y14757400D01*
X3937000Y11201400D02*
G01*
X3937000Y11963400D01*
X4953000Y11963400D01*
X4953000Y11912600D01*
X4902200Y11912600D01*
X4902200Y11760200D01*
X4953000Y11760200D01*
X4953000Y11201400D01*
X3937000Y11201400D01*
X3937000Y11912600D02*
G01*
X3886200Y11912600D01*
X3886200Y11760200D01*
X3937000Y11760200D01*
X4953000Y11201400D02*
G01*
X4953000Y11963400D01*
X5969000Y11963400D01*
X5969000Y11912600D01*
X5918200Y11912600D01*
X5918200Y11760200D01*
X5969000Y11760200D01*
X5969000Y11201400D01*
X4953000Y11201400D01*
X4953000Y11912600D02*
G01*
X4902200Y11912600D01*
X4902200Y11760200D01*
X4953000Y11760200D01*
X2921000Y11201400D02*
G01*
X2921000Y11963400D01*
X3937000Y11963400D01*
X3937000Y11912600D01*
X3886200Y11912600D01*
X3886200Y11760200D01*
X3937000Y11760200D01*
X3937000Y11201400D01*
X2921000Y11201400D01*
X2921000Y11912600D02*
G01*
X2870200Y11912600D01*
X2870200Y11760200D01*
X2921000Y11760200D01*
X1905000Y11201400D02*
G01*
X1905000Y11963400D01*
X2921000Y11963400D01*
X2921000Y11912600D01*
X2870200Y11912600D01*
X2870200Y11760200D01*
X2921000Y11760200D01*
X2921000Y11201400D01*
X1905000Y11201400D01*
X1905000Y11912600D02*
G01*
X1854200Y11912600D01*
X1854200Y11760200D01*
X1905000Y11760200D01*
X889000Y11201400D02*
G01*
X889000Y11963400D01*
X1905000Y11963400D01*
X1905000Y11912600D01*
X1854200Y11912600D01*
X1854200Y11760200D01*
X1905000Y11760200D01*
X1905000Y11201400D01*
X889000Y11201400D01*
X889000Y11912600D02*
G01*
X838200Y11912600D01*
X838200Y11760200D01*
X889000Y11760200D01*
D25*
X5448300Y13230860D02*
G01*
X5702300Y13230860D01*
X5702300Y12418060D01*
X5194300Y12418060D01*
X5194300Y13230860D01*
X5448300Y13230860D01*
D10*
X688672Y13549022D02*
G01*
X752172Y13612522D01*
X752172Y13739522D02*
G01*
X688672Y13803022D01*
X688672Y13803022D02*
G01*
X752172Y13866522D01*
X752172Y13993522D02*
G01*
X688672Y14057022D01*
X688672Y14057022D02*
G01*
X752172Y14120522D01*
X752172Y14247522D02*
G01*
X688672Y14311022D01*
X688672Y13549022D02*
G01*
X307672Y13549022D01*
X307672Y13549022D02*
G01*
X244172Y13612522D01*
X244172Y13612522D02*
G01*
X244172Y13739522D01*
X244172Y13739522D02*
G01*
X307672Y13803022D01*
X307672Y13803022D02*
G01*
X244172Y13866522D01*
X244172Y13866522D02*
G01*
X244172Y13993522D01*
X244172Y13993522D02*
G01*
X307672Y14057022D01*
X307672Y14057022D02*
G01*
X244172Y14120522D01*
X244172Y14120522D02*
G01*
X244172Y14247522D01*
X244172Y14247522D02*
G01*
X307672Y14311022D01*
X307672Y13803022D02*
G01*
X688672Y13803022D01*
X307672Y14057022D02*
G01*
X688672Y14057022D01*
X307672Y14311022D02*
G01*
X688672Y14311022D01*
X752172Y14120522D02*
G01*
X752172Y14247522D01*
X752172Y13866522D02*
G01*
X752172Y13993522D01*
X752172Y13612522D02*
G01*
X752172Y13739522D01*
X785192Y13739522D02*
G01*
X785192Y13612522D01*
X1323484Y14406826D02*
G01*
X1323484Y13776825D01*
X1323484Y13776825D02*
G01*
X1083485Y13776825D01*
X1083485Y13776825D02*
G01*
X1083485Y14406826D01*
X1083485Y14406826D02*
G01*
X1323484Y14406826D01*
X1731012Y14411528D02*
G01*
X1731012Y13781526D01*
X1731012Y13781526D02*
G01*
X1491013Y13781526D01*
X1491013Y13781526D02*
G01*
X1491013Y14411528D01*
X1491013Y14411528D02*
G01*
X1731012Y14411528D01*
X2124433Y14411533D02*
G01*
X2124433Y13781531D01*
X2124433Y13781531D02*
G01*
X1884433Y13781531D01*
X1884433Y13781531D02*
G01*
X1884433Y14411533D01*
X1884433Y14411533D02*
G01*
X2124433Y14411533D01*
X5231396Y13301985D02*
G01*
X3275596Y13301985D01*
X3275596Y13811991D01*
X5231396Y13811991D01*
X5231396Y13301985D01*
X44450Y11239500D02*
G01*
X44450Y13144500D01*
X82550Y13182600D02*
G01*
X679450Y13182600D01*
X717550Y13144500D02*
G01*
X717550Y11239500D01*
X679450Y11201400D02*
G01*
X82550Y11201400D01*
G75*
G01*
X2527303Y12285983D02*
G02*
X2273303Y12539983I-1J253999D01*
G75*
G01*
X2273303Y14571977D02*
G02*
X2527303Y14825977I253999J1D01*
G75*
G01*
X5225301Y13491977D02*
G02*
X5225301Y13618977I0J63500D01*
G75*
G01*
X44450Y13144497D02*
G02*
X82550Y13182597I38100J0D01*
G75*
G01*
X679450Y13182597D02*
G02*
X717550Y13144497I0J-38100D01*
G75*
G01*
X717550Y11239497D02*
G02*
X679450Y11201397I-38100J0D01*
G75*
G01*
X82550Y11201397D02*
G02*
X44450Y11239497I0J38100D01*
G75*
G01
X2024253Y12738100D02*
G03X2024253Y12738100I-499872J0D01*
M02*
