M48
METRIC,LZ,000.000
;FILE_FORMAT=3:3
;TYPE=PLATED
;Layer: Drill PTH
;EasyEDA v6.4.20.6, 2021-07-29T22:43:28+02:00
;24e0db9a2a824a908a71db8b70acd879,4245c91a3b6e4cf7aa995480f5c7e4a3,10
;Gerber Generator version 0.2
;Holesize 1 = 0.351 mm
T01C0.351
;Holesize 2 = 0.501 mm
T02C0.501
;Holesize 3 = 0.702 mm
T03C0.702
;Holesize 4 = 0.712 mm
T04C0.712
;Holesize 5 = 0.915 mm
T05C0.915
;Holesize 6 = 1.000 mm
T06C1.000
;Holesize 7 = 1.001 mm
T07C1.001
;Holesize 8 = 1.002 mm
T08C1.002
;Holesize 9 = 1.016 mm
T09C1.016
;Holesize 10 = 1.301 mm
T10C1.301
%
G05
G90
T01
X-001647Y137347
X003753Y134648
X003753Y131948
X003753Y129248
X003753Y126548
X003753Y123848
X003753Y121148
X006453Y134648
X006453Y131948
X006453Y129248
X006453Y126548
X006453Y123848
X006453Y121148
X006453Y118448
X019953Y115748
X028053Y115748
X030753Y115748
X-004920Y134778
X-004920Y132078
X-004920Y129378
X-004920Y126678
X-004920Y118578
X-004920Y115878
X-004920Y113178
X-004920Y105079
X-002220Y115878
X-002220Y113178
X-002220Y105079
X000480Y113178
X000480Y105079
X003180Y105079
X005880Y105079
X008580Y105079
X011280Y140179
X011280Y110479
X011280Y107779
X011280Y105079
X013980Y140179
X013980Y107779
X013980Y105079
X016680Y105079
X019379Y105079
X022079Y142879
X022079Y134778
X022079Y107779
X022079Y105079
X024779Y142879
X024779Y134778
X024779Y129378
X024779Y107779
X024779Y105079
X027479Y142879
X027479Y137479
X027479Y126678
X027479Y105079
X030180Y142879
X030180Y134778
X030180Y105079
X032880Y142879
X032880Y137479
X032880Y126678
X032880Y107779
X032880Y105079
X035580Y142879
X035580Y134778
X035580Y113178
X035580Y110479
X035580Y107779
X035580Y105079
X038280Y113178
X038280Y107779
X038280Y105079
X040980Y113178
X040980Y107779
X040980Y105079
X043680Y126678
X043680Y113178
X043680Y105079
X046380Y126678
X046380Y113178
X046380Y105079
X049080Y126678
X049080Y113178
X049080Y105079
X051780Y132078
X051780Y126678
X051780Y105079
X054479Y126678
X057179Y132078
X059879Y142879
X059879Y134778
X059879Y132078
X059879Y129378
X062580Y142879
X062580Y140179
X062580Y134778
X062580Y123978
X062580Y121278
X065280Y142879
X065280Y140179
X065280Y123978
X065280Y121278
X065280Y118578
T02
X065786Y131431
X057344Y138557
X038227Y135398
X027285Y129687
T03
X056198Y135915
X048578Y135915
X051118Y135915
X053658Y135915
X048578Y128295
X056198Y128295
X053658Y128295
X051118Y128295
X046038Y135915
X043498Y135915
X040958Y135915
X040958Y128295
X046038Y128295
X043498Y128295
T04
X062828Y130929
X062828Y125849
T05
X017582Y118159
X020122Y118159
X022662Y118159
X025202Y118159
X027742Y118159
X030282Y118159
X032822Y118159
X035362Y118159
X037902Y118159
X040442Y118159
X042982Y118159
X045522Y118159
X048062Y118159
X050602Y118159
X053142Y118159
X055682Y118159
X017582Y141019
X020122Y141019
X022662Y141019
X025202Y141019
X027742Y141019
X030282Y141019
X032822Y141019
X035362Y141019
X037902Y141019
X040442Y141019
X042982Y141019
X045522Y141019
X048062Y141019
X050602Y141019
X053142Y141019
X055682Y141019
X-000206Y133297
X004874Y133297
T06
X-002797Y109051G85X-002797Y110552
X000607Y109051G85X000607Y110552
X-002797Y122513G85X-002797Y124014
X000607Y122513G85X000607Y124014
X035027Y126908
X035027Y137208
X023952Y126908
X023952Y137208
X029434Y126861
X029434Y137161
T07
X-001021Y140970
X-003561Y140970
T08
X002667Y140970
X005207Y140970
X007747Y140970
T09
X061389Y112977
X063929Y112977
X061389Y110437
X063929Y110437
X061389Y107897
X063929Y107897
T10
X038529Y109675
X043609Y109675
X028369Y109675
X033449Y109675
X018209Y109675
X023289Y109675
X048689Y109675
X053769Y109675
X008049Y109675
X013129Y109675
M30
