G04 Layer: TopLayer*
G04 EasyEDA v6.4.20.6, 2021-07-29T22:43:28+02:00*
G04 24e0db9a2a824a908a71db8b70acd879,4245c91a3b6e4cf7aa995480f5c7e4a3,10*
G04 Gerber Generator version 0.2*
G04 Scale: 100 percent, Rotated: No, Reflected: No *
G04 Dimensions in millimeters *
G04 leading zeros omitted , absolute positions ,4 integer and 5 decimal *
%FSLAX45Y45*%
%MOMM*%

%ADD11C,4.2000*%
%ADD12C,1.3000*%
%ADD13C,1.6000*%
%ADD14C,1.0000*%
%ADD15C,0.7000*%
%ADD16C,1.9304*%
%ADD18C,1.7000*%
%ADD19C,1.5240*%
%ADD20C,2.0320*%
%ADD21C,1.7780*%
%ADD22R,1.8796X1.8796*%
%ADD23C,2.0000*%

%LPD*%
G36*
X2939440Y11202416D02*
G01*
X2935579Y11203178D01*
X2932277Y11205362D01*
X2637688Y11499951D01*
X2625801Y11511076D01*
X2622042Y11514277D01*
X2609291Y11524234D01*
X2605227Y11527078D01*
X2591612Y11535867D01*
X2587345Y11538356D01*
X2572969Y11545874D01*
X2568498Y11547957D01*
X2553563Y11554155D01*
X2548890Y11555831D01*
X2533446Y11560708D01*
X2512822Y11565382D01*
X2507945Y11566194D01*
X2491841Y11568176D01*
X2486914Y11568582D01*
X2470658Y11569141D01*
X2187143Y11569141D01*
X2170938Y11568582D01*
X2166010Y11568176D01*
X2149906Y11566194D01*
X2145030Y11565382D01*
X2129180Y11561927D01*
X2124405Y11560708D01*
X2108962Y11555831D01*
X2104288Y11554155D01*
X2089353Y11547957D01*
X2084832Y11545874D01*
X2070506Y11538356D01*
X2066239Y11535867D01*
X2052624Y11527078D01*
X2048560Y11524234D01*
X2035810Y11514277D01*
X2032000Y11511076D01*
X2020163Y11499951D01*
X1961692Y11441531D01*
X1958441Y11439296D01*
X1954530Y11438534D01*
X1950618Y11439296D01*
X1947367Y11441531D01*
X1741576Y11647271D01*
X1729739Y11658396D01*
X1725930Y11661597D01*
X1713179Y11671554D01*
X1709115Y11674398D01*
X1695500Y11683187D01*
X1691233Y11685676D01*
X1676907Y11693194D01*
X1672386Y11695277D01*
X1657451Y11701475D01*
X1652778Y11703151D01*
X1637334Y11708028D01*
X1632559Y11709247D01*
X1616710Y11712702D01*
X1611833Y11713514D01*
X1595729Y11715496D01*
X1590802Y11715902D01*
X1574596Y11716461D01*
X508203Y11716461D01*
X504342Y11717223D01*
X501040Y11719407D01*
X299313Y11921134D01*
X297129Y11924436D01*
X296367Y11928297D01*
X296367Y12326162D01*
X295402Y12347498D01*
X292557Y12368428D01*
X287832Y12389053D01*
X281330Y12409170D01*
X272999Y12428626D01*
X262991Y12447219D01*
X251358Y12464897D01*
X238150Y12481407D01*
X223570Y12496698D01*
X218541Y12501067D01*
X216001Y12504521D01*
X215087Y12508687D01*
X215087Y13329462D01*
X214121Y13350798D01*
X211277Y13371728D01*
X206552Y13392353D01*
X200050Y13412469D01*
X191719Y13431926D01*
X181711Y13450519D01*
X170078Y13468197D01*
X156870Y13484707D01*
X142290Y13499998D01*
X126339Y13513917D01*
X109220Y13526312D01*
X91084Y13537184D01*
X72034Y13546328D01*
X52222Y13553795D01*
X31851Y13559383D01*
X11074Y13563193D01*
X-10007Y13565073D01*
X-31140Y13565073D01*
X-52222Y13563193D01*
X-72999Y13559383D01*
X-89154Y13554963D01*
X-92710Y13554608D01*
X-96113Y13555522D01*
X-99060Y13557554D01*
X-247497Y13706043D01*
X-249732Y13709345D01*
X-250494Y13713206D01*
X-250494Y14033449D01*
X-250139Y14036090D01*
X-249123Y14038529D01*
X-246786Y14042593D01*
X-240944Y14056461D01*
X-238912Y14063522D01*
X-236880Y14067383D01*
X-233375Y14069974D01*
X-229158Y14070888D01*
X-224891Y14069974D01*
X-221437Y14067383D01*
X-219354Y14063522D01*
X-217373Y14056461D01*
X-211480Y14042593D01*
X-209143Y14038478D01*
X-208127Y14036040D01*
X-207771Y14033398D01*
X-207771Y13907363D01*
X-206857Y13893241D01*
X-204165Y13879677D01*
X-199694Y13866571D01*
X-193598Y13854176D01*
X-185928Y13842695D01*
X-176580Y13832078D01*
X-74930Y13730427D01*
X-64312Y13721080D01*
X-52832Y13713409D01*
X-40436Y13707313D01*
X-27330Y13702842D01*
X-13766Y13700150D01*
X355Y13699236D01*
X536244Y13699236D01*
X540105Y13698474D01*
X543407Y13696289D01*
X716889Y13522807D01*
X719074Y13519505D01*
X719836Y13515644D01*
X719836Y12078055D01*
X720750Y12063933D01*
X723442Y12050369D01*
X727913Y12037263D01*
X734009Y12024868D01*
X741680Y12013387D01*
X751027Y12002770D01*
X826769Y11927027D01*
X837387Y11917680D01*
X848868Y11910009D01*
X861263Y11903913D01*
X874369Y11899442D01*
X887933Y11896750D01*
X902055Y11895836D01*
X1670862Y11895836D01*
X1674622Y11895124D01*
X1677822Y11893092D01*
X1680057Y11889943D01*
X1681022Y11886234D01*
X1680514Y11882475D01*
X1678635Y11879122D01*
X1676247Y11876328D01*
X1668932Y11864848D01*
X1663192Y11852503D01*
X1659178Y11839498D01*
X1656892Y11826087D01*
X1656435Y11812524D01*
X1657807Y11798960D01*
X1660956Y11785752D01*
X1665884Y11773052D01*
X1672386Y11761114D01*
X1680464Y11750192D01*
X1689912Y11740388D01*
X1700580Y11731955D01*
X1712315Y11725046D01*
X1724812Y11719712D01*
X1737969Y11716105D01*
X1751431Y11714327D01*
X1765046Y11714327D01*
X1778507Y11716105D01*
X1791614Y11719712D01*
X1804162Y11725046D01*
X1815846Y11731955D01*
X1826564Y11740388D01*
X1836013Y11750192D01*
X1844090Y11761114D01*
X1850593Y11773052D01*
X1855470Y11785752D01*
X1858670Y11798960D01*
X1859991Y11812524D01*
X1859534Y11826087D01*
X1857298Y11839498D01*
X1853285Y11852503D01*
X1847545Y11864848D01*
X1840230Y11876328D01*
X1837842Y11879122D01*
X1835962Y11882475D01*
X1835454Y11886234D01*
X1836369Y11889943D01*
X1838604Y11893092D01*
X1841855Y11895124D01*
X1845614Y11895836D01*
X1924862Y11895836D01*
X1928622Y11895124D01*
X1931822Y11893092D01*
X1934057Y11889943D01*
X1935022Y11886234D01*
X1934514Y11882475D01*
X1932635Y11879122D01*
X1930247Y11876328D01*
X1922932Y11864848D01*
X1917192Y11852503D01*
X1913178Y11839498D01*
X1910892Y11826087D01*
X1910435Y11812524D01*
X1911807Y11798960D01*
X1914956Y11785752D01*
X1919884Y11773052D01*
X1926386Y11761114D01*
X1934464Y11750192D01*
X1943912Y11740388D01*
X1954580Y11731955D01*
X1966315Y11725046D01*
X1978812Y11719712D01*
X1991969Y11716105D01*
X2005431Y11714327D01*
X2019046Y11714327D01*
X2032507Y11716105D01*
X2045614Y11719712D01*
X2058162Y11725046D01*
X2069846Y11731955D01*
X2080564Y11740388D01*
X2090013Y11750192D01*
X2098090Y11761114D01*
X2104593Y11773052D01*
X2109470Y11785752D01*
X2112670Y11798960D01*
X2113991Y11812524D01*
X2113534Y11826087D01*
X2111298Y11839498D01*
X2107285Y11852503D01*
X2101545Y11864848D01*
X2094230Y11876328D01*
X2091842Y11879122D01*
X2089962Y11882475D01*
X2089454Y11886234D01*
X2090369Y11889943D01*
X2092604Y11893092D01*
X2095855Y11895124D01*
X2099614Y11895836D01*
X2178862Y11895836D01*
X2182622Y11895124D01*
X2185822Y11893092D01*
X2188057Y11889943D01*
X2189022Y11886234D01*
X2188514Y11882475D01*
X2186635Y11879122D01*
X2184247Y11876328D01*
X2176932Y11864848D01*
X2171192Y11852503D01*
X2167178Y11839498D01*
X2164892Y11826087D01*
X2164435Y11812524D01*
X2165807Y11798960D01*
X2168956Y11785752D01*
X2173884Y11773052D01*
X2180386Y11761114D01*
X2188464Y11750192D01*
X2197912Y11740388D01*
X2208580Y11731955D01*
X2220315Y11725046D01*
X2232812Y11719712D01*
X2245969Y11716105D01*
X2259431Y11714327D01*
X2273046Y11714327D01*
X2286508Y11716105D01*
X2299614Y11719712D01*
X2312162Y11725046D01*
X2323846Y11731955D01*
X2334564Y11740388D01*
X2344013Y11750192D01*
X2352090Y11761114D01*
X2358593Y11773052D01*
X2363470Y11785752D01*
X2366670Y11798960D01*
X2367991Y11812524D01*
X2367534Y11826087D01*
X2365298Y11839498D01*
X2361285Y11852503D01*
X2355545Y11864848D01*
X2348230Y11876328D01*
X2345842Y11879122D01*
X2343962Y11882475D01*
X2343454Y11886234D01*
X2344369Y11889943D01*
X2346604Y11893092D01*
X2349855Y11895124D01*
X2353614Y11895836D01*
X2432862Y11895836D01*
X2436622Y11895124D01*
X2439822Y11893092D01*
X2442057Y11889943D01*
X2443022Y11886234D01*
X2442514Y11882475D01*
X2440635Y11879122D01*
X2438247Y11876328D01*
X2430932Y11864848D01*
X2425192Y11852503D01*
X2421178Y11839498D01*
X2418892Y11826087D01*
X2418435Y11812524D01*
X2419807Y11798960D01*
X2422956Y11785752D01*
X2427884Y11773052D01*
X2434386Y11761114D01*
X2442464Y11750192D01*
X2451912Y11740388D01*
X2462580Y11731955D01*
X2474315Y11725046D01*
X2486812Y11719712D01*
X2499969Y11716105D01*
X2513431Y11714327D01*
X2527046Y11714327D01*
X2540508Y11716105D01*
X2553614Y11719712D01*
X2566162Y11725046D01*
X2577846Y11731955D01*
X2588564Y11740388D01*
X2598013Y11750192D01*
X2606090Y11761114D01*
X2612593Y11773052D01*
X2617470Y11785752D01*
X2620670Y11798960D01*
X2621991Y11812524D01*
X2621534Y11826087D01*
X2619298Y11839498D01*
X2615285Y11852503D01*
X2609545Y11864848D01*
X2602230Y11876328D01*
X2599842Y11879122D01*
X2597962Y11882475D01*
X2597454Y11886234D01*
X2598369Y11889943D01*
X2600604Y11893092D01*
X2603855Y11895124D01*
X2607614Y11895836D01*
X2686862Y11895836D01*
X2690622Y11895124D01*
X2693822Y11893092D01*
X2696057Y11889943D01*
X2697022Y11886234D01*
X2696514Y11882475D01*
X2694635Y11879122D01*
X2692247Y11876328D01*
X2684932Y11864848D01*
X2679192Y11852503D01*
X2675178Y11839498D01*
X2672892Y11826087D01*
X2672435Y11812524D01*
X2673807Y11798960D01*
X2676956Y11785752D01*
X2681884Y11773052D01*
X2688386Y11761114D01*
X2696464Y11750192D01*
X2705912Y11740388D01*
X2716580Y11731955D01*
X2728315Y11725046D01*
X2740812Y11719712D01*
X2753969Y11716105D01*
X2767431Y11714327D01*
X2781046Y11714327D01*
X2794508Y11716105D01*
X2807614Y11719712D01*
X2820162Y11725046D01*
X2831846Y11731955D01*
X2842564Y11740388D01*
X2852013Y11750192D01*
X2860090Y11761114D01*
X2866593Y11773052D01*
X2871470Y11785752D01*
X2874670Y11798960D01*
X2875991Y11812524D01*
X2875534Y11826087D01*
X2873298Y11839498D01*
X2869285Y11852503D01*
X2863545Y11864848D01*
X2856230Y11876328D01*
X2853842Y11879122D01*
X2851962Y11882475D01*
X2851454Y11886234D01*
X2852369Y11889943D01*
X2854604Y11893092D01*
X2857855Y11895124D01*
X2861614Y11895836D01*
X2940862Y11895836D01*
X2944622Y11895124D01*
X2947822Y11893092D01*
X2950057Y11889943D01*
X2951022Y11886234D01*
X2950514Y11882475D01*
X2948635Y11879122D01*
X2946247Y11876328D01*
X2938932Y11864848D01*
X2933192Y11852503D01*
X2929178Y11839498D01*
X2926892Y11826087D01*
X2926435Y11812524D01*
X2927807Y11798960D01*
X2930956Y11785752D01*
X2935884Y11773052D01*
X2942386Y11761114D01*
X2950464Y11750192D01*
X2959912Y11740388D01*
X2970580Y11731955D01*
X2982315Y11725046D01*
X2994812Y11719712D01*
X3007969Y11716105D01*
X3021431Y11714327D01*
X3035046Y11714327D01*
X3048508Y11716105D01*
X3061614Y11719712D01*
X3074162Y11725046D01*
X3085846Y11731955D01*
X3096564Y11740388D01*
X3106013Y11750192D01*
X3114090Y11761114D01*
X3120593Y11773052D01*
X3125470Y11785752D01*
X3128670Y11798960D01*
X3129991Y11812524D01*
X3129534Y11826087D01*
X3127298Y11839498D01*
X3123285Y11852503D01*
X3117545Y11864848D01*
X3110230Y11876328D01*
X3107842Y11879122D01*
X3105962Y11882475D01*
X3105454Y11886234D01*
X3106369Y11889943D01*
X3108604Y11893092D01*
X3111855Y11895124D01*
X3115614Y11895836D01*
X3194862Y11895836D01*
X3198622Y11895124D01*
X3201822Y11893092D01*
X3204057Y11889943D01*
X3205022Y11886234D01*
X3204514Y11882475D01*
X3202635Y11879122D01*
X3200247Y11876328D01*
X3192932Y11864848D01*
X3187192Y11852503D01*
X3183178Y11839498D01*
X3180892Y11826087D01*
X3180435Y11812524D01*
X3181807Y11798960D01*
X3184956Y11785752D01*
X3189884Y11773052D01*
X3196386Y11761114D01*
X3204464Y11750192D01*
X3213912Y11740388D01*
X3224580Y11731955D01*
X3236315Y11725046D01*
X3248812Y11719712D01*
X3261969Y11716105D01*
X3275431Y11714327D01*
X3289046Y11714327D01*
X3302508Y11716105D01*
X3315614Y11719712D01*
X3328162Y11725046D01*
X3339846Y11731955D01*
X3350564Y11740388D01*
X3360013Y11750192D01*
X3368090Y11761114D01*
X3374593Y11773052D01*
X3379470Y11785752D01*
X3382670Y11798960D01*
X3383991Y11812524D01*
X3383534Y11826087D01*
X3381298Y11839498D01*
X3377285Y11852503D01*
X3371545Y11864848D01*
X3364229Y11876328D01*
X3361842Y11879122D01*
X3359962Y11882475D01*
X3359454Y11886234D01*
X3360369Y11889943D01*
X3362604Y11893092D01*
X3365855Y11895124D01*
X3369614Y11895836D01*
X3448862Y11895836D01*
X3452622Y11895124D01*
X3455822Y11893092D01*
X3458057Y11889943D01*
X3459022Y11886234D01*
X3458514Y11882475D01*
X3456635Y11879122D01*
X3454247Y11876328D01*
X3446932Y11864848D01*
X3441192Y11852503D01*
X3437178Y11839498D01*
X3434892Y11826087D01*
X3434435Y11812524D01*
X3435807Y11798960D01*
X3438956Y11785752D01*
X3443884Y11773052D01*
X3450386Y11761114D01*
X3458464Y11750192D01*
X3467912Y11740388D01*
X3478580Y11731955D01*
X3490315Y11725046D01*
X3502812Y11719712D01*
X3512261Y11717121D01*
X3515918Y11715242D01*
X3518560Y11712041D01*
X3519678Y11708079D01*
X3519119Y11703964D01*
X3516985Y11700408D01*
X3513632Y11698020D01*
X3509568Y11697208D01*
X3476244Y11697208D01*
X3466541Y11696700D01*
X3454349Y11694566D01*
X3442563Y11690807D01*
X3440023Y11689740D01*
X3431387Y11685473D01*
X3421075Y11678666D01*
X3411728Y11670436D01*
X2946654Y11205362D01*
X2943352Y11203178D01*
G37*

%LPC*%
G36*
X442976Y13238175D02*
G01*
X442976Y13285216D01*
X395935Y13285216D01*
X396544Y13283742D01*
X403453Y13272058D01*
X411886Y13261340D01*
X421690Y13251891D01*
X432612Y13243813D01*
G37*
G36*
X531876Y13238276D02*
G01*
X536346Y13240359D01*
X547827Y13247674D01*
X558241Y13256463D01*
X567334Y13266572D01*
X575056Y13277748D01*
X578815Y13285216D01*
X531876Y13285216D01*
G37*
G36*
X531876Y13374116D02*
G01*
X578815Y13374116D01*
X575056Y13381583D01*
X567334Y13392759D01*
X558241Y13402868D01*
X547827Y13411657D01*
X536346Y13418972D01*
X531876Y13421055D01*
G37*
G36*
X395935Y13374116D02*
G01*
X442976Y13374116D01*
X442976Y13421156D01*
X432612Y13415518D01*
X421690Y13407440D01*
X411886Y13397992D01*
X403453Y13387273D01*
X396544Y13375589D01*
G37*

%LPD*%
G36*
X-551789Y10356138D02*
G01*
X-559206Y10357053D01*
X-563676Y10358577D01*
X-567740Y10360964D01*
X-571246Y10364165D01*
X-574090Y10367924D01*
X-576173Y10372191D01*
X-577342Y10376763D01*
X-577850Y10382199D01*
X-577850Y14347596D01*
X-576986Y14354962D01*
X-575411Y14359432D01*
X-573024Y14363547D01*
X-569874Y14367052D01*
X-566064Y14369897D01*
X-561797Y14371980D01*
X-557225Y14373148D01*
X-551789Y14373656D01*
X-371398Y14373656D01*
X-367487Y14372894D01*
X-364185Y14370659D01*
X-362000Y14367357D01*
X-361238Y14363496D01*
X-362000Y14359585D01*
X-364185Y14356283D01*
X-420014Y14300454D01*
X-428243Y14291106D01*
X-435051Y14280794D01*
X-439318Y14272158D01*
X-440385Y14269618D01*
X-444144Y14257832D01*
X-446278Y14245640D01*
X-446785Y14235938D01*
X-446785Y14182445D01*
X-447395Y14178889D01*
X-449224Y14175790D01*
X-453643Y14170660D01*
X-461924Y14158112D01*
X-468630Y14144650D01*
X-473659Y14130477D01*
X-476859Y14115796D01*
X-478231Y14100810D01*
X-477774Y14085773D01*
X-475488Y14070888D01*
X-471373Y14056461D01*
X-465480Y14042593D01*
X-463143Y14038580D01*
X-462127Y14036090D01*
X-461822Y14033500D01*
X-461822Y13665555D01*
X-460857Y13651433D01*
X-458165Y13637920D01*
X-453745Y13624813D01*
X-447649Y13612418D01*
X-439978Y13600938D01*
X-430631Y13590320D01*
X-248462Y13408101D01*
X-246329Y13405053D01*
X-245465Y13401446D01*
X-245973Y13397788D01*
X-247700Y13392353D01*
X-252425Y13371728D01*
X-255270Y13350798D01*
X-256235Y13329462D01*
X-256235Y12572187D01*
X-256997Y12568275D01*
X-259181Y12564973D01*
X-262483Y12562789D01*
X-266395Y12562027D01*
X-279400Y12562027D01*
X-300786Y12561062D01*
X-321716Y12558217D01*
X-342341Y12553543D01*
X-362458Y12546990D01*
X-381914Y12538659D01*
X-400507Y12528651D01*
X-418134Y12517018D01*
X-434695Y12503810D01*
X-449986Y12489230D01*
X-463905Y12473279D01*
X-476300Y12456160D01*
X-487172Y12438024D01*
X-496316Y12418974D01*
X-503783Y12399162D01*
X-509371Y12378791D01*
X-513181Y12358014D01*
X-515061Y12336932D01*
X-515061Y12315799D01*
X-513181Y12294717D01*
X-509371Y12273940D01*
X-503783Y12253569D01*
X-496316Y12233757D01*
X-487172Y12214707D01*
X-476300Y12196572D01*
X-463905Y12179452D01*
X-449986Y12163501D01*
X-434695Y12148921D01*
X-418134Y12135713D01*
X-400507Y12124080D01*
X-381914Y12114072D01*
X-362458Y12105741D01*
X-342341Y12099239D01*
X-321716Y12094514D01*
X-300786Y12091670D01*
X-279400Y12090704D01*
X-185115Y12090704D01*
X-181203Y12089942D01*
X-177901Y12087758D01*
X-175717Y12084456D01*
X-174955Y12080544D01*
X-174955Y11826697D01*
X-174396Y11810492D01*
X-173990Y11805564D01*
X-172008Y11789460D01*
X-171196Y11784584D01*
X-167741Y11768734D01*
X-166522Y11763959D01*
X-161645Y11748516D01*
X-159969Y11743842D01*
X-153771Y11728907D01*
X-151688Y11724386D01*
X-144170Y11710060D01*
X-141681Y11705793D01*
X-132892Y11692178D01*
X-130048Y11688114D01*
X-120091Y11675364D01*
X-116890Y11671554D01*
X-105765Y11659717D01*
X239623Y11314328D01*
X251460Y11303203D01*
X255270Y11300002D01*
X268020Y11290046D01*
X272084Y11287201D01*
X285699Y11278412D01*
X289966Y11275923D01*
X304292Y11268405D01*
X308813Y11266322D01*
X323748Y11260124D01*
X328422Y11258448D01*
X343865Y11253571D01*
X348640Y11252352D01*
X364490Y11248898D01*
X369366Y11248085D01*
X385470Y11246104D01*
X390398Y11245697D01*
X406603Y11245138D01*
X1472996Y11245138D01*
X1476857Y11244376D01*
X1480159Y11242192D01*
X1582318Y11140033D01*
X1584502Y11136731D01*
X1585264Y11132870D01*
X1585315Y10962335D01*
X1586230Y10946180D01*
X1586738Y10941253D01*
X1589074Y10925200D01*
X1590040Y10920374D01*
X1593799Y10904626D01*
X1595170Y10899851D01*
X1600352Y10884509D01*
X1602130Y10879886D01*
X1608683Y10865053D01*
X1610868Y10860633D01*
X1618742Y10846460D01*
X1621282Y10842244D01*
X1630375Y10828832D01*
X1633321Y10824870D01*
X1643583Y10812272D01*
X1646885Y10808614D01*
X1658213Y10797032D01*
X1661820Y10793628D01*
X1674114Y10783112D01*
X1678025Y10780064D01*
X1691233Y10770717D01*
X1695399Y10768025D01*
X1709420Y10759897D01*
X1713788Y10757560D01*
X1728470Y10750702D01*
X1733042Y10748822D01*
X1748282Y10743285D01*
X1753006Y10741812D01*
X1768652Y10737697D01*
X1773478Y10736630D01*
X1789480Y10733938D01*
X1794357Y10733328D01*
X1810512Y10732058D01*
X1815439Y10731855D01*
X1831644Y10732058D01*
X1836623Y10732363D01*
X1852726Y10733989D01*
X1857603Y10734700D01*
X1873504Y10737748D01*
X1878330Y10738916D01*
X1893925Y10743387D01*
X1898599Y10744962D01*
X1913686Y10750854D01*
X1918207Y10752836D01*
X1932736Y10760049D01*
X1937054Y10762437D01*
X1950872Y10770870D01*
X1954987Y10773664D01*
X1967992Y10783316D01*
X1971802Y10786465D01*
X1983892Y10797235D01*
X2208377Y11021618D01*
X2211679Y11023854D01*
X2215540Y11024616D01*
X2271776Y11024616D01*
X2271776Y11080851D01*
X2272538Y11084712D01*
X2274773Y11088014D01*
X2281580Y11094872D01*
X2284882Y11097056D01*
X2288743Y11097818D01*
X2369108Y11097818D01*
X2372969Y11097056D01*
X2376271Y11094872D01*
X2383078Y11088014D01*
X2385314Y11084712D01*
X2386076Y11080851D01*
X2386076Y11024616D01*
X2442311Y11024616D01*
X2446172Y11023854D01*
X2449474Y11021618D01*
X2670149Y10800994D01*
X2685897Y10786567D01*
X2702712Y10773765D01*
X2720644Y10762538D01*
X2739491Y10752937D01*
X2759100Y10745063D01*
X2779369Y10738967D01*
X2800045Y10734751D01*
X2821076Y10732363D01*
X2842209Y10731906D01*
X2863291Y10733328D01*
X2884170Y10736630D01*
X2904693Y10741761D01*
X2924657Y10748772D01*
X2943910Y10757509D01*
X2962300Y10767923D01*
X2979674Y10779963D01*
X2995879Y10793526D01*
X3010865Y10808512D01*
X3024428Y10824718D01*
X3036468Y10842091D01*
X3046882Y10860481D01*
X3055620Y10879734D01*
X3062630Y10899698D01*
X3067761Y10920222D01*
X3071063Y10941100D01*
X3072485Y10962182D01*
X3072028Y10983315D01*
X3069640Y11004346D01*
X3065424Y11025073D01*
X3059328Y11045291D01*
X3057144Y11050778D01*
X3056432Y11054638D01*
X3057194Y11058448D01*
X3059379Y11061750D01*
X3510584Y11512905D01*
X3513836Y11515090D01*
X3517747Y11515852D01*
X5602224Y11515852D01*
X5611926Y11516360D01*
X5624118Y11518493D01*
X5635904Y11522252D01*
X5638444Y11523319D01*
X5647080Y11527586D01*
X5657392Y11534394D01*
X5659577Y11536121D01*
X5666790Y11542623D01*
X5928258Y11804142D01*
X5936488Y11813489D01*
X5941923Y11821464D01*
X5943295Y11823852D01*
X5947562Y11832437D01*
X5948629Y11834977D01*
X5952388Y11846763D01*
X5954522Y11858955D01*
X5955030Y11868658D01*
X5955030Y12484100D01*
X5955792Y12488011D01*
X5957976Y12491313D01*
X5961278Y12493498D01*
X5965190Y12494260D01*
X6209334Y12494260D01*
X6212179Y12493853D01*
X6214770Y12492685D01*
X6227622Y12484506D01*
X6240627Y12478359D01*
X6254343Y12473940D01*
X6268466Y12471247D01*
X6282791Y12470333D01*
X6297168Y12471247D01*
X6311290Y12473940D01*
X6324955Y12478359D01*
X6337960Y12484506D01*
X6350101Y12492228D01*
X6361226Y12501372D01*
X6371031Y12511887D01*
X6379514Y12523520D01*
X6386423Y12536119D01*
X6391757Y12549479D01*
X6395313Y12563398D01*
X6395720Y12566751D01*
X6396685Y12569952D01*
X6398615Y12572695D01*
X6642506Y12816586D01*
X6650736Y12825933D01*
X6657543Y12836245D01*
X6661810Y12844881D01*
X6662877Y12847421D01*
X6666636Y12859207D01*
X6668770Y12871399D01*
X6669278Y12881102D01*
X6669278Y13142772D01*
X6668363Y13155472D01*
X6665874Y13167563D01*
X6661708Y13179196D01*
X6656019Y13190219D01*
X6648907Y13200278D01*
X6640474Y13209320D01*
X6630873Y13217144D01*
X6620306Y13223595D01*
X6608927Y13228523D01*
X6597040Y13231825D01*
X6584797Y13233501D01*
X6572402Y13233501D01*
X6560159Y13231825D01*
X6548272Y13228523D01*
X6536893Y13223595D01*
X6526326Y13217144D01*
X6516725Y13209320D01*
X6508292Y13200278D01*
X6501180Y13190219D01*
X6495491Y13179196D01*
X6491325Y13167563D01*
X6488836Y13155472D01*
X6487922Y13142772D01*
X6487922Y12922605D01*
X6487160Y12918694D01*
X6484975Y12915442D01*
X6270193Y12700609D01*
X6267754Y12698831D01*
X6264910Y12697815D01*
X6254343Y12695834D01*
X6240627Y12691364D01*
X6227622Y12685217D01*
X6214922Y12677190D01*
X6212332Y12675971D01*
X6209487Y12675616D01*
X5906109Y12675616D01*
X5902248Y12676378D01*
X5898946Y12678562D01*
X5718454Y12859004D01*
X5716320Y12862255D01*
X5710732Y12875412D01*
X5703773Y12887096D01*
X5695340Y12897764D01*
X5685586Y12907213D01*
X5674614Y12915290D01*
X5662676Y12921843D01*
X5650026Y12926720D01*
X5636768Y12929870D01*
X5623255Y12931241D01*
X5609640Y12930784D01*
X5596229Y12928498D01*
X5583224Y12924485D01*
X5570880Y12918744D01*
X5559450Y12911429D01*
X5549036Y12902641D01*
X5539892Y12892582D01*
X5532221Y12881356D01*
X5526074Y12869214D01*
X5521604Y12856362D01*
X5518912Y12843052D01*
X5517997Y12829489D01*
X5518912Y12815874D01*
X5521604Y12802565D01*
X5526074Y12789712D01*
X5532221Y12777571D01*
X5539892Y12766344D01*
X5549036Y12756286D01*
X5559450Y12747498D01*
X5570880Y12740182D01*
X5583224Y12734442D01*
X5588000Y12732664D01*
X5589930Y12731140D01*
X5770727Y12550343D01*
X5772912Y12547041D01*
X5773724Y12543180D01*
X5773724Y11910161D01*
X5772912Y11906300D01*
X5770727Y11902998D01*
X5686907Y11819128D01*
X5683656Y11816943D01*
X5679846Y11816181D01*
X5675985Y11816892D01*
X5672683Y11818975D01*
X5670448Y11822176D01*
X5669534Y11826087D01*
X5667298Y11839498D01*
X5663285Y11852503D01*
X5657545Y11864848D01*
X5650230Y11876328D01*
X5641441Y11886692D01*
X5631332Y11895836D01*
X5620105Y11903557D01*
X5607964Y11909653D01*
X5595112Y11914124D01*
X5581802Y11916816D01*
X5568238Y11917730D01*
X5554675Y11916816D01*
X5541314Y11914124D01*
X5528462Y11909653D01*
X5516321Y11903557D01*
X5505145Y11895836D01*
X5495036Y11886692D01*
X5486247Y11876328D01*
X5478932Y11864848D01*
X5473192Y11852503D01*
X5469178Y11839498D01*
X5466892Y11826087D01*
X5466435Y11812524D01*
X5467807Y11798960D01*
X5470956Y11785752D01*
X5475884Y11773052D01*
X5482386Y11761114D01*
X5490464Y11750192D01*
X5499912Y11740388D01*
X5510580Y11731955D01*
X5522315Y11725046D01*
X5534812Y11719712D01*
X5544261Y11717121D01*
X5547918Y11715242D01*
X5550560Y11712041D01*
X5551678Y11708079D01*
X5551119Y11703964D01*
X5548985Y11700408D01*
X5545632Y11698020D01*
X5541568Y11697208D01*
X5354472Y11697208D01*
X5350459Y11698020D01*
X5347106Y11700357D01*
X5344922Y11703812D01*
X5344312Y11707876D01*
X5345328Y11711787D01*
X5347817Y11715038D01*
X5364937Y11723217D01*
X5376621Y11730634D01*
X5387187Y11739473D01*
X5396534Y11749684D01*
X5404459Y11761012D01*
X5410860Y11773255D01*
X5415584Y11786209D01*
X5418582Y11799722D01*
X5419801Y11813489D01*
X5419191Y11827306D01*
X5416804Y11840870D01*
X5414721Y11847474D01*
X5414264Y11850573D01*
X5414264Y12077344D01*
X5413349Y12091466D01*
X5410657Y12105030D01*
X5406186Y12118136D01*
X5400090Y12130532D01*
X5392420Y12142012D01*
X5383072Y12152630D01*
X5243830Y12291872D01*
X5233212Y12301220D01*
X5221732Y12308890D01*
X5209336Y12314986D01*
X5196230Y12319457D01*
X5182666Y12322149D01*
X5168544Y12323064D01*
X4077055Y12323064D01*
X4062933Y12322149D01*
X4049369Y12319457D01*
X4036263Y12314986D01*
X4023868Y12308890D01*
X4012387Y12301220D01*
X4001770Y12291872D01*
X3820007Y12110110D01*
X3816705Y12107926D01*
X3812844Y12107164D01*
X1755851Y12107164D01*
X1751990Y12107926D01*
X1748688Y12110110D01*
X1746504Y12113412D01*
X1745691Y12117324D01*
X1745691Y13840713D01*
X1744725Y13841679D01*
X1024077Y13841679D01*
X1023061Y13840713D01*
X1020571Y12117324D01*
X1019810Y12113412D01*
X1017574Y12110110D01*
X1014323Y12107926D01*
X1010412Y12107164D01*
X949655Y12107164D01*
X945794Y12107926D01*
X942492Y12110110D01*
X934110Y12118492D01*
X931926Y12121794D01*
X931164Y12125655D01*
X931164Y13563244D01*
X930249Y13577366D01*
X927557Y13590930D01*
X923086Y13604036D01*
X916990Y13616432D01*
X909319Y13627912D01*
X899972Y13638530D01*
X659130Y13879372D01*
X648512Y13888719D01*
X637032Y13896390D01*
X624636Y13902486D01*
X611530Y13906957D01*
X597966Y13909649D01*
X583844Y13910563D01*
X47955Y13910563D01*
X44094Y13911326D01*
X40792Y13913510D01*
X6502Y13947800D01*
X4318Y13951102D01*
X3556Y13954963D01*
X3556Y14033550D01*
X3911Y14036141D01*
X4927Y14038630D01*
X7213Y14042593D01*
X13055Y14056461D01*
X17170Y14070888D01*
X19507Y14085773D01*
X19964Y14100810D01*
X18542Y14115796D01*
X15341Y14130477D01*
X10363Y14144650D01*
X3657Y14158112D01*
X-4673Y14170660D01*
X-14427Y14182090D01*
X-22707Y14189608D01*
X-25095Y14192859D01*
X-26009Y14196771D01*
X-25298Y14200784D01*
X-23164Y14204188D01*
X-19812Y14206474D01*
X-15849Y14207236D01*
X112928Y14207236D01*
X116839Y14206474D01*
X120091Y14204289D01*
X153060Y14171320D01*
X155295Y14168018D01*
X156057Y14164157D01*
X156057Y14012570D01*
X156768Y14006322D01*
X158648Y14000886D01*
X161696Y13996060D01*
X165760Y13991996D01*
X170586Y13988948D01*
X176022Y13987068D01*
X182270Y13986357D01*
X351129Y13986357D01*
X357378Y13987068D01*
X362813Y13988948D01*
X367639Y13991996D01*
X371703Y13996060D01*
X374751Y14000886D01*
X376631Y14006322D01*
X377342Y14012570D01*
X377342Y14181429D01*
X376631Y14187678D01*
X374751Y14193113D01*
X371703Y14197939D01*
X367639Y14202003D01*
X362813Y14205051D01*
X359460Y14206219D01*
X356717Y14207693D01*
X354584Y14209877D01*
X353161Y14212620D01*
X350977Y14219326D01*
X349910Y14221866D01*
X345643Y14230502D01*
X338836Y14240814D01*
X330606Y14250162D01*
X224485Y14356283D01*
X222300Y14359585D01*
X221538Y14363496D01*
X222300Y14367357D01*
X224485Y14370659D01*
X227787Y14372894D01*
X231698Y14373656D01*
X504901Y14373656D01*
X508812Y14372894D01*
X512114Y14370659D01*
X514299Y14367357D01*
X515061Y14363496D01*
X514299Y14359585D01*
X512114Y14356283D01*
X456793Y14300962D01*
X448564Y14291614D01*
X441756Y14281302D01*
X437489Y14272666D01*
X436422Y14270126D01*
X432663Y14258340D01*
X430530Y14246148D01*
X430022Y14236446D01*
X430022Y14163497D01*
X429514Y14160296D01*
X421030Y14145006D01*
X415696Y14131848D01*
X412089Y14118132D01*
X410311Y14104112D01*
X410311Y14089888D01*
X412089Y14075867D01*
X415696Y14062151D01*
X421030Y14048994D01*
X427990Y14036649D01*
X436473Y14025270D01*
X446328Y14015110D01*
X457403Y14006271D01*
X469544Y13998905D01*
X482498Y13993164D01*
X496062Y13989151D01*
X510082Y13986865D01*
X524256Y13986408D01*
X538378Y13987780D01*
X552196Y13990929D01*
X565505Y13995857D01*
X578053Y14002410D01*
X589686Y14010487D01*
X600151Y14020038D01*
X609346Y14030807D01*
X617118Y14042694D01*
X623265Y14055496D01*
X627735Y14068958D01*
X630428Y14082877D01*
X631342Y14097000D01*
X630428Y14111122D01*
X627735Y14125041D01*
X623265Y14138503D01*
X617118Y14151305D01*
X613003Y14157604D01*
X611784Y14160246D01*
X611378Y14163141D01*
X611378Y14194942D01*
X612140Y14198854D01*
X614324Y14202105D01*
X616254Y14204035D01*
X619506Y14206219D01*
X623417Y14206982D01*
X706831Y14206982D01*
X711098Y14206067D01*
X714552Y14203426D01*
X716635Y14199565D01*
X716838Y14195247D01*
X715264Y14191183D01*
X711403Y14187728D01*
X700328Y14178889D01*
X690473Y14168729D01*
X681990Y14157350D01*
X675487Y14145869D01*
X725830Y14145869D01*
X725830Y14196822D01*
X726643Y14200733D01*
X728827Y14204035D01*
X732129Y14206219D01*
X735990Y14206982D01*
X813409Y14206982D01*
X817270Y14206219D01*
X820572Y14204035D01*
X822756Y14200733D01*
X823569Y14196822D01*
X823569Y14145869D01*
X873709Y14145869D01*
X871118Y14151305D01*
X863346Y14163192D01*
X854151Y14173962D01*
X843686Y14183512D01*
X836472Y14188490D01*
X833577Y14191640D01*
X832205Y14195653D01*
X832612Y14199869D01*
X834694Y14203578D01*
X838149Y14206118D01*
X842314Y14206982D01*
X1699056Y14206982D01*
X1703222Y14206118D01*
X1706625Y14203578D01*
X1708759Y14199869D01*
X1709115Y14195602D01*
X1707743Y14191589D01*
X1704797Y14188490D01*
X1695145Y14181836D01*
X1685036Y14172692D01*
X1676247Y14162328D01*
X1668932Y14150848D01*
X1666849Y14146377D01*
X1713788Y14146377D01*
X1713788Y14196822D01*
X1714550Y14200733D01*
X1716735Y14204035D01*
X1720037Y14206219D01*
X1723948Y14206982D01*
X1792528Y14206982D01*
X1796389Y14206219D01*
X1799691Y14204035D01*
X1801926Y14200733D01*
X1802688Y14196822D01*
X1802688Y14146377D01*
X1849628Y14146377D01*
X1847545Y14150848D01*
X1840230Y14162328D01*
X1831441Y14172692D01*
X1821332Y14181836D01*
X1811680Y14188490D01*
X1808734Y14191589D01*
X1807362Y14195602D01*
X1807718Y14199869D01*
X1809800Y14203578D01*
X1813255Y14206118D01*
X1817420Y14206982D01*
X1903882Y14206982D01*
X1907793Y14206219D01*
X1911045Y14204035D01*
X1912975Y14202105D01*
X1915160Y14198854D01*
X1915922Y14194942D01*
X1915922Y14136014D01*
X1915464Y14132966D01*
X1913178Y14125498D01*
X1910892Y14112087D01*
X1910435Y14098524D01*
X1911807Y14084960D01*
X1914956Y14071752D01*
X1919884Y14059052D01*
X1926386Y14047114D01*
X1934464Y14036192D01*
X1943912Y14026388D01*
X1954580Y14017955D01*
X1966315Y14011046D01*
X1978812Y14005712D01*
X1991969Y14002105D01*
X2005431Y14000327D01*
X2019046Y14000327D01*
X2032507Y14002105D01*
X2045614Y14005712D01*
X2058162Y14011046D01*
X2069846Y14017955D01*
X2080564Y14026388D01*
X2090013Y14036192D01*
X2098090Y14047114D01*
X2104593Y14059052D01*
X2109470Y14071752D01*
X2112670Y14084960D01*
X2113991Y14098524D01*
X2113534Y14112087D01*
X2111298Y14125498D01*
X2107285Y14138503D01*
X2101545Y14150848D01*
X2098852Y14155064D01*
X2097684Y14157655D01*
X2097278Y14160550D01*
X2097278Y14236446D01*
X2096770Y14246148D01*
X2094636Y14258340D01*
X2090877Y14270126D01*
X2089810Y14272666D01*
X2085543Y14281302D01*
X2078736Y14291614D01*
X2070506Y14300962D01*
X2015185Y14356283D01*
X2013000Y14359585D01*
X2012238Y14363496D01*
X2013000Y14367357D01*
X2015185Y14370659D01*
X2018487Y14372894D01*
X2022398Y14373656D01*
X3909263Y14373656D01*
X3913174Y14372894D01*
X3916476Y14370659D01*
X3918661Y14367357D01*
X3919423Y14363496D01*
X3918661Y14359585D01*
X3916476Y14356283D01*
X3760317Y14200174D01*
X3756456Y14197736D01*
X3750462Y14195653D01*
X3738321Y14189557D01*
X3727145Y14181836D01*
X3717036Y14172692D01*
X3708247Y14162328D01*
X3700932Y14150848D01*
X3695192Y14138503D01*
X3691178Y14125498D01*
X3688892Y14112087D01*
X3688435Y14098524D01*
X3689807Y14084960D01*
X3692956Y14071752D01*
X3697884Y14059052D01*
X3704386Y14047114D01*
X3712464Y14036192D01*
X3721912Y14026388D01*
X3732580Y14017955D01*
X3744315Y14011046D01*
X3756812Y14005712D01*
X3769969Y14002105D01*
X3783431Y14000327D01*
X3797046Y14000327D01*
X3810508Y14002105D01*
X3823614Y14005712D01*
X3836162Y14011046D01*
X3847846Y14017955D01*
X3858564Y14026388D01*
X3868013Y14036192D01*
X3876090Y14047114D01*
X3882593Y14059052D01*
X3886200Y14068399D01*
X3888486Y14071955D01*
X3925214Y14108633D01*
X3928567Y14110868D01*
X3932529Y14111630D01*
X3936441Y14110766D01*
X3939743Y14108480D01*
X3941876Y14105077D01*
X3942537Y14101114D01*
X3942435Y14098524D01*
X3943807Y14084960D01*
X3946956Y14071752D01*
X3951884Y14059052D01*
X3958386Y14047114D01*
X3966464Y14036192D01*
X3975912Y14026388D01*
X3986580Y14017955D01*
X3998315Y14011046D01*
X4010812Y14005712D01*
X4023969Y14002105D01*
X4037431Y14000327D01*
X4043934Y14000327D01*
X4047845Y13999514D01*
X4051147Y13997330D01*
X4053332Y13994028D01*
X4054094Y13990167D01*
X4053332Y13986256D01*
X4051147Y13982954D01*
X3758793Y13690600D01*
X3750564Y13681252D01*
X3743756Y13670940D01*
X3739489Y13662304D01*
X3738422Y13659764D01*
X3734663Y13647978D01*
X3732529Y13635786D01*
X3732022Y13626084D01*
X3732022Y13540130D01*
X3732936Y13527430D01*
X3735425Y13515340D01*
X3739591Y13503656D01*
X3745280Y13492683D01*
X3752392Y13482574D01*
X3760825Y13473531D01*
X3770426Y13465759D01*
X3780993Y13459307D01*
X3792372Y13454380D01*
X3804259Y13451027D01*
X3816502Y13449350D01*
X3828897Y13449350D01*
X3841140Y13451027D01*
X3853027Y13454380D01*
X3864406Y13459307D01*
X3874973Y13465759D01*
X3884574Y13473531D01*
X3893007Y13482574D01*
X3900119Y13492683D01*
X3905808Y13503656D01*
X3909974Y13515340D01*
X3912463Y13527430D01*
X3913378Y13540130D01*
X3913378Y13584580D01*
X3914140Y13588492D01*
X3916324Y13591743D01*
X4327906Y14003324D01*
X4331106Y14005509D01*
X4344162Y14011046D01*
X4355846Y14017955D01*
X4366564Y14026388D01*
X4376013Y14036192D01*
X4384090Y14047114D01*
X4390593Y14059052D01*
X4395470Y14071752D01*
X4398670Y14084960D01*
X4399991Y14098524D01*
X4399534Y14112087D01*
X4397298Y14125498D01*
X4393285Y14138503D01*
X4387545Y14150848D01*
X4380230Y14162328D01*
X4371441Y14172692D01*
X4361332Y14181836D01*
X4353153Y14187474D01*
X4350207Y14190573D01*
X4348835Y14194586D01*
X4349191Y14198854D01*
X4351274Y14202562D01*
X4354728Y14205102D01*
X4358894Y14205966D01*
X4491583Y14205966D01*
X4495749Y14205102D01*
X4499152Y14202562D01*
X4501286Y14198854D01*
X4501642Y14194586D01*
X4500219Y14190573D01*
X4497324Y14187474D01*
X4489145Y14181836D01*
X4479036Y14172692D01*
X4470247Y14162328D01*
X4462932Y14150848D01*
X4457192Y14138503D01*
X4453178Y14125498D01*
X4450892Y14112087D01*
X4450435Y14098524D01*
X4451807Y14084960D01*
X4454956Y14071752D01*
X4459884Y14059052D01*
X4466386Y14047114D01*
X4474464Y14036192D01*
X4483912Y14026388D01*
X4494580Y14017955D01*
X4506315Y14011046D01*
X4518812Y14005712D01*
X4531969Y14002105D01*
X4545431Y14000327D01*
X4559046Y14000327D01*
X4572508Y14002105D01*
X4585614Y14005712D01*
X4598162Y14011046D01*
X4609846Y14017955D01*
X4620564Y14026388D01*
X4630013Y14036192D01*
X4638090Y14047114D01*
X4644593Y14059052D01*
X4649470Y14071752D01*
X4652670Y14084960D01*
X4653991Y14098524D01*
X4653534Y14112087D01*
X4651298Y14125498D01*
X4647285Y14138503D01*
X4641545Y14150848D01*
X4634230Y14162328D01*
X4625441Y14172692D01*
X4615332Y14181836D01*
X4607153Y14187474D01*
X4604207Y14190573D01*
X4602835Y14194586D01*
X4603191Y14198854D01*
X4605274Y14202562D01*
X4608728Y14205102D01*
X4612894Y14205966D01*
X4745583Y14205966D01*
X4749749Y14205102D01*
X4753152Y14202562D01*
X4755286Y14198854D01*
X4755642Y14194586D01*
X4754219Y14190573D01*
X4751324Y14187474D01*
X4743145Y14181836D01*
X4733036Y14172692D01*
X4724247Y14162328D01*
X4716932Y14150848D01*
X4711192Y14138503D01*
X4707178Y14125498D01*
X4704892Y14112087D01*
X4704435Y14098524D01*
X4705807Y14084960D01*
X4708956Y14071752D01*
X4713884Y14059052D01*
X4720386Y14047114D01*
X4728464Y14036192D01*
X4737912Y14026388D01*
X4748580Y14017955D01*
X4760315Y14011046D01*
X4772812Y14005712D01*
X4785969Y14002105D01*
X4799431Y14000327D01*
X4813046Y14000327D01*
X4826508Y14002105D01*
X4839614Y14005712D01*
X4852162Y14011046D01*
X4863846Y14017955D01*
X4874564Y14026388D01*
X4884013Y14036192D01*
X4892090Y14047114D01*
X4898593Y14059052D01*
X4903470Y14071752D01*
X4906670Y14084960D01*
X4907991Y14098524D01*
X4907534Y14112087D01*
X4905298Y14125498D01*
X4901285Y14138503D01*
X4895545Y14150848D01*
X4888230Y14162328D01*
X4879441Y14172692D01*
X4869332Y14181836D01*
X4861153Y14187474D01*
X4858207Y14190573D01*
X4856835Y14194586D01*
X4857191Y14198854D01*
X4859274Y14202562D01*
X4862728Y14205102D01*
X4866894Y14205966D01*
X4999583Y14205966D01*
X5003749Y14205102D01*
X5007152Y14202562D01*
X5009286Y14198854D01*
X5009642Y14194586D01*
X5008219Y14190573D01*
X5005324Y14187474D01*
X4997145Y14181836D01*
X4987036Y14172692D01*
X4978247Y14162328D01*
X4970932Y14150848D01*
X4965192Y14138503D01*
X4961178Y14125498D01*
X4958892Y14112087D01*
X4958435Y14098524D01*
X4959807Y14084960D01*
X4962956Y14071752D01*
X4967884Y14059052D01*
X4974386Y14047114D01*
X4982464Y14036192D01*
X4991912Y14026388D01*
X5002580Y14017955D01*
X5014315Y14011046D01*
X5026812Y14005712D01*
X5039969Y14002105D01*
X5053431Y14000327D01*
X5067046Y14000327D01*
X5080508Y14002105D01*
X5093614Y14005712D01*
X5106162Y14011046D01*
X5117846Y14017955D01*
X5128564Y14026388D01*
X5138013Y14036192D01*
X5146090Y14047114D01*
X5152593Y14059052D01*
X5157470Y14071752D01*
X5160670Y14084960D01*
X5161991Y14098524D01*
X5161534Y14112087D01*
X5159298Y14125498D01*
X5155285Y14138503D01*
X5149545Y14150848D01*
X5142230Y14162328D01*
X5133441Y14172692D01*
X5123332Y14181836D01*
X5115153Y14187474D01*
X5112207Y14190573D01*
X5110835Y14194586D01*
X5111191Y14198854D01*
X5113274Y14202562D01*
X5116728Y14205102D01*
X5120894Y14205966D01*
X5253583Y14205966D01*
X5257749Y14205102D01*
X5261152Y14202562D01*
X5263286Y14198854D01*
X5263642Y14194586D01*
X5262219Y14190573D01*
X5259324Y14187474D01*
X5251145Y14181836D01*
X5241036Y14172692D01*
X5232247Y14162328D01*
X5224932Y14150848D01*
X5219192Y14138503D01*
X5215178Y14125498D01*
X5212892Y14112087D01*
X5212435Y14098524D01*
X5213807Y14084960D01*
X5216956Y14071752D01*
X5221884Y14059052D01*
X5228386Y14047114D01*
X5236464Y14036192D01*
X5245912Y14026388D01*
X5256580Y14017955D01*
X5268315Y14011046D01*
X5280812Y14005712D01*
X5293969Y14002105D01*
X5307431Y14000327D01*
X5321046Y14000327D01*
X5334508Y14002105D01*
X5347614Y14005712D01*
X5360162Y14011046D01*
X5371846Y14017955D01*
X5382564Y14026388D01*
X5392013Y14036192D01*
X5400090Y14047114D01*
X5406593Y14059052D01*
X5411470Y14071752D01*
X5414670Y14084960D01*
X5415991Y14098524D01*
X5415534Y14112087D01*
X5413298Y14125498D01*
X5409285Y14138503D01*
X5403545Y14150848D01*
X5396230Y14162328D01*
X5387441Y14172692D01*
X5377332Y14181836D01*
X5369153Y14187474D01*
X5366207Y14190573D01*
X5364835Y14194586D01*
X5365191Y14198854D01*
X5367274Y14202562D01*
X5370728Y14205102D01*
X5374894Y14205966D01*
X5507583Y14205966D01*
X5511749Y14205102D01*
X5515152Y14202562D01*
X5517286Y14198854D01*
X5517642Y14194586D01*
X5516219Y14190573D01*
X5513324Y14187474D01*
X5505145Y14181836D01*
X5495036Y14172692D01*
X5486247Y14162328D01*
X5478932Y14150848D01*
X5476849Y14146377D01*
X5523788Y14146377D01*
X5523788Y14195806D01*
X5524550Y14199717D01*
X5526735Y14203019D01*
X5530037Y14205204D01*
X5533948Y14205966D01*
X5575452Y14205966D01*
X5579364Y14205204D01*
X5582615Y14203019D01*
X5609691Y14175943D01*
X5611926Y14172641D01*
X5612688Y14168780D01*
X5612688Y14146377D01*
X5635091Y14146377D01*
X5638952Y14145615D01*
X5642254Y14143380D01*
X5830417Y13955217D01*
X5832602Y13951966D01*
X5833364Y13948054D01*
X5833364Y13903147D01*
X5832449Y13898930D01*
X5829808Y13895425D01*
X5825947Y13893393D01*
X5821629Y13893139D01*
X5817565Y13894714D01*
X5814568Y13897863D01*
X5808421Y13907973D01*
X5800598Y13917574D01*
X5791555Y13926007D01*
X5781446Y13933119D01*
X5770473Y13938808D01*
X5758840Y13942974D01*
X5746699Y13945463D01*
X5734050Y13946378D01*
X5122164Y13946378D01*
X5112461Y13945869D01*
X5100269Y13943736D01*
X5088483Y13939977D01*
X5085943Y13938910D01*
X5077307Y13934643D01*
X5066995Y13927836D01*
X5057648Y13919606D01*
X4827727Y13689736D01*
X4825796Y13688212D01*
X4821224Y13686485D01*
X4808880Y13680744D01*
X4797450Y13673429D01*
X4787036Y13664641D01*
X4777892Y13654582D01*
X4770221Y13643356D01*
X4764074Y13631214D01*
X4759604Y13618362D01*
X4756912Y13605052D01*
X4755997Y13591489D01*
X4756912Y13577874D01*
X4759604Y13564565D01*
X4764074Y13551712D01*
X4770221Y13539571D01*
X4777892Y13528344D01*
X4787036Y13518286D01*
X4797450Y13509498D01*
X4808880Y13502182D01*
X4821224Y13496442D01*
X4834229Y13492429D01*
X4847640Y13490143D01*
X4857800Y13489787D01*
X4861610Y13488924D01*
X4864811Y13486688D01*
X4866894Y13483386D01*
X4867605Y13479526D01*
X4866843Y13475716D01*
X4864658Y13472464D01*
X4792929Y13400684D01*
X4789627Y13398500D01*
X4785715Y13397738D01*
X3564890Y13397738D01*
X3555237Y13397230D01*
X3552444Y13396874D01*
X3543046Y13395096D01*
X3540353Y13394385D01*
X3531260Y13391337D01*
X3528669Y13390270D01*
X3520084Y13386003D01*
X3509721Y13379196D01*
X3500374Y13370966D01*
X2913430Y12784277D01*
X2909570Y12781838D01*
X2903677Y12779806D01*
X2891536Y12773660D01*
X2880309Y12765989D01*
X2870250Y12756845D01*
X2861462Y12746482D01*
X2854147Y12735001D01*
X2848406Y12722656D01*
X2844393Y12709652D01*
X2842107Y12696240D01*
X2841650Y12682677D01*
X2843022Y12669113D01*
X2846171Y12655905D01*
X2851048Y12643205D01*
X2857601Y12631267D01*
X2864307Y12622174D01*
X2866085Y12618110D01*
X2865983Y12613690D01*
X2863951Y12609677D01*
X2860446Y12606985D01*
X2856128Y12606020D01*
X2612288Y12606020D01*
X2608376Y12606782D01*
X2605074Y12608966D01*
X2493467Y12720777D01*
X2491943Y12722707D01*
X2490216Y12727381D01*
X2484475Y12739725D01*
X2477160Y12751155D01*
X2468372Y12761569D01*
X2458262Y12770662D01*
X2447036Y12778384D01*
X2434894Y12784531D01*
X2422042Y12789001D01*
X2408732Y12791694D01*
X2395169Y12792608D01*
X2381605Y12791694D01*
X2368245Y12789001D01*
X2355392Y12784531D01*
X2343251Y12778384D01*
X2332075Y12770662D01*
X2321966Y12761569D01*
X2313178Y12751155D01*
X2305862Y12739725D01*
X2300122Y12727381D01*
X2296109Y12714376D01*
X2293823Y12700965D01*
X2293366Y12687350D01*
X2294737Y12673838D01*
X2297887Y12660579D01*
X2302814Y12647930D01*
X2309317Y12635992D01*
X2317394Y12625019D01*
X2326843Y12615265D01*
X2337511Y12606832D01*
X2349246Y12599873D01*
X2362504Y12594285D01*
X2365705Y12592100D01*
X2506167Y12451486D01*
X2515514Y12443256D01*
X2525826Y12436449D01*
X2534513Y12432131D01*
X2537002Y12431115D01*
X2548788Y12427305D01*
X2560980Y12425172D01*
X2570734Y12424664D01*
X3781551Y12424664D01*
X3791305Y12425172D01*
X3803497Y12427305D01*
X3815283Y12431115D01*
X3817772Y12432131D01*
X3826408Y12436449D01*
X3828745Y12437821D01*
X3836771Y12443256D01*
X3846118Y12451435D01*
X4125518Y12731089D01*
X4129074Y12733375D01*
X4138676Y12737084D01*
X4150614Y12743637D01*
X4161586Y12751714D01*
X4171340Y12761163D01*
X4179773Y12771831D01*
X4186732Y12783515D01*
X4192015Y12796062D01*
X4195622Y12809169D01*
X4197451Y12822682D01*
X4197451Y12836245D01*
X4195622Y12849758D01*
X4192015Y12862864D01*
X4186732Y12875412D01*
X4179773Y12887096D01*
X4173016Y12895681D01*
X4171086Y12899745D01*
X4171086Y12904266D01*
X4173067Y12908280D01*
X4176623Y12911124D01*
X4180992Y12912090D01*
X4264710Y12912090D01*
X4268520Y12911378D01*
X4271772Y12909245D01*
X4274007Y12906095D01*
X4274870Y12902285D01*
X4274261Y12898475D01*
X4272229Y12895122D01*
X4269892Y12892582D01*
X4262221Y12881356D01*
X4256074Y12869214D01*
X4251604Y12856362D01*
X4248912Y12843052D01*
X4247997Y12829489D01*
X4248912Y12815874D01*
X4251604Y12802565D01*
X4256074Y12789712D01*
X4262221Y12777571D01*
X4269892Y12766344D01*
X4279036Y12756286D01*
X4289450Y12747498D01*
X4300880Y12740182D01*
X4313224Y12734442D01*
X4326229Y12730429D01*
X4339640Y12728143D01*
X4353255Y12727686D01*
X4366768Y12729057D01*
X4380026Y12732207D01*
X4392676Y12737084D01*
X4404614Y12743637D01*
X4415586Y12751714D01*
X4425340Y12761163D01*
X4433773Y12771831D01*
X4440732Y12783515D01*
X4446016Y12796062D01*
X4449622Y12809169D01*
X4451451Y12822682D01*
X4451451Y12836245D01*
X4449622Y12849758D01*
X4446016Y12862864D01*
X4440732Y12875412D01*
X4433773Y12887096D01*
X4427016Y12895681D01*
X4425086Y12899745D01*
X4425086Y12904266D01*
X4427067Y12908280D01*
X4430623Y12911124D01*
X4434992Y12912090D01*
X4518710Y12912090D01*
X4522520Y12911378D01*
X4525772Y12909245D01*
X4528007Y12906095D01*
X4528870Y12902285D01*
X4528261Y12898475D01*
X4526229Y12895122D01*
X4523892Y12892582D01*
X4516221Y12881356D01*
X4512462Y12873939D01*
X4559401Y12873939D01*
X4559401Y12901930D01*
X4560163Y12905841D01*
X4562348Y12909143D01*
X4565650Y12911328D01*
X4569561Y12912090D01*
X4638141Y12912090D01*
X4642002Y12911328D01*
X4645304Y12909143D01*
X4647488Y12905841D01*
X4648301Y12901930D01*
X4648301Y12873939D01*
X4681118Y12873939D01*
X4684979Y12873126D01*
X4688281Y12870942D01*
X4759604Y12799517D01*
X4761992Y12795707D01*
X4764074Y12789712D01*
X4770221Y12777571D01*
X4777892Y12766344D01*
X4787036Y12756286D01*
X4797450Y12747498D01*
X4808880Y12740182D01*
X4821224Y12734442D01*
X4834229Y12730429D01*
X4847640Y12728143D01*
X4861255Y12727686D01*
X4874768Y12729057D01*
X4888026Y12732207D01*
X4900676Y12737084D01*
X4912614Y12743637D01*
X4923586Y12751714D01*
X4933340Y12761163D01*
X4941773Y12771831D01*
X4948732Y12783515D01*
X4954016Y12796062D01*
X4957622Y12809169D01*
X4959451Y12822682D01*
X4959451Y12836245D01*
X4957622Y12849758D01*
X4954016Y12862864D01*
X4948732Y12875412D01*
X4941773Y12887096D01*
X4933340Y12897764D01*
X4923586Y12907213D01*
X4912614Y12915290D01*
X4900676Y12921843D01*
X4891328Y12925450D01*
X4887772Y12927736D01*
X4749088Y13066623D01*
X4739741Y13074853D01*
X4729429Y13081660D01*
X4720742Y13085978D01*
X4718253Y13086994D01*
X4706467Y13090804D01*
X4694275Y13092938D01*
X4684522Y13093446D01*
X3814826Y13093446D01*
X3805123Y13092938D01*
X3792931Y13090804D01*
X3781145Y13087045D01*
X3778605Y13085978D01*
X3769969Y13081711D01*
X3759657Y13074904D01*
X3750310Y13066674D01*
X3472535Y12788900D01*
X3468674Y12786512D01*
X3462934Y12784531D01*
X3450793Y12778384D01*
X3439566Y12770662D01*
X3429508Y12761569D01*
X3420719Y12751155D01*
X3413404Y12739725D01*
X3407664Y12727381D01*
X3403650Y12714376D01*
X3401364Y12700965D01*
X3400907Y12687350D01*
X3402279Y12673838D01*
X3405428Y12660579D01*
X3410305Y12647930D01*
X3416858Y12635992D01*
X3424936Y12625019D01*
X3426663Y12623241D01*
X3428796Y12619888D01*
X3429558Y12616027D01*
X3428746Y12612166D01*
X3426510Y12608915D01*
X3423259Y12606782D01*
X3419398Y12606020D01*
X3030728Y12606020D01*
X3026410Y12606985D01*
X3022904Y12609677D01*
X3020872Y12613690D01*
X3020771Y12618110D01*
X3022549Y12622174D01*
X3029254Y12631267D01*
X3035808Y12643205D01*
X3039414Y12652654D01*
X3041751Y12656210D01*
X3599179Y13213435D01*
X3602482Y13215619D01*
X3606393Y13216382D01*
X4827270Y13216382D01*
X4837023Y13216890D01*
X4849215Y13219023D01*
X4861001Y13222833D01*
X4863490Y13223849D01*
X4872126Y13228167D01*
X4874463Y13229539D01*
X4882489Y13234974D01*
X4891836Y13243153D01*
X5141518Y13493089D01*
X5145074Y13495375D01*
X5154676Y13499084D01*
X5166614Y13505637D01*
X5177586Y13513714D01*
X5187340Y13523163D01*
X5195773Y13533831D01*
X5202732Y13545515D01*
X5208016Y13558062D01*
X5211622Y13571169D01*
X5213451Y13584682D01*
X5213451Y13598245D01*
X5211622Y13611758D01*
X5208016Y13624864D01*
X5202732Y13637412D01*
X5195773Y13649096D01*
X5187340Y13659764D01*
X5177586Y13669213D01*
X5166614Y13677290D01*
X5154676Y13683843D01*
X5142026Y13688720D01*
X5128768Y13691869D01*
X5115255Y13693241D01*
X5112410Y13693140D01*
X5108448Y13693800D01*
X5105044Y13695934D01*
X5102758Y13699236D01*
X5101945Y13703198D01*
X5102656Y13707160D01*
X5104892Y13710462D01*
X5156504Y13762075D01*
X5159756Y13764260D01*
X5163667Y13765022D01*
X5734050Y13765022D01*
X5746699Y13765936D01*
X5758840Y13768425D01*
X5770473Y13772591D01*
X5781446Y13778280D01*
X5791555Y13785392D01*
X5800598Y13793825D01*
X5808421Y13803426D01*
X5814568Y13813536D01*
X5817565Y13816685D01*
X5821629Y13818260D01*
X5825947Y13818006D01*
X5829808Y13815974D01*
X5832449Y13812469D01*
X5833364Y13808252D01*
X5833364Y13683589D01*
X5832602Y13679678D01*
X5830417Y13676426D01*
X5703976Y13549985D01*
X5700725Y13547801D01*
X5696813Y13547039D01*
X5664301Y13547039D01*
X5664301Y13514476D01*
X5663488Y13510615D01*
X5661304Y13507313D01*
X5081727Y12927736D01*
X5079796Y12926212D01*
X5075224Y12924485D01*
X5062880Y12918744D01*
X5051450Y12911429D01*
X5041036Y12902641D01*
X5031892Y12892582D01*
X5024221Y12881356D01*
X5018074Y12869214D01*
X5013604Y12856362D01*
X5010912Y12843052D01*
X5009997Y12829489D01*
X5010912Y12815874D01*
X5013604Y12802565D01*
X5018074Y12789712D01*
X5024221Y12777571D01*
X5031892Y12766344D01*
X5041036Y12756286D01*
X5051450Y12747498D01*
X5062880Y12740182D01*
X5075224Y12734442D01*
X5088229Y12730429D01*
X5101640Y12728143D01*
X5115255Y12727686D01*
X5128768Y12729057D01*
X5142026Y12732207D01*
X5154676Y12737084D01*
X5166614Y12743637D01*
X5177586Y12751714D01*
X5187340Y12761163D01*
X5195773Y12771831D01*
X5202732Y12783515D01*
X5208320Y12796875D01*
X5210505Y12800126D01*
X5281371Y12870942D01*
X5284673Y12873126D01*
X5288534Y12873939D01*
X5321401Y12873939D01*
X5321401Y12906756D01*
X5322163Y12910667D01*
X5324348Y12913969D01*
X5987948Y13577569D01*
X5996178Y13586917D01*
X6002985Y13597229D01*
X6007252Y13605865D01*
X6008319Y13608405D01*
X6012078Y13620191D01*
X6014212Y13632383D01*
X6014720Y13642086D01*
X6014720Y13989557D01*
X6014212Y13999260D01*
X6012078Y14011452D01*
X6008319Y14023238D01*
X6007252Y14025778D01*
X6002985Y14034414D01*
X5996178Y14044726D01*
X5987948Y14054074D01*
X5685739Y14356283D01*
X5683554Y14359585D01*
X5682792Y14363496D01*
X5683554Y14367357D01*
X5685739Y14370659D01*
X5689041Y14372894D01*
X5692952Y14373656D01*
X6803491Y14373656D01*
X6810908Y14372793D01*
X6815378Y14371218D01*
X6819442Y14368830D01*
X6822948Y14365681D01*
X6825792Y14361871D01*
X6827875Y14357604D01*
X6829044Y14353032D01*
X6829552Y14347596D01*
X6829552Y10382199D01*
X6828688Y10374833D01*
X6827113Y10370362D01*
X6824725Y10366248D01*
X6821576Y10362742D01*
X6817766Y10359898D01*
X6813499Y10357815D01*
X6808927Y10356646D01*
X6803491Y10356138D01*
G37*

%LPC*%
G36*
X6231991Y12990423D02*
G01*
X6231991Y13042087D01*
X6180277Y13042087D01*
X6186119Y13031520D01*
X6194552Y13019887D01*
X6204407Y13009371D01*
X6215481Y13000228D01*
X6227622Y12992506D01*
G37*
G36*
X5523788Y14010386D02*
G01*
X5523788Y14057477D01*
X5476748Y14057477D01*
X5482386Y14047114D01*
X5490464Y14036192D01*
X5499912Y14026388D01*
X5510580Y14017955D01*
X5522315Y14011046D01*
G37*
G36*
X5612688Y14010386D02*
G01*
X5614162Y14011046D01*
X5625846Y14017955D01*
X5636564Y14026388D01*
X5646013Y14036192D01*
X5654090Y14047114D01*
X5659729Y14057477D01*
X5612688Y14057477D01*
G37*
G36*
X73609Y10731804D02*
G01*
X804722Y10731804D01*
X826058Y10732770D01*
X846988Y10735614D01*
X867613Y10740339D01*
X887730Y10746841D01*
X907186Y10755172D01*
X925779Y10765180D01*
X943457Y10776813D01*
X959967Y10790021D01*
X975258Y10804601D01*
X989177Y10820552D01*
X1001572Y10837672D01*
X1012444Y10855807D01*
X1021587Y10874857D01*
X1029055Y10894669D01*
X1034643Y10915040D01*
X1038453Y10935817D01*
X1040333Y10956899D01*
X1040333Y10978032D01*
X1038453Y10999114D01*
X1034643Y11019891D01*
X1029055Y11040262D01*
X1021587Y11060074D01*
X1012444Y11079124D01*
X1001572Y11097260D01*
X989177Y11114379D01*
X975258Y11130330D01*
X959967Y11144910D01*
X943457Y11158118D01*
X925779Y11169751D01*
X907186Y11179759D01*
X887730Y11188090D01*
X867613Y11194643D01*
X846988Y11199317D01*
X826058Y11202162D01*
X804722Y11203127D01*
X138226Y11203127D01*
X135178Y11203584D01*
X123291Y11207343D01*
X118465Y11208613D01*
X102616Y11212068D01*
X97739Y11212880D01*
X81635Y11214862D01*
X76708Y11215268D01*
X60502Y11215827D01*
X-279400Y11215827D01*
X-300786Y11214862D01*
X-321716Y11212017D01*
X-342341Y11207343D01*
X-362458Y11200790D01*
X-381914Y11192459D01*
X-400507Y11182451D01*
X-418134Y11170818D01*
X-434695Y11157610D01*
X-449986Y11143030D01*
X-463905Y11127079D01*
X-476300Y11109960D01*
X-487172Y11091824D01*
X-496316Y11072774D01*
X-503783Y11052962D01*
X-509371Y11032591D01*
X-513181Y11011814D01*
X-515061Y10990732D01*
X-515061Y10969599D01*
X-513181Y10948517D01*
X-509371Y10927740D01*
X-503783Y10907369D01*
X-496316Y10887557D01*
X-487172Y10868507D01*
X-476300Y10850372D01*
X-463905Y10833252D01*
X-449986Y10817301D01*
X-434695Y10802721D01*
X-418134Y10789513D01*
X-400507Y10777880D01*
X-381914Y10767872D01*
X-362458Y10759541D01*
X-342341Y10753039D01*
X-321716Y10748314D01*
X-300786Y10745470D01*
X-279400Y10744504D01*
X-4114Y10744504D01*
X-1066Y10744047D01*
X10820Y10740288D01*
X15646Y10739018D01*
X31495Y10735564D01*
X36372Y10734751D01*
X52476Y10732770D01*
X57404Y10732363D01*
G37*
G36*
X1713788Y14010386D02*
G01*
X1713788Y14057477D01*
X1666748Y14057477D01*
X1672386Y14047114D01*
X1680464Y14036192D01*
X1689912Y14026388D01*
X1700580Y14017955D01*
X1712315Y14011046D01*
G37*
G36*
X1802688Y14010386D02*
G01*
X1804162Y14011046D01*
X1815846Y14017955D01*
X1826564Y14026388D01*
X1836013Y14036192D01*
X1844090Y14047114D01*
X1849729Y14057477D01*
X1802688Y14057477D01*
G37*
G36*
X3852926Y10840212D02*
G01*
X3868267Y10841177D01*
X3883355Y10843920D01*
X3898036Y10848492D01*
X3912057Y10854791D01*
X3925214Y10862767D01*
X3937304Y10872216D01*
X3948176Y10883087D01*
X3957624Y10895177D01*
X3965600Y10908334D01*
X3971899Y10922355D01*
X3976471Y10937036D01*
X3979214Y10952124D01*
X3980179Y10967466D01*
X3979214Y10982807D01*
X3976471Y10997895D01*
X3971899Y11012576D01*
X3965600Y11026597D01*
X3957624Y11039754D01*
X3948176Y11051844D01*
X3937304Y11062716D01*
X3925214Y11072164D01*
X3912057Y11080140D01*
X3898036Y11086439D01*
X3883355Y11091011D01*
X3868267Y11093754D01*
X3852926Y11094720D01*
X3837584Y11093754D01*
X3822496Y11091011D01*
X3807815Y11086439D01*
X3793794Y11080140D01*
X3780637Y11072164D01*
X3768547Y11062716D01*
X3757676Y11051844D01*
X3748227Y11039754D01*
X3740251Y11026597D01*
X3733952Y11012576D01*
X3729380Y10997895D01*
X3726637Y10982807D01*
X3725672Y10967466D01*
X3726637Y10952124D01*
X3729380Y10937036D01*
X3733952Y10922355D01*
X3740251Y10908334D01*
X3748227Y10895177D01*
X3757676Y10883087D01*
X3768547Y10872216D01*
X3780637Y10862767D01*
X3793794Y10854791D01*
X3807815Y10848492D01*
X3822496Y10843920D01*
X3837584Y10841177D01*
G37*
G36*
X1255776Y10853928D02*
G01*
X1255776Y10910316D01*
X1199388Y10910316D01*
X1200251Y10908334D01*
X1208227Y10895177D01*
X1217676Y10883087D01*
X1228547Y10872216D01*
X1240637Y10862767D01*
X1253794Y10854791D01*
G37*
G36*
X3402076Y10853928D02*
G01*
X3404057Y10854791D01*
X3417214Y10862767D01*
X3429304Y10872216D01*
X3440176Y10883087D01*
X3449624Y10895177D01*
X3457600Y10908334D01*
X3458464Y10910316D01*
X3402076Y10910316D01*
G37*
G36*
X2271776Y10853928D02*
G01*
X2271776Y10910316D01*
X2215388Y10910316D01*
X2216251Y10908334D01*
X2224227Y10895177D01*
X2233676Y10883087D01*
X2244547Y10872216D01*
X2256637Y10862767D01*
X2269794Y10854791D01*
G37*
G36*
X2386076Y10853928D02*
G01*
X2388057Y10854791D01*
X2401214Y10862767D01*
X2413304Y10872216D01*
X2424176Y10883087D01*
X2433624Y10895177D01*
X2441600Y10908334D01*
X2442464Y10910316D01*
X2386076Y10910316D01*
G37*
G36*
X3287776Y10853928D02*
G01*
X3287776Y10910316D01*
X3231388Y10910316D01*
X3232251Y10908334D01*
X3240227Y10895177D01*
X3249676Y10883087D01*
X3260547Y10872216D01*
X3272637Y10862767D01*
X3285794Y10854791D01*
G37*
G36*
X1370076Y10853928D02*
G01*
X1372057Y10854791D01*
X1385214Y10862767D01*
X1397304Y10872216D01*
X1408176Y10883087D01*
X1417624Y10895177D01*
X1425600Y10908334D01*
X1426464Y10910316D01*
X1370076Y10910316D01*
G37*
G36*
X2767431Y14000327D02*
G01*
X2781046Y14000327D01*
X2794508Y14002105D01*
X2807614Y14005712D01*
X2820162Y14011046D01*
X2831846Y14017955D01*
X2842564Y14026388D01*
X2852013Y14036192D01*
X2860090Y14047114D01*
X2866593Y14059052D01*
X2871470Y14071752D01*
X2874670Y14084960D01*
X2875991Y14098524D01*
X2875534Y14112087D01*
X2873298Y14125498D01*
X2869285Y14138503D01*
X2863545Y14150848D01*
X2856230Y14162328D01*
X2847441Y14172692D01*
X2837332Y14181836D01*
X2826105Y14189557D01*
X2813964Y14195653D01*
X2801112Y14200124D01*
X2787802Y14202816D01*
X2774238Y14203730D01*
X2760675Y14202816D01*
X2747314Y14200124D01*
X2734462Y14195653D01*
X2722321Y14189557D01*
X2711145Y14181836D01*
X2701036Y14172692D01*
X2692247Y14162328D01*
X2684932Y14150848D01*
X2679192Y14138503D01*
X2675178Y14125498D01*
X2672892Y14112087D01*
X2672435Y14098524D01*
X2673807Y14084960D01*
X2676956Y14071752D01*
X2681884Y14059052D01*
X2688386Y14047114D01*
X2696464Y14036192D01*
X2705912Y14026388D01*
X2716580Y14017955D01*
X2728315Y14011046D01*
X2740812Y14005712D01*
X2753969Y14002105D01*
G37*
G36*
X1199388Y11024616D02*
G01*
X1255776Y11024616D01*
X1255776Y11081004D01*
X1253794Y11080140D01*
X1240637Y11072164D01*
X1228547Y11062716D01*
X1217676Y11051844D01*
X1208227Y11039754D01*
X1200251Y11026597D01*
G37*
G36*
X3402076Y11024616D02*
G01*
X3458464Y11024616D01*
X3457600Y11026597D01*
X3449624Y11039754D01*
X3440176Y11051844D01*
X3429304Y11062716D01*
X3417214Y11072164D01*
X3404057Y11080140D01*
X3402076Y11081004D01*
G37*
G36*
X3231388Y11024616D02*
G01*
X3287776Y11024616D01*
X3287776Y11081004D01*
X3285794Y11080140D01*
X3272637Y11072164D01*
X3260547Y11062716D01*
X3249676Y11051844D01*
X3240227Y11039754D01*
X3232251Y11026597D01*
G37*
G36*
X1370076Y11024616D02*
G01*
X1426464Y11024616D01*
X1425600Y11026597D01*
X1417624Y11039754D01*
X1408176Y11051844D01*
X1397304Y11062716D01*
X1385214Y11072164D01*
X1372057Y11080140D01*
X1370076Y11081004D01*
G37*
G36*
X3021431Y14000327D02*
G01*
X3035046Y14000327D01*
X3048508Y14002105D01*
X3061614Y14005712D01*
X3074162Y14011046D01*
X3085846Y14017955D01*
X3096564Y14026388D01*
X3106013Y14036192D01*
X3114090Y14047114D01*
X3120593Y14059052D01*
X3125470Y14071752D01*
X3128670Y14084960D01*
X3129991Y14098524D01*
X3129534Y14112087D01*
X3127298Y14125498D01*
X3123285Y14138503D01*
X3117545Y14150848D01*
X3110230Y14162328D01*
X3101441Y14172692D01*
X3091332Y14181836D01*
X3080105Y14189557D01*
X3067964Y14195653D01*
X3055112Y14200124D01*
X3041802Y14202816D01*
X3028238Y14203730D01*
X3014675Y14202816D01*
X3001314Y14200124D01*
X2988462Y14195653D01*
X2976321Y14189557D01*
X2965145Y14181836D01*
X2955036Y14172692D01*
X2946247Y14162328D01*
X2938932Y14150848D01*
X2933192Y14138503D01*
X2929178Y14125498D01*
X2926892Y14112087D01*
X2926435Y14098524D01*
X2927807Y14084960D01*
X2930956Y14071752D01*
X2935884Y14059052D01*
X2942386Y14047114D01*
X2950464Y14036192D01*
X2959912Y14026388D01*
X2970580Y14017955D01*
X2982315Y14011046D01*
X2994812Y14005712D01*
X3007969Y14002105D01*
G37*
G36*
X2513431Y14000327D02*
G01*
X2527046Y14000327D01*
X2540508Y14002105D01*
X2553614Y14005712D01*
X2566162Y14011046D01*
X2577846Y14017955D01*
X2588564Y14026388D01*
X2598013Y14036192D01*
X2606090Y14047114D01*
X2612593Y14059052D01*
X2617470Y14071752D01*
X2620670Y14084960D01*
X2621991Y14098524D01*
X2621534Y14112087D01*
X2619298Y14125498D01*
X2615285Y14138503D01*
X2609545Y14150848D01*
X2602230Y14162328D01*
X2593441Y14172692D01*
X2583332Y14181836D01*
X2572105Y14189557D01*
X2559964Y14195653D01*
X2547112Y14200124D01*
X2533802Y14202816D01*
X2520238Y14203730D01*
X2506675Y14202816D01*
X2493314Y14200124D01*
X2480462Y14195653D01*
X2468321Y14189557D01*
X2457145Y14181836D01*
X2447036Y14172692D01*
X2438247Y14162328D01*
X2430932Y14150848D01*
X2425192Y14138503D01*
X2421178Y14125498D01*
X2418892Y14112087D01*
X2418435Y14098524D01*
X2419807Y14084960D01*
X2422956Y14071752D01*
X2427884Y14059052D01*
X2434386Y14047114D01*
X2442464Y14036192D01*
X2451912Y14026388D01*
X2462580Y14017955D01*
X2474315Y14011046D01*
X2486812Y14005712D01*
X2499969Y14002105D01*
G37*
G36*
X3275431Y14000327D02*
G01*
X3289046Y14000327D01*
X3302508Y14002105D01*
X3315614Y14005712D01*
X3328162Y14011046D01*
X3339846Y14017955D01*
X3350564Y14026388D01*
X3360013Y14036192D01*
X3368090Y14047114D01*
X3374593Y14059052D01*
X3379470Y14071752D01*
X3382670Y14084960D01*
X3383991Y14098524D01*
X3383534Y14112087D01*
X3381298Y14125498D01*
X3377285Y14138503D01*
X3371545Y14150848D01*
X3364229Y14162328D01*
X3355441Y14172692D01*
X3345332Y14181836D01*
X3334105Y14189557D01*
X3321964Y14195653D01*
X3309112Y14200124D01*
X3295802Y14202816D01*
X3282238Y14203730D01*
X3268675Y14202816D01*
X3255314Y14200124D01*
X3242462Y14195653D01*
X3230321Y14189557D01*
X3219145Y14181836D01*
X3209036Y14172692D01*
X3200247Y14162328D01*
X3192932Y14150848D01*
X3187192Y14138503D01*
X3183178Y14125498D01*
X3180892Y14112087D01*
X3180435Y14098524D01*
X3181807Y14084960D01*
X3184956Y14071752D01*
X3189884Y14059052D01*
X3196386Y14047114D01*
X3204464Y14036192D01*
X3213912Y14026388D01*
X3224580Y14017955D01*
X3236315Y14011046D01*
X3248812Y14005712D01*
X3261969Y14002105D01*
G37*
G36*
X2259431Y14000327D02*
G01*
X2273046Y14000327D01*
X2286508Y14002105D01*
X2299614Y14005712D01*
X2312162Y14011046D01*
X2323846Y14017955D01*
X2334564Y14026388D01*
X2344013Y14036192D01*
X2352090Y14047114D01*
X2358593Y14059052D01*
X2363470Y14071752D01*
X2366670Y14084960D01*
X2367991Y14098524D01*
X2367534Y14112087D01*
X2365298Y14125498D01*
X2361285Y14138503D01*
X2355545Y14150848D01*
X2348230Y14162328D01*
X2339441Y14172692D01*
X2329332Y14181836D01*
X2318105Y14189557D01*
X2305964Y14195653D01*
X2293112Y14200124D01*
X2279802Y14202816D01*
X2266238Y14203730D01*
X2252675Y14202816D01*
X2239314Y14200124D01*
X2226462Y14195653D01*
X2214321Y14189557D01*
X2203145Y14181836D01*
X2193036Y14172692D01*
X2184247Y14162328D01*
X2176932Y14150848D01*
X2171192Y14138503D01*
X2167178Y14125498D01*
X2164892Y14112087D01*
X2164435Y14098524D01*
X2165807Y14084960D01*
X2168956Y14071752D01*
X2173884Y14059052D01*
X2180386Y14047114D01*
X2188464Y14036192D01*
X2197912Y14026388D01*
X2208580Y14017955D01*
X2220315Y14011046D01*
X2232812Y14005712D01*
X2245969Y14002105D01*
G37*
G36*
X3529431Y14000327D02*
G01*
X3543046Y14000327D01*
X3556508Y14002105D01*
X3569614Y14005712D01*
X3582162Y14011046D01*
X3593846Y14017955D01*
X3604564Y14026388D01*
X3614013Y14036192D01*
X3622090Y14047114D01*
X3628593Y14059052D01*
X3633470Y14071752D01*
X3636670Y14084960D01*
X3637991Y14098524D01*
X3637534Y14112087D01*
X3635298Y14125498D01*
X3631285Y14138503D01*
X3625545Y14150848D01*
X3618229Y14162328D01*
X3609441Y14172692D01*
X3599332Y14181836D01*
X3588105Y14189557D01*
X3575964Y14195653D01*
X3563112Y14200124D01*
X3549802Y14202816D01*
X3536238Y14203730D01*
X3522675Y14202816D01*
X3509314Y14200124D01*
X3496462Y14195653D01*
X3484321Y14189557D01*
X3473145Y14181836D01*
X3463036Y14172692D01*
X3454247Y14162328D01*
X3446932Y14150848D01*
X3441192Y14138503D01*
X3437178Y14125498D01*
X3434892Y14112087D01*
X3434435Y14098524D01*
X3435807Y14084960D01*
X3438956Y14071752D01*
X3443884Y14059052D01*
X3450386Y14047114D01*
X3458464Y14036192D01*
X3467912Y14026388D01*
X3478580Y14017955D01*
X3490315Y14011046D01*
X3502812Y14005712D01*
X3515969Y14002105D01*
G37*
G36*
X823569Y13997940D02*
G01*
X832053Y14002410D01*
X843686Y14010487D01*
X854151Y14020038D01*
X863346Y14030807D01*
X871118Y14042694D01*
X873709Y14048130D01*
X823569Y14048130D01*
G37*
G36*
X725830Y13997889D02*
G01*
X725830Y14048130D01*
X675487Y14048130D01*
X681990Y14036649D01*
X690473Y14025270D01*
X700328Y14015110D01*
X711403Y14006271D01*
X723544Y13998905D01*
G37*
G36*
X4140301Y13635939D02*
G01*
X4187342Y13635939D01*
X4186732Y13637412D01*
X4179773Y13649096D01*
X4171340Y13659764D01*
X4161586Y13669213D01*
X4150614Y13677290D01*
X4140301Y13682980D01*
G37*
G36*
X5664301Y13635939D02*
G01*
X5711342Y13635939D01*
X5710732Y13637412D01*
X5703773Y13649096D01*
X5695340Y13659764D01*
X5685586Y13669213D01*
X5674614Y13677290D01*
X5664301Y13682980D01*
G37*
G36*
X4004462Y13635939D02*
G01*
X4051401Y13635939D01*
X4051401Y13682827D01*
X4046880Y13680744D01*
X4035450Y13673429D01*
X4025036Y13664641D01*
X4015892Y13654582D01*
X4008221Y13643356D01*
G37*
G36*
X5528462Y13635939D02*
G01*
X5575401Y13635939D01*
X5575401Y13682827D01*
X5570880Y13680744D01*
X5559450Y13673429D01*
X5549036Y13664641D01*
X5539892Y13654582D01*
X5532221Y13643356D01*
G37*
G36*
X3495903Y13619175D02*
G01*
X3509518Y13619175D01*
X3522979Y13621004D01*
X3536086Y13624560D01*
X3548634Y13629894D01*
X3560318Y13636802D01*
X3570986Y13645235D01*
X3580485Y13655040D01*
X3588512Y13665962D01*
X3595065Y13677900D01*
X3599942Y13690600D01*
X3603091Y13703807D01*
X3604463Y13717371D01*
X3604006Y13730986D01*
X3601770Y13744397D01*
X3597706Y13757351D01*
X3592017Y13769695D01*
X3584701Y13781176D01*
X3575913Y13791539D01*
X3565804Y13800683D01*
X3554577Y13808405D01*
X3542436Y13814501D01*
X3529584Y13818971D01*
X3516274Y13821714D01*
X3502710Y13822578D01*
X3489147Y13821714D01*
X3475786Y13818971D01*
X3462934Y13814501D01*
X3450793Y13808405D01*
X3439566Y13800683D01*
X3429508Y13791539D01*
X3420719Y13781176D01*
X3413404Y13769695D01*
X3407664Y13757351D01*
X3403650Y13744397D01*
X3401364Y13730986D01*
X3400907Y13717371D01*
X3402279Y13703807D01*
X3405428Y13690600D01*
X3410305Y13677900D01*
X3416858Y13665962D01*
X3424936Y13655040D01*
X3434384Y13645235D01*
X3445052Y13636802D01*
X3456787Y13629894D01*
X3469284Y13624560D01*
X3482390Y13621004D01*
G37*
G36*
X2388362Y13619175D02*
G01*
X2401976Y13619175D01*
X2415438Y13621004D01*
X2428544Y13624560D01*
X2441092Y13629894D01*
X2452776Y13636802D01*
X2463495Y13645235D01*
X2472944Y13655040D01*
X2481021Y13665962D01*
X2487523Y13677900D01*
X2492400Y13690600D01*
X2495600Y13703807D01*
X2496921Y13717371D01*
X2496464Y13730986D01*
X2494229Y13744397D01*
X2490216Y13757351D01*
X2484475Y13769695D01*
X2477160Y13781176D01*
X2468372Y13791539D01*
X2458262Y13800683D01*
X2447036Y13808405D01*
X2434894Y13814501D01*
X2422042Y13818971D01*
X2408732Y13821714D01*
X2395169Y13822578D01*
X2381605Y13821714D01*
X2368245Y13818971D01*
X2355392Y13814501D01*
X2343251Y13808405D01*
X2332075Y13800683D01*
X2321966Y13791539D01*
X2313178Y13781176D01*
X2305862Y13769695D01*
X2300122Y13757351D01*
X2296109Y13744397D01*
X2293823Y13730986D01*
X2293366Y13717371D01*
X2294737Y13703807D01*
X2297887Y13690600D01*
X2302814Y13677900D01*
X2309317Y13665962D01*
X2317394Y13655040D01*
X2326843Y13645235D01*
X2337511Y13636802D01*
X2349246Y13629894D01*
X2361742Y13624560D01*
X2374900Y13621004D01*
G37*
G36*
X4051401Y13500100D02*
G01*
X4051401Y13547039D01*
X4004462Y13547039D01*
X4008221Y13539571D01*
X4015892Y13528344D01*
X4025036Y13518286D01*
X4035450Y13509498D01*
X4046880Y13502182D01*
G37*
G36*
X5575401Y13500100D02*
G01*
X5575401Y13547039D01*
X5528462Y13547039D01*
X5532221Y13539571D01*
X5539892Y13528344D01*
X5549036Y13518286D01*
X5559450Y13509498D01*
X5570880Y13502182D01*
G37*
G36*
X4140301Y13499947D02*
G01*
X4150614Y13505637D01*
X4161586Y13513714D01*
X4171340Y13523163D01*
X4179773Y13533831D01*
X4186732Y13545515D01*
X4187342Y13547039D01*
X4140301Y13547039D01*
G37*
G36*
X4353255Y13489686D02*
G01*
X4366768Y13491057D01*
X4380026Y13494207D01*
X4392676Y13499084D01*
X4404614Y13505637D01*
X4415586Y13513714D01*
X4425340Y13523163D01*
X4433773Y13533831D01*
X4440732Y13545515D01*
X4446016Y13558062D01*
X4449622Y13571169D01*
X4451451Y13584682D01*
X4451451Y13598245D01*
X4449622Y13611758D01*
X4446016Y13624864D01*
X4440732Y13637412D01*
X4433773Y13649096D01*
X4425340Y13659764D01*
X4415586Y13669213D01*
X4404614Y13677290D01*
X4392676Y13683843D01*
X4380026Y13688720D01*
X4366768Y13691869D01*
X4353255Y13693241D01*
X4339640Y13692784D01*
X4326229Y13690498D01*
X4313224Y13686485D01*
X4300880Y13680744D01*
X4289450Y13673429D01*
X4279036Y13664641D01*
X4269892Y13654582D01*
X4262221Y13643356D01*
X4256074Y13631214D01*
X4251604Y13618362D01*
X4248912Y13605052D01*
X4247997Y13591489D01*
X4248912Y13577874D01*
X4251604Y13564565D01*
X4256074Y13551712D01*
X4262221Y13539571D01*
X4269892Y13528344D01*
X4279036Y13518286D01*
X4289450Y13509498D01*
X4300880Y13502182D01*
X4313224Y13496442D01*
X4326229Y13492429D01*
X4339640Y13490143D01*
G37*
G36*
X4607255Y13489686D02*
G01*
X4620768Y13491057D01*
X4634026Y13494207D01*
X4646676Y13499084D01*
X4658614Y13505637D01*
X4669586Y13513714D01*
X4679340Y13523163D01*
X4687773Y13533831D01*
X4694732Y13545515D01*
X4700016Y13558062D01*
X4703622Y13571169D01*
X4705451Y13584682D01*
X4705451Y13598245D01*
X4703622Y13611758D01*
X4700016Y13624864D01*
X4694732Y13637412D01*
X4687773Y13649096D01*
X4679340Y13659764D01*
X4669586Y13669213D01*
X4658614Y13677290D01*
X4646676Y13683843D01*
X4634026Y13688720D01*
X4620768Y13691869D01*
X4607255Y13693241D01*
X4593640Y13692784D01*
X4580229Y13690498D01*
X4567224Y13686485D01*
X4554880Y13680744D01*
X4543450Y13673429D01*
X4533036Y13664641D01*
X4523892Y13654582D01*
X4516221Y13643356D01*
X4510074Y13631214D01*
X4505604Y13618362D01*
X4502912Y13605052D01*
X4501997Y13591489D01*
X4502912Y13577874D01*
X4505604Y13564565D01*
X4510074Y13551712D01*
X4516221Y13539571D01*
X4523892Y13528344D01*
X4533036Y13518286D01*
X4543450Y13509498D01*
X4554880Y13502182D01*
X4567224Y13496442D01*
X4580229Y13492429D01*
X4593640Y13490143D01*
G37*
G36*
X5369255Y13489686D02*
G01*
X5382768Y13491057D01*
X5396026Y13494207D01*
X5408676Y13499084D01*
X5420614Y13505637D01*
X5431586Y13513714D01*
X5441340Y13523163D01*
X5449773Y13533831D01*
X5456732Y13545515D01*
X5462016Y13558062D01*
X5465622Y13571169D01*
X5467451Y13584682D01*
X5467451Y13598245D01*
X5465622Y13611758D01*
X5462016Y13624864D01*
X5456732Y13637412D01*
X5449773Y13649096D01*
X5441340Y13659764D01*
X5431586Y13669213D01*
X5420614Y13677290D01*
X5408676Y13683843D01*
X5396026Y13688720D01*
X5382768Y13691869D01*
X5369255Y13693241D01*
X5355640Y13692784D01*
X5342229Y13690498D01*
X5329224Y13686485D01*
X5316880Y13680744D01*
X5305450Y13673429D01*
X5295036Y13664641D01*
X5285892Y13654582D01*
X5278221Y13643356D01*
X5272074Y13631214D01*
X5267604Y13618362D01*
X5264912Y13605052D01*
X5263997Y13591489D01*
X5264912Y13577874D01*
X5267604Y13564565D01*
X5272074Y13551712D01*
X5278221Y13539571D01*
X5285892Y13528344D01*
X5295036Y13518286D01*
X5305450Y13509498D01*
X5316880Y13502182D01*
X5329224Y13496442D01*
X5342229Y13492429D01*
X5355640Y13490143D01*
G37*
G36*
X6333591Y13143687D02*
G01*
X6385306Y13143687D01*
X6379514Y13154253D01*
X6371031Y13165886D01*
X6361226Y13176351D01*
X6350101Y13185546D01*
X6337960Y13193217D01*
X6333591Y13195300D01*
G37*
G36*
X6180277Y13143687D02*
G01*
X6231991Y13143687D01*
X6231991Y13195300D01*
X6227622Y13193217D01*
X6215481Y13185546D01*
X6204407Y13176351D01*
X6194552Y13165886D01*
X6186119Y13154253D01*
G37*
G36*
X6333591Y12990423D02*
G01*
X6337960Y12992506D01*
X6350101Y13000228D01*
X6361226Y13009371D01*
X6371031Y13019887D01*
X6379514Y13031520D01*
X6385306Y13042087D01*
X6333591Y13042087D01*
G37*
G36*
X5410301Y12737947D02*
G01*
X5420614Y12743637D01*
X5431586Y12751714D01*
X5441340Y12761163D01*
X5449773Y12771831D01*
X5456732Y12783515D01*
X5457342Y12785039D01*
X5410301Y12785039D01*
G37*
G36*
X4648301Y12737947D02*
G01*
X4658614Y12743637D01*
X4669586Y12751714D01*
X4679340Y12761163D01*
X4687773Y12771831D01*
X4694732Y12783515D01*
X4695342Y12785039D01*
X4648301Y12785039D01*
G37*
G36*
X5321401Y12738100D02*
G01*
X5321401Y12785039D01*
X5274462Y12785039D01*
X5278221Y12777571D01*
X5285892Y12766344D01*
X5295036Y12756286D01*
X5305450Y12747498D01*
X5316880Y12740182D01*
G37*
G36*
X4559401Y12738100D02*
G01*
X4559401Y12785039D01*
X4512462Y12785039D01*
X4516221Y12777571D01*
X4523892Y12766344D01*
X4533036Y12756286D01*
X4543450Y12747498D01*
X4554880Y12740182D01*
G37*
G36*
X5410301Y12873939D02*
G01*
X5457342Y12873939D01*
X5456732Y12875412D01*
X5449773Y12887096D01*
X5441340Y12897764D01*
X5431586Y12907213D01*
X5420614Y12915290D01*
X5410301Y12920980D01*
G37*
G36*
X6045504Y10670032D02*
G01*
X6232347Y10670032D01*
X6238595Y10670743D01*
X6244031Y10672622D01*
X6248857Y10675670D01*
X6252921Y10679734D01*
X6255969Y10684560D01*
X6258458Y10689183D01*
X6261862Y10691622D01*
X6265926Y10692434D01*
X6269990Y10691622D01*
X6273393Y10689183D01*
X6275882Y10684560D01*
X6278930Y10679734D01*
X6282994Y10675670D01*
X6287820Y10672622D01*
X6293256Y10670743D01*
X6299504Y10670032D01*
X6486347Y10670032D01*
X6492595Y10670743D01*
X6498031Y10672622D01*
X6502857Y10675670D01*
X6506921Y10679734D01*
X6509969Y10684560D01*
X6511848Y10689996D01*
X6512559Y10696244D01*
X6512559Y10883087D01*
X6511848Y10889335D01*
X6509969Y10894771D01*
X6506921Y10899597D01*
X6502857Y10903661D01*
X6498031Y10906709D01*
X6493408Y10909198D01*
X6490970Y10912602D01*
X6490157Y10916666D01*
X6490970Y10920730D01*
X6493408Y10924133D01*
X6498031Y10926622D01*
X6502857Y10929670D01*
X6506921Y10933734D01*
X6509969Y10938560D01*
X6511848Y10943996D01*
X6512559Y10950244D01*
X6512559Y11137087D01*
X6511848Y11143335D01*
X6509969Y11148771D01*
X6506921Y11153597D01*
X6502857Y11157661D01*
X6498031Y11160709D01*
X6493408Y11163198D01*
X6490970Y11166602D01*
X6490157Y11170666D01*
X6490970Y11174730D01*
X6493408Y11178133D01*
X6498031Y11180622D01*
X6502857Y11183670D01*
X6506921Y11187734D01*
X6509969Y11192560D01*
X6511848Y11197996D01*
X6512559Y11204244D01*
X6512559Y11391087D01*
X6511848Y11397335D01*
X6509969Y11402771D01*
X6506921Y11407597D01*
X6502857Y11411661D01*
X6498031Y11414709D01*
X6492595Y11416588D01*
X6486347Y11417300D01*
X6299504Y11417300D01*
X6293256Y11416588D01*
X6287820Y11414709D01*
X6282994Y11411661D01*
X6278930Y11407597D01*
X6275882Y11402771D01*
X6273393Y11398148D01*
X6269990Y11395710D01*
X6265926Y11394897D01*
X6261862Y11395710D01*
X6258458Y11398148D01*
X6255969Y11402771D01*
X6252921Y11407597D01*
X6248857Y11411661D01*
X6244031Y11414709D01*
X6238595Y11416588D01*
X6232347Y11417300D01*
X6045504Y11417300D01*
X6039256Y11416588D01*
X6033820Y11414709D01*
X6028994Y11411661D01*
X6024930Y11407597D01*
X6021882Y11402771D01*
X6018936Y11393830D01*
X6016650Y11390884D01*
X6013500Y11389004D01*
X6009894Y11388344D01*
X5199380Y11388344D01*
X5189677Y11387836D01*
X5177485Y11385702D01*
X5165699Y11381943D01*
X5163159Y11380876D01*
X5154523Y11376609D01*
X5144211Y11369802D01*
X5142026Y11368074D01*
X5134813Y11361572D01*
X4870602Y11097361D01*
X4867605Y11095278D01*
X4864049Y11094415D01*
X4853584Y11093754D01*
X4838496Y11091011D01*
X4823815Y11086439D01*
X4809794Y11080140D01*
X4796637Y11072164D01*
X4784547Y11062716D01*
X4773676Y11051844D01*
X4764227Y11039754D01*
X4756251Y11026597D01*
X4749952Y11012576D01*
X4745380Y10997895D01*
X4742637Y10982807D01*
X4741672Y10967466D01*
X4742637Y10952124D01*
X4745380Y10937036D01*
X4749952Y10922355D01*
X4756251Y10908334D01*
X4764227Y10895177D01*
X4773676Y10883087D01*
X4780432Y10876330D01*
X4782667Y10873028D01*
X4783429Y10869168D01*
X4782667Y10865256D01*
X4780432Y10861954D01*
X4777181Y10859770D01*
X4773269Y10859008D01*
X4601819Y10859008D01*
X4597958Y10859770D01*
X4594656Y10861954D01*
X4490821Y10965789D01*
X4488738Y10968786D01*
X4487875Y10972342D01*
X4487214Y10982807D01*
X4484471Y10997895D01*
X4479899Y11012576D01*
X4473600Y11026597D01*
X4465624Y11039754D01*
X4456176Y11051844D01*
X4445304Y11062716D01*
X4433214Y11072164D01*
X4420057Y11080140D01*
X4406036Y11086439D01*
X4391355Y11091011D01*
X4376267Y11093754D01*
X4360926Y11094720D01*
X4345584Y11093754D01*
X4330496Y11091011D01*
X4315815Y11086439D01*
X4301794Y11080140D01*
X4288637Y11072164D01*
X4276547Y11062716D01*
X4265676Y11051844D01*
X4256227Y11039754D01*
X4248251Y11026597D01*
X4241952Y11012576D01*
X4237380Y10997895D01*
X4234637Y10982807D01*
X4233672Y10967466D01*
X4234637Y10952124D01*
X4237380Y10937036D01*
X4241952Y10922355D01*
X4248251Y10908334D01*
X4256227Y10895177D01*
X4265676Y10883087D01*
X4276547Y10872216D01*
X4288637Y10862767D01*
X4301794Y10854791D01*
X4315815Y10848492D01*
X4330496Y10843920D01*
X4345584Y10841177D01*
X4356049Y10840516D01*
X4359605Y10839653D01*
X4362602Y10837570D01*
X4495800Y10704423D01*
X4505147Y10696194D01*
X4515510Y10689386D01*
X4524095Y10685119D01*
X4526635Y10684052D01*
X4538421Y10680293D01*
X4550613Y10678160D01*
X4560316Y10677652D01*
X5639054Y10677652D01*
X5648706Y10678160D01*
X5651500Y10678515D01*
X5660898Y10680293D01*
X5663590Y10681004D01*
X5672683Y10684052D01*
X5675274Y10685119D01*
X5683859Y10689386D01*
X5686247Y10690809D01*
X5694172Y10696194D01*
X5696356Y10697921D01*
X5703570Y10704372D01*
X5949442Y10950041D01*
X5952744Y10952226D01*
X5956604Y10953038D01*
X6009894Y10953038D01*
X6013500Y10952327D01*
X6016650Y10950448D01*
X6018936Y10947501D01*
X6021882Y10938560D01*
X6024930Y10933734D01*
X6028994Y10929670D01*
X6033820Y10926622D01*
X6038443Y10924133D01*
X6040882Y10920730D01*
X6041694Y10916666D01*
X6040882Y10912602D01*
X6038443Y10909198D01*
X6033820Y10906709D01*
X6028994Y10903661D01*
X6024930Y10899597D01*
X6021882Y10894771D01*
X6020003Y10889335D01*
X6019292Y10883087D01*
X6019292Y10696244D01*
X6020003Y10689996D01*
X6021882Y10684560D01*
X6024930Y10679734D01*
X6028994Y10675670D01*
X6033820Y10672622D01*
X6039256Y10670743D01*
G37*
G36*
X2722321Y12878308D02*
G01*
X2734665Y12878308D01*
X2746908Y12879984D01*
X2758846Y12883337D01*
X2770174Y12888264D01*
X2780741Y12894665D01*
X2790342Y12902488D01*
X2798775Y12911531D01*
X2805938Y12921640D01*
X2811627Y12932613D01*
X2815742Y12944246D01*
X2818282Y12956387D01*
X2819146Y12969087D01*
X2819146Y13459409D01*
X2819908Y13463269D01*
X2822092Y13466572D01*
X2972968Y13617448D01*
X2976168Y13619581D01*
X2989376Y13625169D01*
X3001060Y13632129D01*
X3011728Y13640562D01*
X3021177Y13650315D01*
X3029254Y13661288D01*
X3035808Y13673226D01*
X3040684Y13685875D01*
X3043834Y13699134D01*
X3045206Y13712647D01*
X3044748Y13726261D01*
X3042462Y13739672D01*
X3038449Y13752677D01*
X3032709Y13765022D01*
X3025394Y13776451D01*
X3016605Y13786866D01*
X3006547Y13796010D01*
X2995320Y13803680D01*
X2983179Y13809827D01*
X2970326Y13814298D01*
X2957017Y13816990D01*
X2943453Y13817904D01*
X2929839Y13816990D01*
X2916529Y13814298D01*
X2903677Y13809827D01*
X2891536Y13803680D01*
X2880309Y13796010D01*
X2870250Y13786866D01*
X2861462Y13776451D01*
X2854147Y13765022D01*
X2848406Y13752677D01*
X2846628Y13747902D01*
X2845104Y13745972D01*
X2664561Y13565428D01*
X2658059Y13558215D01*
X2656382Y13556081D01*
X2650947Y13548106D01*
X2645257Y13537133D01*
X2641142Y13525449D01*
X2640431Y13522807D01*
X2638653Y13513307D01*
X2638348Y13510615D01*
X2637840Y13500912D01*
X2637840Y12969087D01*
X2638704Y12956387D01*
X2641193Y12944246D01*
X2645359Y12932613D01*
X2651048Y12921640D01*
X2658160Y12911531D01*
X2666644Y12902488D01*
X2676194Y12894665D01*
X2686812Y12888264D01*
X2698140Y12883337D01*
X2710027Y12879984D01*
G37*

%LPD*%
D11*
X-20573Y12326368D02*
G01*
X-279651Y12326368D01*
X1820926Y10967465D02*
G01*
X1820926Y11234674D01*
X1574800Y11480800D01*
X406400Y11480800D01*
X60705Y11826494D01*
X60705Y12326365D01*
D12*
X6282690Y12584937D02*
G01*
X6578600Y12880847D01*
X6578600Y13143108D01*
X5734377Y13855700D02*
G01*
X5121909Y13855700D01*
X4857750Y13591539D01*
X2943357Y12686029D02*
G01*
X3564641Y13307060D01*
X4827521Y13307060D01*
X5111747Y13591537D01*
X6138920Y11297668D02*
G01*
X5199120Y11297668D01*
X4868920Y10967468D01*
X60705Y12326368D02*
G01*
X-20573Y12326368D01*
X5864357Y12584937D02*
G01*
X5619747Y12829537D01*
X6282690Y12584937D02*
G01*
X5864357Y12584937D01*
X5864357Y12584937D02*
G01*
X5864357Y11868406D01*
X5602483Y11606529D01*
X3475990Y11606529D01*
X2836920Y10967468D01*
D11*
X60705Y10980168D02*
G01*
X-279651Y10980168D01*
D12*
X2395225Y12690853D02*
G01*
X2570482Y12515342D01*
X3781806Y12515342D01*
X4095747Y12829537D01*
X6138920Y11043668D02*
G01*
X5914897Y11043668D01*
X5914897Y11043668D02*
G01*
X5639305Y10768329D01*
X4560064Y10768329D01*
X4360920Y10967468D01*
D11*
X-20573Y12326368D02*
G01*
X-20573Y13329668D01*
X804926Y10967468D02*
G01*
X73405Y10967468D01*
X60705Y10980168D01*
X1820926Y10967468D02*
G01*
X2186940Y11333479D01*
X2470901Y11333479D01*
X2836920Y10967468D01*
D12*
X3502654Y12690853D02*
G01*
X3814572Y13002768D01*
X4684770Y13002768D01*
X4857747Y12829537D01*
X3822700Y13539777D02*
G01*
X3822700Y13626337D01*
X4298188Y14101826D01*
X2728483Y12968716D02*
G01*
X2728483Y13501156D01*
X2943428Y13716101D01*
D13*
X-102107Y14097000D02*
G01*
X-102107Y13907007D01*
X0Y13804900D01*
X584200Y13804900D01*
X825500Y13563600D01*
X825500Y12077700D01*
X901700Y12001500D01*
X3860800Y12001500D01*
X4076700Y12217400D01*
X5168900Y12217400D01*
X5308600Y12077700D01*
X5308600Y11821668D01*
X5314188Y11815826D01*
X-356151Y14097033D02*
G01*
X-356151Y13665243D01*
X-20573Y13329666D01*
D12*
X3790188Y14101826D02*
G01*
X3985006Y14296644D01*
X5617209Y14296644D01*
X5924041Y13989812D01*
X5924041Y13641831D01*
X5111750Y12829539D01*
X520700Y14097000D02*
G01*
X520700Y14236700D01*
X581660Y14297660D01*
X1945640Y14297660D01*
X2006600Y14236700D01*
X2006600Y14107668D01*
X2012188Y14101826D01*
X-356107Y14097000D02*
G01*
X-356107Y14236192D01*
X-294386Y14297913D01*
X154686Y14297913D01*
X266700Y14185900D01*
X266700Y14097000D01*
D16*
G01*
X-102158Y14097025D03*
G01*
X-356158Y14097025D03*
G36*
X181698Y14182001D02*
G01*
X351701Y14182001D01*
X351701Y14011998D01*
X181698Y14011998D01*
G37*
D18*
G01*
X520700Y14097000D03*
G01*
X774700Y14097000D03*
D19*
G01*
X1758238Y11815927D03*
G01*
X2012238Y11815927D03*
G01*
X2266238Y11815927D03*
G01*
X2520238Y11815927D03*
G01*
X2774238Y11815927D03*
G01*
X3028238Y11815927D03*
G01*
X3282238Y11815927D03*
G01*
X3536238Y11815927D03*
G01*
X3790238Y11815927D03*
G01*
X4044238Y11815927D03*
G01*
X4298238Y11815927D03*
G01*
X4552238Y11815927D03*
G01*
X4806238Y11815927D03*
G01*
X5060238Y11815927D03*
G01*
X5314238Y11815927D03*
G01*
X5568238Y11815927D03*
G01*
X1758238Y14101927D03*
G01*
X2012238Y14101927D03*
G01*
X2266238Y14101927D03*
G01*
X2520238Y14101927D03*
G01*
X2774238Y14101927D03*
G01*
X3028238Y14101927D03*
G01*
X3282238Y14101927D03*
G01*
X3536238Y14101927D03*
G01*
X3790238Y14101927D03*
G01*
X4044238Y14101927D03*
G01*
X4298238Y14101927D03*
G01*
X4552238Y14101927D03*
G01*
X4806238Y14101927D03*
G01*
X5060238Y14101927D03*
G01*
X5314238Y14101927D03*
G01*
X5568238Y14101927D03*
D20*
G01*
X3852925Y10967465D03*
G01*
X4360925Y10967465D03*
G01*
X2836925Y10967465D03*
G01*
X3344925Y10967465D03*
G01*
X1820926Y10967465D03*
G01*
X2328925Y10967465D03*
G01*
X4868925Y10967465D03*
G01*
X5376925Y10967465D03*
G01*
X804926Y10967465D03*
G01*
X1312926Y10967465D03*
D19*
G01*
X-20573Y13329666D03*
G01*
X487426Y13329666D03*
G01*
X5619851Y13591489D03*
G01*
X4857851Y13591489D03*
G01*
X5111851Y13591489D03*
G01*
X5365851Y13591489D03*
G01*
X4857851Y12829489D03*
G01*
X5619851Y12829489D03*
G01*
X5365851Y12829489D03*
G01*
X5111851Y12829489D03*
G01*
X4603851Y13591489D03*
G01*
X4349826Y13591489D03*
G01*
X4095826Y13591489D03*
G01*
X4095826Y12829489D03*
G01*
X4603851Y12829489D03*
G01*
X4349826Y12829489D03*
D21*
G01*
X6282791Y13092912D03*
G01*
X6282791Y12584912D03*
D22*
G01*
X6138925Y11297665D03*
G01*
X6392925Y11297665D03*
G01*
X6138925Y11043665D03*
G01*
X6392925Y11043665D03*
G01*
X6138925Y10789665D03*
G01*
X6392925Y10789665D03*
D19*
G01*
X3502710Y12690779D03*
G01*
X3502710Y13720800D03*
G01*
X2395169Y12690779D03*
G01*
X2395169Y13720800D03*
G01*
X2943428Y12686080D03*
G01*
X2943428Y13716101D03*
D14*
G01*
X6578600Y13143103D03*
G01*
X5734380Y13855700D03*
G01*
X3822700Y13539774D03*
G01*
X2728493Y12968706D03*
D15*
G01*
X-164693Y13734745D03*
G01*
X375310Y13464768D03*
G01*
X375310Y13194766D03*
G01*
X375310Y12924764D03*
G01*
X375310Y12654762D03*
G01*
X375310Y12384760D03*
G01*
X375310Y12114758D03*
G01*
X645312Y13464768D03*
G01*
X645312Y13194766D03*
G01*
X645312Y12924764D03*
G01*
X645312Y12654762D03*
G01*
X645312Y12384760D03*
G01*
X645312Y12114758D03*
G01*
X645312Y11844756D03*
G01*
X1995297Y11574754D03*
G01*
X2805302Y11574754D03*
G01*
X3075304Y11574754D03*
G01*
X-492048Y13477849D03*
G01*
X-492048Y13207847D03*
G01*
X-492048Y12937845D03*
G01*
X-492048Y12667843D03*
G01*
X-492048Y11857837D03*
G01*
X-492048Y11587835D03*
G01*
X-492048Y11317833D03*
G01*
X-492048Y10507853D03*
G01*
X-222046Y11587835D03*
G01*
X-222046Y11317833D03*
G01*
X-222046Y10507853D03*
G01*
X47955Y11317833D03*
G01*
X47955Y10507853D03*
G01*
X317957Y10507853D03*
G01*
X587959Y10507853D03*
G01*
X857961Y10507853D03*
G01*
X1127963Y14017853D03*
G01*
X1127963Y11047856D03*
G01*
X1127963Y10777854D03*
G01*
X1127963Y10507853D03*
G01*
X1397965Y14017853D03*
G01*
X1397965Y10777854D03*
G01*
X1397965Y10507853D03*
G01*
X1667967Y10507853D03*
G01*
X1937943Y10507853D03*
G01*
X2207945Y14287855D03*
G01*
X2207945Y13477849D03*
G01*
X2207945Y10777854D03*
G01*
X2207945Y10507853D03*
G01*
X2477947Y14287855D03*
G01*
X2477947Y13477849D03*
G01*
X2477947Y12937845D03*
G01*
X2477947Y10777854D03*
G01*
X2477947Y10507853D03*
G01*
X2747949Y14287855D03*
G01*
X2747949Y13747851D03*
G01*
X2747949Y12667843D03*
G01*
X2747949Y10507853D03*
G01*
X3017951Y14287855D03*
G01*
X3017951Y13477849D03*
G01*
X3017951Y10507853D03*
G01*
X3287953Y14287855D03*
G01*
X3287953Y13747851D03*
G01*
X3287953Y12667843D03*
G01*
X3287953Y10777854D03*
G01*
X3287953Y10507853D03*
G01*
X3557955Y14287855D03*
G01*
X3557955Y13477849D03*
G01*
X3557955Y11317833D03*
G01*
X3557955Y11047856D03*
G01*
X3557955Y10777854D03*
G01*
X3557955Y10507853D03*
G01*
X3827957Y11317833D03*
G01*
X3827957Y10777854D03*
G01*
X3827957Y10507853D03*
G01*
X4097959Y11317833D03*
G01*
X4097959Y10777854D03*
G01*
X4097959Y10507853D03*
G01*
X4367961Y12667843D03*
G01*
X4367961Y11317833D03*
G01*
X4367961Y10507853D03*
G01*
X4637963Y12667843D03*
G01*
X4637963Y11317833D03*
G01*
X4637963Y10507853D03*
G01*
X4907965Y12667843D03*
G01*
X4907965Y11317833D03*
G01*
X4907965Y10507853D03*
G01*
X5177967Y13207847D03*
G01*
X5177967Y12667843D03*
G01*
X5177967Y10507853D03*
G01*
X5447944Y12667843D03*
G01*
X5717946Y13207847D03*
G01*
X5987948Y14287855D03*
G01*
X5987948Y13477849D03*
G01*
X5987948Y13207847D03*
G01*
X5987948Y12937845D03*
G01*
X6257950Y14287855D03*
G01*
X6257950Y14017853D03*
G01*
X6257950Y13477849D03*
G01*
X6257950Y12397841D03*
G01*
X6257950Y12127839D03*
G01*
X6527952Y14287855D03*
G01*
X6527952Y14017853D03*
G01*
X6527952Y12397841D03*
G01*
X6527952Y12127839D03*
G01*
X6527952Y11857837D03*
D23*
X-279679Y10880166D02*
G01*
X-279679Y11080165D01*
X60705Y10880166D02*
G01*
X60705Y11080165D01*
X-279679Y12226366D02*
G01*
X-279679Y12426365D01*
X60705Y12226366D02*
G01*
X60705Y12426365D01*
M02*
