G04 Layer: BottomLayer*
G04 EasyEDA v6.4.20.6, 2021-07-29T22:43:28+02:00*
G04 24e0db9a2a824a908a71db8b70acd879,4245c91a3b6e4cf7aa995480f5c7e4a3,10*
G04 Gerber Generator version 0.2*
G04 Scale: 100 percent, Rotated: No, Reflected: No *
G04 Dimensions in millimeters *
G04 leading zeros omitted , absolute positions ,4 integer and 5 decimal *
%FSLAX45Y45*%
%MOMM*%

%ADD11C,4.2000*%
%ADD12C,1.3000*%
%ADD14C,1.0000*%
%ADD15C,0.7000*%
%ADD16C,1.9304*%
%ADD18C,1.7000*%
%ADD19C,1.5240*%
%ADD20C,2.0320*%
%ADD21C,1.7780*%
%ADD22R,1.8796X1.8796*%
%ADD23C,2.0000*%

%LPD*%
G36*
X-551789Y10356138D02*
G01*
X-559206Y10357053D01*
X-563676Y10358577D01*
X-567740Y10360964D01*
X-571246Y10364165D01*
X-574090Y10367924D01*
X-576173Y10372191D01*
X-577342Y10376763D01*
X-577850Y10382199D01*
X-577850Y14347596D01*
X-576986Y14354962D01*
X-575411Y14359432D01*
X-573024Y14363547D01*
X-569874Y14367052D01*
X-566064Y14369897D01*
X-561797Y14371980D01*
X-557225Y14373148D01*
X-551789Y14373656D01*
X6803491Y14373656D01*
X6810908Y14372793D01*
X6815378Y14371218D01*
X6819442Y14368830D01*
X6822948Y14365681D01*
X6825792Y14361871D01*
X6827875Y14357604D01*
X6829044Y14353032D01*
X6829552Y14347596D01*
X6829552Y10382199D01*
X6828688Y10374833D01*
X6827113Y10370362D01*
X6824725Y10366248D01*
X6821576Y10362742D01*
X6817766Y10359898D01*
X6813499Y10357815D01*
X6808927Y10356646D01*
X6803491Y10356138D01*
X6443675Y10356138D01*
X6439712Y10356951D01*
X6436360Y10359237D01*
X6434175Y10362692D01*
X6433515Y10366654D01*
X6434429Y10370616D01*
X6436868Y10373868D01*
X6443980Y10380319D01*
X6641998Y10578338D01*
X6650228Y10587685D01*
X6657035Y10597997D01*
X6661302Y10606633D01*
X6662369Y10609173D01*
X6666128Y10620959D01*
X6668262Y10633151D01*
X6668770Y10642854D01*
X6668770Y11514328D01*
X6668262Y11524030D01*
X6666128Y11536222D01*
X6662369Y11548008D01*
X6661302Y11550548D01*
X6657035Y11559133D01*
X6650228Y11569496D01*
X6641998Y11578844D01*
X5664504Y12556642D01*
X5655106Y12564872D01*
X5644794Y12571679D01*
X5636158Y12575946D01*
X5633618Y12577013D01*
X5621832Y12580772D01*
X5609640Y12582906D01*
X5599938Y12583414D01*
X4097121Y12583414D01*
X4093210Y12584176D01*
X4089958Y12586360D01*
X3747262Y12929006D01*
X3737914Y12937236D01*
X3727602Y12944043D01*
X3718966Y12948310D01*
X3716426Y12949377D01*
X3704640Y12953136D01*
X3692448Y12955270D01*
X3682746Y12955778D01*
X2873857Y12955778D01*
X2869946Y12956540D01*
X2866694Y12958724D01*
X2792831Y13032587D01*
X2783230Y13040918D01*
X2772918Y13047726D01*
X2761742Y13053009D01*
X2749956Y13056768D01*
X2737764Y13058851D01*
X2725369Y13059308D01*
X2713075Y13058038D01*
X2701086Y13055092D01*
X2689555Y13050570D01*
X2678785Y13044474D01*
X2668930Y13037007D01*
X2660192Y13028269D01*
X2652725Y13018414D01*
X2646629Y13007644D01*
X2642108Y12996113D01*
X2639161Y12984124D01*
X2637891Y12971830D01*
X2638348Y12959435D01*
X2640431Y12947243D01*
X2644190Y12935458D01*
X2649474Y12924282D01*
X2656281Y12913969D01*
X2664612Y12904368D01*
X2767838Y12801193D01*
X2777185Y12792964D01*
X2787497Y12786156D01*
X2796133Y12781889D01*
X2798673Y12780822D01*
X2810459Y12777063D01*
X2822651Y12774930D01*
X2832354Y12774422D01*
X2863291Y12774422D01*
X2867050Y12773710D01*
X2870301Y12771678D01*
X2872536Y12768529D01*
X2873451Y12764820D01*
X2872892Y12761010D01*
X2871012Y12757708D01*
X2861411Y12746431D01*
X2854147Y12735001D01*
X2848406Y12722656D01*
X2844393Y12709652D01*
X2842107Y12696240D01*
X2841650Y12682677D01*
X2843022Y12669113D01*
X2846171Y12655905D01*
X2851048Y12643205D01*
X2857601Y12631267D01*
X2865678Y12620345D01*
X2875127Y12610541D01*
X2885795Y12602108D01*
X2897479Y12595199D01*
X2910027Y12589865D01*
X2923133Y12586258D01*
X2936646Y12584480D01*
X2950210Y12584480D01*
X2963722Y12586258D01*
X2976829Y12589865D01*
X2989376Y12595199D01*
X3001060Y12602108D01*
X3011728Y12610541D01*
X3021177Y12620345D01*
X3029254Y12631267D01*
X3035808Y12643205D01*
X3040684Y12655905D01*
X3043834Y12669113D01*
X3045206Y12682677D01*
X3044748Y12696240D01*
X3042462Y12709652D01*
X3038449Y12722656D01*
X3032709Y12735001D01*
X3025444Y12746431D01*
X3015843Y12757708D01*
X3013964Y12761010D01*
X3013405Y12764820D01*
X3014319Y12768529D01*
X3016554Y12771678D01*
X3019806Y12773710D01*
X3023565Y12774422D01*
X3418484Y12774422D01*
X3422243Y12773710D01*
X3425494Y12771678D01*
X3427729Y12768580D01*
X3428644Y12764871D01*
X3428136Y12761061D01*
X3426256Y12757708D01*
X3420719Y12751155D01*
X3413404Y12739725D01*
X3407664Y12727381D01*
X3403650Y12714376D01*
X3401364Y12700965D01*
X3400907Y12687350D01*
X3402279Y12673838D01*
X3405428Y12660579D01*
X3410305Y12647930D01*
X3416858Y12635992D01*
X3424936Y12625019D01*
X3434384Y12615265D01*
X3445052Y12606832D01*
X3456787Y12599873D01*
X3469284Y12594590D01*
X3482390Y12590983D01*
X3495903Y12589154D01*
X3509518Y12589154D01*
X3522979Y12590983D01*
X3536086Y12594590D01*
X3548634Y12599873D01*
X3560318Y12606832D01*
X3570986Y12615265D01*
X3580485Y12625019D01*
X3588512Y12635992D01*
X3595065Y12647930D01*
X3599942Y12660579D01*
X3603091Y12673838D01*
X3604463Y12687350D01*
X3604006Y12700965D01*
X3601770Y12714376D01*
X3597706Y12727381D01*
X3592017Y12739725D01*
X3584701Y12751155D01*
X3579164Y12757708D01*
X3577285Y12761061D01*
X3576777Y12764871D01*
X3577691Y12768580D01*
X3579926Y12771678D01*
X3583127Y12773710D01*
X3586886Y12774422D01*
X3641242Y12774422D01*
X3645154Y12773660D01*
X3648405Y12771475D01*
X3975608Y12444272D01*
X3977843Y12440970D01*
X3978605Y12437110D01*
X3977843Y12433198D01*
X3975608Y12429896D01*
X3972306Y12427712D01*
X3968445Y12426950D01*
X2475585Y12426950D01*
X2471674Y12427712D01*
X2468422Y12429896D01*
X2201824Y12696494D01*
X2199640Y12699746D01*
X2198878Y12703657D01*
X2198878Y13115442D01*
X2199640Y13119354D01*
X2201824Y13122605D01*
X2218994Y13139775D01*
X2222246Y13141960D01*
X2226157Y13142722D01*
X3014980Y13142722D01*
X3024682Y13143230D01*
X3036874Y13145363D01*
X3048660Y13149122D01*
X3051200Y13150189D01*
X3059836Y13154456D01*
X3070148Y13161263D01*
X3079496Y13169493D01*
X3532124Y13622121D01*
X3535375Y13624306D01*
X3548634Y13629894D01*
X3560318Y13636802D01*
X3570986Y13645235D01*
X3580485Y13655040D01*
X3588512Y13665962D01*
X3595065Y13677900D01*
X3599942Y13690600D01*
X3603091Y13703807D01*
X3604463Y13717371D01*
X3604006Y13730986D01*
X3601770Y13744397D01*
X3597706Y13757351D01*
X3592017Y13769695D01*
X3584701Y13781176D01*
X3575913Y13791539D01*
X3565804Y13800683D01*
X3554577Y13808405D01*
X3542436Y13814501D01*
X3529584Y13818971D01*
X3516274Y13821714D01*
X3502710Y13822578D01*
X3489147Y13821714D01*
X3475786Y13818971D01*
X3462934Y13814501D01*
X3450793Y13808405D01*
X3439566Y13800683D01*
X3429508Y13791539D01*
X3420719Y13781176D01*
X3413404Y13769695D01*
X3407664Y13757351D01*
X3405936Y13752677D01*
X3404412Y13750747D01*
X2980639Y13327024D01*
X2977388Y13324840D01*
X2973476Y13324078D01*
X2184654Y13324078D01*
X2174951Y13323569D01*
X2162759Y13321436D01*
X2150973Y13317677D01*
X2148433Y13316610D01*
X2139797Y13312343D01*
X2129485Y13305536D01*
X2120138Y13297306D01*
X2044293Y13221462D01*
X2036064Y13212114D01*
X2029256Y13201802D01*
X2024989Y13193166D01*
X2023922Y13190626D01*
X2020163Y13178840D01*
X2018030Y13166648D01*
X2017522Y13156946D01*
X2017522Y12662154D01*
X2018030Y12652451D01*
X2020163Y12640259D01*
X2023922Y12628473D01*
X2024989Y12625933D01*
X2029256Y12617297D01*
X2036064Y12606985D01*
X2044293Y12597638D01*
X2369566Y12272365D01*
X2378913Y12264136D01*
X2389225Y12257328D01*
X2397861Y12253061D01*
X2400401Y12251994D01*
X2412187Y12248235D01*
X2424379Y12246102D01*
X2434082Y12245594D01*
X5476392Y12245594D01*
X5480304Y12244832D01*
X5483555Y12242647D01*
X5555488Y12170714D01*
X5557723Y12167412D01*
X5558485Y12163552D01*
X5557723Y12159640D01*
X5555488Y12156338D01*
X5552186Y12154154D01*
X5548325Y12153392D01*
X2330043Y12153392D01*
X2326132Y12154154D01*
X2322880Y12156338D01*
X1922424Y12556794D01*
X1920239Y12560046D01*
X1919478Y12563957D01*
X1919478Y13483742D01*
X1920239Y13487654D01*
X1922424Y13490905D01*
X2053894Y13622375D01*
X2057146Y13624560D01*
X2061057Y13625322D01*
X2357882Y13625322D01*
X2360625Y13624966D01*
X2374900Y13620953D01*
X2388362Y13619175D01*
X2401976Y13619175D01*
X2415438Y13621004D01*
X2428544Y13624560D01*
X2441092Y13629894D01*
X2452776Y13636802D01*
X2463495Y13645235D01*
X2472944Y13655040D01*
X2481021Y13665962D01*
X2487523Y13677900D01*
X2492400Y13690600D01*
X2495600Y13703807D01*
X2496921Y13717371D01*
X2496464Y13730986D01*
X2494229Y13744397D01*
X2490216Y13757351D01*
X2484475Y13769695D01*
X2477160Y13781176D01*
X2468372Y13791539D01*
X2458262Y13800683D01*
X2447036Y13808405D01*
X2434894Y13814501D01*
X2422042Y13818971D01*
X2408732Y13821714D01*
X2395169Y13822578D01*
X2381605Y13821714D01*
X2368245Y13818971D01*
X2355443Y13814551D01*
X2342235Y13807744D01*
X2339949Y13806932D01*
X2337612Y13806678D01*
X2019554Y13806678D01*
X2009851Y13806169D01*
X1997659Y13804036D01*
X1985873Y13800277D01*
X1983333Y13799210D01*
X1974697Y13794943D01*
X1964385Y13788136D01*
X1955038Y13779906D01*
X1762760Y13587476D01*
X1759508Y13585037D01*
X1755597Y13584123D01*
X1751584Y13584783D01*
X1748180Y13586968D01*
X1745894Y13590320D01*
X1745081Y13594283D01*
X1745081Y13839850D01*
X1744065Y13840866D01*
X1023467Y13840866D01*
X1022451Y13839850D01*
X1019911Y12089231D01*
X1020927Y12088266D01*
X1742795Y12088266D01*
X1744878Y12089587D01*
X1745081Y12090501D01*
X1745081Y12453416D01*
X1745894Y12457379D01*
X1748180Y12460732D01*
X1751584Y12462916D01*
X1755597Y12463576D01*
X1759508Y12462662D01*
X1762760Y12460224D01*
X2224024Y11998807D01*
X2233371Y11990578D01*
X2243683Y11983770D01*
X2252319Y11979503D01*
X2254859Y11978436D01*
X2266645Y11974677D01*
X2278837Y11972544D01*
X2288540Y11972036D01*
X5523636Y11972036D01*
X5527548Y11971274D01*
X5530799Y11969089D01*
X5565444Y11934444D01*
X5567629Y11931243D01*
X5568442Y11927484D01*
X5567781Y11923674D01*
X5565749Y11920423D01*
X5562650Y11918086D01*
X5558942Y11917121D01*
X5554675Y11916816D01*
X5541314Y11914124D01*
X5528462Y11909653D01*
X5516321Y11903557D01*
X5505145Y11895836D01*
X5495036Y11886692D01*
X5486247Y11876328D01*
X5478932Y11864848D01*
X5473192Y11852503D01*
X5469178Y11839498D01*
X5466892Y11826087D01*
X5466435Y11812524D01*
X5467807Y11798960D01*
X5470956Y11785752D01*
X5475884Y11773052D01*
X5482386Y11761114D01*
X5490464Y11750192D01*
X5499912Y11740388D01*
X5510580Y11731955D01*
X5522315Y11725046D01*
X5534812Y11719712D01*
X5547969Y11716105D01*
X5561431Y11714327D01*
X5575046Y11714327D01*
X5588508Y11716105D01*
X5601614Y11719712D01*
X5614162Y11725046D01*
X5625846Y11731955D01*
X5636564Y11740388D01*
X5646013Y11750192D01*
X5654090Y11761114D01*
X5660593Y11773052D01*
X5665470Y11785752D01*
X5668670Y11798960D01*
X5669432Y11806986D01*
X5670550Y11810644D01*
X5672886Y11813641D01*
X5676138Y11815521D01*
X5679897Y11816130D01*
X5683605Y11815318D01*
X5686755Y11813133D01*
X5821273Y11678615D01*
X5823458Y11675364D01*
X5824220Y11671452D01*
X5824220Y11043818D01*
X5824474Y11037468D01*
X5824880Y11033404D01*
X5824474Y11029289D01*
X5822442Y11025682D01*
X5819140Y11023193D01*
X5815126Y11022228D01*
X5811062Y11022888D01*
X5807608Y11025174D01*
X5602478Y11230254D01*
X5593130Y11238484D01*
X5582767Y11245291D01*
X5574182Y11249558D01*
X5571642Y11250625D01*
X5559856Y11254384D01*
X5547664Y11256518D01*
X5537962Y11256975D01*
X4052062Y11256975D01*
X4042359Y11256518D01*
X4030167Y11254384D01*
X4018381Y11250625D01*
X4015841Y11249558D01*
X4007205Y11245291D01*
X3996893Y11238484D01*
X3994708Y11236756D01*
X3987495Y11230254D01*
X3854602Y11097361D01*
X3851605Y11095278D01*
X3848049Y11094415D01*
X3837584Y11093754D01*
X3822496Y11091011D01*
X3807815Y11086439D01*
X3793794Y11080140D01*
X3780637Y11072164D01*
X3768547Y11062716D01*
X3757676Y11051844D01*
X3748227Y11039754D01*
X3740251Y11026597D01*
X3733952Y11012576D01*
X3729380Y10997895D01*
X3726637Y10982807D01*
X3725672Y10967466D01*
X3726637Y10952124D01*
X3729380Y10937036D01*
X3733952Y10922355D01*
X3740251Y10908334D01*
X3748227Y10895177D01*
X3757676Y10883087D01*
X3768547Y10872216D01*
X3780637Y10862767D01*
X3793794Y10854791D01*
X3807815Y10848492D01*
X3822496Y10843920D01*
X3837584Y10841177D01*
X3852926Y10840212D01*
X3868267Y10841177D01*
X3883355Y10843920D01*
X3898036Y10848492D01*
X3912057Y10854791D01*
X3925214Y10862767D01*
X3937304Y10872216D01*
X3948176Y10883087D01*
X3957624Y10895177D01*
X3965600Y10908334D01*
X3971899Y10922355D01*
X3976471Y10937036D01*
X3979214Y10952124D01*
X3979875Y10962589D01*
X3980738Y10966145D01*
X3982821Y10969142D01*
X4086402Y11072723D01*
X4089654Y11074908D01*
X4093565Y11075670D01*
X4265015Y11075670D01*
X4268876Y11074908D01*
X4272178Y11072723D01*
X4274413Y11069421D01*
X4275175Y11065510D01*
X4274413Y11061649D01*
X4272178Y11058347D01*
X4265676Y11051844D01*
X4256227Y11039754D01*
X4248251Y11026597D01*
X4241952Y11012576D01*
X4237380Y10997895D01*
X4234637Y10982807D01*
X4233672Y10967466D01*
X4234637Y10952124D01*
X4237380Y10937036D01*
X4241952Y10922355D01*
X4248251Y10908334D01*
X4256227Y10895177D01*
X4265676Y10883087D01*
X4276547Y10872216D01*
X4288637Y10862767D01*
X4301794Y10854791D01*
X4315815Y10848492D01*
X4330496Y10843920D01*
X4345584Y10841177D01*
X4360926Y10840212D01*
X4376267Y10841177D01*
X4391355Y10843920D01*
X4406036Y10848492D01*
X4420057Y10854791D01*
X4433214Y10862767D01*
X4445304Y10872216D01*
X4456176Y10883087D01*
X4465624Y10895177D01*
X4473600Y10908334D01*
X4479899Y10922355D01*
X4484471Y10937036D01*
X4487214Y10952124D01*
X4488180Y10967466D01*
X4487214Y10982807D01*
X4484471Y10997895D01*
X4479899Y11012576D01*
X4473600Y11026597D01*
X4465624Y11039754D01*
X4456176Y11051844D01*
X4449673Y11058347D01*
X4447438Y11061649D01*
X4446676Y11065510D01*
X4447438Y11069421D01*
X4449673Y11072723D01*
X4452975Y11074908D01*
X4456836Y11075670D01*
X4773015Y11075670D01*
X4776876Y11074908D01*
X4780178Y11072723D01*
X4782413Y11069421D01*
X4783175Y11065510D01*
X4782413Y11061649D01*
X4780178Y11058347D01*
X4773676Y11051844D01*
X4764227Y11039754D01*
X4756251Y11026597D01*
X4749952Y11012576D01*
X4745380Y10997895D01*
X4742637Y10982807D01*
X4741672Y10967466D01*
X4742637Y10952124D01*
X4745380Y10937036D01*
X4749952Y10922355D01*
X4756251Y10908334D01*
X4764227Y10895177D01*
X4773676Y10883087D01*
X4784547Y10872216D01*
X4796637Y10862767D01*
X4809794Y10854791D01*
X4823815Y10848492D01*
X4838496Y10843920D01*
X4853584Y10841177D01*
X4868926Y10840212D01*
X4884267Y10841177D01*
X4899355Y10843920D01*
X4914036Y10848492D01*
X4928057Y10854791D01*
X4941214Y10862767D01*
X4953304Y10872216D01*
X4964176Y10883087D01*
X4973624Y10895177D01*
X4981600Y10908334D01*
X4987899Y10922355D01*
X4992471Y10937036D01*
X4995214Y10952124D01*
X4996180Y10967466D01*
X4995214Y10982807D01*
X4992471Y10997895D01*
X4987899Y11012576D01*
X4981600Y11026597D01*
X4973624Y11039754D01*
X4964176Y11051844D01*
X4957673Y11058347D01*
X4955438Y11061649D01*
X4954676Y11065510D01*
X4955438Y11069421D01*
X4957673Y11072723D01*
X4960975Y11074908D01*
X4964836Y11075670D01*
X5079238Y11075670D01*
X5083149Y11074908D01*
X5086451Y11072723D01*
X5088636Y11069421D01*
X5089398Y11065510D01*
X5089398Y10877550D01*
X5089906Y10867898D01*
X5090261Y10865104D01*
X5092039Y10855706D01*
X5092750Y10853013D01*
X5095798Y10843920D01*
X5096865Y10841329D01*
X5101132Y10832744D01*
X5107940Y10822381D01*
X5109667Y10820196D01*
X5116118Y10813034D01*
X5548579Y10380319D01*
X5555742Y10373868D01*
X5558180Y10370616D01*
X5559094Y10366654D01*
X5558434Y10362692D01*
X5556250Y10359237D01*
X5552897Y10356951D01*
X5548934Y10356138D01*
G37*

%LPC*%
G36*
X5612688Y14146377D02*
G01*
X5659628Y14146377D01*
X5657545Y14150848D01*
X5650230Y14162328D01*
X5641441Y14172692D01*
X5631332Y14181836D01*
X5620105Y14189557D01*
X5612688Y14193316D01*
G37*
G36*
X60706Y10754512D02*
G01*
X75844Y10755426D01*
X90779Y10758170D01*
X105257Y10762691D01*
X119075Y10768939D01*
X132080Y10776762D01*
X144018Y10786110D01*
X154736Y10796879D01*
X164084Y10808817D01*
X171958Y10821771D01*
X178155Y10835640D01*
X182676Y10850118D01*
X185420Y10865002D01*
X186385Y10880496D01*
X186385Y11079835D01*
X185420Y11095329D01*
X182676Y11110214D01*
X178155Y11124692D01*
X171958Y11138560D01*
X164084Y11151514D01*
X154736Y11163452D01*
X144018Y11174222D01*
X132080Y11183569D01*
X119075Y11191392D01*
X105257Y11197640D01*
X90779Y11202162D01*
X75844Y11204905D01*
X60706Y11205819D01*
X45567Y11204905D01*
X30632Y11202162D01*
X16154Y11197640D01*
X2336Y11191392D01*
X-10668Y11183569D01*
X-22606Y11174222D01*
X-33324Y11163452D01*
X-42672Y11151514D01*
X-50546Y11138560D01*
X-56743Y11124692D01*
X-61264Y11110214D01*
X-64008Y11095329D01*
X-64922Y11079835D01*
X-64922Y10880496D01*
X-64008Y10865002D01*
X-61264Y10850118D01*
X-56743Y10835640D01*
X-50546Y10821771D01*
X-42672Y10808817D01*
X-33324Y10796879D01*
X-22606Y10786110D01*
X-10668Y10776762D01*
X2336Y10768939D01*
X16154Y10762691D01*
X30632Y10758170D01*
X45567Y10755426D01*
G37*
G36*
X-279654Y10754512D02*
G01*
X-264515Y10755426D01*
X-249631Y10758170D01*
X-235153Y10762691D01*
X-221284Y10768939D01*
X-208330Y10776762D01*
X-196392Y10786110D01*
X-185623Y10796879D01*
X-176276Y10808817D01*
X-168452Y10821771D01*
X-162204Y10835640D01*
X-157683Y10850118D01*
X-154940Y10865002D01*
X-154025Y10880496D01*
X-154025Y11079835D01*
X-154940Y11095329D01*
X-157683Y11110214D01*
X-162204Y11124692D01*
X-168452Y11138560D01*
X-176276Y11151514D01*
X-185623Y11163452D01*
X-196392Y11174222D01*
X-208330Y11183569D01*
X-221284Y11191392D01*
X-235153Y11197640D01*
X-249631Y11202162D01*
X-264515Y11204905D01*
X-279654Y11205819D01*
X-294843Y11204905D01*
X-309727Y11202162D01*
X-324205Y11197640D01*
X-338074Y11191392D01*
X-351028Y11183569D01*
X-362966Y11174222D01*
X-373735Y11163452D01*
X-383082Y11151514D01*
X-390906Y11138560D01*
X-397154Y11124692D01*
X-401675Y11110214D01*
X-404418Y11095329D01*
X-405333Y11079835D01*
X-405333Y10880496D01*
X-404418Y10865002D01*
X-401675Y10850118D01*
X-397154Y10835640D01*
X-390906Y10821771D01*
X-383082Y10808817D01*
X-373735Y10796879D01*
X-362966Y10786110D01*
X-351028Y10776762D01*
X-338074Y10768939D01*
X-324205Y10762691D01*
X-309727Y10758170D01*
X-294843Y10755426D01*
G37*
G36*
X804926Y10840212D02*
G01*
X820267Y10841177D01*
X835355Y10843920D01*
X850036Y10848492D01*
X864057Y10854791D01*
X877214Y10862767D01*
X889304Y10872216D01*
X900176Y10883087D01*
X909624Y10895177D01*
X917600Y10908334D01*
X923899Y10922355D01*
X928471Y10937036D01*
X931214Y10952124D01*
X932180Y10967466D01*
X931214Y10982807D01*
X928471Y10997895D01*
X923899Y11012576D01*
X917600Y11026597D01*
X909624Y11039754D01*
X900176Y11051844D01*
X889304Y11062716D01*
X877214Y11072164D01*
X864057Y11080140D01*
X850036Y11086439D01*
X835355Y11091011D01*
X820267Y11093754D01*
X804926Y11094720D01*
X789584Y11093754D01*
X774496Y11091011D01*
X759815Y11086439D01*
X745794Y11080140D01*
X732637Y11072164D01*
X720547Y11062716D01*
X709676Y11051844D01*
X700227Y11039754D01*
X692251Y11026597D01*
X685952Y11012576D01*
X681380Y10997895D01*
X678637Y10982807D01*
X677672Y10967466D01*
X678637Y10952124D01*
X681380Y10937036D01*
X685952Y10922355D01*
X692251Y10908334D01*
X700227Y10895177D01*
X709676Y10883087D01*
X720547Y10872216D01*
X732637Y10862767D01*
X745794Y10854791D01*
X759815Y10848492D01*
X774496Y10843920D01*
X789584Y10841177D01*
G37*
G36*
X2836926Y10840212D02*
G01*
X2852267Y10841177D01*
X2867355Y10843920D01*
X2882036Y10848492D01*
X2896057Y10854791D01*
X2909214Y10862767D01*
X2921304Y10872216D01*
X2932176Y10883087D01*
X2941624Y10895177D01*
X2949600Y10908334D01*
X2955899Y10922355D01*
X2960471Y10937036D01*
X2963214Y10952124D01*
X2964180Y10967466D01*
X2963214Y10982807D01*
X2960471Y10997895D01*
X2955899Y11012576D01*
X2949600Y11026597D01*
X2941624Y11039754D01*
X2932176Y11051844D01*
X2921304Y11062716D01*
X2909214Y11072164D01*
X2896057Y11080140D01*
X2882036Y11086439D01*
X2867355Y11091011D01*
X2852267Y11093754D01*
X2836926Y11094720D01*
X2821584Y11093754D01*
X2806496Y11091011D01*
X2791815Y11086439D01*
X2777794Y11080140D01*
X2764637Y11072164D01*
X2752547Y11062716D01*
X2741676Y11051844D01*
X2732227Y11039754D01*
X2724251Y11026597D01*
X2717952Y11012576D01*
X2713380Y10997895D01*
X2710637Y10982807D01*
X2709672Y10967466D01*
X2710637Y10952124D01*
X2713380Y10937036D01*
X2717952Y10922355D01*
X2724251Y10908334D01*
X2732227Y10895177D01*
X2741676Y10883087D01*
X2752547Y10872216D01*
X2764637Y10862767D01*
X2777794Y10854791D01*
X2791815Y10848492D01*
X2806496Y10843920D01*
X2821584Y10841177D01*
G37*
G36*
X1820925Y10840212D02*
G01*
X1836267Y10841177D01*
X1851355Y10843920D01*
X1866036Y10848492D01*
X1880057Y10854791D01*
X1893214Y10862767D01*
X1905304Y10872216D01*
X1916175Y10883087D01*
X1925624Y10895177D01*
X1933600Y10908334D01*
X1939899Y10922355D01*
X1944471Y10937036D01*
X1947214Y10952124D01*
X1948180Y10967466D01*
X1947214Y10982807D01*
X1944471Y10997895D01*
X1939899Y11012576D01*
X1933600Y11026597D01*
X1925624Y11039754D01*
X1916175Y11051844D01*
X1905304Y11062716D01*
X1893214Y11072164D01*
X1880057Y11080140D01*
X1866036Y11086439D01*
X1851355Y11091011D01*
X1836267Y11093754D01*
X1820925Y11094720D01*
X1805584Y11093754D01*
X1790496Y11091011D01*
X1775815Y11086439D01*
X1761794Y11080140D01*
X1748637Y11072164D01*
X1736547Y11062716D01*
X1725675Y11051844D01*
X1716227Y11039754D01*
X1708251Y11026597D01*
X1701952Y11012576D01*
X1697380Y10997895D01*
X1694637Y10982807D01*
X1693672Y10967466D01*
X1694637Y10952124D01*
X1697380Y10937036D01*
X1701952Y10922355D01*
X1708251Y10908334D01*
X1716227Y10895177D01*
X1725675Y10883087D01*
X1736547Y10872216D01*
X1748637Y10862767D01*
X1761794Y10854791D01*
X1775815Y10848492D01*
X1790496Y10843920D01*
X1805584Y10841177D01*
G37*
G36*
X5476849Y14146377D02*
G01*
X5523788Y14146377D01*
X5523788Y14193316D01*
X5516321Y14189557D01*
X5505145Y14181836D01*
X5495036Y14172692D01*
X5486247Y14162328D01*
X5478932Y14150848D01*
G37*
G36*
X1666849Y14146377D02*
G01*
X1713788Y14146377D01*
X1713788Y14193316D01*
X1706321Y14189557D01*
X1695145Y14181836D01*
X1685036Y14172692D01*
X1676247Y14162328D01*
X1668932Y14150848D01*
G37*
G36*
X1802688Y14146377D02*
G01*
X1849628Y14146377D01*
X1847545Y14150848D01*
X1840230Y14162328D01*
X1831441Y14172692D01*
X1821332Y14181836D01*
X1810105Y14189557D01*
X1802688Y14193316D01*
G37*
G36*
X1255776Y10853928D02*
G01*
X1255776Y10910316D01*
X1199388Y10910316D01*
X1200251Y10908334D01*
X1208227Y10895177D01*
X1217676Y10883087D01*
X1228547Y10872216D01*
X1240637Y10862767D01*
X1253794Y10854791D01*
G37*
G36*
X2386076Y10853928D02*
G01*
X2388057Y10854791D01*
X2401214Y10862767D01*
X2413304Y10872216D01*
X2424176Y10883087D01*
X2433624Y10895177D01*
X2441600Y10908334D01*
X2442464Y10910316D01*
X2386076Y10910316D01*
G37*
G36*
X1370076Y10853928D02*
G01*
X1372057Y10854791D01*
X1385214Y10862767D01*
X1397304Y10872216D01*
X1408176Y10883087D01*
X1417624Y10895177D01*
X1425600Y10908334D01*
X1426464Y10910316D01*
X1370076Y10910316D01*
G37*
G36*
X2271776Y10853928D02*
G01*
X2271776Y10910316D01*
X2215388Y10910316D01*
X2216251Y10908334D01*
X2224227Y10895177D01*
X2233676Y10883087D01*
X2244547Y10872216D01*
X2256637Y10862767D01*
X2269794Y10854791D01*
G37*
G36*
X3287776Y10853928D02*
G01*
X3287776Y10910316D01*
X3231388Y10910316D01*
X3232251Y10908334D01*
X3240227Y10895177D01*
X3249676Y10883087D01*
X3260547Y10872216D01*
X3272637Y10862767D01*
X3285794Y10854791D01*
G37*
G36*
X3402076Y10853928D02*
G01*
X3404057Y10854791D01*
X3417214Y10862767D01*
X3429304Y10872216D01*
X3440176Y10883087D01*
X3449624Y10895177D01*
X3457600Y10908334D01*
X3458464Y10910316D01*
X3402076Y10910316D01*
G37*
G36*
X675487Y14145869D02*
G01*
X725830Y14145869D01*
X725830Y14196110D01*
X723544Y14195094D01*
X711403Y14187728D01*
X700328Y14178889D01*
X690473Y14168729D01*
X681990Y14157350D01*
G37*
G36*
X3402076Y11024616D02*
G01*
X3458464Y11024616D01*
X3457600Y11026597D01*
X3449624Y11039754D01*
X3440176Y11051844D01*
X3429304Y11062716D01*
X3417214Y11072164D01*
X3404057Y11080140D01*
X3402076Y11081004D01*
G37*
G36*
X1199388Y11024616D02*
G01*
X1255776Y11024616D01*
X1255776Y11081004D01*
X1253794Y11080140D01*
X1240637Y11072164D01*
X1228547Y11062716D01*
X1217676Y11051844D01*
X1208227Y11039754D01*
X1200251Y11026597D01*
G37*
G36*
X3231388Y11024616D02*
G01*
X3287776Y11024616D01*
X3287776Y11081004D01*
X3285794Y11080140D01*
X3272637Y11072164D01*
X3260547Y11062716D01*
X3249676Y11051844D01*
X3240227Y11039754D01*
X3232251Y11026597D01*
G37*
G36*
X2215388Y11024616D02*
G01*
X2271776Y11024616D01*
X2271776Y11081004D01*
X2269794Y11080140D01*
X2256637Y11072164D01*
X2244547Y11062716D01*
X2233676Y11051844D01*
X2224227Y11039754D01*
X2216251Y11026597D01*
G37*
G36*
X2386076Y11024616D02*
G01*
X2442464Y11024616D01*
X2441600Y11026597D01*
X2433624Y11039754D01*
X2424176Y11051844D01*
X2413304Y11062716D01*
X2401214Y11072164D01*
X2388057Y11080140D01*
X2386076Y11081004D01*
G37*
G36*
X1370076Y11024616D02*
G01*
X1426464Y11024616D01*
X1425600Y11026597D01*
X1417624Y11039754D01*
X1408176Y11051844D01*
X1397304Y11062716D01*
X1385214Y11072164D01*
X1372057Y11080140D01*
X1370076Y11081004D01*
G37*
G36*
X2259431Y11714327D02*
G01*
X2273046Y11714327D01*
X2286508Y11716105D01*
X2299614Y11719712D01*
X2312162Y11725046D01*
X2323846Y11731955D01*
X2334564Y11740388D01*
X2344013Y11750192D01*
X2352090Y11761114D01*
X2358593Y11773052D01*
X2363470Y11785752D01*
X2366670Y11798960D01*
X2367991Y11812524D01*
X2367534Y11826087D01*
X2365298Y11839498D01*
X2361285Y11852503D01*
X2355545Y11864848D01*
X2348230Y11876328D01*
X2339441Y11886692D01*
X2329332Y11895836D01*
X2318105Y11903557D01*
X2305964Y11909653D01*
X2293112Y11914124D01*
X2279802Y11916816D01*
X2266238Y11917730D01*
X2252675Y11916816D01*
X2239314Y11914124D01*
X2226462Y11909653D01*
X2214321Y11903557D01*
X2203145Y11895836D01*
X2193036Y11886692D01*
X2184247Y11876328D01*
X2176932Y11864848D01*
X2171192Y11852503D01*
X2167178Y11839498D01*
X2164892Y11826087D01*
X2164435Y11812524D01*
X2165807Y11798960D01*
X2168956Y11785752D01*
X2173884Y11773052D01*
X2180386Y11761114D01*
X2188464Y11750192D01*
X2197912Y11740388D01*
X2208580Y11731955D01*
X2220315Y11725046D01*
X2232812Y11719712D01*
X2245969Y11716105D01*
G37*
G36*
X4799431Y11714327D02*
G01*
X4813046Y11714327D01*
X4826508Y11716105D01*
X4839614Y11719712D01*
X4852162Y11725046D01*
X4863846Y11731955D01*
X4874564Y11740388D01*
X4884013Y11750192D01*
X4892090Y11761114D01*
X4898593Y11773052D01*
X4903470Y11785752D01*
X4906670Y11798960D01*
X4907991Y11812524D01*
X4907534Y11826087D01*
X4905298Y11839498D01*
X4901285Y11852503D01*
X4895545Y11864848D01*
X4888230Y11876328D01*
X4879441Y11886692D01*
X4869332Y11895836D01*
X4858105Y11903557D01*
X4845964Y11909653D01*
X4833112Y11914124D01*
X4819802Y11916816D01*
X4806238Y11917730D01*
X4792675Y11916816D01*
X4779314Y11914124D01*
X4766462Y11909653D01*
X4754321Y11903557D01*
X4743145Y11895836D01*
X4733036Y11886692D01*
X4724247Y11876328D01*
X4716932Y11864848D01*
X4711192Y11852503D01*
X4707178Y11839498D01*
X4704892Y11826087D01*
X4704435Y11812524D01*
X4705807Y11798960D01*
X4708956Y11785752D01*
X4713884Y11773052D01*
X4720386Y11761114D01*
X4728464Y11750192D01*
X4737912Y11740388D01*
X4748580Y11731955D01*
X4760315Y11725046D01*
X4772812Y11719712D01*
X4785969Y11716105D01*
G37*
G36*
X3021431Y11714327D02*
G01*
X3035046Y11714327D01*
X3048508Y11716105D01*
X3061614Y11719712D01*
X3074162Y11725046D01*
X3085846Y11731955D01*
X3096564Y11740388D01*
X3106013Y11750192D01*
X3114090Y11761114D01*
X3120593Y11773052D01*
X3125470Y11785752D01*
X3128670Y11798960D01*
X3129991Y11812524D01*
X3129534Y11826087D01*
X3127298Y11839498D01*
X3123285Y11852503D01*
X3117545Y11864848D01*
X3110230Y11876328D01*
X3101441Y11886692D01*
X3091332Y11895836D01*
X3080105Y11903557D01*
X3067964Y11909653D01*
X3055112Y11914124D01*
X3041802Y11916816D01*
X3028238Y11917730D01*
X3014675Y11916816D01*
X3001314Y11914124D01*
X2988462Y11909653D01*
X2976321Y11903557D01*
X2965145Y11895836D01*
X2955036Y11886692D01*
X2946247Y11876328D01*
X2938932Y11864848D01*
X2933192Y11852503D01*
X2929178Y11839498D01*
X2926892Y11826087D01*
X2926435Y11812524D01*
X2927807Y11798960D01*
X2930956Y11785752D01*
X2935884Y11773052D01*
X2942386Y11761114D01*
X2950464Y11750192D01*
X2959912Y11740388D01*
X2970580Y11731955D01*
X2982315Y11725046D01*
X2994812Y11719712D01*
X3007969Y11716105D01*
G37*
G36*
X4037431Y11714327D02*
G01*
X4051046Y11714327D01*
X4064508Y11716105D01*
X4077614Y11719712D01*
X4090162Y11725046D01*
X4101846Y11731955D01*
X4112564Y11740388D01*
X4122013Y11750192D01*
X4130090Y11761114D01*
X4136593Y11773052D01*
X4141470Y11785752D01*
X4144670Y11798960D01*
X4145991Y11812524D01*
X4145534Y11826087D01*
X4143298Y11839498D01*
X4139285Y11852503D01*
X4133545Y11864848D01*
X4126229Y11876328D01*
X4117441Y11886692D01*
X4107332Y11895836D01*
X4096105Y11903557D01*
X4083964Y11909653D01*
X4071112Y11914124D01*
X4057802Y11916816D01*
X4044238Y11917730D01*
X4030675Y11916816D01*
X4017314Y11914124D01*
X4004462Y11909653D01*
X3992321Y11903557D01*
X3981145Y11895836D01*
X3971036Y11886692D01*
X3962247Y11876328D01*
X3954932Y11864848D01*
X3949192Y11852503D01*
X3945178Y11839498D01*
X3942892Y11826087D01*
X3942435Y11812524D01*
X3943807Y11798960D01*
X3946956Y11785752D01*
X3951884Y11773052D01*
X3958386Y11761114D01*
X3966464Y11750192D01*
X3975912Y11740388D01*
X3986580Y11731955D01*
X3998315Y11725046D01*
X4010812Y11719712D01*
X4023969Y11716105D01*
G37*
G36*
X4545431Y11714327D02*
G01*
X4559046Y11714327D01*
X4572508Y11716105D01*
X4585614Y11719712D01*
X4598162Y11725046D01*
X4609846Y11731955D01*
X4620564Y11740388D01*
X4630013Y11750192D01*
X4638090Y11761114D01*
X4644593Y11773052D01*
X4649470Y11785752D01*
X4652670Y11798960D01*
X4653991Y11812524D01*
X4653534Y11826087D01*
X4651298Y11839498D01*
X4647285Y11852503D01*
X4641545Y11864848D01*
X4634230Y11876328D01*
X4625441Y11886692D01*
X4615332Y11895836D01*
X4604105Y11903557D01*
X4591964Y11909653D01*
X4579112Y11914124D01*
X4565802Y11916816D01*
X4552238Y11917730D01*
X4538675Y11916816D01*
X4525314Y11914124D01*
X4512462Y11909653D01*
X4500321Y11903557D01*
X4489145Y11895836D01*
X4479036Y11886692D01*
X4470247Y11876328D01*
X4462932Y11864848D01*
X4457192Y11852503D01*
X4453178Y11839498D01*
X4450892Y11826087D01*
X4450435Y11812524D01*
X4451807Y11798960D01*
X4454956Y11785752D01*
X4459884Y11773052D01*
X4466386Y11761114D01*
X4474464Y11750192D01*
X4483912Y11740388D01*
X4494580Y11731955D01*
X4506315Y11725046D01*
X4518812Y11719712D01*
X4531969Y11716105D01*
G37*
G36*
X3783431Y11714327D02*
G01*
X3797046Y11714327D01*
X3810508Y11716105D01*
X3823614Y11719712D01*
X3836162Y11725046D01*
X3847846Y11731955D01*
X3858564Y11740388D01*
X3868013Y11750192D01*
X3876090Y11761114D01*
X3882593Y11773052D01*
X3887470Y11785752D01*
X3890670Y11798960D01*
X3891991Y11812524D01*
X3891534Y11826087D01*
X3889298Y11839498D01*
X3885285Y11852503D01*
X3879545Y11864848D01*
X3872229Y11876328D01*
X3863441Y11886692D01*
X3853332Y11895836D01*
X3842105Y11903557D01*
X3829964Y11909653D01*
X3817112Y11914124D01*
X3803802Y11916816D01*
X3790238Y11917730D01*
X3776675Y11916816D01*
X3763314Y11914124D01*
X3750462Y11909653D01*
X3738321Y11903557D01*
X3727145Y11895836D01*
X3717036Y11886692D01*
X3708247Y11876328D01*
X3700932Y11864848D01*
X3695192Y11852503D01*
X3691178Y11839498D01*
X3688892Y11826087D01*
X3688435Y11812524D01*
X3689807Y11798960D01*
X3692956Y11785752D01*
X3697884Y11773052D01*
X3704386Y11761114D01*
X3712464Y11750192D01*
X3721912Y11740388D01*
X3732580Y11731955D01*
X3744315Y11725046D01*
X3756812Y11719712D01*
X3769969Y11716105D01*
G37*
G36*
X2513431Y11714327D02*
G01*
X2527046Y11714327D01*
X2540508Y11716105D01*
X2553614Y11719712D01*
X2566162Y11725046D01*
X2577846Y11731955D01*
X2588564Y11740388D01*
X2598013Y11750192D01*
X2606090Y11761114D01*
X2612593Y11773052D01*
X2617470Y11785752D01*
X2620670Y11798960D01*
X2621991Y11812524D01*
X2621534Y11826087D01*
X2619298Y11839498D01*
X2615285Y11852503D01*
X2609545Y11864848D01*
X2602230Y11876328D01*
X2593441Y11886692D01*
X2583332Y11895836D01*
X2572105Y11903557D01*
X2559964Y11909653D01*
X2547112Y11914124D01*
X2533802Y11916816D01*
X2520238Y11917730D01*
X2506675Y11916816D01*
X2493314Y11914124D01*
X2480462Y11909653D01*
X2468321Y11903557D01*
X2457145Y11895836D01*
X2447036Y11886692D01*
X2438247Y11876328D01*
X2430932Y11864848D01*
X2425192Y11852503D01*
X2421178Y11839498D01*
X2418892Y11826087D01*
X2418435Y11812524D01*
X2419807Y11798960D01*
X2422956Y11785752D01*
X2427884Y11773052D01*
X2434386Y11761114D01*
X2442464Y11750192D01*
X2451912Y11740388D01*
X2462580Y11731955D01*
X2474315Y11725046D01*
X2486812Y11719712D01*
X2499969Y11716105D01*
G37*
G36*
X3275431Y11714327D02*
G01*
X3289046Y11714327D01*
X3302508Y11716105D01*
X3315614Y11719712D01*
X3328162Y11725046D01*
X3339846Y11731955D01*
X3350564Y11740388D01*
X3360013Y11750192D01*
X3368090Y11761114D01*
X3374593Y11773052D01*
X3379470Y11785752D01*
X3382670Y11798960D01*
X3383991Y11812524D01*
X3383534Y11826087D01*
X3381298Y11839498D01*
X3377285Y11852503D01*
X3371545Y11864848D01*
X3364229Y11876328D01*
X3355441Y11886692D01*
X3345332Y11895836D01*
X3334105Y11903557D01*
X3321964Y11909653D01*
X3309112Y11914124D01*
X3295802Y11916816D01*
X3282238Y11917730D01*
X3268675Y11916816D01*
X3255314Y11914124D01*
X3242462Y11909653D01*
X3230321Y11903557D01*
X3219145Y11895836D01*
X3209036Y11886692D01*
X3200247Y11876328D01*
X3192932Y11864848D01*
X3187192Y11852503D01*
X3183178Y11839498D01*
X3180892Y11826087D01*
X3180435Y11812524D01*
X3181807Y11798960D01*
X3184956Y11785752D01*
X3189884Y11773052D01*
X3196386Y11761114D01*
X3204464Y11750192D01*
X3213912Y11740388D01*
X3224580Y11731955D01*
X3236315Y11725046D01*
X3248812Y11719712D01*
X3261969Y11716105D01*
G37*
G36*
X5053431Y11714327D02*
G01*
X5067046Y11714327D01*
X5080508Y11716105D01*
X5093614Y11719712D01*
X5106162Y11725046D01*
X5117846Y11731955D01*
X5128564Y11740388D01*
X5138013Y11750192D01*
X5146090Y11761114D01*
X5152593Y11773052D01*
X5157470Y11785752D01*
X5160670Y11798960D01*
X5161991Y11812524D01*
X5161534Y11826087D01*
X5159298Y11839498D01*
X5155285Y11852503D01*
X5149545Y11864848D01*
X5142230Y11876328D01*
X5133441Y11886692D01*
X5123332Y11895836D01*
X5112105Y11903557D01*
X5099964Y11909653D01*
X5087112Y11914124D01*
X5073802Y11916816D01*
X5060238Y11917730D01*
X5046675Y11916816D01*
X5033314Y11914124D01*
X5020462Y11909653D01*
X5008321Y11903557D01*
X4997145Y11895836D01*
X4987036Y11886692D01*
X4978247Y11876328D01*
X4970932Y11864848D01*
X4965192Y11852503D01*
X4961178Y11839498D01*
X4958892Y11826087D01*
X4958435Y11812524D01*
X4959807Y11798960D01*
X4962956Y11785752D01*
X4967884Y11773052D01*
X4974386Y11761114D01*
X4982464Y11750192D01*
X4991912Y11740388D01*
X5002580Y11731955D01*
X5014315Y11725046D01*
X5026812Y11719712D01*
X5039969Y11716105D01*
G37*
G36*
X4291431Y11714327D02*
G01*
X4305046Y11714327D01*
X4318508Y11716105D01*
X4331614Y11719712D01*
X4344162Y11725046D01*
X4355846Y11731955D01*
X4366564Y11740388D01*
X4376013Y11750192D01*
X4384090Y11761114D01*
X4390593Y11773052D01*
X4395470Y11785752D01*
X4398670Y11798960D01*
X4399991Y11812524D01*
X4399534Y11826087D01*
X4397298Y11839498D01*
X4393285Y11852503D01*
X4387545Y11864848D01*
X4380230Y11876328D01*
X4371441Y11886692D01*
X4361332Y11895836D01*
X4350105Y11903557D01*
X4337964Y11909653D01*
X4325112Y11914124D01*
X4311802Y11916816D01*
X4298238Y11917730D01*
X4284675Y11916816D01*
X4271314Y11914124D01*
X4258462Y11909653D01*
X4246321Y11903557D01*
X4235145Y11895836D01*
X4225036Y11886692D01*
X4216247Y11876328D01*
X4208932Y11864848D01*
X4203192Y11852503D01*
X4199178Y11839498D01*
X4196892Y11826087D01*
X4196435Y11812524D01*
X4197807Y11798960D01*
X4200956Y11785752D01*
X4205884Y11773052D01*
X4212386Y11761114D01*
X4220464Y11750192D01*
X4229912Y11740388D01*
X4240580Y11731955D01*
X4252315Y11725046D01*
X4264812Y11719712D01*
X4277969Y11716105D01*
G37*
G36*
X2767431Y11714327D02*
G01*
X2781046Y11714327D01*
X2794508Y11716105D01*
X2807614Y11719712D01*
X2820162Y11725046D01*
X2831846Y11731955D01*
X2842564Y11740388D01*
X2852013Y11750192D01*
X2860090Y11761114D01*
X2866593Y11773052D01*
X2871470Y11785752D01*
X2874670Y11798960D01*
X2875991Y11812524D01*
X2875534Y11826087D01*
X2873298Y11839498D01*
X2869285Y11852503D01*
X2863545Y11864848D01*
X2856230Y11876328D01*
X2847441Y11886692D01*
X2837332Y11895836D01*
X2826105Y11903557D01*
X2813964Y11909653D01*
X2801112Y11914124D01*
X2787802Y11916816D01*
X2774238Y11917730D01*
X2760675Y11916816D01*
X2747314Y11914124D01*
X2734462Y11909653D01*
X2722321Y11903557D01*
X2711145Y11895836D01*
X2701036Y11886692D01*
X2692247Y11876328D01*
X2684932Y11864848D01*
X2679192Y11852503D01*
X2675178Y11839498D01*
X2672892Y11826087D01*
X2672435Y11812524D01*
X2673807Y11798960D01*
X2676956Y11785752D01*
X2681884Y11773052D01*
X2688386Y11761114D01*
X2696464Y11750192D01*
X2705912Y11740388D01*
X2716580Y11731955D01*
X2728315Y11725046D01*
X2740812Y11719712D01*
X2753969Y11716105D01*
G37*
G36*
X3529431Y11714327D02*
G01*
X3543046Y11714327D01*
X3556508Y11716105D01*
X3569614Y11719712D01*
X3582162Y11725046D01*
X3593846Y11731955D01*
X3604564Y11740388D01*
X3614013Y11750192D01*
X3622090Y11761114D01*
X3628593Y11773052D01*
X3633470Y11785752D01*
X3636670Y11798960D01*
X3637991Y11812524D01*
X3637534Y11826087D01*
X3635298Y11839498D01*
X3631285Y11852503D01*
X3625545Y11864848D01*
X3618229Y11876328D01*
X3609441Y11886692D01*
X3599332Y11895836D01*
X3588105Y11903557D01*
X3575964Y11909653D01*
X3563112Y11914124D01*
X3549802Y11916816D01*
X3536238Y11917730D01*
X3522675Y11916816D01*
X3509314Y11914124D01*
X3496462Y11909653D01*
X3484321Y11903557D01*
X3473145Y11895836D01*
X3463036Y11886692D01*
X3454247Y11876328D01*
X3446932Y11864848D01*
X3441192Y11852503D01*
X3437178Y11839498D01*
X3434892Y11826087D01*
X3434435Y11812524D01*
X3435807Y11798960D01*
X3438956Y11785752D01*
X3443884Y11773052D01*
X3450386Y11761114D01*
X3458464Y11750192D01*
X3467912Y11740388D01*
X3478580Y11731955D01*
X3490315Y11725046D01*
X3502812Y11719712D01*
X3515969Y11716105D01*
G37*
G36*
X5307431Y11714327D02*
G01*
X5321046Y11714327D01*
X5334508Y11716105D01*
X5347614Y11719712D01*
X5360162Y11725046D01*
X5371846Y11731955D01*
X5382564Y11740388D01*
X5392013Y11750192D01*
X5400090Y11761114D01*
X5406593Y11773052D01*
X5411470Y11785752D01*
X5414670Y11798960D01*
X5415991Y11812524D01*
X5415534Y11826087D01*
X5413298Y11839498D01*
X5409285Y11852503D01*
X5403545Y11864848D01*
X5396230Y11876328D01*
X5387441Y11886692D01*
X5377332Y11895836D01*
X5366105Y11903557D01*
X5353964Y11909653D01*
X5341112Y11914124D01*
X5327802Y11916816D01*
X5314238Y11917730D01*
X5300675Y11916816D01*
X5287314Y11914124D01*
X5274462Y11909653D01*
X5262321Y11903557D01*
X5251145Y11895836D01*
X5241036Y11886692D01*
X5232247Y11876328D01*
X5224932Y11864848D01*
X5219192Y11852503D01*
X5215178Y11839498D01*
X5212892Y11826087D01*
X5212435Y11812524D01*
X5213807Y11798960D01*
X5216956Y11785752D01*
X5221884Y11773052D01*
X5228386Y11761114D01*
X5236464Y11750192D01*
X5245912Y11740388D01*
X5256580Y11731955D01*
X5268315Y11725046D01*
X5280812Y11719712D01*
X5293969Y11716105D01*
G37*
G36*
X2005431Y11714327D02*
G01*
X2019046Y11714327D01*
X2032507Y11716105D01*
X2045614Y11719712D01*
X2058162Y11725046D01*
X2069846Y11731955D01*
X2080564Y11740388D01*
X2090013Y11750192D01*
X2098090Y11761114D01*
X2104593Y11773052D01*
X2109470Y11785752D01*
X2112670Y11798960D01*
X2113991Y11812524D01*
X2113534Y11826087D01*
X2111298Y11839498D01*
X2107285Y11852503D01*
X2101545Y11864848D01*
X2094230Y11876328D01*
X2085441Y11886692D01*
X2075332Y11895836D01*
X2064105Y11903557D01*
X2051964Y11909653D01*
X2039112Y11914124D01*
X2025802Y11916816D01*
X2012238Y11917730D01*
X1998675Y11916816D01*
X1985314Y11914124D01*
X1972462Y11909653D01*
X1960321Y11903557D01*
X1949145Y11895836D01*
X1939036Y11886692D01*
X1930247Y11876328D01*
X1922932Y11864848D01*
X1917192Y11852503D01*
X1913178Y11839498D01*
X1910892Y11826087D01*
X1910435Y11812524D01*
X1911807Y11798960D01*
X1914956Y11785752D01*
X1919884Y11773052D01*
X1926386Y11761114D01*
X1934464Y11750192D01*
X1943912Y11740388D01*
X1954580Y11731955D01*
X1966315Y11725046D01*
X1978812Y11719712D01*
X1991969Y11716105D01*
G37*
G36*
X1751431Y11714327D02*
G01*
X1765046Y11714327D01*
X1778507Y11716105D01*
X1791614Y11719712D01*
X1804162Y11725046D01*
X1815846Y11731955D01*
X1826564Y11740388D01*
X1836013Y11750192D01*
X1844090Y11761114D01*
X1850593Y11773052D01*
X1855470Y11785752D01*
X1858670Y11798960D01*
X1859991Y11812524D01*
X1859534Y11826087D01*
X1857298Y11839498D01*
X1853285Y11852503D01*
X1847545Y11864848D01*
X1840230Y11876328D01*
X1831441Y11886692D01*
X1821332Y11895836D01*
X1810105Y11903557D01*
X1797964Y11909653D01*
X1785112Y11914124D01*
X1771802Y11916816D01*
X1758238Y11917730D01*
X1744675Y11916816D01*
X1731314Y11914124D01*
X1718462Y11909653D01*
X1706321Y11903557D01*
X1695145Y11895836D01*
X1685036Y11886692D01*
X1676247Y11876328D01*
X1668932Y11864848D01*
X1663192Y11852503D01*
X1659178Y11839498D01*
X1656892Y11826087D01*
X1656435Y11812524D01*
X1657807Y11798960D01*
X1660956Y11785752D01*
X1665884Y11773052D01*
X1672386Y11761114D01*
X1680464Y11750192D01*
X1689912Y11740388D01*
X1700580Y11731955D01*
X1712315Y11725046D01*
X1724812Y11719712D01*
X1737969Y11716105D01*
G37*
G36*
X823569Y14145869D02*
G01*
X873709Y14145869D01*
X871118Y14151305D01*
X863346Y14163192D01*
X854151Y14173962D01*
X843686Y14183512D01*
X832053Y14191589D01*
X823569Y14196060D01*
G37*
G36*
X5612688Y14010386D02*
G01*
X5614162Y14011046D01*
X5625846Y14017955D01*
X5636564Y14026388D01*
X5646013Y14036192D01*
X5654090Y14047114D01*
X5659729Y14057477D01*
X5612688Y14057477D01*
G37*
G36*
X-279654Y12100712D02*
G01*
X-264515Y12101626D01*
X-249631Y12104370D01*
X-235153Y12108891D01*
X-221284Y12115139D01*
X-208330Y12122962D01*
X-196392Y12132310D01*
X-185623Y12143079D01*
X-176276Y12155017D01*
X-168452Y12167971D01*
X-162204Y12181840D01*
X-157683Y12196318D01*
X-154940Y12211202D01*
X-154025Y12226696D01*
X-154025Y12426035D01*
X-154940Y12441529D01*
X-157683Y12456414D01*
X-162204Y12470892D01*
X-168452Y12484760D01*
X-176276Y12497714D01*
X-185623Y12509652D01*
X-196392Y12520422D01*
X-208330Y12529769D01*
X-221284Y12537592D01*
X-235153Y12543840D01*
X-249631Y12548362D01*
X-264515Y12551105D01*
X-279654Y12552019D01*
X-294843Y12551105D01*
X-309727Y12548362D01*
X-324205Y12543840D01*
X-338074Y12537592D01*
X-351028Y12529769D01*
X-362966Y12520422D01*
X-373735Y12509652D01*
X-383082Y12497714D01*
X-390906Y12484760D01*
X-397154Y12470892D01*
X-401675Y12456414D01*
X-404418Y12441529D01*
X-405333Y12426035D01*
X-405333Y12226696D01*
X-404418Y12211202D01*
X-401675Y12196318D01*
X-397154Y12181840D01*
X-390906Y12167971D01*
X-383082Y12155017D01*
X-373735Y12143079D01*
X-362966Y12132310D01*
X-351028Y12122962D01*
X-338074Y12115139D01*
X-324205Y12108891D01*
X-309727Y12104370D01*
X-294843Y12101626D01*
G37*
G36*
X60706Y12100712D02*
G01*
X75844Y12101626D01*
X90779Y12104370D01*
X105257Y12108891D01*
X119075Y12115139D01*
X132080Y12122962D01*
X144018Y12132310D01*
X154736Y12143079D01*
X164084Y12155017D01*
X171958Y12167971D01*
X178155Y12181840D01*
X182676Y12196318D01*
X185420Y12211202D01*
X186385Y12226696D01*
X186385Y12426035D01*
X185420Y12441529D01*
X182676Y12456414D01*
X178155Y12470892D01*
X171958Y12484760D01*
X164084Y12497714D01*
X154736Y12509652D01*
X144018Y12520422D01*
X132080Y12529769D01*
X119075Y12537592D01*
X105257Y12543840D01*
X90779Y12548362D01*
X75844Y12551105D01*
X60706Y12552019D01*
X45567Y12551105D01*
X30632Y12548362D01*
X16154Y12543840D01*
X2336Y12537592D01*
X-10668Y12529769D01*
X-22606Y12520422D01*
X-33324Y12509652D01*
X-42672Y12497714D01*
X-50546Y12484760D01*
X-56743Y12470892D01*
X-61264Y12456414D01*
X-64008Y12441529D01*
X-64922Y12426035D01*
X-64922Y12226696D01*
X-64008Y12211202D01*
X-61264Y12196318D01*
X-56743Y12181840D01*
X-50546Y12167971D01*
X-42672Y12155017D01*
X-33324Y12143079D01*
X-22606Y12132310D01*
X-10668Y12122962D01*
X2336Y12115139D01*
X16154Y12108891D01*
X30632Y12104370D01*
X45567Y12101626D01*
G37*
G36*
X5523788Y14010386D02*
G01*
X5523788Y14057477D01*
X5476748Y14057477D01*
X5482386Y14047114D01*
X5490464Y14036192D01*
X5499912Y14026388D01*
X5510580Y14017955D01*
X5522315Y14011046D01*
G37*
G36*
X1713788Y14010386D02*
G01*
X1713788Y14057477D01*
X1666748Y14057477D01*
X1672386Y14047114D01*
X1680464Y14036192D01*
X1689912Y14026388D01*
X1700580Y14017955D01*
X1712315Y14011046D01*
G37*
G36*
X6282791Y12470333D02*
G01*
X6297168Y12471247D01*
X6311290Y12473940D01*
X6324955Y12478359D01*
X6337960Y12484506D01*
X6350101Y12492228D01*
X6361226Y12501372D01*
X6371031Y12511887D01*
X6379514Y12523520D01*
X6386423Y12536119D01*
X6391757Y12549479D01*
X6395313Y12563398D01*
X6397091Y12577673D01*
X6397091Y12592050D01*
X6395313Y12606324D01*
X6391757Y12620244D01*
X6386423Y12633655D01*
X6379514Y12646253D01*
X6371031Y12657886D01*
X6361226Y12668351D01*
X6350101Y12677546D01*
X6337960Y12685217D01*
X6324955Y12691364D01*
X6311290Y12695834D01*
X6297168Y12698526D01*
X6282791Y12699390D01*
X6268466Y12698526D01*
X6254343Y12695834D01*
X6240627Y12691364D01*
X6227622Y12685217D01*
X6215481Y12677546D01*
X6204407Y12668351D01*
X6194552Y12657886D01*
X6186119Y12646253D01*
X6179159Y12633655D01*
X6173876Y12620244D01*
X6170320Y12606324D01*
X6168491Y12592050D01*
X6168491Y12577673D01*
X6170320Y12563398D01*
X6173876Y12549479D01*
X6179159Y12536119D01*
X6186119Y12523520D01*
X6194552Y12511887D01*
X6204407Y12501372D01*
X6215481Y12492228D01*
X6227622Y12484506D01*
X6240627Y12478359D01*
X6254343Y12473940D01*
X6268466Y12471247D01*
G37*
G36*
X1802688Y14010386D02*
G01*
X1804162Y14011046D01*
X1815846Y14017955D01*
X1826564Y14026388D01*
X1836013Y14036192D01*
X1844090Y14047114D01*
X1849729Y14057477D01*
X1802688Y14057477D01*
G37*
G36*
X2388362Y12589154D02*
G01*
X2401976Y12589154D01*
X2415438Y12590983D01*
X2428544Y12594590D01*
X2441092Y12599873D01*
X2452776Y12606832D01*
X2463495Y12615265D01*
X2472944Y12625019D01*
X2481021Y12635992D01*
X2487523Y12647930D01*
X2492400Y12660579D01*
X2495600Y12673838D01*
X2496921Y12687350D01*
X2496464Y12700965D01*
X2494229Y12714376D01*
X2490216Y12727381D01*
X2484475Y12739725D01*
X2477160Y12751155D01*
X2468372Y12761569D01*
X2458262Y12770662D01*
X2447036Y12778384D01*
X2434894Y12784531D01*
X2422042Y12789001D01*
X2408732Y12791694D01*
X2395169Y12792608D01*
X2381605Y12791694D01*
X2368245Y12789001D01*
X2355392Y12784531D01*
X2343251Y12778384D01*
X2332075Y12770662D01*
X2321966Y12761569D01*
X2313178Y12751155D01*
X2305862Y12739725D01*
X2300122Y12727381D01*
X2296109Y12714376D01*
X2293823Y12700965D01*
X2293366Y12687350D01*
X2294737Y12673838D01*
X2297887Y12660579D01*
X2302814Y12647930D01*
X2309317Y12635992D01*
X2317394Y12625019D01*
X2326843Y12615265D01*
X2337511Y12606832D01*
X2349246Y12599873D01*
X2361742Y12594590D01*
X2374900Y12590983D01*
G37*
G36*
X2005431Y14000327D02*
G01*
X2019046Y14000327D01*
X2032507Y14002105D01*
X2045614Y14005712D01*
X2058162Y14011046D01*
X2069846Y14017955D01*
X2080564Y14026388D01*
X2090013Y14036192D01*
X2098090Y14047114D01*
X2104593Y14059052D01*
X2109470Y14071752D01*
X2112670Y14084960D01*
X2113991Y14098524D01*
X2113534Y14112087D01*
X2111298Y14125498D01*
X2107285Y14138503D01*
X2101545Y14150848D01*
X2094230Y14162328D01*
X2085441Y14172692D01*
X2075332Y14181836D01*
X2064105Y14189557D01*
X2051964Y14195653D01*
X2039112Y14200124D01*
X2025802Y14202816D01*
X2012238Y14203730D01*
X1998675Y14202816D01*
X1985314Y14200124D01*
X1972462Y14195653D01*
X1960321Y14189557D01*
X1949145Y14181836D01*
X1939036Y14172692D01*
X1930247Y14162328D01*
X1922932Y14150848D01*
X1917192Y14138503D01*
X1913178Y14125498D01*
X1910892Y14112087D01*
X1910435Y14098524D01*
X1911807Y14084960D01*
X1914956Y14071752D01*
X1919884Y14059052D01*
X1926386Y14047114D01*
X1934464Y14036192D01*
X1943912Y14026388D01*
X1954580Y14017955D01*
X1966315Y14011046D01*
X1978812Y14005712D01*
X1991969Y14002105D01*
G37*
G36*
X5115255Y12727686D02*
G01*
X5128768Y12729057D01*
X5142026Y12732207D01*
X5154676Y12737084D01*
X5166614Y12743637D01*
X5177586Y12751714D01*
X5187340Y12761163D01*
X5195773Y12771831D01*
X5202732Y12783515D01*
X5208016Y12796062D01*
X5211622Y12809169D01*
X5213451Y12822682D01*
X5213451Y12836245D01*
X5211622Y12849758D01*
X5208016Y12862864D01*
X5202732Y12875412D01*
X5195773Y12887096D01*
X5187340Y12897764D01*
X5177586Y12907213D01*
X5166614Y12915290D01*
X5154676Y12921843D01*
X5142026Y12926720D01*
X5128768Y12929870D01*
X5115255Y12931241D01*
X5101640Y12930784D01*
X5088229Y12928498D01*
X5075224Y12924485D01*
X5062880Y12918744D01*
X5051450Y12911429D01*
X5041036Y12902641D01*
X5031892Y12892582D01*
X5024221Y12881356D01*
X5018074Y12869214D01*
X5013604Y12856362D01*
X5010912Y12843052D01*
X5009997Y12829489D01*
X5010912Y12815874D01*
X5013604Y12802565D01*
X5018074Y12789712D01*
X5024221Y12777571D01*
X5031892Y12766344D01*
X5041036Y12756286D01*
X5051450Y12747498D01*
X5062880Y12740182D01*
X5075224Y12734442D01*
X5088229Y12730429D01*
X5101640Y12728143D01*
G37*
G36*
X4861255Y12727686D02*
G01*
X4874768Y12729057D01*
X4888026Y12732207D01*
X4900676Y12737084D01*
X4912614Y12743637D01*
X4923586Y12751714D01*
X4933340Y12761163D01*
X4941773Y12771831D01*
X4948732Y12783515D01*
X4954016Y12796062D01*
X4957622Y12809169D01*
X4959451Y12822682D01*
X4959451Y12836245D01*
X4957622Y12849758D01*
X4954016Y12862864D01*
X4948732Y12875412D01*
X4941773Y12887096D01*
X4933340Y12897764D01*
X4923586Y12907213D01*
X4912614Y12915290D01*
X4900676Y12921843D01*
X4888026Y12926720D01*
X4874768Y12929870D01*
X4861255Y12931241D01*
X4847640Y12930784D01*
X4834229Y12928498D01*
X4821224Y12924485D01*
X4808880Y12918744D01*
X4797450Y12911429D01*
X4787036Y12902641D01*
X4777892Y12892582D01*
X4770221Y12881356D01*
X4764074Y12869214D01*
X4759604Y12856362D01*
X4756912Y12843052D01*
X4755997Y12829489D01*
X4756912Y12815874D01*
X4759604Y12802565D01*
X4764074Y12789712D01*
X4770221Y12777571D01*
X4777892Y12766344D01*
X4787036Y12756286D01*
X4797450Y12747498D01*
X4808880Y12740182D01*
X4821224Y12734442D01*
X4834229Y12730429D01*
X4847640Y12728143D01*
G37*
G36*
X5623255Y12727686D02*
G01*
X5636768Y12729057D01*
X5650026Y12732207D01*
X5662676Y12737084D01*
X5674614Y12743637D01*
X5685586Y12751714D01*
X5695340Y12761163D01*
X5703773Y12771831D01*
X5710732Y12783515D01*
X5716016Y12796062D01*
X5719622Y12809169D01*
X5721451Y12822682D01*
X5721451Y12836245D01*
X5719622Y12849758D01*
X5716016Y12862864D01*
X5710732Y12875412D01*
X5703773Y12887096D01*
X5695340Y12897764D01*
X5685586Y12907213D01*
X5674614Y12915290D01*
X5662676Y12921843D01*
X5650026Y12926720D01*
X5636768Y12929870D01*
X5623255Y12931241D01*
X5609640Y12930784D01*
X5596229Y12928498D01*
X5583224Y12924485D01*
X5570880Y12918744D01*
X5559450Y12911429D01*
X5549036Y12902641D01*
X5539892Y12892582D01*
X5532221Y12881356D01*
X5526074Y12869214D01*
X5521604Y12856362D01*
X5518912Y12843052D01*
X5517997Y12829489D01*
X5518912Y12815874D01*
X5521604Y12802565D01*
X5526074Y12789712D01*
X5532221Y12777571D01*
X5539892Y12766344D01*
X5549036Y12756286D01*
X5559450Y12747498D01*
X5570880Y12740182D01*
X5583224Y12734442D01*
X5596229Y12730429D01*
X5609640Y12728143D01*
G37*
G36*
X4099255Y12727686D02*
G01*
X4112768Y12729057D01*
X4126026Y12732207D01*
X4138676Y12737084D01*
X4150614Y12743637D01*
X4161586Y12751714D01*
X4171340Y12761163D01*
X4179773Y12771831D01*
X4186732Y12783515D01*
X4192015Y12796062D01*
X4195622Y12809169D01*
X4197451Y12822682D01*
X4197451Y12829133D01*
X4198213Y12832994D01*
X4200398Y12836296D01*
X4203700Y12838531D01*
X4207611Y12839293D01*
X4211472Y12838531D01*
X4214774Y12836296D01*
X4251604Y12799466D01*
X4254042Y12795605D01*
X4256074Y12789712D01*
X4262221Y12777571D01*
X4269892Y12766344D01*
X4279036Y12756286D01*
X4289450Y12747498D01*
X4300880Y12740182D01*
X4313224Y12734442D01*
X4326229Y12730429D01*
X4339640Y12728143D01*
X4353255Y12727686D01*
X4366768Y12729057D01*
X4380026Y12732207D01*
X4392676Y12737084D01*
X4404614Y12743637D01*
X4415586Y12751714D01*
X4425340Y12761163D01*
X4433773Y12771831D01*
X4440732Y12783515D01*
X4446016Y12796062D01*
X4449622Y12809169D01*
X4451451Y12822682D01*
X4451451Y12836245D01*
X4449622Y12849758D01*
X4446016Y12862864D01*
X4440732Y12875412D01*
X4433773Y12887096D01*
X4425340Y12897764D01*
X4415586Y12907213D01*
X4404614Y12915290D01*
X4392676Y12921843D01*
X4383278Y12925450D01*
X4379722Y12927787D01*
X3916324Y13391184D01*
X3914140Y13394436D01*
X3913378Y13398347D01*
X3913378Y13539419D01*
X3912463Y13552119D01*
X3909974Y13564209D01*
X3905808Y13575893D01*
X3900119Y13586866D01*
X3893007Y13596975D01*
X3884574Y13606018D01*
X3874973Y13613841D01*
X3864406Y13620242D01*
X3853027Y13625169D01*
X3841140Y13628522D01*
X3828897Y13630198D01*
X3816502Y13630198D01*
X3804259Y13628522D01*
X3792372Y13625169D01*
X3780993Y13620242D01*
X3770426Y13613841D01*
X3760825Y13606018D01*
X3752392Y13596975D01*
X3745280Y13586866D01*
X3739591Y13575893D01*
X3735425Y13564209D01*
X3732936Y13552119D01*
X3732022Y13539419D01*
X3732022Y13356844D01*
X3732529Y13347141D01*
X3734663Y13334949D01*
X3738422Y13323163D01*
X3739489Y13320623D01*
X3743756Y13311987D01*
X3750564Y13301675D01*
X3758793Y13292328D01*
X4102608Y12948462D01*
X4104792Y12945211D01*
X4105605Y12941401D01*
X4104894Y12937540D01*
X4102760Y12934238D01*
X4099610Y12932003D01*
X4095800Y12931140D01*
X4085640Y12930784D01*
X4072229Y12928498D01*
X4059224Y12924485D01*
X4046880Y12918744D01*
X4035450Y12911429D01*
X4025036Y12902641D01*
X4015892Y12892582D01*
X4008221Y12881356D01*
X4002074Y12869214D01*
X3997604Y12856362D01*
X3994912Y12843052D01*
X3993997Y12829489D01*
X3994912Y12815874D01*
X3997604Y12802565D01*
X4002074Y12789712D01*
X4008221Y12777571D01*
X4015892Y12766344D01*
X4025036Y12756286D01*
X4035450Y12747498D01*
X4046880Y12740182D01*
X4059224Y12734442D01*
X4072229Y12730429D01*
X4085640Y12728143D01*
G37*
G36*
X3275431Y14000327D02*
G01*
X3289046Y14000327D01*
X3302508Y14002105D01*
X3315614Y14005712D01*
X3328162Y14011046D01*
X3339846Y14017955D01*
X3350564Y14026388D01*
X3360013Y14036192D01*
X3368090Y14047114D01*
X3374593Y14059052D01*
X3379470Y14071752D01*
X3382670Y14084960D01*
X3383991Y14098524D01*
X3383534Y14112087D01*
X3381298Y14125498D01*
X3377285Y14138503D01*
X3371545Y14150848D01*
X3364229Y14162328D01*
X3355441Y14172692D01*
X3345332Y14181836D01*
X3334105Y14189557D01*
X3321964Y14195653D01*
X3309112Y14200124D01*
X3295802Y14202816D01*
X3282238Y14203730D01*
X3268675Y14202816D01*
X3255314Y14200124D01*
X3242462Y14195653D01*
X3230321Y14189557D01*
X3219145Y14181836D01*
X3209036Y14172692D01*
X3200247Y14162328D01*
X3192932Y14150848D01*
X3187192Y14138503D01*
X3183178Y14125498D01*
X3180892Y14112087D01*
X3180435Y14098524D01*
X3181807Y14084960D01*
X3184956Y14071752D01*
X3189884Y14059052D01*
X3196386Y14047114D01*
X3204464Y14036192D01*
X3213912Y14026388D01*
X3224580Y14017955D01*
X3236315Y14011046D01*
X3248812Y14005712D01*
X3261969Y14002105D01*
G37*
G36*
X5410301Y12737947D02*
G01*
X5420614Y12743637D01*
X5431586Y12751714D01*
X5441340Y12761163D01*
X5449773Y12771831D01*
X5456732Y12783515D01*
X5457342Y12785039D01*
X5410301Y12785039D01*
G37*
G36*
X4648301Y12737947D02*
G01*
X4658614Y12743637D01*
X4669586Y12751714D01*
X4679340Y12761163D01*
X4687773Y12771831D01*
X4694732Y12783515D01*
X4695342Y12785039D01*
X4648301Y12785039D01*
G37*
G36*
X5321401Y12738100D02*
G01*
X5321401Y12785039D01*
X5274462Y12785039D01*
X5278221Y12777571D01*
X5285892Y12766344D01*
X5295036Y12756286D01*
X5305450Y12747498D01*
X5316880Y12740182D01*
G37*
G36*
X4559401Y12738100D02*
G01*
X4559401Y12785039D01*
X4512462Y12785039D01*
X4516221Y12777571D01*
X4523892Y12766344D01*
X4533036Y12756286D01*
X4543450Y12747498D01*
X4554880Y12740182D01*
G37*
G36*
X4512462Y12873939D02*
G01*
X4559401Y12873939D01*
X4559401Y12920827D01*
X4554880Y12918744D01*
X4543450Y12911429D01*
X4533036Y12902641D01*
X4523892Y12892582D01*
X4516221Y12881356D01*
G37*
G36*
X5307431Y14000327D02*
G01*
X5321046Y14000327D01*
X5334508Y14002105D01*
X5347614Y14005712D01*
X5360162Y14011046D01*
X5371846Y14017955D01*
X5382564Y14026388D01*
X5392013Y14036192D01*
X5400090Y14047114D01*
X5406593Y14059052D01*
X5411470Y14071752D01*
X5414670Y14084960D01*
X5415991Y14098524D01*
X5415534Y14112087D01*
X5413298Y14125498D01*
X5409285Y14138503D01*
X5403545Y14150848D01*
X5396230Y14162328D01*
X5387441Y14172692D01*
X5377332Y14181836D01*
X5366105Y14189557D01*
X5353964Y14195653D01*
X5341112Y14200124D01*
X5327802Y14202816D01*
X5314238Y14203730D01*
X5300675Y14202816D01*
X5287314Y14200124D01*
X5274462Y14195653D01*
X5262321Y14189557D01*
X5251145Y14181836D01*
X5241036Y14172692D01*
X5232247Y14162328D01*
X5224932Y14150848D01*
X5219192Y14138503D01*
X5215178Y14125498D01*
X5212892Y14112087D01*
X5212435Y14098524D01*
X5213807Y14084960D01*
X5216956Y14071752D01*
X5221884Y14059052D01*
X5228386Y14047114D01*
X5236464Y14036192D01*
X5245912Y14026388D01*
X5256580Y14017955D01*
X5268315Y14011046D01*
X5280812Y14005712D01*
X5293969Y14002105D01*
G37*
G36*
X4648301Y12873939D02*
G01*
X4695342Y12873939D01*
X4694732Y12875412D01*
X4687773Y12887096D01*
X4679340Y12897764D01*
X4669586Y12907213D01*
X4658614Y12915290D01*
X4648301Y12920980D01*
G37*
G36*
X5410301Y12873939D02*
G01*
X5457342Y12873939D01*
X5456732Y12875412D01*
X5449773Y12887096D01*
X5441340Y12897764D01*
X5431586Y12907213D01*
X5420614Y12915290D01*
X5410301Y12920980D01*
G37*
G36*
X6231991Y12990423D02*
G01*
X6231991Y13042087D01*
X6180277Y13042087D01*
X6186119Y13031520D01*
X6194552Y13019887D01*
X6204407Y13009371D01*
X6215481Y13000228D01*
X6227622Y12992506D01*
G37*
G36*
X6333591Y12990423D02*
G01*
X6337960Y12992506D01*
X6350101Y13000228D01*
X6361226Y13009371D01*
X6371031Y13019887D01*
X6379514Y13031520D01*
X6385306Y13042087D01*
X6333591Y13042087D01*
G37*
G36*
X6572402Y13052704D02*
G01*
X6584797Y13052704D01*
X6597040Y13054380D01*
X6608927Y13057733D01*
X6620306Y13062661D01*
X6630873Y13069062D01*
X6640474Y13076885D01*
X6648907Y13085927D01*
X6656019Y13096036D01*
X6661708Y13107009D01*
X6665874Y13118642D01*
X6668363Y13130784D01*
X6669278Y13143433D01*
X6669278Y13677646D01*
X6668770Y13687348D01*
X6666636Y13699540D01*
X6662877Y13711326D01*
X6661810Y13713866D01*
X6657543Y13722502D01*
X6650736Y13732814D01*
X6642506Y13742162D01*
X6465062Y13919606D01*
X6455714Y13927836D01*
X6445402Y13934643D01*
X6436766Y13938910D01*
X6434226Y13939977D01*
X6422440Y13943736D01*
X6410248Y13945869D01*
X6400546Y13946378D01*
X5734710Y13946378D01*
X5722061Y13945463D01*
X5709920Y13942974D01*
X5698286Y13938808D01*
X5687263Y13933119D01*
X5677204Y13926007D01*
X5668162Y13917574D01*
X5660339Y13907973D01*
X5653887Y13897406D01*
X5648960Y13886027D01*
X5645658Y13874140D01*
X5643981Y13861897D01*
X5643981Y13849502D01*
X5645658Y13837259D01*
X5648960Y13825372D01*
X5653887Y13813993D01*
X5660339Y13803426D01*
X5668162Y13793825D01*
X5677204Y13785392D01*
X5687263Y13778280D01*
X5698286Y13772591D01*
X5709920Y13768425D01*
X5722061Y13765936D01*
X5734710Y13765022D01*
X6359042Y13765022D01*
X6362954Y13764260D01*
X6366205Y13762075D01*
X6484975Y13643305D01*
X6487160Y13640054D01*
X6487922Y13636142D01*
X6487922Y13143433D01*
X6488836Y13130784D01*
X6491325Y13118642D01*
X6495491Y13107009D01*
X6501180Y13096036D01*
X6508292Y13085927D01*
X6516725Y13076885D01*
X6526326Y13069062D01*
X6536893Y13062661D01*
X6548272Y13057733D01*
X6560159Y13054380D01*
G37*
G36*
X6333591Y13143687D02*
G01*
X6385306Y13143687D01*
X6379514Y13154253D01*
X6371031Y13165886D01*
X6361226Y13176351D01*
X6350101Y13185546D01*
X6337960Y13193217D01*
X6333591Y13195300D01*
G37*
G36*
X6180277Y13143687D02*
G01*
X6231991Y13143687D01*
X6231991Y13195300D01*
X6227622Y13193217D01*
X6215481Y13185546D01*
X6204407Y13176351D01*
X6194552Y13165886D01*
X6186119Y13154253D01*
G37*
G36*
X-23977Y13227913D02*
G01*
X-10363Y13228370D01*
X3048Y13230606D01*
X16002Y13234619D01*
X28346Y13240359D01*
X39827Y13247674D01*
X50241Y13256463D01*
X59334Y13266572D01*
X67056Y13277748D01*
X73152Y13289889D01*
X77622Y13302742D01*
X80365Y13316102D01*
X81280Y13329666D01*
X80365Y13343229D01*
X77622Y13356590D01*
X73152Y13369442D01*
X67056Y13381583D01*
X59334Y13392759D01*
X50241Y13402868D01*
X39827Y13411657D01*
X28346Y13418972D01*
X16002Y13424712D01*
X3048Y13428726D01*
X-10363Y13430961D01*
X-23977Y13431418D01*
X-37490Y13430097D01*
X-50749Y13426948D01*
X-63449Y13422020D01*
X-75387Y13415518D01*
X-86309Y13407440D01*
X-96113Y13397992D01*
X-104546Y13387273D01*
X-111455Y13375589D01*
X-116789Y13363092D01*
X-120345Y13349935D01*
X-122174Y13336473D01*
X-122174Y13322858D01*
X-120345Y13309396D01*
X-116789Y13296239D01*
X-111455Y13283742D01*
X-104546Y13272058D01*
X-96113Y13261340D01*
X-86309Y13251891D01*
X-75387Y13243813D01*
X-63449Y13237311D01*
X-50749Y13232384D01*
X-37490Y13229234D01*
G37*
G36*
X442976Y13238175D02*
G01*
X442976Y13285216D01*
X395935Y13285216D01*
X396544Y13283742D01*
X403453Y13272058D01*
X411886Y13261340D01*
X421690Y13251891D01*
X432612Y13243813D01*
G37*
G36*
X531876Y13238276D02*
G01*
X536346Y13240359D01*
X547827Y13247674D01*
X558241Y13256463D01*
X567334Y13266572D01*
X575056Y13277748D01*
X578815Y13285216D01*
X531876Y13285216D01*
G37*
G36*
X531876Y13374116D02*
G01*
X578815Y13374116D01*
X575056Y13381583D01*
X567334Y13392759D01*
X558241Y13402868D01*
X547827Y13411657D01*
X536346Y13418972D01*
X531876Y13421055D01*
G37*
G36*
X395935Y13374116D02*
G01*
X442976Y13374116D01*
X442976Y13421156D01*
X432612Y13415518D01*
X421690Y13407440D01*
X411886Y13397992D01*
X403453Y13387273D01*
X396544Y13375589D01*
G37*
G36*
X4353255Y13489686D02*
G01*
X4366768Y13491057D01*
X4380026Y13494207D01*
X4392676Y13499084D01*
X4404614Y13505637D01*
X4415586Y13513714D01*
X4425340Y13523163D01*
X4433773Y13533831D01*
X4440732Y13545515D01*
X4446016Y13558062D01*
X4449622Y13571169D01*
X4451451Y13584682D01*
X4451451Y13598245D01*
X4449622Y13611758D01*
X4446016Y13624864D01*
X4440732Y13637412D01*
X4433773Y13649096D01*
X4425340Y13659764D01*
X4415586Y13669213D01*
X4404614Y13677290D01*
X4392676Y13683843D01*
X4380026Y13688720D01*
X4366768Y13691869D01*
X4353255Y13693241D01*
X4339640Y13692784D01*
X4326229Y13690498D01*
X4313224Y13686485D01*
X4300880Y13680744D01*
X4289450Y13673429D01*
X4279036Y13664641D01*
X4269892Y13654582D01*
X4262221Y13643356D01*
X4256074Y13631214D01*
X4251604Y13618362D01*
X4248912Y13605052D01*
X4247997Y13591489D01*
X4248912Y13577874D01*
X4251604Y13564565D01*
X4256074Y13551712D01*
X4262221Y13539571D01*
X4269892Y13528344D01*
X4279036Y13518286D01*
X4289450Y13509498D01*
X4300880Y13502182D01*
X4313224Y13496442D01*
X4326229Y13492429D01*
X4339640Y13490143D01*
G37*
G36*
X4607255Y13489686D02*
G01*
X4620768Y13491057D01*
X4634026Y13494207D01*
X4646676Y13499084D01*
X4658614Y13505637D01*
X4669586Y13513714D01*
X4679340Y13523163D01*
X4687773Y13533831D01*
X4694732Y13545515D01*
X4700016Y13558062D01*
X4703622Y13571169D01*
X4705451Y13584682D01*
X4705451Y13598245D01*
X4703622Y13611758D01*
X4700016Y13624864D01*
X4694732Y13637412D01*
X4687773Y13649096D01*
X4679340Y13659764D01*
X4669586Y13669213D01*
X4658614Y13677290D01*
X4646676Y13683843D01*
X4634026Y13688720D01*
X4620768Y13691869D01*
X4607255Y13693241D01*
X4593640Y13692784D01*
X4580229Y13690498D01*
X4567224Y13686485D01*
X4554880Y13680744D01*
X4543450Y13673429D01*
X4533036Y13664641D01*
X4523892Y13654582D01*
X4516221Y13643356D01*
X4510074Y13631214D01*
X4505604Y13618362D01*
X4502912Y13605052D01*
X4501997Y13591489D01*
X4502912Y13577874D01*
X4505604Y13564565D01*
X4510074Y13551712D01*
X4516221Y13539571D01*
X4523892Y13528344D01*
X4533036Y13518286D01*
X4543450Y13509498D01*
X4554880Y13502182D01*
X4567224Y13496442D01*
X4580229Y13492429D01*
X4593640Y13490143D01*
G37*
G36*
X4861255Y13489686D02*
G01*
X4874768Y13491057D01*
X4888026Y13494207D01*
X4900676Y13499084D01*
X4912614Y13505637D01*
X4923586Y13513714D01*
X4933340Y13523163D01*
X4941773Y13533831D01*
X4948732Y13545515D01*
X4954016Y13558062D01*
X4957622Y13571169D01*
X4959451Y13584682D01*
X4959451Y13598245D01*
X4957622Y13611758D01*
X4954016Y13624864D01*
X4948732Y13637412D01*
X4941773Y13649096D01*
X4933340Y13659764D01*
X4923586Y13669213D01*
X4912614Y13677290D01*
X4900676Y13683843D01*
X4888026Y13688720D01*
X4874768Y13691869D01*
X4861255Y13693241D01*
X4847640Y13692784D01*
X4834229Y13690498D01*
X4821224Y13686485D01*
X4808880Y13680744D01*
X4797450Y13673429D01*
X4787036Y13664641D01*
X4777892Y13654582D01*
X4770221Y13643356D01*
X4764074Y13631214D01*
X4759604Y13618362D01*
X4756912Y13605052D01*
X4755997Y13591489D01*
X4756912Y13577874D01*
X4759604Y13564565D01*
X4764074Y13551712D01*
X4770221Y13539571D01*
X4777892Y13528344D01*
X4787036Y13518286D01*
X4797450Y13509498D01*
X4808880Y13502182D01*
X4821224Y13496442D01*
X4834229Y13492429D01*
X4847640Y13490143D01*
G37*
G36*
X5115255Y13489686D02*
G01*
X5128768Y13491057D01*
X5142026Y13494207D01*
X5154676Y13499084D01*
X5166614Y13505637D01*
X5177586Y13513714D01*
X5187340Y13523163D01*
X5195773Y13533831D01*
X5202732Y13545515D01*
X5208016Y13558062D01*
X5211622Y13571169D01*
X5213451Y13584682D01*
X5213451Y13591133D01*
X5214213Y13594994D01*
X5216398Y13598296D01*
X5219700Y13600480D01*
X5223611Y13601293D01*
X5227472Y13600480D01*
X5230774Y13598296D01*
X5267604Y13561466D01*
X5270042Y13557605D01*
X5272074Y13551712D01*
X5278221Y13539571D01*
X5285892Y13528344D01*
X5295036Y13518286D01*
X5305450Y13509498D01*
X5316880Y13502182D01*
X5329224Y13496442D01*
X5342229Y13492429D01*
X5355640Y13490143D01*
X5369255Y13489686D01*
X5382768Y13491057D01*
X5396026Y13494207D01*
X5408676Y13499084D01*
X5420614Y13505637D01*
X5431586Y13513714D01*
X5441340Y13523163D01*
X5449773Y13533831D01*
X5456732Y13545515D01*
X5462016Y13558062D01*
X5465622Y13571169D01*
X5467451Y13584682D01*
X5467451Y13598245D01*
X5465622Y13611758D01*
X5462016Y13624864D01*
X5456732Y13637412D01*
X5449773Y13649096D01*
X5441340Y13659764D01*
X5431586Y13669213D01*
X5420614Y13677290D01*
X5408676Y13683843D01*
X5399227Y13687450D01*
X5395722Y13689787D01*
X5153812Y13931696D01*
X5151628Y13934948D01*
X5150866Y13938859D01*
X5150866Y14053261D01*
X5151170Y14055750D01*
X5157470Y14071752D01*
X5160670Y14084960D01*
X5161991Y14098524D01*
X5161534Y14112087D01*
X5159298Y14125498D01*
X5155285Y14138503D01*
X5149545Y14150848D01*
X5142230Y14162328D01*
X5133441Y14172692D01*
X5123332Y14181836D01*
X5112105Y14189557D01*
X5099964Y14195653D01*
X5087112Y14200124D01*
X5073802Y14202816D01*
X5060238Y14203730D01*
X5046675Y14202816D01*
X5033314Y14200124D01*
X5020462Y14195653D01*
X5008321Y14189557D01*
X4997145Y14181836D01*
X4987036Y14172692D01*
X4978247Y14162328D01*
X4970932Y14150848D01*
X4965192Y14138503D01*
X4961178Y14125498D01*
X4958892Y14112087D01*
X4958435Y14098524D01*
X4959807Y14084960D01*
X4962956Y14071752D01*
X4969205Y14055902D01*
X4969560Y14053413D01*
X4969560Y13897356D01*
X4970018Y13887653D01*
X4972151Y13875461D01*
X4975910Y13863675D01*
X4976977Y13861135D01*
X4981244Y13852499D01*
X4988052Y13842187D01*
X4989779Y13840002D01*
X4996281Y13832789D01*
X5118608Y13710462D01*
X5120792Y13707211D01*
X5121605Y13703401D01*
X5120894Y13699540D01*
X5118760Y13696238D01*
X5115560Y13694003D01*
X5111800Y13693140D01*
X5101640Y13692784D01*
X5088229Y13690498D01*
X5075224Y13686485D01*
X5062880Y13680744D01*
X5051450Y13673429D01*
X5041036Y13664641D01*
X5031892Y13654582D01*
X5024221Y13643356D01*
X5018074Y13631214D01*
X5013604Y13618362D01*
X5010912Y13605052D01*
X5009997Y13591489D01*
X5010912Y13577874D01*
X5013604Y13564565D01*
X5018074Y13551712D01*
X5024221Y13539571D01*
X5031892Y13528344D01*
X5041036Y13518286D01*
X5051450Y13509498D01*
X5062880Y13502182D01*
X5075224Y13496442D01*
X5088229Y13492429D01*
X5101640Y13490143D01*
G37*
G36*
X3529431Y14000327D02*
G01*
X3543046Y14000327D01*
X3556508Y14002105D01*
X3569614Y14005712D01*
X3582162Y14011046D01*
X3593846Y14017955D01*
X3604564Y14026388D01*
X3614013Y14036192D01*
X3622090Y14047114D01*
X3628593Y14059052D01*
X3633470Y14071752D01*
X3636670Y14084960D01*
X3637991Y14098524D01*
X3637534Y14112087D01*
X3635298Y14125498D01*
X3631285Y14138503D01*
X3625545Y14150848D01*
X3618229Y14162328D01*
X3609441Y14172692D01*
X3599332Y14181836D01*
X3588105Y14189557D01*
X3575964Y14195653D01*
X3563112Y14200124D01*
X3549802Y14202816D01*
X3536238Y14203730D01*
X3522675Y14202816D01*
X3509314Y14200124D01*
X3496462Y14195653D01*
X3484321Y14189557D01*
X3473145Y14181836D01*
X3463036Y14172692D01*
X3454247Y14162328D01*
X3446932Y14150848D01*
X3441192Y14138503D01*
X3437178Y14125498D01*
X3434892Y14112087D01*
X3434435Y14098524D01*
X3435807Y14084960D01*
X3438956Y14071752D01*
X3443884Y14059052D01*
X3450386Y14047114D01*
X3458464Y14036192D01*
X3467912Y14026388D01*
X3478580Y14017955D01*
X3490315Y14011046D01*
X3502812Y14005712D01*
X3515969Y14002105D01*
G37*
G36*
X5664301Y13499947D02*
G01*
X5674614Y13505637D01*
X5685586Y13513714D01*
X5695340Y13523163D01*
X5703773Y13533831D01*
X5710732Y13545515D01*
X5711342Y13547039D01*
X5664301Y13547039D01*
G37*
G36*
X4140301Y13499947D02*
G01*
X4150614Y13505637D01*
X4161586Y13513714D01*
X4171340Y13523163D01*
X4179773Y13533831D01*
X4186732Y13545515D01*
X4187342Y13547039D01*
X4140301Y13547039D01*
G37*
G36*
X5575401Y13500100D02*
G01*
X5575401Y13547039D01*
X5528462Y13547039D01*
X5532221Y13539571D01*
X5539892Y13528344D01*
X5549036Y13518286D01*
X5559450Y13509498D01*
X5570880Y13502182D01*
G37*
G36*
X4051401Y13500100D02*
G01*
X4051401Y13547039D01*
X4004462Y13547039D01*
X4008221Y13539571D01*
X4015892Y13528344D01*
X4025036Y13518286D01*
X4035450Y13509498D01*
X4046880Y13502182D01*
G37*
G36*
X4037431Y14000327D02*
G01*
X4051046Y14000327D01*
X4064508Y14002105D01*
X4077614Y14005712D01*
X4090162Y14011046D01*
X4101846Y14017955D01*
X4112564Y14026388D01*
X4122013Y14036192D01*
X4130090Y14047114D01*
X4136593Y14059052D01*
X4141470Y14071752D01*
X4144670Y14084960D01*
X4145991Y14098524D01*
X4145534Y14112087D01*
X4143298Y14125498D01*
X4139285Y14138503D01*
X4133545Y14150848D01*
X4126229Y14162328D01*
X4117441Y14172692D01*
X4107332Y14181836D01*
X4096105Y14189557D01*
X4083964Y14195653D01*
X4071112Y14200124D01*
X4057802Y14202816D01*
X4044238Y14203730D01*
X4030675Y14202816D01*
X4017314Y14200124D01*
X4004462Y14195653D01*
X3992321Y14189557D01*
X3981145Y14181836D01*
X3971036Y14172692D01*
X3962247Y14162328D01*
X3954932Y14150848D01*
X3949192Y14138503D01*
X3945178Y14125498D01*
X3942892Y14112087D01*
X3942435Y14098524D01*
X3943807Y14084960D01*
X3946956Y14071752D01*
X3951884Y14059052D01*
X3958386Y14047114D01*
X3966464Y14036192D01*
X3975912Y14026388D01*
X3986580Y14017955D01*
X3998315Y14011046D01*
X4010812Y14005712D01*
X4023969Y14002105D01*
G37*
G36*
X2936646Y13614450D02*
G01*
X2950210Y13614450D01*
X2963722Y13616279D01*
X2976829Y13619886D01*
X2989376Y13625169D01*
X3001060Y13632129D01*
X3011728Y13640562D01*
X3021177Y13650315D01*
X3029254Y13661288D01*
X3035808Y13673226D01*
X3040684Y13685875D01*
X3043834Y13699134D01*
X3045206Y13712647D01*
X3044748Y13726261D01*
X3042462Y13739672D01*
X3038449Y13752677D01*
X3032709Y13765022D01*
X3025394Y13776451D01*
X3016605Y13786866D01*
X3006547Y13796010D01*
X2995320Y13803680D01*
X2983179Y13809827D01*
X2970326Y13814298D01*
X2957017Y13816990D01*
X2943453Y13817904D01*
X2929839Y13816990D01*
X2916529Y13814298D01*
X2903677Y13809827D01*
X2891536Y13803680D01*
X2880309Y13796010D01*
X2870250Y13786866D01*
X2861462Y13776451D01*
X2854147Y13765022D01*
X2848406Y13752677D01*
X2844393Y13739672D01*
X2842107Y13726261D01*
X2841650Y13712647D01*
X2843022Y13699134D01*
X2846171Y13685875D01*
X2851048Y13673226D01*
X2857601Y13661288D01*
X2865678Y13650315D01*
X2875127Y13640562D01*
X2885795Y13632129D01*
X2897479Y13625169D01*
X2910027Y13619886D01*
X2923133Y13616279D01*
G37*
G36*
X2513431Y14000327D02*
G01*
X2527046Y14000327D01*
X2540508Y14002105D01*
X2553614Y14005712D01*
X2566162Y14011046D01*
X2577846Y14017955D01*
X2588564Y14026388D01*
X2598013Y14036192D01*
X2606090Y14047114D01*
X2612593Y14059052D01*
X2617470Y14071752D01*
X2620670Y14084960D01*
X2621991Y14098524D01*
X2621534Y14112087D01*
X2619298Y14125498D01*
X2615285Y14138503D01*
X2609545Y14150848D01*
X2602230Y14162328D01*
X2593441Y14172692D01*
X2583332Y14181836D01*
X2572105Y14189557D01*
X2559964Y14195653D01*
X2547112Y14200124D01*
X2533802Y14202816D01*
X2520238Y14203730D01*
X2506675Y14202816D01*
X2493314Y14200124D01*
X2480462Y14195653D01*
X2468321Y14189557D01*
X2457145Y14181836D01*
X2447036Y14172692D01*
X2438247Y14162328D01*
X2430932Y14150848D01*
X2425192Y14138503D01*
X2421178Y14125498D01*
X2418892Y14112087D01*
X2418435Y14098524D01*
X2419807Y14084960D01*
X2422956Y14071752D01*
X2427884Y14059052D01*
X2434386Y14047114D01*
X2442464Y14036192D01*
X2451912Y14026388D01*
X2462580Y14017955D01*
X2474315Y14011046D01*
X2486812Y14005712D01*
X2499969Y14002105D01*
G37*
G36*
X5528462Y13635939D02*
G01*
X5575401Y13635939D01*
X5575401Y13682827D01*
X5570880Y13680744D01*
X5559450Y13673429D01*
X5549036Y13664641D01*
X5539892Y13654582D01*
X5532221Y13643356D01*
G37*
G36*
X4004462Y13635939D02*
G01*
X4051401Y13635939D01*
X4051401Y13682827D01*
X4046880Y13680744D01*
X4035450Y13673429D01*
X4025036Y13664641D01*
X4015892Y13654582D01*
X4008221Y13643356D01*
G37*
G36*
X5664301Y13635939D02*
G01*
X5711342Y13635939D01*
X5710732Y13637412D01*
X5703773Y13649096D01*
X5695340Y13659764D01*
X5685586Y13669213D01*
X5674614Y13677290D01*
X5664301Y13682980D01*
G37*
G36*
X4140301Y13635939D02*
G01*
X4187342Y13635939D01*
X4186732Y13637412D01*
X4179773Y13649096D01*
X4171340Y13659764D01*
X4161586Y13669213D01*
X4150614Y13677290D01*
X4140301Y13682980D01*
G37*
G36*
X-356158Y13974876D02*
G01*
X-341122Y13975791D01*
X-326339Y13978585D01*
X-312013Y13983157D01*
X-298348Y13989405D01*
X-285546Y13997330D01*
X-273862Y14006779D01*
X-263398Y14017548D01*
X-254304Y14029588D01*
X-246786Y14042593D01*
X-240944Y14056461D01*
X-238912Y14063522D01*
X-236880Y14067383D01*
X-233375Y14069974D01*
X-229158Y14070888D01*
X-224891Y14069974D01*
X-221437Y14067383D01*
X-219354Y14063522D01*
X-217373Y14056461D01*
X-211480Y14042593D01*
X-203962Y14029588D01*
X-194919Y14017548D01*
X-184454Y14006779D01*
X-172720Y13997330D01*
X-159918Y13989405D01*
X-146253Y13983157D01*
X-131927Y13978585D01*
X-117144Y13975791D01*
X-102158Y13974876D01*
X-87122Y13975791D01*
X-72339Y13978585D01*
X-58013Y13983157D01*
X-44348Y13989405D01*
X-31546Y13997330D01*
X-19862Y14006779D01*
X-9398Y14017548D01*
X-304Y14029588D01*
X7213Y14042593D01*
X13055Y14056461D01*
X17170Y14070888D01*
X19507Y14085773D01*
X19964Y14100810D01*
X18542Y14115796D01*
X15341Y14130477D01*
X10363Y14144650D01*
X3657Y14158112D01*
X-4673Y14170660D01*
X-14427Y14182090D01*
X-25552Y14192199D01*
X-37846Y14200886D01*
X-51104Y14207998D01*
X-65125Y14213433D01*
X-79705Y14217091D01*
X-94640Y14218970D01*
X-109677Y14218970D01*
X-124612Y14217091D01*
X-139192Y14213433D01*
X-153212Y14207998D01*
X-166471Y14200886D01*
X-178714Y14192199D01*
X-189839Y14182090D01*
X-199644Y14170660D01*
X-207924Y14158112D01*
X-214629Y14144650D01*
X-219557Y14130680D01*
X-221691Y14127124D01*
X-225094Y14124736D01*
X-229158Y14123873D01*
X-233222Y14124736D01*
X-236575Y14127124D01*
X-238709Y14130680D01*
X-243636Y14144650D01*
X-250342Y14158112D01*
X-258673Y14170660D01*
X-268427Y14182090D01*
X-279552Y14192199D01*
X-291846Y14200886D01*
X-305104Y14207998D01*
X-319125Y14213433D01*
X-333705Y14217091D01*
X-348640Y14218970D01*
X-363677Y14218970D01*
X-378612Y14217091D01*
X-393192Y14213433D01*
X-407212Y14207998D01*
X-420471Y14200886D01*
X-432714Y14192199D01*
X-443839Y14182090D01*
X-453643Y14170660D01*
X-461924Y14158112D01*
X-468630Y14144650D01*
X-473659Y14130477D01*
X-476859Y14115796D01*
X-478231Y14100810D01*
X-477774Y14085773D01*
X-475488Y14070888D01*
X-471373Y14056461D01*
X-465480Y14042593D01*
X-457962Y14029588D01*
X-448919Y14017548D01*
X-438454Y14006779D01*
X-426720Y13997330D01*
X-413918Y13989405D01*
X-400253Y13983157D01*
X-385927Y13978585D01*
X-371144Y13975791D01*
G37*
G36*
X4799431Y14000327D02*
G01*
X4813046Y14000327D01*
X4826508Y14002105D01*
X4839614Y14005712D01*
X4852162Y14011046D01*
X4863846Y14017955D01*
X4874564Y14026388D01*
X4884013Y14036192D01*
X4892090Y14047114D01*
X4898593Y14059052D01*
X4903470Y14071752D01*
X4906670Y14084960D01*
X4907991Y14098524D01*
X4907534Y14112087D01*
X4905298Y14125498D01*
X4901285Y14138503D01*
X4895545Y14150848D01*
X4888230Y14162328D01*
X4879441Y14172692D01*
X4869332Y14181836D01*
X4858105Y14189557D01*
X4845964Y14195653D01*
X4833112Y14200124D01*
X4819802Y14202816D01*
X4806238Y14203730D01*
X4792675Y14202816D01*
X4779314Y14200124D01*
X4766462Y14195653D01*
X4754321Y14189557D01*
X4743145Y14181836D01*
X4733036Y14172692D01*
X4724247Y14162328D01*
X4716932Y14150848D01*
X4711192Y14138503D01*
X4707178Y14125498D01*
X4704892Y14112087D01*
X4704435Y14098524D01*
X4705807Y14084960D01*
X4708956Y14071752D01*
X4713884Y14059052D01*
X4720386Y14047114D01*
X4728464Y14036192D01*
X4737912Y14026388D01*
X4748580Y14017955D01*
X4760315Y14011046D01*
X4772812Y14005712D01*
X4785969Y14002105D01*
G37*
G36*
X182270Y13986357D02*
G01*
X351129Y13986357D01*
X357378Y13987068D01*
X362813Y13988948D01*
X367639Y13991996D01*
X371703Y13996060D01*
X374751Y14000886D01*
X376631Y14006322D01*
X377342Y14012570D01*
X377342Y14181429D01*
X376631Y14187678D01*
X374751Y14193113D01*
X371703Y14197939D01*
X367639Y14202003D01*
X362813Y14205051D01*
X357378Y14206931D01*
X351129Y14207642D01*
X182270Y14207642D01*
X176022Y14206931D01*
X170586Y14205051D01*
X165760Y14202003D01*
X161696Y14197939D01*
X158648Y14193113D01*
X156768Y14187678D01*
X156057Y14181429D01*
X156057Y14012570D01*
X156768Y14006322D01*
X158648Y14000886D01*
X161696Y13996060D01*
X165760Y13991996D01*
X170586Y13988948D01*
X176022Y13987068D01*
G37*
G36*
X524256Y13986408D02*
G01*
X538378Y13987780D01*
X552196Y13990929D01*
X565505Y13995857D01*
X578053Y14002410D01*
X589686Y14010487D01*
X600151Y14020038D01*
X609346Y14030807D01*
X617118Y14042694D01*
X623265Y14055496D01*
X627735Y14068958D01*
X630428Y14082877D01*
X631342Y14097000D01*
X630428Y14111122D01*
X627735Y14125041D01*
X623265Y14138503D01*
X617118Y14151305D01*
X609346Y14163192D01*
X600151Y14173962D01*
X589686Y14183512D01*
X578053Y14191589D01*
X565505Y14198142D01*
X552196Y14203070D01*
X538378Y14206219D01*
X524256Y14207591D01*
X510082Y14207134D01*
X496062Y14204848D01*
X482498Y14200835D01*
X469544Y14195094D01*
X457403Y14187728D01*
X446328Y14178889D01*
X436473Y14168729D01*
X427990Y14157350D01*
X421030Y14145006D01*
X415696Y14131848D01*
X412089Y14118132D01*
X410311Y14104112D01*
X410311Y14089888D01*
X412089Y14075867D01*
X415696Y14062151D01*
X421030Y14048994D01*
X427990Y14036649D01*
X436473Y14025270D01*
X446328Y14015110D01*
X457403Y14006271D01*
X469544Y13998905D01*
X482498Y13993164D01*
X496062Y13989151D01*
X510082Y13986865D01*
G37*
G36*
X725830Y13997889D02*
G01*
X725830Y14048130D01*
X675487Y14048130D01*
X681990Y14036649D01*
X690473Y14025270D01*
X700328Y14015110D01*
X711403Y14006271D01*
X723544Y13998905D01*
G37*
G36*
X823569Y13997940D02*
G01*
X832053Y14002410D01*
X843686Y14010487D01*
X854151Y14020038D01*
X863346Y14030807D01*
X871118Y14042694D01*
X873709Y14048130D01*
X823569Y14048130D01*
G37*
G36*
X3783431Y14000327D02*
G01*
X3797046Y14000327D01*
X3810508Y14002105D01*
X3823614Y14005712D01*
X3836162Y14011046D01*
X3847846Y14017955D01*
X3858564Y14026388D01*
X3868013Y14036192D01*
X3876090Y14047114D01*
X3882593Y14059052D01*
X3887470Y14071752D01*
X3890670Y14084960D01*
X3891991Y14098524D01*
X3891534Y14112087D01*
X3889298Y14125498D01*
X3885285Y14138503D01*
X3879545Y14150848D01*
X3872229Y14162328D01*
X3863441Y14172692D01*
X3853332Y14181836D01*
X3842105Y14189557D01*
X3829964Y14195653D01*
X3817112Y14200124D01*
X3803802Y14202816D01*
X3790238Y14203730D01*
X3776675Y14202816D01*
X3763314Y14200124D01*
X3750462Y14195653D01*
X3738321Y14189557D01*
X3727145Y14181836D01*
X3717036Y14172692D01*
X3708247Y14162328D01*
X3700932Y14150848D01*
X3695192Y14138503D01*
X3691178Y14125498D01*
X3688892Y14112087D01*
X3688435Y14098524D01*
X3689807Y14084960D01*
X3692956Y14071752D01*
X3697884Y14059052D01*
X3704386Y14047114D01*
X3712464Y14036192D01*
X3721912Y14026388D01*
X3732580Y14017955D01*
X3744315Y14011046D01*
X3756812Y14005712D01*
X3769969Y14002105D01*
G37*
G36*
X4545431Y14000327D02*
G01*
X4559046Y14000327D01*
X4572508Y14002105D01*
X4585614Y14005712D01*
X4598162Y14011046D01*
X4609846Y14017955D01*
X4620564Y14026388D01*
X4630013Y14036192D01*
X4638090Y14047114D01*
X4644593Y14059052D01*
X4649470Y14071752D01*
X4652670Y14084960D01*
X4653991Y14098524D01*
X4653534Y14112087D01*
X4651298Y14125498D01*
X4647285Y14138503D01*
X4641545Y14150848D01*
X4634230Y14162328D01*
X4625441Y14172692D01*
X4615332Y14181836D01*
X4604105Y14189557D01*
X4591964Y14195653D01*
X4579112Y14200124D01*
X4565802Y14202816D01*
X4552238Y14203730D01*
X4538675Y14202816D01*
X4525314Y14200124D01*
X4512462Y14195653D01*
X4500321Y14189557D01*
X4489145Y14181836D01*
X4479036Y14172692D01*
X4470247Y14162328D01*
X4462932Y14150848D01*
X4457192Y14138503D01*
X4453178Y14125498D01*
X4450892Y14112087D01*
X4450435Y14098524D01*
X4451807Y14084960D01*
X4454956Y14071752D01*
X4459884Y14059052D01*
X4466386Y14047114D01*
X4474464Y14036192D01*
X4483912Y14026388D01*
X4494580Y14017955D01*
X4506315Y14011046D01*
X4518812Y14005712D01*
X4531969Y14002105D01*
G37*
G36*
X2259431Y14000327D02*
G01*
X2273046Y14000327D01*
X2286508Y14002105D01*
X2299614Y14005712D01*
X2312162Y14011046D01*
X2323846Y14017955D01*
X2334564Y14026388D01*
X2344013Y14036192D01*
X2352090Y14047114D01*
X2358593Y14059052D01*
X2363470Y14071752D01*
X2366670Y14084960D01*
X2367991Y14098524D01*
X2367534Y14112087D01*
X2365298Y14125498D01*
X2361285Y14138503D01*
X2355545Y14150848D01*
X2348230Y14162328D01*
X2339441Y14172692D01*
X2329332Y14181836D01*
X2318105Y14189557D01*
X2305964Y14195653D01*
X2293112Y14200124D01*
X2279802Y14202816D01*
X2266238Y14203730D01*
X2252675Y14202816D01*
X2239314Y14200124D01*
X2226462Y14195653D01*
X2214321Y14189557D01*
X2203145Y14181836D01*
X2193036Y14172692D01*
X2184247Y14162328D01*
X2176932Y14150848D01*
X2171192Y14138503D01*
X2167178Y14125498D01*
X2164892Y14112087D01*
X2164435Y14098524D01*
X2165807Y14084960D01*
X2168956Y14071752D01*
X2173884Y14059052D01*
X2180386Y14047114D01*
X2188464Y14036192D01*
X2197912Y14026388D01*
X2208580Y14017955D01*
X2220315Y14011046D01*
X2232812Y14005712D01*
X2245969Y14002105D01*
G37*
G36*
X3021431Y14000327D02*
G01*
X3035046Y14000327D01*
X3048508Y14002105D01*
X3061614Y14005712D01*
X3074162Y14011046D01*
X3085846Y14017955D01*
X3096564Y14026388D01*
X3106013Y14036192D01*
X3114090Y14047114D01*
X3120593Y14059052D01*
X3125470Y14071752D01*
X3128670Y14084960D01*
X3129991Y14098524D01*
X3129534Y14112087D01*
X3127298Y14125498D01*
X3123285Y14138503D01*
X3117545Y14150848D01*
X3110230Y14162328D01*
X3101441Y14172692D01*
X3091332Y14181836D01*
X3080105Y14189557D01*
X3067964Y14195653D01*
X3055112Y14200124D01*
X3041802Y14202816D01*
X3028238Y14203730D01*
X3014675Y14202816D01*
X3001314Y14200124D01*
X2988462Y14195653D01*
X2976321Y14189557D01*
X2965145Y14181836D01*
X2955036Y14172692D01*
X2946247Y14162328D01*
X2938932Y14150848D01*
X2933192Y14138503D01*
X2929178Y14125498D01*
X2926892Y14112087D01*
X2926435Y14098524D01*
X2927807Y14084960D01*
X2930956Y14071752D01*
X2935884Y14059052D01*
X2942386Y14047114D01*
X2950464Y14036192D01*
X2959912Y14026388D01*
X2970580Y14017955D01*
X2982315Y14011046D01*
X2994812Y14005712D01*
X3007969Y14002105D01*
G37*
G36*
X4291431Y14000327D02*
G01*
X4305046Y14000327D01*
X4318508Y14002105D01*
X4331614Y14005712D01*
X4344162Y14011046D01*
X4355846Y14017955D01*
X4366564Y14026388D01*
X4376013Y14036192D01*
X4384090Y14047114D01*
X4390593Y14059052D01*
X4395470Y14071752D01*
X4398670Y14084960D01*
X4399991Y14098524D01*
X4399534Y14112087D01*
X4397298Y14125498D01*
X4393285Y14138503D01*
X4387545Y14150848D01*
X4380230Y14162328D01*
X4371441Y14172692D01*
X4361332Y14181836D01*
X4350105Y14189557D01*
X4337964Y14195653D01*
X4325112Y14200124D01*
X4311802Y14202816D01*
X4298238Y14203730D01*
X4284675Y14202816D01*
X4271314Y14200124D01*
X4258462Y14195653D01*
X4246321Y14189557D01*
X4235145Y14181836D01*
X4225036Y14172692D01*
X4216247Y14162328D01*
X4208932Y14150848D01*
X4203192Y14138503D01*
X4199178Y14125498D01*
X4196892Y14112087D01*
X4196435Y14098524D01*
X4197807Y14084960D01*
X4200956Y14071752D01*
X4205884Y14059052D01*
X4212386Y14047114D01*
X4220464Y14036192D01*
X4229912Y14026388D01*
X4240580Y14017955D01*
X4252315Y14011046D01*
X4264812Y14005712D01*
X4277969Y14002105D01*
G37*
G36*
X2767431Y14000327D02*
G01*
X2781046Y14000327D01*
X2794508Y14002105D01*
X2807614Y14005712D01*
X2820162Y14011046D01*
X2831846Y14017955D01*
X2842564Y14026388D01*
X2852013Y14036192D01*
X2860090Y14047114D01*
X2866593Y14059052D01*
X2871470Y14071752D01*
X2874670Y14084960D01*
X2875991Y14098524D01*
X2875534Y14112087D01*
X2873298Y14125498D01*
X2869285Y14138503D01*
X2863545Y14150848D01*
X2856230Y14162328D01*
X2847441Y14172692D01*
X2837332Y14181836D01*
X2826105Y14189557D01*
X2813964Y14195653D01*
X2801112Y14200124D01*
X2787802Y14202816D01*
X2774238Y14203730D01*
X2760675Y14202816D01*
X2747314Y14200124D01*
X2734462Y14195653D01*
X2722321Y14189557D01*
X2711145Y14181836D01*
X2701036Y14172692D01*
X2692247Y14162328D01*
X2684932Y14150848D01*
X2679192Y14138503D01*
X2675178Y14125498D01*
X2672892Y14112087D01*
X2672435Y14098524D01*
X2673807Y14084960D01*
X2676956Y14071752D01*
X2681884Y14059052D01*
X2688386Y14047114D01*
X2696464Y14036192D01*
X2705912Y14026388D01*
X2716580Y14017955D01*
X2728315Y14011046D01*
X2740812Y14005712D01*
X2753969Y14002105D01*
G37*
G36*
X5274462Y12873939D02*
G01*
X5321401Y12873939D01*
X5321401Y12920827D01*
X5316880Y12918744D01*
X5305450Y12911429D01*
X5295036Y12902641D01*
X5285892Y12892582D01*
X5278221Y12881356D01*
G37*

%LPD*%
D12*
X487426Y13329666D02*
G01*
X487426Y13466826D01*
X774700Y13754100D01*
X774700Y14097000D01*
X6578600Y13143108D02*
G01*
X6578600Y13677900D01*
X6400800Y13855700D01*
X5734377Y13855700D01*
X6282690Y13092937D02*
G01*
X6282690Y13427710D01*
X6118859Y13591539D01*
X5619750Y13591539D01*
X5365747Y13591537D02*
G01*
X5060190Y13897099D01*
X5060190Y14101826D01*
X5619747Y13591537D02*
G01*
X5568190Y13643099D01*
X5568190Y14101826D01*
X5180070Y11166345D02*
G01*
X5538213Y11166345D01*
X5914897Y10789668D01*
X3852920Y10967468D02*
G01*
X4051805Y11166345D01*
X5180070Y11166345D01*
X6138920Y10789668D02*
G01*
X5914897Y10789668D01*
X6392920Y10789668D02*
G01*
X6392920Y10710163D01*
X6283706Y10600941D01*
X5743447Y10600941D01*
X5376920Y10967468D01*
X6392920Y11043668D02*
G01*
X6392920Y10789668D01*
X6392920Y11043668D02*
G01*
X6392920Y11297668D01*
X5365747Y12829537D02*
G01*
X5619747Y13083537D01*
X5619747Y13591537D01*
X4603747Y12829537D02*
G01*
X4780020Y12653263D01*
X5189733Y12653263D01*
X5365747Y12829537D01*
X4095747Y13591537D02*
G01*
X4603747Y13083537D01*
X4603747Y12829537D01*
X6138920Y11043668D02*
G01*
X5914897Y11043668D01*
D11*
X487426Y13329668D02*
G01*
X487426Y11792968D01*
X1312926Y10967468D01*
X1312926Y10967468D02*
G01*
X1683514Y10596879D01*
X1958340Y10596879D01*
X2328920Y10967468D01*
X3344920Y10967468D02*
G01*
X2974340Y10596879D01*
X2699501Y10596879D01*
X2328920Y10967468D01*
D12*
X5914897Y11043665D02*
G01*
X5914897Y11713210D01*
X5565393Y12062713D01*
X2288286Y12062713D01*
X1828800Y12522200D01*
X1828800Y13525500D01*
X2019300Y13716000D01*
X2390393Y13716000D01*
X2395220Y13720826D01*
X4349750Y12829539D02*
G01*
X3822700Y13356589D01*
X3822700Y13539777D01*
X1758190Y14019529D02*
G01*
X1758190Y14101826D01*
X5180075Y11166347D02*
G01*
X5180075Y10877295D01*
X5612891Y10444226D01*
X6379718Y10444226D01*
X6578091Y10642600D01*
X6578091Y11514581D01*
X5600191Y12492736D01*
X4055363Y12492736D01*
X3683000Y12865100D01*
X2832100Y12865100D01*
X2728483Y12968716D01*
X6138925Y11297665D02*
G01*
X6138925Y11715495D01*
X5518150Y12336271D01*
X2433827Y12336271D01*
X2108200Y12661900D01*
X2108200Y13157200D01*
X2184400Y13233400D01*
X3015234Y13233400D01*
X3502659Y13720826D01*
X774700Y14097000D02*
G01*
X1753311Y14097000D01*
X1758238Y14101927D01*
X4095750Y13591539D02*
G01*
X3768090Y13919200D01*
X1858518Y13919200D01*
X1758187Y14019529D01*
D16*
G01*
X-102158Y14097025D03*
G01*
X-356158Y14097025D03*
G36*
X181698Y14182001D02*
G01*
X351701Y14182001D01*
X351701Y14011998D01*
X181698Y14011998D01*
G37*
D18*
G01*
X520700Y14097000D03*
G01*
X774700Y14097000D03*
D19*
G01*
X1758238Y11815927D03*
G01*
X2012238Y11815927D03*
G01*
X2266238Y11815927D03*
G01*
X2520238Y11815927D03*
G01*
X2774238Y11815927D03*
G01*
X3028238Y11815927D03*
G01*
X3282238Y11815927D03*
G01*
X3536238Y11815927D03*
G01*
X3790238Y11815927D03*
G01*
X4044238Y11815927D03*
G01*
X4298238Y11815927D03*
G01*
X4552238Y11815927D03*
G01*
X4806238Y11815927D03*
G01*
X5060238Y11815927D03*
G01*
X5314238Y11815927D03*
G01*
X5568238Y11815927D03*
G01*
X1758238Y14101927D03*
G01*
X2012238Y14101927D03*
G01*
X2266238Y14101927D03*
G01*
X2520238Y14101927D03*
G01*
X2774238Y14101927D03*
G01*
X3028238Y14101927D03*
G01*
X3282238Y14101927D03*
G01*
X3536238Y14101927D03*
G01*
X3790238Y14101927D03*
G01*
X4044238Y14101927D03*
G01*
X4298238Y14101927D03*
G01*
X4552238Y14101927D03*
G01*
X4806238Y14101927D03*
G01*
X5060238Y14101927D03*
G01*
X5314238Y14101927D03*
G01*
X5568238Y14101927D03*
D20*
G01*
X3852925Y10967465D03*
G01*
X4360925Y10967465D03*
G01*
X2836925Y10967465D03*
G01*
X3344925Y10967465D03*
G01*
X1820926Y10967465D03*
G01*
X2328925Y10967465D03*
G01*
X4868925Y10967465D03*
G01*
X5376925Y10967465D03*
G01*
X804926Y10967465D03*
G01*
X1312926Y10967465D03*
D19*
G01*
X-20573Y13329666D03*
G01*
X487426Y13329666D03*
G01*
X5619851Y13591489D03*
G01*
X4857851Y13591489D03*
G01*
X5111851Y13591489D03*
G01*
X5365851Y13591489D03*
G01*
X4857851Y12829489D03*
G01*
X5619851Y12829489D03*
G01*
X5365851Y12829489D03*
G01*
X5111851Y12829489D03*
G01*
X4603851Y13591489D03*
G01*
X4349826Y13591489D03*
G01*
X4095826Y13591489D03*
G01*
X4095826Y12829489D03*
G01*
X4603851Y12829489D03*
G01*
X4349826Y12829489D03*
D21*
G01*
X6282791Y13092912D03*
G01*
X6282791Y12584912D03*
D22*
G01*
X6138925Y11297665D03*
G01*
X6392925Y11297665D03*
G01*
X6138925Y11043665D03*
G01*
X6392925Y11043665D03*
G01*
X6138925Y10789665D03*
G01*
X6392925Y10789665D03*
D19*
G01*
X3502710Y12690779D03*
G01*
X3502710Y13720800D03*
G01*
X2395169Y12690779D03*
G01*
X2395169Y13720800D03*
G01*
X2943428Y12686080D03*
G01*
X2943428Y13716101D03*
D14*
G01*
X6578600Y13143103D03*
G01*
X5734380Y13855700D03*
G01*
X3822700Y13539774D03*
G01*
X2728493Y12968706D03*
D15*
G01*
X-164693Y13734745D03*
G01*
X375310Y13464768D03*
G01*
X375310Y13194766D03*
G01*
X375310Y12924764D03*
G01*
X375310Y12654762D03*
G01*
X375310Y12384760D03*
G01*
X375310Y12114758D03*
G01*
X645312Y13464768D03*
G01*
X645312Y13194766D03*
G01*
X645312Y12924764D03*
G01*
X645312Y12654762D03*
G01*
X645312Y12384760D03*
G01*
X645312Y12114758D03*
G01*
X645312Y11844756D03*
G01*
X1995297Y11574754D03*
G01*
X2805302Y11574754D03*
G01*
X3075304Y11574754D03*
G01*
X-492048Y13477849D03*
G01*
X-492048Y13207847D03*
G01*
X-492048Y12937845D03*
G01*
X-492048Y12667843D03*
G01*
X-492048Y11857837D03*
G01*
X-492048Y11587835D03*
G01*
X-492048Y11317833D03*
G01*
X-492048Y10507853D03*
G01*
X-222046Y11587835D03*
G01*
X-222046Y11317833D03*
G01*
X-222046Y10507853D03*
G01*
X47955Y11317833D03*
G01*
X47955Y10507853D03*
G01*
X317957Y10507853D03*
G01*
X587959Y10507853D03*
G01*
X857961Y10507853D03*
G01*
X1127963Y14017853D03*
G01*
X1127963Y11047856D03*
G01*
X1127963Y10777854D03*
G01*
X1127963Y10507853D03*
G01*
X1397965Y14017853D03*
G01*
X1397965Y10777854D03*
G01*
X1397965Y10507853D03*
G01*
X1667967Y10507853D03*
G01*
X1937943Y10507853D03*
G01*
X2207945Y14287855D03*
G01*
X2207945Y13477849D03*
G01*
X2207945Y10777854D03*
G01*
X2207945Y10507853D03*
G01*
X2477947Y14287855D03*
G01*
X2477947Y13477849D03*
G01*
X2477947Y12937845D03*
G01*
X2477947Y10777854D03*
G01*
X2477947Y10507853D03*
G01*
X2747949Y14287855D03*
G01*
X2747949Y13747851D03*
G01*
X2747949Y12667843D03*
G01*
X2747949Y10507853D03*
G01*
X3017951Y14287855D03*
G01*
X3017951Y13477849D03*
G01*
X3017951Y10507853D03*
G01*
X3287953Y14287855D03*
G01*
X3287953Y13747851D03*
G01*
X3287953Y12667843D03*
G01*
X3287953Y10777854D03*
G01*
X3287953Y10507853D03*
G01*
X3557955Y14287855D03*
G01*
X3557955Y13477849D03*
G01*
X3557955Y11317833D03*
G01*
X3557955Y11047856D03*
G01*
X3557955Y10777854D03*
G01*
X3557955Y10507853D03*
G01*
X3827957Y11317833D03*
G01*
X3827957Y10777854D03*
G01*
X3827957Y10507853D03*
G01*
X4097959Y11317833D03*
G01*
X4097959Y10777854D03*
G01*
X4097959Y10507853D03*
G01*
X4367961Y12667843D03*
G01*
X4367961Y11317833D03*
G01*
X4367961Y10507853D03*
G01*
X4637963Y12667843D03*
G01*
X4637963Y11317833D03*
G01*
X4637963Y10507853D03*
G01*
X4907965Y12667843D03*
G01*
X4907965Y11317833D03*
G01*
X4907965Y10507853D03*
G01*
X5177967Y13207847D03*
G01*
X5177967Y12667843D03*
G01*
X5177967Y10507853D03*
G01*
X5447944Y12667843D03*
G01*
X5717946Y13207847D03*
G01*
X5987948Y14287855D03*
G01*
X5987948Y13477849D03*
G01*
X5987948Y13207847D03*
G01*
X5987948Y12937845D03*
G01*
X6257950Y14287855D03*
G01*
X6257950Y14017853D03*
G01*
X6257950Y13477849D03*
G01*
X6257950Y12397841D03*
G01*
X6257950Y12127839D03*
G01*
X6527952Y14287855D03*
G01*
X6527952Y14017853D03*
G01*
X6527952Y12397841D03*
G01*
X6527952Y12127839D03*
G01*
X6527952Y11857837D03*
D23*
X-279679Y10880166D02*
G01*
X-279679Y11080165D01*
X60705Y10880166D02*
G01*
X60705Y11080165D01*
X-279679Y12226366D02*
G01*
X-279679Y12426365D01*
X60705Y12226366D02*
G01*
X60705Y12426365D01*
M02*
