G04 Layer: BottomSolderMaskLayer*
G04 EasyEDA v6.4.20.6, 2021-07-29T22:43:28+02:00*
G04 24e0db9a2a824a908a71db8b70acd879,4245c91a3b6e4cf7aa995480f5c7e4a3,10*
G04 Gerber Generator version 0.2*
G04 Scale: 100 percent, Rotated: No, Reflected: No *
G04 Dimensions in millimeters *
G04 leading zeros omitted , absolute positions ,4 integer and 5 decimal *
%FSLAX45Y45*%
%MOMM*%

%ADD31C,2.2032*%
%ADD32C,2.1336*%
%ADD33C,2.1344*%
%ADD35C,1.9040*%
%ADD36C,1.7272*%
%ADD37C,2.2352*%
%ADD38C,1.8796*%
%ADD40C,1.6256*%

%LPD*%
D31*
X-279679Y10880166D02*
G01*
X-279679Y11080165D01*
X60705Y10880166D02*
G01*
X60705Y11080165D01*
X-279679Y12226366D02*
G01*
X-279679Y12426365D01*
X60705Y12226366D02*
G01*
X60705Y12426365D01*
D32*
G01*
X-102158Y14097025D03*
D33*
G01*
X-356158Y14097025D03*
G36*
X176529Y14006829D02*
G01*
X176529Y14187170D01*
X356870Y14187170D01*
X356870Y14006829D01*
G37*
D35*
G01*
X520700Y14097000D03*
G01*
X774700Y14097000D03*
D36*
G01*
X1758238Y11815927D03*
G01*
X2012238Y11815927D03*
G01*
X2266238Y11815927D03*
G01*
X2520238Y11815927D03*
G01*
X2774238Y11815927D03*
G01*
X3028238Y11815927D03*
G01*
X3282238Y11815927D03*
G01*
X3536238Y11815927D03*
G01*
X3790238Y11815927D03*
G01*
X4044238Y11815927D03*
G01*
X4298238Y11815927D03*
G01*
X4552238Y11815927D03*
G01*
X4806238Y11815927D03*
G01*
X5060238Y11815927D03*
G01*
X5314238Y11815927D03*
G01*
X5568238Y11815927D03*
G01*
X1758238Y14101927D03*
G01*
X2012238Y14101927D03*
G01*
X2266238Y14101927D03*
G01*
X2520238Y14101927D03*
G01*
X2774238Y14101927D03*
G01*
X3028238Y14101927D03*
G01*
X3282238Y14101927D03*
G01*
X3536238Y14101927D03*
G01*
X3790238Y14101927D03*
G01*
X4044238Y14101927D03*
G01*
X4298238Y14101927D03*
G01*
X4552238Y14101927D03*
G01*
X4806238Y14101927D03*
G01*
X5060238Y14101927D03*
G01*
X5314238Y14101927D03*
G01*
X5568238Y14101927D03*
D37*
G01*
X3852925Y10967465D03*
G01*
X4360925Y10967465D03*
G01*
X2836925Y10967465D03*
G01*
X3344925Y10967465D03*
G01*
X1820926Y10967465D03*
G01*
X2328925Y10967465D03*
G01*
X4868925Y10967465D03*
G01*
X5376925Y10967465D03*
G01*
X804926Y10967465D03*
G01*
X1312926Y10967465D03*
D36*
G01*
X-20573Y13329666D03*
G01*
X487426Y13329666D03*
G01*
X5619851Y13591489D03*
G01*
X4857851Y13591489D03*
G01*
X5111851Y13591489D03*
G01*
X5365851Y13591489D03*
G01*
X4857851Y12829489D03*
G01*
X5619851Y12829489D03*
G01*
X5365851Y12829489D03*
G01*
X5111851Y12829489D03*
G01*
X4603851Y13591489D03*
G01*
X4349826Y13591489D03*
G01*
X4095826Y13591489D03*
G01*
X4095826Y12829489D03*
G01*
X4603851Y12829489D03*
G01*
X4349826Y12829489D03*
D38*
G01*
X6282791Y13092912D03*
G01*
X6282791Y12584912D03*
G36*
X6034786Y11193526D02*
G01*
X6034786Y11401805D01*
X6243065Y11401805D01*
X6243065Y11193526D01*
G37*
G36*
X6288786Y11193526D02*
G01*
X6288786Y11401805D01*
X6497065Y11401805D01*
X6497065Y11193526D01*
G37*
G36*
X6034786Y10939526D02*
G01*
X6034786Y11147805D01*
X6243065Y11147805D01*
X6243065Y10939526D01*
G37*
G36*
X6288786Y10939526D02*
G01*
X6288786Y11147805D01*
X6497065Y11147805D01*
X6497065Y10939526D01*
G37*
G36*
X6034786Y10685526D02*
G01*
X6034786Y10893805D01*
X6243065Y10893805D01*
X6243065Y10685526D01*
G37*
G36*
X6288786Y10685526D02*
G01*
X6288786Y10893805D01*
X6497065Y10893805D01*
X6497065Y10685526D01*
G37*
D40*
G01*
X3502710Y12690779D03*
G01*
X3502710Y13720800D03*
G01*
X2395169Y12690779D03*
G01*
X2395169Y13720800D03*
G01*
X2943428Y12686080D03*
G01*
X2943428Y13716101D03*
M02*
