G04 Layer: BottomSilkLayer*
G04 EasyEDA v6.4.20.6, 2021-07-29T22:43:28+02:00*
G04 24e0db9a2a824a908a71db8b70acd879,4245c91a3b6e4cf7aa995480f5c7e4a3,10*
G04 Gerber Generator version 0.2*
G04 Scale: 100 percent, Rotated: No, Reflected: No *
G04 Dimensions in millimeters *
G04 leading zeros omitted , absolute positions ,4 integer and 5 decimal *
%FSLAX45Y45*%
%MOMM*%

%ADD26C,0.2030*%
%ADD28C,0.1540*%
%ADD29C,0.3500*%
%ADD30C,0.3000*%

%LPD*%
G36*
X6056020Y12267946D02*
G01*
X6056020Y12167920D01*
X6606031Y12167920D01*
X6606031Y11567922D01*
X6156045Y11567922D01*
X6156045Y12167920D01*
X6056020Y12167920D01*
X6056020Y11967921D01*
X6006033Y11967921D01*
X6006033Y12017908D01*
X5956046Y12017908D01*
X5956046Y12067946D01*
X5906008Y12067946D01*
X5906008Y11667947D01*
X5956046Y11667947D01*
X5956046Y11717934D01*
X6006033Y11717934D01*
X6006033Y11767921D01*
X6056020Y11767921D01*
X6056020Y11467947D01*
X6706006Y11467947D01*
X6706006Y12267946D01*
G37*
G36*
X6206032Y12017908D02*
G01*
X6206032Y11917934D01*
X6556044Y11917934D01*
X6556044Y12017908D01*
G37*
G36*
X6206032Y11817959D02*
G01*
X6206032Y11717934D01*
X6556044Y11717934D01*
X6556044Y11817959D01*
G37*
G36*
X6108446Y12590780D02*
G01*
X6101384Y12590576D01*
X6094526Y12590068D01*
X6087872Y12589205D01*
X6081471Y12587986D01*
X6075222Y12586462D01*
X6069228Y12584582D01*
X6063488Y12582448D01*
X6057950Y12580010D01*
X6052616Y12577267D01*
X6047536Y12574270D01*
X6042710Y12570968D01*
X6038088Y12567462D01*
X6033770Y12563703D01*
X6029655Y12559690D01*
X6025845Y12555474D01*
X6022238Y12551003D01*
X6018936Y12546380D01*
X6015888Y12541554D01*
X6013094Y12536525D01*
X6010605Y12531293D01*
X6008420Y12525959D01*
X6006439Y12520422D01*
X6004814Y12514783D01*
X6003442Y12508941D01*
X6002375Y12503048D01*
X6001613Y12497003D01*
X6001156Y12490856D01*
X6001004Y12484608D01*
X6011926Y12484608D01*
X6012078Y12490145D01*
X6012484Y12495580D01*
X6013196Y12500914D01*
X6014161Y12506147D01*
X6016904Y12516205D01*
X6018682Y12521031D01*
X6020714Y12525705D01*
X6025489Y12534595D01*
X6031280Y12542875D01*
X6037986Y12550343D01*
X6041694Y12553797D01*
X6045606Y12557048D01*
X6054090Y12562941D01*
X6058662Y12565481D01*
X6063437Y12567818D01*
X6068415Y12569952D01*
X6073546Y12571780D01*
X6078931Y12573355D01*
X6084468Y12574676D01*
X6090208Y12575692D01*
X6096101Y12576454D01*
X6102197Y12576911D01*
X6108446Y12577064D01*
X6114694Y12576911D01*
X6120739Y12576454D01*
X6126632Y12575692D01*
X6132322Y12574676D01*
X6137808Y12573355D01*
X6143142Y12571780D01*
X6148273Y12569952D01*
X6153200Y12567818D01*
X6157925Y12565481D01*
X6162446Y12562941D01*
X6166764Y12560096D01*
X6170879Y12557048D01*
X6174740Y12553797D01*
X6178397Y12550343D01*
X6181852Y12546685D01*
X6185052Y12542875D01*
X6188049Y12538811D01*
X6190792Y12534595D01*
X6193282Y12530226D01*
X6197549Y12521031D01*
X6199276Y12516205D01*
X6200749Y12511227D01*
X6201968Y12506147D01*
X6202934Y12500914D01*
X6203645Y12495580D01*
X6204051Y12490145D01*
X6204204Y12484608D01*
X6204051Y12479070D01*
X6203645Y12473584D01*
X6202984Y12468250D01*
X6202019Y12463018D01*
X6200800Y12457887D01*
X6199327Y12452908D01*
X6197600Y12448032D01*
X6195618Y12443358D01*
X6193383Y12438786D01*
X6188202Y12430201D01*
X6182055Y12422276D01*
X6178600Y12418618D01*
X6174943Y12415164D01*
X6171082Y12411913D01*
X6166967Y12408865D01*
X6162700Y12406071D01*
X6158179Y12403480D01*
X6148476Y12399010D01*
X6143345Y12397181D01*
X6138011Y12395606D01*
X6132474Y12394285D01*
X6126734Y12393269D01*
X6120841Y12392507D01*
X6114745Y12392050D01*
X6108446Y12391898D01*
X6102096Y12392050D01*
X6095949Y12392507D01*
X6090005Y12393269D01*
X6084214Y12394285D01*
X6078626Y12395606D01*
X6073241Y12397181D01*
X6068060Y12399010D01*
X6063081Y12401143D01*
X6058306Y12403480D01*
X6049416Y12408865D01*
X6045301Y12411913D01*
X6041390Y12415164D01*
X6037681Y12418618D01*
X6031026Y12426137D01*
X6025337Y12434417D01*
X6022848Y12438786D01*
X6020562Y12443358D01*
X6018580Y12448032D01*
X6015329Y12457887D01*
X6014110Y12463018D01*
X6013145Y12468250D01*
X6012484Y12473584D01*
X6012078Y12479070D01*
X6011926Y12484608D01*
X6001004Y12484608D01*
X6001156Y12478359D01*
X6001613Y12472162D01*
X6002375Y12466116D01*
X6003442Y12460173D01*
X6004814Y12454331D01*
X6006439Y12448641D01*
X6010605Y12437719D01*
X6013094Y12432538D01*
X6015888Y12427508D01*
X6018936Y12422632D01*
X6022238Y12417958D01*
X6029655Y12409271D01*
X6038088Y12401499D01*
X6042710Y12397994D01*
X6047536Y12394692D01*
X6052616Y12391694D01*
X6057950Y12388951D01*
X6063488Y12386513D01*
X6069228Y12384379D01*
X6075222Y12382500D01*
X6081471Y12380976D01*
X6087872Y12379756D01*
X6094526Y12378893D01*
X6101384Y12378385D01*
X6108446Y12378182D01*
X6115456Y12378385D01*
X6122314Y12378893D01*
X6128918Y12379756D01*
X6135319Y12380976D01*
X6141466Y12382500D01*
X6147409Y12384379D01*
X6153150Y12386513D01*
X6158636Y12388951D01*
X6163919Y12391694D01*
X6168948Y12394692D01*
X6173724Y12397994D01*
X6178296Y12401499D01*
X6182563Y12405309D01*
X6186627Y12409322D01*
X6190386Y12413538D01*
X6193942Y12417958D01*
X6197193Y12422632D01*
X6200190Y12427508D01*
X6202934Y12432538D01*
X6205423Y12437719D01*
X6207607Y12443104D01*
X6209487Y12448641D01*
X6211112Y12454331D01*
X6212484Y12460173D01*
X6213500Y12466116D01*
X6214262Y12472162D01*
X6214719Y12478359D01*
X6214872Y12484608D01*
X6214719Y12490856D01*
X6214262Y12497003D01*
X6213500Y12503048D01*
X6212484Y12508941D01*
X6211112Y12514783D01*
X6209487Y12520422D01*
X6207607Y12525959D01*
X6205423Y12531293D01*
X6202934Y12536525D01*
X6200190Y12541554D01*
X6197193Y12546380D01*
X6193942Y12551003D01*
X6190386Y12555474D01*
X6186627Y12559690D01*
X6182563Y12563703D01*
X6178296Y12567462D01*
X6173724Y12570968D01*
X6168948Y12574270D01*
X6163919Y12577267D01*
X6158636Y12580010D01*
X6153150Y12582448D01*
X6147409Y12584582D01*
X6141466Y12586462D01*
X6135319Y12587986D01*
X6128918Y12589205D01*
X6122314Y12590068D01*
X6115456Y12590576D01*
G37*
G36*
X6084062Y12526518D02*
G01*
X6054598Y12525756D01*
X6050838Y12517221D01*
X6048197Y12508331D01*
X6046724Y12499086D01*
X6046216Y12489434D01*
X6046520Y12482880D01*
X6047384Y12476632D01*
X6048806Y12470688D01*
X6050737Y12465050D01*
X6053226Y12459766D01*
X6056172Y12454839D01*
X6059627Y12450267D01*
X6063538Y12446152D01*
X6067856Y12442393D01*
X6072581Y12439091D01*
X6077712Y12436246D01*
X6083198Y12433858D01*
X6089040Y12431979D01*
X6095187Y12430607D01*
X6101689Y12429794D01*
X6108446Y12429490D01*
X6115202Y12429794D01*
X6121654Y12430658D01*
X6127800Y12432080D01*
X6133693Y12434011D01*
X6139180Y12436500D01*
X6144361Y12439396D01*
X6149136Y12442799D01*
X6153556Y12446609D01*
X6157468Y12450826D01*
X6160973Y12455398D01*
X6164021Y12460325D01*
X6166510Y12465608D01*
X6168542Y12471146D01*
X6169964Y12476988D01*
X6170879Y12483134D01*
X6171184Y12489434D01*
X6170777Y12499035D01*
X6169355Y12507569D01*
X6166662Y12515697D01*
X6162548Y12523978D01*
X6133084Y12524740D01*
X6133084Y12512802D01*
X6157722Y12508230D01*
X6159144Y12504064D01*
X6160109Y12499949D01*
X6160617Y12495987D01*
X6160770Y12492228D01*
X6160414Y12486487D01*
X6159296Y12481052D01*
X6157417Y12475921D01*
X6154826Y12471095D01*
X6151524Y12466726D01*
X6147460Y12462764D01*
X6142736Y12459309D01*
X6137249Y12456363D01*
X6131102Y12454026D01*
X6124244Y12452248D01*
X6116675Y12451181D01*
X6108446Y12450826D01*
X6100419Y12451181D01*
X6093053Y12452197D01*
X6086348Y12453823D01*
X6080302Y12456058D01*
X6074918Y12458903D01*
X6070193Y12462256D01*
X6066180Y12466116D01*
X6062878Y12470485D01*
X6060236Y12475260D01*
X6058408Y12480442D01*
X6057239Y12486030D01*
X6056884Y12491974D01*
X6057036Y12495784D01*
X6057595Y12500203D01*
X6058611Y12504928D01*
X6060186Y12509754D01*
X6084062Y12514326D01*
G37*
D26*
X6698488Y10584113D02*
G01*
X6698488Y10469567D01*
X6698488Y10524114D02*
G01*
X6682125Y10540476D01*
X6671216Y10545930D01*
X6654850Y10545930D01*
X6643941Y10540476D01*
X6638488Y10524114D01*
X6638488Y10469567D01*
X6586123Y10584113D02*
G01*
X6586123Y10491386D01*
X6580670Y10475020D01*
X6569760Y10469567D01*
X6558851Y10469567D01*
X6602488Y10545930D02*
G01*
X6564307Y10545930D01*
X6506486Y10584113D02*
G01*
X6506486Y10491386D01*
X6501033Y10475020D01*
X6490124Y10469567D01*
X6479214Y10469567D01*
X6522852Y10545930D02*
G01*
X6484670Y10545930D01*
X6443215Y10545930D02*
G01*
X6443215Y10431386D01*
X6443215Y10529567D02*
G01*
X6432306Y10540476D01*
X6421396Y10545930D01*
X6405034Y10545930D01*
X6394124Y10540476D01*
X6383215Y10529567D01*
X6377759Y10513204D01*
X6377759Y10502295D01*
X6383215Y10485930D01*
X6394124Y10475020D01*
X6405034Y10469567D01*
X6421396Y10469567D01*
X6432306Y10475020D01*
X6443215Y10485930D01*
X6281760Y10529567D02*
G01*
X6287216Y10540476D01*
X6303578Y10545930D01*
X6319941Y10545930D01*
X6336306Y10540476D01*
X6341760Y10529567D01*
X6336306Y10518658D01*
X6325397Y10513204D01*
X6298125Y10507748D01*
X6287216Y10502295D01*
X6281760Y10491386D01*
X6281760Y10485930D01*
X6287216Y10475020D01*
X6303578Y10469567D01*
X6319941Y10469567D01*
X6336306Y10475020D01*
X6341760Y10485930D01*
X6240305Y10535020D02*
G01*
X6245760Y10529567D01*
X6240305Y10524114D01*
X6234851Y10529567D01*
X6240305Y10535020D01*
X6240305Y10496839D02*
G01*
X6245760Y10491386D01*
X6240305Y10485930D01*
X6234851Y10491386D01*
X6240305Y10496839D01*
X6100671Y10605930D02*
G01*
X6198852Y10431386D01*
X5966487Y10605930D02*
G01*
X6064669Y10431386D01*
X5865032Y10545930D02*
G01*
X5865032Y10458658D01*
X5870488Y10442295D01*
X5875942Y10436839D01*
X5886851Y10431386D01*
X5903216Y10431386D01*
X5914123Y10436839D01*
X5865032Y10529567D02*
G01*
X5875942Y10540476D01*
X5886851Y10545930D01*
X5903216Y10545930D01*
X5914123Y10540476D01*
X5925032Y10529567D01*
X5930488Y10513204D01*
X5930488Y10502295D01*
X5925032Y10485930D01*
X5914123Y10475020D01*
X5903216Y10469567D01*
X5886851Y10469567D01*
X5875942Y10475020D01*
X5865032Y10485930D01*
X5829033Y10584113D02*
G01*
X5823579Y10578658D01*
X5818124Y10584113D01*
X5823579Y10589567D01*
X5829033Y10584113D01*
X5823579Y10545930D02*
G01*
X5823579Y10469567D01*
X5765761Y10584113D02*
G01*
X5765761Y10491386D01*
X5760305Y10475020D01*
X5749396Y10469567D01*
X5738487Y10469567D01*
X5782124Y10545930D02*
G01*
X5743943Y10545930D01*
X5702487Y10584113D02*
G01*
X5702487Y10469567D01*
X5702487Y10524114D02*
G01*
X5686125Y10540476D01*
X5675215Y10545930D01*
X5658850Y10545930D01*
X5647941Y10540476D01*
X5642488Y10524114D01*
X5642488Y10469567D01*
X5606488Y10545930D02*
G01*
X5606488Y10491386D01*
X5601032Y10475020D01*
X5590123Y10469567D01*
X5573760Y10469567D01*
X5562851Y10475020D01*
X5546488Y10491386D01*
X5546488Y10545930D02*
G01*
X5546488Y10469567D01*
X5510486Y10584113D02*
G01*
X5510486Y10469567D01*
X5510486Y10529567D02*
G01*
X5499580Y10540476D01*
X5488670Y10545930D01*
X5472305Y10545930D01*
X5461396Y10540476D01*
X5450486Y10529567D01*
X5445033Y10513204D01*
X5445033Y10502295D01*
X5450486Y10485930D01*
X5461396Y10475020D01*
X5472305Y10469567D01*
X5488670Y10469567D01*
X5499580Y10475020D01*
X5510486Y10485930D01*
X5403578Y10496839D02*
G01*
X5409034Y10491386D01*
X5403578Y10485930D01*
X5398124Y10491386D01*
X5403578Y10496839D01*
X5296669Y10529567D02*
G01*
X5307578Y10540476D01*
X5318488Y10545930D01*
X5334850Y10545930D01*
X5345760Y10540476D01*
X5356669Y10529567D01*
X5362125Y10513204D01*
X5362125Y10502295D01*
X5356669Y10485930D01*
X5345760Y10475020D01*
X5334850Y10469567D01*
X5318488Y10469567D01*
X5307578Y10475020D01*
X5296669Y10485930D01*
X5233398Y10545930D02*
G01*
X5244304Y10540476D01*
X5255214Y10529567D01*
X5260670Y10513204D01*
X5260670Y10502295D01*
X5255214Y10485930D01*
X5244304Y10475020D01*
X5233398Y10469567D01*
X5217033Y10469567D01*
X5206123Y10475020D01*
X5195214Y10485930D01*
X5189761Y10502295D01*
X5189761Y10513204D01*
X5195214Y10529567D01*
X5206123Y10540476D01*
X5217033Y10545930D01*
X5233398Y10545930D01*
X5153761Y10545930D02*
G01*
X5153761Y10469567D01*
X5153761Y10524114D02*
G01*
X5137396Y10540476D01*
X5126487Y10545930D01*
X5110124Y10545930D01*
X5099215Y10540476D01*
X5093761Y10524114D01*
X5093761Y10469567D01*
X5093761Y10524114D02*
G01*
X5077396Y10540476D01*
X5066487Y10545930D01*
X5050124Y10545930D01*
X5039215Y10540476D01*
X5033761Y10524114D01*
X5033761Y10469567D01*
X4899578Y10605930D02*
G01*
X4997759Y10431386D01*
X4803579Y10529567D02*
G01*
X4809032Y10540476D01*
X4825398Y10545930D01*
X4841760Y10545930D01*
X4858123Y10540476D01*
X4863579Y10529567D01*
X4858123Y10518658D01*
X4847214Y10513204D01*
X4819942Y10507748D01*
X4809032Y10502295D01*
X4803579Y10491386D01*
X4803579Y10485930D01*
X4809032Y10475020D01*
X4825398Y10469567D01*
X4841760Y10469567D01*
X4858123Y10475020D01*
X4863579Y10485930D01*
X4767579Y10584113D02*
G01*
X4767579Y10469567D01*
X4767579Y10529567D02*
G01*
X4756670Y10540476D01*
X4745761Y10545930D01*
X4729396Y10545930D01*
X4718486Y10540476D01*
X4707580Y10529567D01*
X4702124Y10513204D01*
X4702124Y10502295D01*
X4707580Y10485930D01*
X4718486Y10475020D01*
X4729396Y10469567D01*
X4745761Y10469567D01*
X4756670Y10475020D01*
X4767579Y10485930D01*
X4666124Y10584113D02*
G01*
X4666124Y10469567D01*
X4564669Y10545930D02*
G01*
X4564669Y10469567D01*
X4564669Y10529567D02*
G01*
X4575578Y10540476D01*
X4586488Y10545930D01*
X4602850Y10545930D01*
X4613760Y10540476D01*
X4624669Y10529567D01*
X4630125Y10513204D01*
X4630125Y10502295D01*
X4624669Y10485930D01*
X4613760Y10475020D01*
X4602850Y10469567D01*
X4586488Y10469567D01*
X4575578Y10475020D01*
X4564669Y10485930D01*
X4528670Y10545930D02*
G01*
X4528670Y10469567D01*
X4528670Y10524114D02*
G01*
X4512304Y10540476D01*
X4501398Y10545930D01*
X4485032Y10545930D01*
X4474123Y10540476D01*
X4468670Y10524114D01*
X4468670Y10469567D01*
X4416305Y10584113D02*
G01*
X4416305Y10491386D01*
X4410852Y10475020D01*
X4399942Y10469567D01*
X4389033Y10469567D01*
X4432670Y10545930D02*
G01*
X4394487Y10545930D01*
X4353034Y10584113D02*
G01*
X4347578Y10578658D01*
X4342124Y10584113D01*
X4347578Y10589567D01*
X4353034Y10584113D01*
X4347578Y10545930D02*
G01*
X4347578Y10469567D01*
X4306125Y10545930D02*
G01*
X4306125Y10431386D01*
X4306125Y10529567D02*
G01*
X4295216Y10540476D01*
X4284306Y10545930D01*
X4267941Y10545930D01*
X4257032Y10540476D01*
X4246125Y10529567D01*
X4240669Y10513204D01*
X4240669Y10502295D01*
X4246125Y10485930D01*
X4257032Y10475020D01*
X4267941Y10469567D01*
X4284306Y10469567D01*
X4295216Y10475020D01*
X4306125Y10485930D01*
X4177398Y10545930D02*
G01*
X4188305Y10540476D01*
X4199214Y10529567D01*
X4204670Y10513204D01*
X4204670Y10502295D01*
X4199214Y10485930D01*
X4188305Y10475020D01*
X4177398Y10469567D01*
X4161033Y10469567D01*
X4150123Y10475020D01*
X4139214Y10485930D01*
X4133761Y10502295D01*
X4133761Y10513204D01*
X4139214Y10529567D01*
X4150123Y10540476D01*
X4161033Y10545930D01*
X4177398Y10545930D01*
X4032305Y10584113D02*
G01*
X4032305Y10469567D01*
X4032305Y10529567D02*
G01*
X4043215Y10540476D01*
X4054124Y10545930D01*
X4070487Y10545930D01*
X4081396Y10540476D01*
X4092305Y10529567D01*
X4097761Y10513204D01*
X4097761Y10502295D01*
X4092305Y10485930D01*
X4081396Y10475020D01*
X4070487Y10469567D01*
X4054124Y10469567D01*
X4043215Y10475020D01*
X4032305Y10485930D01*
X3996306Y10584113D02*
G01*
X3990850Y10578658D01*
X3985397Y10584113D01*
X3990850Y10589567D01*
X3996306Y10584113D01*
X3990850Y10545930D02*
G01*
X3990850Y10469567D01*
D29*
X6560121Y12395034D02*
G01*
X6388303Y12395034D01*
X6388303Y12395034D02*
G01*
X6388303Y12493216D01*
X6560121Y12547216D02*
G01*
X6437396Y12547216D01*
X6412849Y12555397D01*
X6396487Y12571763D01*
X6388303Y12596307D01*
X6388303Y12612672D01*
X6396487Y12637216D01*
X6412849Y12653581D01*
X6437396Y12661762D01*
X6560121Y12661762D01*
X6519212Y12838488D02*
G01*
X6535577Y12830307D01*
X6551940Y12813944D01*
X6560121Y12797579D01*
X6560121Y12764853D01*
X6551940Y12748488D01*
X6535577Y12732125D01*
X6519212Y12723944D01*
X6494668Y12715763D01*
X6453759Y12715763D01*
X6429212Y12723944D01*
X6412849Y12732125D01*
X6396487Y12748488D01*
X6388303Y12764853D01*
X6388303Y12797579D01*
X6396487Y12813944D01*
X6412849Y12830307D01*
X6429212Y12838488D01*
X6560121Y12892488D02*
G01*
X6388303Y12892488D01*
X6560121Y12946489D02*
G01*
X6388303Y12946489D01*
X6560121Y12946489D02*
G01*
X6560121Y13052854D01*
X6478303Y12946489D02*
G01*
X6478303Y13011945D01*
X6560121Y13106852D02*
G01*
X6388303Y13106852D01*
X6560121Y13106852D02*
G01*
X6560121Y13213217D01*
X6478303Y13106852D02*
G01*
X6478303Y13172307D01*
X6388303Y13106852D02*
G01*
X6388303Y13213217D01*
X6560121Y13267217D02*
G01*
X6388303Y13267217D01*
X6560121Y13267217D02*
G01*
X6560121Y13340852D01*
X6551940Y13365398D01*
X6543758Y13373580D01*
X6527396Y13381761D01*
X6511030Y13381761D01*
X6494668Y13373580D01*
X6486486Y13365398D01*
X6478303Y13340852D01*
X6478303Y13267217D01*
X6478303Y13324489D02*
G01*
X6388303Y13381761D01*
X6560121Y13435761D02*
G01*
X6388303Y13435761D01*
X6560121Y13489762D02*
G01*
X6388303Y13489762D01*
X6560121Y13489762D02*
G01*
X6388303Y13604308D01*
X6560121Y13604308D02*
G01*
X6388303Y13604308D01*
X1195704Y10606130D02*
G01*
X1195704Y10462948D01*
X1195704Y10606130D02*
G01*
X1147978Y10606130D01*
X1127523Y10599313D01*
X1113886Y10585676D01*
X1107069Y10572038D01*
X1100251Y10551584D01*
X1100251Y10517494D01*
X1107069Y10497040D01*
X1113886Y10483402D01*
X1127523Y10469765D01*
X1147978Y10462948D01*
X1195704Y10462948D01*
X1055250Y10606130D02*
G01*
X1055250Y10462948D01*
X1055250Y10606130D02*
G01*
X966614Y10606130D01*
X1055250Y10537949D02*
G01*
X1000706Y10537949D01*
X1055250Y10462948D02*
G01*
X966614Y10462948D01*
X921613Y10606130D02*
G01*
X867069Y10462948D01*
X812523Y10606130D02*
G01*
X867069Y10462948D01*
X662523Y10606130D02*
G01*
X662523Y10462948D01*
X662523Y10606130D02*
G01*
X601159Y10606130D01*
X580707Y10599313D01*
X573887Y10592493D01*
X567070Y10578858D01*
X567070Y10565221D01*
X573887Y10551584D01*
X580707Y10544766D01*
X601159Y10537949D01*
X662523Y10537949D02*
G01*
X601159Y10537949D01*
X580707Y10531129D01*
X573887Y10524312D01*
X567070Y10510674D01*
X567070Y10490220D01*
X573887Y10476585D01*
X580707Y10469765D01*
X601159Y10462948D01*
X662523Y10462948D01*
X481159Y10606130D02*
G01*
X494797Y10599313D01*
X508434Y10585676D01*
X515251Y10572038D01*
X522069Y10551584D01*
X522069Y10517494D01*
X515251Y10497040D01*
X508434Y10483402D01*
X494797Y10469765D01*
X481159Y10462948D01*
X453887Y10462948D01*
X440253Y10469765D01*
X426615Y10483402D01*
X419798Y10497040D01*
X412978Y10517494D01*
X412978Y10551584D01*
X419798Y10572038D01*
X426615Y10585676D01*
X440253Y10599313D01*
X453887Y10606130D01*
X481159Y10606130D01*
X313433Y10606130D02*
G01*
X367979Y10462948D01*
X313433Y10606130D02*
G01*
X258889Y10462948D01*
X347525Y10510674D02*
G01*
X279344Y10510674D01*
X213888Y10606130D02*
G01*
X213888Y10462948D01*
X213888Y10606130D02*
G01*
X152524Y10606130D01*
X132069Y10599313D01*
X125252Y10592493D01*
X118435Y10578858D01*
X118435Y10565221D01*
X125252Y10551584D01*
X132069Y10544766D01*
X152524Y10537949D01*
X213888Y10537949D01*
X166161Y10537949D02*
G01*
X118435Y10462948D01*
X73433Y10606130D02*
G01*
X73433Y10462948D01*
X73433Y10606130D02*
G01*
X25707Y10606130D01*
X5252Y10599313D01*
X-8384Y10585676D01*
X-15201Y10572038D01*
X-22019Y10551584D01*
X-22019Y10517494D01*
X-15201Y10497040D01*
X-8384Y10483402D01*
X5252Y10469765D01*
X25707Y10462948D01*
X73433Y10462948D01*
D28*
X-143987Y10562366D02*
G01*
X-136715Y10555094D01*
X-129443Y10544185D01*
X-122171Y10529638D01*
X-118534Y10511457D01*
X-118534Y10496910D01*
X-122171Y10478729D01*
X-129443Y10464185D01*
X-136715Y10453276D01*
X-143987Y10446001D01*
X-167987Y10547819D02*
G01*
X-197078Y10471457D01*
X-226171Y10547819D02*
G01*
X-197078Y10471457D01*
X-250169Y10533275D02*
G01*
X-257444Y10536910D01*
X-268353Y10547819D01*
X-268353Y10471457D01*
X-295988Y10489638D02*
G01*
X-292351Y10486003D01*
X-295988Y10482366D01*
X-299626Y10486003D01*
X-295988Y10489638D01*
X-345442Y10547819D02*
G01*
X-334533Y10544185D01*
X-327261Y10533275D01*
X-323623Y10515094D01*
X-323623Y10504185D01*
X-327261Y10486003D01*
X-334533Y10475094D01*
X-345442Y10471457D01*
X-352717Y10471457D01*
X-363623Y10475094D01*
X-370898Y10486003D01*
X-374533Y10504185D01*
X-374533Y10515094D01*
X-370898Y10533275D01*
X-363623Y10544185D01*
X-352717Y10547819D01*
X-345442Y10547819D01*
X-398533Y10562366D02*
G01*
X-405805Y10555094D01*
X-413080Y10544185D01*
X-420352Y10529638D01*
X-423989Y10511457D01*
X-423989Y10496910D01*
X-420352Y10478729D01*
X-413080Y10464185D01*
X-405805Y10453276D01*
X-398533Y10446001D01*
D30*
X6179667Y12747978D02*
G01*
X6036485Y12747978D01*
X6179667Y12747978D02*
G01*
X6179667Y12795704D01*
X6172850Y12816159D01*
X6159212Y12829796D01*
X6145575Y12836613D01*
X6125121Y12843431D01*
X6091031Y12843431D01*
X6070577Y12836613D01*
X6056939Y12829796D01*
X6043302Y12816159D01*
X6036485Y12795704D01*
X6036485Y12747978D01*
X6131940Y12970250D02*
G01*
X6036485Y12970250D01*
X6111486Y12970250D02*
G01*
X6125121Y12956613D01*
X6131940Y12942978D01*
X6131940Y12922524D01*
X6125121Y12908887D01*
X6111486Y12895249D01*
X6091031Y12888432D01*
X6077394Y12888432D01*
X6056939Y12895249D01*
X6043302Y12908887D01*
X6036485Y12922524D01*
X6036485Y12942978D01*
X6043302Y12956613D01*
X6056939Y12970250D01*
X6131940Y13015249D02*
G01*
X6036485Y13056158D01*
X6131940Y13097068D02*
G01*
X6036485Y13056158D01*
X6179667Y13142069D02*
G01*
X6172850Y13148886D01*
X6179667Y13155703D01*
X6186484Y13148886D01*
X6179667Y13142069D01*
X6131940Y13148886D02*
G01*
X6036485Y13148886D01*
X6179667Y13282523D02*
G01*
X6036485Y13282523D01*
X6111486Y13282523D02*
G01*
X6125121Y13268886D01*
X6131940Y13255249D01*
X6131940Y13234794D01*
X6125121Y13221159D01*
X6111486Y13207522D01*
X6091031Y13200705D01*
X6077394Y13200705D01*
X6056939Y13207522D01*
X6043302Y13221159D01*
X6036485Y13234794D01*
X6036485Y13255249D01*
X6043302Y13268886D01*
X6056939Y13282523D01*
X6091031Y13327522D02*
G01*
X6091031Y13409340D01*
X6104666Y13409340D01*
X6118303Y13402523D01*
X6125121Y13395703D01*
X6131940Y13382068D01*
X6131940Y13361614D01*
X6125121Y13347976D01*
X6111486Y13334339D01*
X6091031Y13327522D01*
X6077394Y13327522D01*
X6056939Y13334339D01*
X6043302Y13347976D01*
X6036485Y13361614D01*
X6036485Y13382068D01*
X6043302Y13395703D01*
X6056939Y13409340D01*
X6179667Y13559340D02*
G01*
X6036485Y13559340D01*
X6179667Y13559340D02*
G01*
X6179667Y13620704D01*
X6172850Y13641158D01*
X6166030Y13647976D01*
X6152395Y13654793D01*
X6131940Y13654793D01*
X6118303Y13647976D01*
X6111486Y13641158D01*
X6104666Y13620704D01*
X6104666Y13559340D01*
X6091031Y13699794D02*
G01*
X6091031Y13781613D01*
X6104666Y13781613D01*
X6118303Y13774793D01*
X6125121Y13767976D01*
X6131940Y13754338D01*
X6131940Y13733884D01*
X6125121Y13720249D01*
X6111486Y13706612D01*
X6091031Y13699794D01*
X6077394Y13699794D01*
X6056939Y13706612D01*
X6043302Y13720249D01*
X6036485Y13733884D01*
X6036485Y13754338D01*
X6043302Y13767976D01*
X6056939Y13781613D01*
X6131940Y13826611D02*
G01*
X6036485Y13826611D01*
X6091031Y13826611D02*
G01*
X6111486Y13833429D01*
X6125121Y13847066D01*
X6131940Y13860703D01*
X6131940Y13881158D01*
X6179667Y13926157D02*
G01*
X6172850Y13932976D01*
X6179667Y13939794D01*
X6186484Y13932976D01*
X6179667Y13926157D01*
X6131940Y13932976D02*
G01*
X6036485Y13932976D01*
X6131940Y13984792D02*
G01*
X6036485Y13984792D01*
X6104666Y13984792D02*
G01*
X6125121Y14005247D01*
X6131940Y14018884D01*
X6131940Y14039339D01*
X6125121Y14052976D01*
X6104666Y14059794D01*
X6036485Y14059794D01*
X6179667Y14104792D02*
G01*
X6172850Y14111612D01*
X6179667Y14118429D01*
X6186484Y14111612D01*
X6179667Y14104792D01*
X6131940Y14111612D02*
G01*
X6036485Y14111612D01*
M02*
