M48
METRIC,LZ,000.000
;FILE_FORMAT=3:3
;TYPE=PLATED
;Layer: PTH_Through
;EasyEDA v6.5.9, 2022-07-22 15:10:41
;7b4b3cc524da4ca09f73bc94dfdf97f7,4245c91a3b6e4cf7aa995480f5c7e4a3,10
;Gerber Generator version 0.2
;Holesize 1 = 0.351 mm
T01C0.351
;Holesize 2 = 0.400 mm
T02C0.400
;Holesize 3 = 0.901 mm
T03C0.901
;Holesize 4 = 1.016 mm
T04C1.016
%
G05
G90
T01
X010403Y186747
X010403Y184048
X010403Y181348
X013103Y189447
X013103Y186747
X013103Y184048
X013103Y181348
X015803Y189447
X015803Y186747
X018503Y189447
X018503Y184048
X018503Y181348
X021203Y186747
X021203Y184048
X021203Y181348
X023903Y189447
X023903Y186747
X023903Y184048
X026603Y189447
X026603Y186747
X026603Y184048
X032003Y189447
X032003Y186747
X032003Y184048
X037802Y196880
X037802Y177980
X037802Y175280
X040502Y194180
X040502Y183380
X040502Y180680
X040502Y177980
X040502Y175280
T02
X018046Y179914
X022352Y194691
X030099Y178689
T03
X011049Y192532G85X011049Y192532
X013589Y192532G85X013589Y192532
X016129Y192532G85X016129Y192532
X018669Y192532G85X018669Y192532
X021209Y192532G85X021209Y192532
X023749Y192532G85X023749Y192532
X026289Y192532G85X026289Y192532
X028829Y192532G85X028829Y192532
X031369Y192532G85X031369Y192532
X033909Y192532G85X033909Y192532
X011049Y177292G85X011049Y177292
X013589Y177292G85X013589Y177292
X016129Y177292G85X016129Y177292
X018669Y177292G85X018669Y177292
X021209Y177292G85X021209Y177292
X023749Y177292G85X023749Y177292
X026289Y177292G85X026289Y177292
X028829Y177292G85X028829Y177292
X031369Y177292G85X031369Y177292
X033909Y177292G85X033909Y177292
T04
X034036Y196342
X016256Y173482
X018796Y173482
X021336Y173482
X023876Y173482
X026416Y173482
X028956Y173482
X031496Y173482
X034036Y173482
X016256Y196342
X018796Y196342
X021336Y196342
X023876Y196342
X026416Y196342
X028956Y196342
X031496Y196342
M30
